<svg width="108" height="108" viewBox="0 0 108 108" fill="none" xmlns="http://www.w3.org/2000/svg">
<g clip-path="url(#clip0_105_360)">
<path fill-rule="evenodd" clip-rule="evenodd" d="M102.028 54C104.095 54 106.098 53.7225 108 53.2026C106.487 52.8837 104.919 52.7159 103.312 52.7159H76.6017C72.1899 52.7159 68.0729 51.4518 64.5943 49.266C65.3546 44.8144 67.453 40.5468 70.8896 37.1104L87.9611 20.0391C89.4229 18.5773 90.6422 16.9651 91.6202 15.2524C90.3247 16.0963 89.0973 17.0865 87.9611 18.223L69.0736 37.1104C65.954 40.2299 62.1491 42.247 58.144 43.1614C55.5336 39.4758 54 34.9742 54 30.1145V5.97202C54 3.90478 53.7225 1.90237 53.2026 0C52.8837 1.51238 52.7159 3.08052 52.7159 4.68784V31.3986C52.7159 35.8104 51.4518 39.927 49.2661 43.4059C44.8144 42.6453 40.5468 40.5467 37.1104 37.1103L20.0391 20.0391C18.5773 18.5773 16.9651 17.3576 15.2524 16.38C16.0963 17.675 17.0865 18.9025 18.223 20.0391L37.1104 38.9264C40.2299 42.0461 42.247 45.8508 43.1614 49.8562C39.4758 52.4662 34.9742 54 30.1145 54H5.97202C3.90477 54 1.90236 54.2776 0 54.7976C1.51239 55.1162 3.08053 55.2841 4.68786 55.2841H31.3986C35.8104 55.2841 39.927 56.5483 43.4059 58.7342C42.6453 63.1854 40.5468 67.453 37.1104 70.8896L20.0391 87.9611C18.5774 89.4229 17.3577 91.0348 16.3801 92.7477C17.6751 91.9037 18.9025 90.9133 20.0391 89.7772L38.9264 70.8896C42.046 67.77 45.8508 65.7531 49.8562 64.8383C52.4662 68.5244 54 73.0258 54 77.8858V102.028C54 104.095 54.2776 106.098 54.7976 108C55.1162 106.487 55.2841 104.919 55.2841 103.312V76.6012C55.2841 72.1894 56.5483 68.0729 58.7342 64.5943C63.1854 65.3546 67.453 67.453 70.8896 70.8896L87.9611 87.9611C89.4229 89.4229 91.0348 90.6422 92.7477 91.6202C91.9037 90.3247 90.9133 89.0973 89.7772 87.9611L70.8896 69.0736C67.77 65.954 65.7531 62.1491 64.8389 58.144C68.5244 55.5336 73.0258 54 77.8858 54H102.028Z" fill="#0E0606"/>
</g>
<defs>
<clipPath id="clip0_105_360">
<rect width="108" height="108" fill="white"/>
</clipPath>
</defs>
</svg>
