<svg width="88" height="88" viewBox="0 0 88 88" fill="none" xmlns="http://www.w3.org/2000/svg">
<g clip-path="url(#clip0_1_3516)">
<path d="M88.0004 73.3339C88.0004 81.4335 81.4333 88.0004 73.3339 88.0004C65.2337 88.0004 58.6674 81.4333 58.6674 73.3339C58.6674 65.2337 65.2337 58.6674 73.3339 58.6674C81.4335 58.6674 88.0004 65.2337 88.0004 73.3339ZM69.6674 38.5C69.6674 45.5879 63.9218 51.3335 56.8337 51.3335C49.7456 51.3335 44.0002 45.5879 44.0002 38.4998C44.0002 31.4125 49.7456 25.6663 56.8337 25.6663C63.9218 25.6663 69.6674 31.4127 69.6674 38.5ZM44 66C44 78.1503 34.1501 88.0004 21.9996 88.0004C9.85016 88.0004 0 78.1503 0 65.9998C0 53.8495 9.85016 44.0002 21.9996 44.0002C34.1501 44.0002 44.0002 53.8495 44.0002 65.9998L44 66ZM36.6678 18.3339C36.6678 28.4593 28.4593 36.6678 18.3339 36.6678C8.20854 36.6678 0 28.4593 0 18.3339C0 8.20853 8.20854 0 18.3339 0C28.4593 0 36.6678 8.20853 36.6678 18.3339ZM88.0004 11C88.0004 17.0751 83.0749 21.9996 76.9996 21.9996C70.9244 21.9996 65.9998 17.0751 65.9998 10.9998C66 4.92465 70.9244 0 77 0C83.0751 0 88.0006 4.92465 88.0006 11H88.0004ZM84.3328 47.6659C84.3328 49.691 82.6914 51.3326 80.6663 51.3326C78.6412 51.3326 76.9996 49.6912 76.9996 47.6659C76.9996 45.6416 78.6412 44.0002 80.6663 44.0002C82.6914 44.0002 84.3328 45.6416 84.3328 47.6659ZM56.8337 12.8335C56.8337 15.8716 54.3716 18.3339 51.3335 18.3339C48.2962 18.3339 45.8339 15.8716 45.8339 12.8335C45.8339 9.79645 48.296 7.33412 51.3335 7.33412C54.3714 7.33412 56.8337 9.79623 56.8337 12.8335Z" fill="white"/>
</g>
<defs>
<clipPath id="clip0_1_3516">
<rect width="88" height="88" fill="white"/>
</clipPath>
</defs>
</svg>
