<svg width="100" height="100" viewBox="0 0 100 100" fill="none" xmlns="http://www.w3.org/2000/svg">
<rect width="100" height="100" rx="12" fill="white"/>
<path d="M71.8975 20.8826H28.1025C22.523 20.8826 18 25.4056 18 30.9851V71.8976C18 77.477 22.523 82.0001 28.1025 82.0001H71.8975C77.477 82.0001 82 77.477 82 71.8976V30.9851C82 25.4056 77.477 20.8826 71.8975 20.8826Z" fill="#C9C9C9"/>
<path d="M71.8975 20.8826H28.1025C22.523 20.8826 18 25.4056 18 30.9851V68.0226C18 73.602 22.523 78.1251 28.1025 78.1251H71.8975C77.477 78.1251 82 73.602 82 68.0226V30.9851C82 25.4056 77.477 20.8826 71.8975 20.8826Z" fill="#E6E6E6"/>
<path d="M51.9775 44.2036L55.2236 50.7811L62.482 51.8358C64.2529 52.0929 64.9605 54.2694 63.6786 55.5187L58.4267 60.6385L59.6663 67.8677C59.969 69.6313 58.1174 70.9764 56.5335 70.1437L50.0419 66.7303L43.5497 70.1437C41.9657 70.9764 40.1142 69.6313 40.4169 67.8677L41.6565 60.6385L36.4045 55.5187C35.1226 54.2694 35.8303 52.0929 37.6012 51.8358L44.8596 50.7811L48.1057 44.2036C48.8974 42.5988 51.1858 42.5988 51.9775 44.2036Z" fill="#FFCB7C"/>
<path d="M82 30.9851V36.4851H18V30.9851C18 28.3057 19.0644 25.7361 20.959 23.8415C22.8535 21.9469 25.4232 20.8826 28.1025 20.8826H71.8975C74.5768 20.8826 77.1465 21.9469 79.041 23.8415C80.9356 25.7361 82 28.3057 82 30.9851Z" fill="#FF0000"/>
<path d="M32.7854 32.835C35.375 32.835 37.4742 30.7358 37.4742 28.1463C37.4742 25.5567 35.375 23.4575 32.7854 23.4575C30.1959 23.4575 28.0967 25.5567 28.0967 28.1463C28.0967 30.7358 30.1959 32.835 32.7854 32.835Z" fill="#D6D6D6"/>
<path d="M35.5941 20.8087C35.5941 19.2575 34.3365 18 32.7853 18C31.2341 18 29.9766 19.2575 29.9766 20.8087V27.8825C29.9766 29.4337 31.2341 30.6912 32.7853 30.6912C34.3365 30.6912 35.5941 29.4337 35.5941 27.8825V20.8087Z" fill="#565656"/>
<path d="M50.0003 32.835C52.5898 32.835 54.689 30.7358 54.689 28.1463C54.689 25.5567 52.5898 23.4575 50.0003 23.4575C47.4107 23.4575 45.3115 25.5567 45.3115 28.1463C45.3115 30.7358 47.4107 32.835 50.0003 32.835Z" fill="#D6D6D6"/>
<path d="M52.8089 20.8087C52.8089 19.2575 51.5514 18 50.0002 18C48.4489 18 47.1914 19.2575 47.1914 20.8087V27.8825C47.1914 29.4337 48.4489 30.6912 50.0002 30.6912C51.5514 30.6912 52.8089 29.4337 52.8089 27.8825V20.8087Z" fill="#565656"/>
<path d="M67.2151 32.835C69.8046 32.835 71.9039 30.7358 71.9039 28.1463C71.9039 25.5567 69.8046 23.4575 67.2151 23.4575C64.6256 23.4575 62.5264 25.5567 62.5264 28.1463C62.5264 30.7358 64.6256 32.835 67.2151 32.835Z" fill="#D6D6D6"/>
<path d="M70.0247 20.8087C70.0247 19.2575 68.7672 18 67.216 18C65.6647 18 64.4072 19.2575 64.4072 20.8087V27.8825C64.4072 29.4337 65.6647 30.6912 67.216 30.6912C68.7672 30.6912 70.0247 29.4337 70.0247 27.8825V20.8087Z" fill="#565656"/>
</svg>
