<svg width="100" height="100" viewBox="0 0 100 100" fill="none" xmlns="http://www.w3.org/2000/svg">
<rect width="100" height="100" rx="12" fill="white"/>
<path fill-rule="evenodd" clip-rule="evenodd" d="M53.7997 64.8185C53.5371 64.8185 53.312 64.7059 53.1995 64.5184H47.3847C46.972 65.1186 46.0342 64.8185 46.0342 64.0682V56.7903C46.0342 55.8525 47.3472 55.815 47.4973 56.6403H53.0494C53.1995 55.815 54.55 55.8525 54.55 56.7903V64.0682C54.55 64.4808 54.2124 64.8185 53.7997 64.8185Z" fill="#F9C861"/>
<path fill-rule="evenodd" clip-rule="evenodd" d="M53.5378 57.5406H47.0103C45.2846 57.5406 43.859 56.115 43.859 54.3518C43.859 53.0763 43.5589 51.6133 44.6093 51.6133C48.2482 51.6133 56.7265 51.3882 56.7265 52.3636V54.3518C56.7265 56.115 55.301 57.5406 53.5378 57.5406Z" fill="#F28C4C"/>
<path fill-rule="evenodd" clip-rule="evenodd" d="M61.4524 76.523C61.0397 76.523 38.3809 76.2229 38.3809 75.7727V66.5066C38.3809 64.7434 39.8064 63.3179 41.5696 63.3179H59.0139C60.7771 63.3179 62.2027 64.7434 62.2027 66.5066V75.7727C62.2027 76.1854 61.865 76.523 61.4524 76.523Z" fill="#F9C861"/>
<path fill-rule="evenodd" clip-rule="evenodd" d="M57.7014 76.523C57.2887 76.523 42.1328 76.7481 42.1328 75.7727V67.8196C42.1328 67.407 42.4704 67.0693 42.8831 67.0693H57.7014C58.1141 67.0693 58.4517 67.407 58.4517 67.8196V75.7727C58.4517 76.1854 58.1141 76.523 57.7014 76.523Z" fill="#F28C4C"/>
<path fill-rule="evenodd" clip-rule="evenodd" d="M65.7298 81.9999H34.8177C34.405 81.9999 34.0674 81.6623 34.0674 81.2497V78.1734C34.0674 76.4478 35.4929 75.0222 37.2561 75.0222H63.3288C65.0545 75.0222 66.48 76.4478 66.48 78.1734V81.2497C66.48 81.6623 66.1424 81.9999 65.7298 81.9999Z" fill="#F27744"/>
<path fill-rule="evenodd" clip-rule="evenodd" d="M64.0785 44.8983C63.7784 44.5231 63.8534 43.8854 64.4536 43.7353C71.6189 41.672 74.7326 36.6826 73.5322 30.6052H66.2919C65.3915 30.6052 65.3165 29.3297 66.1043 29.1421V27.3039C65.3165 27.1163 65.3915 25.8408 66.2919 25.8408H74.1324C79.7971 25.8408 78.8968 35.0694 77.5838 38.5958C75.4079 44.223 70.0433 47.8994 62.0527 49.0999C61.0773 49.2875 60.8147 47.7869 61.7901 47.6368C61.9777 47.5993 62.1652 47.5618 62.3528 47.5618L64.0785 44.8983Z" fill="#F28C4C"/>
<path fill-rule="evenodd" clip-rule="evenodd" d="M38.0434 47.5243C38.2685 47.5618 38.5311 47.5993 38.7562 47.6368C39.7315 47.7869 39.5064 49.25 38.5311 49.0999C30.5404 47.8994 25.1758 44.223 23 38.5958C21.6495 35.0694 20.7866 25.8408 26.4513 25.8408H34.2919C35.2298 25.8408 35.2673 27.2289 34.3669 27.3414V29.1421C35.2673 29.2171 35.2298 30.6052 34.2919 30.6052H27.0516C25.8511 36.6075 28.9648 41.747 36.1301 43.7353C36.6928 43.8854 36.8054 44.5231 36.5053 44.8983L38.0434 47.5243Z" fill="#F28C4C"/>
<path fill-rule="evenodd" clip-rule="evenodd" d="M50.2735 54.1638C41.0449 54.1638 33.542 46.6608 33.542 37.3947V23.1016C33.542 22.2013 34.78 22.1263 35.0051 22.8766H65.5795C65.8046 22.1263 67.0426 22.2013 67.0426 23.1016V37.3947C67.0426 46.6608 59.5396 54.1638 50.2735 54.1638Z" fill="#F9C861"/>
<path fill-rule="evenodd" clip-rule="evenodd" d="M67.8294 23.8523H32.7532C32.3406 23.8523 32.0029 23.5147 32.0029 23.102V18.7503C32.0029 18.3376 32.3406 18 32.7532 18H67.8294C68.2046 18 68.5797 18.3376 68.5797 18.7503V23.102C68.5797 23.5147 68.2421 23.8523 67.8294 23.8523Z" fill="#F28C4C"/>
<path fill-rule="evenodd" clip-rule="evenodd" d="M55.1501 43.8476C54.6999 43.8476 50.9484 41.5592 50.2731 41.1841L45.8089 43.7726C45.2462 44.0727 44.5709 43.585 44.6835 42.9473L45.7714 37.8828L41.9449 34.4314C41.4572 34.0188 41.7198 33.1935 42.3576 33.1184L47.4971 32.5932L49.5979 27.8664C49.8605 27.3037 50.7233 27.3037 50.9859 27.8664L53.0867 32.5932L58.1887 33.1184C58.8265 33.1935 59.1266 34.0188 58.6389 34.4314L54.7749 37.8828L55.8628 42.9473C55.9754 43.435 55.6002 43.8476 55.1501 43.8476Z" fill="#F28C4C"/>
</svg>
