<svg width="100" height="100" viewBox="0 0 100 100" fill="none" xmlns="http://www.w3.org/2000/svg">
<rect width="100" height="100" rx="12" fill="white"/>
<path d="M53.7927 78.4155C69.3714 78.4155 82.0005 65.7865 82.0005 50.2077C82.0005 34.629 69.3714 22 53.7927 22C38.214 22 25.585 34.629 25.585 50.2077C25.585 65.7865 38.214 78.4155 53.7927 78.4155Z" fill="#FF9F41"/>
<path d="M28.8799 23.7532V23.7533C28.8799 24.7218 29.665 25.5068 30.6334 25.5068H52.7004C53.6688 25.5068 54.4539 24.7218 54.4539 23.7533V23.7532C54.4539 22.7848 53.6688 21.9997 52.7004 21.9997H30.6334C29.665 21.9997 28.8799 22.7848 28.8799 23.7532Z" fill="#FF9F41"/>
<path d="M18 36.6482V36.6484C18 37.6168 18.7851 38.4019 19.7535 38.4019H30.624C31.5924 38.4019 32.3775 37.6168 32.3775 36.6484V36.6482C32.3775 35.6798 31.5924 34.8947 30.624 34.8947H19.7535C18.7851 34.8947 18 35.6798 18 36.6482Z" fill="#FF9F41"/>
<path d="M22.0771 23.7539V23.7541C22.0771 24.7225 22.8622 25.5076 23.8306 25.5076H23.8308C24.7992 25.5076 25.5843 24.7225 25.5843 23.7541V23.7539C25.5843 22.7855 24.7992 22.0004 23.8308 22.0004H23.8306C22.8622 22.0004 22.0771 22.7855 22.0771 23.7539Z" fill="#FF9F41"/>
<path d="M20.2305 50.2058V50.206C20.2305 51.1744 21.0155 51.9595 21.984 51.9595H32.8545C33.8229 51.9595 34.608 51.1744 34.608 50.206V50.2058C34.608 49.2374 33.8229 48.4523 32.8545 48.4523H21.984C21.0155 48.4523 20.2305 49.2374 20.2305 50.2058Z" fill="#FF9F41"/>
<path d="M77.2457 54.0083C79.3463 41.0504 70.5447 28.8431 57.5868 26.7425C44.6289 24.6419 32.4216 33.4435 30.321 46.4014C28.2204 59.3593 37.022 71.5666 49.9799 73.6672C62.9378 75.7678 75.1451 66.9662 77.2457 54.0083Z" fill="#E05353"/>
<path d="M53.7922 70.0865C42.8314 70.0865 33.9141 61.1688 33.9141 50.2078C33.9141 39.2468 42.8314 30.3293 53.7922 30.3293C64.7529 30.3293 73.6708 39.247 73.6708 50.2078C73.6708 61.1687 64.7532 70.0865 53.7922 70.0865Z" fill="#FFF4F6"/>
<path d="M53.8791 36.6484H53.7052C53.2019 36.6484 52.7939 37.0564 52.7939 37.5597V50.2948C52.7939 50.7981 53.2019 51.2061 53.7052 51.2061H53.8791C54.3823 51.2061 54.7903 50.7981 54.7903 50.2948V37.5597C54.7903 37.0564 54.3823 36.6484 53.8791 36.6484Z" fill="#4F1968"/>
<path d="M61.3666 58.0062L61.4895 57.8833C61.8453 57.5275 61.8453 56.9506 61.4895 56.5948L54.481 49.5862C54.1251 49.2304 53.5483 49.2304 53.1925 49.5862L53.0695 49.7091C52.7137 50.0649 52.7137 50.6418 53.0695 50.9976L60.0781 58.0062C60.4339 58.362 61.0108 58.362 61.3666 58.0062Z" fill="#4F1968"/>
<path d="M74.9382 51.0934H70.91C70.6746 51.0934 70.4488 50.9999 70.2824 50.8334C70.116 50.667 70.0225 50.4412 70.0225 50.2059C70.0225 49.9705 70.116 49.7447 70.2824 49.5783C70.4488 49.4119 70.6746 49.3184 70.91 49.3184H74.9382C75.1736 49.3184 75.3993 49.4119 75.5658 49.5783C75.7322 49.7447 75.8257 49.9705 75.8257 50.2059C75.8257 50.4412 75.7322 50.667 75.5658 50.8334C75.3993 50.9999 75.1736 51.0934 74.9382 51.0934Z" fill="#4F1968"/>
<path d="M36.6748 51.0934H32.5398C32.3045 51.0934 32.0787 50.9999 31.9123 50.8334C31.7458 50.667 31.6523 50.4412 31.6523 50.2059C31.6523 49.9705 31.7458 49.7447 31.9123 49.5783C32.0787 49.4119 32.3045 49.3184 32.5398 49.3184H36.6748C36.9102 49.3184 37.136 49.4119 37.3024 49.5783C37.4688 49.7447 37.5623 49.9705 37.5623 50.2059C37.5623 50.4412 37.4688 50.667 37.3024 50.8334C37.136 50.9999 36.9102 51.0934 36.6748 51.0934Z" fill="#4F1968"/>
<path d="M53.7361 72.2952C53.5008 72.2952 53.275 72.2017 53.1086 72.0353C52.9421 71.8688 52.8486 71.6431 52.8486 71.4077V67.326C52.8486 67.0906 52.9421 66.8649 53.1086 66.6984C53.275 66.532 53.5008 66.4385 53.7361 66.4385C53.9715 66.4385 54.1973 66.532 54.3637 66.6984C54.5301 66.8649 54.6236 67.0906 54.6236 67.326V71.4077C54.6236 71.6431 54.5301 71.8688 54.3637 72.0353C54.1973 72.2017 53.9715 72.2952 53.7361 72.2952Z" fill="#4F1968"/>
<path d="M53.7361 33.978C53.5008 33.978 53.275 33.8845 53.1086 33.718C52.9421 33.5516 52.8486 33.3258 52.8486 33.0905V29.0091C52.8486 28.7737 52.9421 28.548 53.1086 28.3815C53.275 28.2151 53.5008 28.1216 53.7361 28.1216C53.9715 28.1216 54.1973 28.2151 54.3637 28.3815C54.5301 28.548 54.6236 28.7737 54.6236 29.0091V33.0906C54.6236 33.3259 54.5301 33.5516 54.3636 33.7181C54.1972 33.8845 53.9715 33.978 53.7361 33.978Z" fill="#4F1968"/>
<path d="M38.7472 66.0842C38.5718 66.0841 38.4004 66.032 38.2545 65.9345C38.1087 65.837 37.995 65.6985 37.9279 65.5364C37.8608 65.3743 37.8432 65.196 37.8773 65.0239C37.9115 64.8518 37.9959 64.6938 38.1199 64.5696L41.0391 61.6504C41.207 61.4916 41.4302 61.4046 41.6613 61.4078C41.8924 61.411 42.1131 61.5043 42.2765 61.6677C42.4399 61.8311 42.5331 62.0518 42.5363 62.2828C42.5395 62.5139 42.4525 62.7371 42.2937 62.905L39.3749 65.8242C39.2926 65.9068 39.1947 65.9723 39.087 66.017C38.9793 66.0616 38.8638 66.0845 38.7472 66.0842Z" fill="#4F1968"/>
<path d="M65.8615 38.9686C65.6861 38.9685 65.5146 38.9164 65.3687 38.8189C65.2229 38.7213 65.1093 38.5828 65.0421 38.4207C64.975 38.2586 64.9574 38.0802 64.9916 37.9082C65.0258 37.7361 65.1102 37.578 65.2342 37.4539L68.1002 34.5879C68.2681 34.4291 68.4914 34.3421 68.7224 34.3453C68.9535 34.3485 69.1742 34.4418 69.3376 34.6052C69.501 34.7686 69.5942 34.9893 69.5974 35.2203C69.6007 35.4514 69.5136 35.6746 69.3549 35.8425L66.4889 38.7085C66.4066 38.7911 66.3088 38.8566 66.2012 38.9012C66.0935 38.9459 65.9781 38.9688 65.8615 38.9686Z" fill="#4F1968"/>
<path d="M41.665 39.0218C41.5484 39.022 41.433 38.9991 41.3254 38.9544C41.2177 38.9098 41.12 38.8443 41.0377 38.7617L38.1185 35.8425C38.0331 35.7608 37.9649 35.6629 37.9179 35.5544C37.8709 35.446 37.8461 35.3292 37.8448 35.2111C37.8435 35.0929 37.8658 34.9756 37.9105 34.8662C37.9551 34.7568 38.0212 34.6574 38.1048 34.5738C38.1883 34.4903 38.2878 34.4242 38.3972 34.3796C38.5067 34.335 38.6239 34.3127 38.7421 34.314C38.8603 34.3153 38.977 34.3402 39.0854 34.3873C39.1938 34.4343 39.2918 34.5025 39.3735 34.5879L42.2924 37.5077C42.4163 37.6318 42.5007 37.7899 42.5349 37.962C42.569 38.134 42.5515 38.3124 42.4843 38.4744C42.4172 38.6365 42.3035 38.775 42.1577 38.8726C42.0119 38.9701 41.8404 39.0222 41.665 39.0223V39.0218Z" fill="#4F1968"/>
<path d="M68.7275 66.0843C68.611 66.0844 68.4956 66.0615 68.388 66.0169C68.2803 65.9723 68.1825 65.9069 68.1003 65.8244L65.2343 62.9581C65.0731 62.7907 64.9841 62.5667 64.9864 62.3343C64.9886 62.102 65.0819 61.8797 65.2461 61.7154C65.4104 61.551 65.6326 61.4577 65.865 61.4554C66.0973 61.4531 66.3214 61.542 66.4889 61.703L69.3549 64.5689C69.4789 64.693 69.5634 64.8511 69.5976 65.0232C69.6318 65.1953 69.6142 65.3737 69.5471 65.5358C69.48 65.698 69.3663 65.8365 69.2204 65.9341C69.0745 66.0316 68.903 66.0837 68.7275 66.0838V66.0843Z" fill="#4F1968"/>
<path d="M82.0005 50.2074C82.0005 65.7867 69.372 78.4151 53.7927 78.4151C46.8197 78.4257 40.092 75.8426 34.918 71.1679C39.5091 74.1854 44.8849 75.7892 50.3788 75.7804C65.9581 75.7804 78.5866 63.1519 78.5866 47.5727C78.5917 43.6191 77.7631 39.7088 76.1548 36.097C74.5465 32.4853 72.1948 29.2532 69.253 26.6118C73.1708 29.1762 76.3879 32.6763 78.6135 36.796C80.8391 40.9157 82.0032 45.525 82.0005 50.2074Z" fill="#FF8641"/>
<path d="M55.4437 50.474C55.5924 49.557 54.9695 48.693 54.0524 48.5444C53.1353 48.3957 52.2714 49.0186 52.1227 49.9357C51.974 50.8528 52.5969 51.7167 53.514 51.8654C54.4311 52.014 55.295 51.3911 55.4437 50.474Z" fill="#B250B5"/>
</svg>
