<svg width="64" height="64" viewBox="0 0 64 64" fill="none" xmlns="http://www.w3.org/2000/svg">
<path d="M4 42C4 38.134 7.13401 35 11 35C14.866 35 18 38.134 18 42V52C18 55.866 14.866 59 11 59C7.13401 59 4 55.866 4 52V42Z" fill="#FA1228"/>
<path d="M60 42C60 38.134 56.866 35 53 35C49.134 35 46 38.134 46 42V52C46 55.866 49.134 59 53 59C56.866 59 60 55.866 60 52V42Z" fill="#FA1228"/>
<path fill-rule="evenodd" clip-rule="evenodd" d="M32 2C15.4315 2 2 15.4315 2 32V52C2 56.9706 6.02944 61 11 61C15.9706 61 20 56.9706 20 52V42C20 37.0294 15.9706 33 11 33C9.14985 33 7.4301 33.5583 6 34.5155V32C6 17.6406 17.6406 6 32 6C46.3594 6 58 17.6406 58 32V34.5155C56.5699 33.5583 54.8501 33 53 33C48.0294 33 44 37.0294 44 42V52C44 56.9706 48.0294 61 53 61C57.9706 61 62 56.9706 62 52V32C62 15.4315 48.5685 2 32 2ZM53 37C55.7614 37 58 39.2386 58 42V52C58 54.7614 55.7614 57 53 57C50.2386 57 48 54.7614 48 52V42C48 39.2386 50.2386 37 53 37ZM6 42V52C6 54.7614 8.23858 57 11 57C13.7614 57 16 54.7614 16 52V42C16 39.2386 13.7614 37 11 37C8.23858 37 6 39.2386 6 42Z" fill="white"/>
<path d="M34 34C34 32.8954 33.1046 32 32 32C30.8954 32 30 32.8954 30 34V60C30 61.1046 30.8954 62 32 62C33.1046 62 34 61.1046 34 60V34Z" fill="white"/>
<path d="M38 38C39.1046 38 40 38.8954 40 40V54C40 55.1046 39.1046 56 38 56C36.8954 56 36 55.1046 36 54V40C36 38.8954 36.8954 38 38 38Z" fill="white"/>
<path d="M28 40C28 38.8954 27.1046 38 26 38C24.8954 38 24 38.8954 24 40V54C24 55.1046 24.8954 56 26 56C27.1046 56 28 55.1046 28 54V40Z" fill="white"/>
</svg>
