<svg width="583" height="171" viewBox="0 0 583 171" fill="none" xmlns="http://www.w3.org/2000/svg">
<path d="M581.408 164.28C560.422 143.153 560.835 105.288 542.352 99.2981C535.417 97.2875 532.547 97.4947 526.99 91.3861C520.948 84.1702 517.904 76.3019 510.778 63.175C502.636 48.804 496.809 43.8739 481.462 50.1492C477.553 51.8002 476.078 52.5369 473.503 52.5475C460.036 50.325 458.471 -3.83283 452.648 1.77633C447.53 18.0183 446.184 76.4249 440.84 78.4952C438.617 76.0698 438.876 74.4051 435.385 66.4679C420.623 38.0464 414.039 138.214 402.735 144.487C398.814 144.479 396.655 135.284 395.376 130.801C388.058 102.898 388.323 97.2517 380.062 94.024C371.751 91.0119 371.436 90.657 364.826 91.3521C359.362 91.9253 355.389 92.0771 350.131 90.4029C334.31 84.6602 324.002 63.1772 311.133 65.1053C308.36 65.7739 307.517 66.4372 303.878 68.2895C293.419 73.2196 290.109 66.5815 282.005 81.9481C278.509 89.0293 266.86 117.719 256.712 116.77C250.189 115.146 246.835 107.1 241.298 108.984C231.861 114.853 228.096 154.627 221.343 152.937C216.843 148.275 215.024 131.006 209.609 109.653C207.672 102.823 207.05 100.672 201.905 90.1598C190.01 66.291 191.806 83.4266 178.717 53.8443C177.173 50.5829 176.737 49.6255 175.089 48.0397C168.539 45.9128 167.926 79.8003 162.392 80.2682C158.45 76.3893 157.914 66.0205 153.322 63.8743C147.297 64.5714 144.722 87.5226 137.914 103.411C131.927 115.087 129.19 104.171 122.542 96.9202C116.293 91.0603 99.4755 86.0747 93.463 85.3231C87.1195 84.9084 85.8021 88.4047 78.9513 89.6285C73.3306 90.3268 69.4048 88.8621 63.5433 88.774C47.8232 89.1564 38.4241 109.52 26.3479 84.763C20.226 71.345 17.7971 61.8013 11.8367 65.6422C8.48029 68.6445 7.88536 70.7709 0.953125 80.9514" stroke="#C02B8B" stroke-width="1.5" stroke-linecap="round" stroke-linejoin="round"/>
<path d="M581.408 163.63C564.643 143.608 562.763 117.573 549.663 108.835C534.323 99.511 519.928 100.057 509.76 97.3127C492.14 92.133 488.439 79.1354 468.871 50.4566C461.381 39.6969 458.56 37.6165 453.418 61.2952C449.586 80.7832 448.671 89.1081 445.418 101.84C440.985 116.195 440.702 107.486 430.74 127.288C422.684 143.732 419.491 152.175 414.527 158.135C402.759 169.895 399.671 131.526 391.909 113.391C388.417 106.887 386.562 107.685 376.615 102.753C372.592 100.621 372.038 99.8021 369.179 98.5452C363.478 96.7437 361.333 101.577 354.668 102.685C341.781 103.585 338.686 81.2179 323.831 79.7008C308.714 78.8538 306.257 87.0163 293.901 87.464C283.011 87.4717 281.337 84.1938 271.741 98.6417C262.711 112.311 264.096 107.197 256.716 121.522C252.418 129.705 249.278 135.323 242.204 130.26C235.991 125.26 233.07 120.059 227.642 132.32C219.879 152.525 217.358 175.302 211.367 168.901C202.862 154.084 202.18 106.217 188.694 99.9458C182.971 98.0715 180.496 101.295 174.182 97.1725C163.915 89.3425 158.72 70.5754 151.457 87.2588C144.236 107.245 141.832 134.08 135.18 133.988C132.338 132.45 131.064 128.704 127.413 119.629C122.182 107.259 121.839 108.845 102.851 102.301C88.5076 97.1513 90.1309 91.7013 80.7657 96.685C66.3633 104.001 61.5658 82.7596 50.8359 90.5087C45.0857 95.3907 43.0164 100.526 36.3245 96.6937C30.2455 92.6598 27.5365 88.3155 21.7874 93.4383C18.7071 96.7104 17.6834 98.8573 13.831 104.319C8.52778 111.287 6.48875 109.694 0.953125 103.454" stroke="#9C35B2" stroke-width="1.5" stroke-linecap="round" stroke-linejoin="round"/>
<path d="M581.408 140.929C568.359 133.271 567.403 138.726 548.683 132.186C544.105 130.444 542.936 129.423 540.538 126.254C531.636 112.688 534.804 109.084 517.708 106.774C513.551 106.251 512.166 106.159 508.96 105.656C497.69 103.657 493.868 98.4709 486.175 103.962C480.304 108.876 478.163 115.417 471.664 118.92C466.349 121.247 463.641 119.483 457.152 120.14C453.707 120.63 453.276 121.021 449.897 121.66C438.527 123.197 436.971 107.79 428.13 109.668C422.852 111.738 414.869 124.52 411.856 129.271C396.62 154.224 391.51 186.221 380.968 159.341C373.666 138.49 371.972 117.825 365.554 109.927C361.632 106.306 357.428 106.576 349.232 102.905C337.319 97.2141 329.518 87.1996 318.389 89.3145C311.768 91.0002 309.507 94.5217 303.878 89.165C297.4 82.1563 295.124 75.1866 289.366 92.2164C282.103 114.886 282.272 105.157 274.855 111.815C261.498 126.197 256.54 175.083 243.111 163.282C230.384 149.768 224.806 113.126 210.461 107.5C200.054 104.243 186.892 116.732 151.901 101.188C144.02 97.7522 143.243 98.5809 136.093 95.9632C129.845 93.5486 124.438 90.3805 117.991 87.6336C100.261 80.4349 96.23 87.8243 79.9795 83.9919C62.5349 79.7897 61.0075 85.0577 48.327 104.751C35.7248 124.18 33.1597 139.253 25.4152 129.862C22.0582 124.97 21.1466 121.801 17.4488 115.412C12.9762 108.642 11.913 110.563 0.953125 106.281" stroke="#24A9FA" stroke-width="1.5" stroke-linecap="round" stroke-linejoin="round"/>
</svg>
