<svg width="1494" height="436" viewBox="0 0 1494 436" fill="none" xmlns="http://www.w3.org/2000/svg">
<g opacity="0.24">
<path d="M1492.72 419.667C1438.79 365.373 1439.85 268.063 1392.35 252.67C1374.53 247.503 1367.16 248.035 1352.87 232.337C1337.35 213.792 1329.52 193.571 1311.21 159.836C1290.29 122.904 1275.31 110.234 1235.87 126.361C1225.83 130.604 1222.03 132.497 1215.42 132.524C1180.81 126.813 1176.79 -12.3687 1161.82 2.04645C1148.67 43.787 1145.21 193.888 1131.48 199.208C1125.76 192.975 1126.43 188.697 1117.46 168.299C1079.52 95.2576 1062.6 352.68 1033.55 368.802C1023.47 368.781 1017.92 345.152 1014.64 333.629C995.829 261.921 996.511 247.411 975.282 239.116C953.923 231.375 953.113 230.463 936.125 232.249C922.084 233.722 911.872 234.113 898.36 229.81C857.703 215.052 831.211 159.842 798.139 164.797C791.013 166.515 788.846 168.22 779.493 172.98C752.616 185.65 744.109 168.591 723.281 208.082C714.298 226.28 684.36 300.009 658.282 297.571C641.516 293.397 632.899 272.72 618.669 277.561C594.416 292.644 584.741 394.861 567.384 390.518C555.821 378.536 551.145 334.157 537.229 279.28C532.251 261.727 530.653 256.2 517.431 229.185C486.861 167.844 491.478 211.881 457.84 135.857C453.871 127.475 452.751 125.015 448.516 120.94C431.682 115.474 430.107 202.562 415.886 203.765C405.755 193.796 404.379 167.149 392.577 161.633C377.093 163.425 370.475 222.408 352.979 263.24C337.593 293.247 330.559 265.193 313.473 246.559C297.414 231.499 254.195 218.687 238.743 216.755C222.441 215.69 219.055 224.675 201.449 227.82C187.004 229.614 176.915 225.85 161.852 225.624C121.452 226.607 97.2975 278.94 66.2626 215.316C50.5299 180.833 44.2878 156.306 28.9698 166.177C20.3442 173.892 18.8153 179.357 1 205.52" stroke="#C02B8B" stroke-width="1.5" stroke-linecap="round" stroke-linejoin="round"/>
<path d="M1492.72 417.999C1449.64 366.542 1444.81 299.636 1411.14 277.18C1371.72 253.217 1334.73 254.62 1308.59 247.568C1263.31 234.256 1253.8 200.854 1203.51 127.151C1184.26 99.4995 1177.01 94.1531 1163.8 155.006C1153.95 205.088 1151.6 226.483 1143.24 259.202C1131.85 296.093 1131.12 273.712 1105.52 324.603C1084.82 366.863 1076.61 388.559 1063.85 403.878C1033.61 434.1 1025.67 335.495 1005.73 288.888C996.753 272.172 991.986 274.224 966.422 261.549C956.083 256.071 954.659 253.965 947.312 250.735C932.66 246.105 927.148 258.527 910.019 261.374C876.902 263.688 868.947 206.205 830.771 202.306C791.923 200.13 785.606 221.107 753.854 222.257C725.867 222.277 721.564 213.853 696.904 250.983C673.698 286.113 677.256 272.97 658.29 309.783C647.246 330.813 639.175 345.25 620.997 332.239C605.03 319.391 597.524 306.024 583.572 337.535C563.624 389.46 557.145 447.995 541.748 431.543C519.891 393.466 518.139 270.452 483.479 254.335C468.772 249.518 462.412 257.802 446.184 247.207C419.799 227.085 406.449 178.855 387.783 221.73C369.226 273.093 363.049 342.056 345.952 341.82C338.649 337.867 335.374 328.241 325.993 304.918C312.549 273.129 311.666 277.204 262.87 260.387C226.008 247.153 230.18 233.147 206.112 245.955C169.099 264.757 156.77 210.167 129.195 230.082C114.417 242.628 109.099 255.825 91.9018 245.977C76.2792 235.61 69.3172 224.446 54.5424 237.611C46.6264 246.02 43.9955 251.537 34.0952 265.573C20.4663 283.48 15.2261 279.386 1 263.352" stroke="#9C35B2" stroke-width="1.5" stroke-linecap="round" stroke-linejoin="round"/>
<path d="M1492.72 359.659C1459.19 339.978 1456.73 353.996 1408.62 337.189C1396.86 332.714 1393.85 330.088 1387.69 321.946C1364.81 287.082 1372.95 277.82 1329.02 271.882C1318.34 270.537 1314.78 270.302 1306.54 269.009C1277.57 263.873 1267.75 250.544 1247.98 264.656C1232.9 277.284 1227.39 294.095 1210.69 303.097C1197.03 309.076 1190.07 304.543 1173.4 306.233C1164.54 307.491 1163.43 308.497 1154.75 310.138C1125.53 314.09 1121.53 274.493 1098.81 279.319C1085.25 284.638 1064.73 317.488 1056.99 329.698C1017.83 393.825 1004.7 476.054 977.608 406.975C958.843 353.389 954.49 300.282 937.997 279.985C927.917 270.679 917.112 271.374 896.05 261.94C865.435 247.314 845.385 221.578 816.786 227.013C799.771 231.345 793.959 240.395 779.493 226.629C762.847 208.617 756.997 190.705 742.2 234.471C723.534 292.73 723.967 267.727 704.907 284.837C670.58 321.798 657.838 447.432 623.328 417.103C590.621 382.374 576.285 288.207 539.419 273.748C512.673 265.378 478.848 297.475 388.924 257.527C368.671 248.697 366.675 250.827 348.299 244.1C332.241 237.894 318.348 229.753 301.779 222.693C256.213 204.193 245.854 223.183 204.092 213.334C159.26 202.535 155.335 216.073 122.747 266.685C90.3606 316.615 83.7683 355.351 63.8657 331.217C55.2383 318.644 52.8958 310.501 43.3925 294.083C31.8984 276.682 29.166 281.621 1 270.616" stroke="#24A9FA" stroke-width="1.5" stroke-linecap="round" stroke-linejoin="round"/>
</g>
</svg>
