<svg width="1482" height="432" viewBox="0 0 1482 432" fill="none" xmlns="http://www.w3.org/2000/svg">
<g opacity="0.24">
<path d="M1481 416.377C1427.49 362.509 1428.55 265.964 1381.42 250.692C1363.74 245.565 1356.42 246.094 1342.25 230.519C1326.84 212.12 1319.08 192.058 1300.91 158.588C1280.15 121.946 1265.3 109.376 1226.16 125.376C1216.2 129.585 1212.44 131.464 1205.87 131.491C1171.54 125.824 1167.55 -12.2636 1152.7 2.03823C1139.65 43.4507 1136.22 192.372 1122.59 197.65C1116.92 191.466 1117.58 187.222 1108.68 166.984C1071.04 94.5168 1054.25 349.916 1025.43 365.911C1015.43 365.89 1009.93 342.447 1006.67 331.015C988.011 259.87 988.687 245.474 967.624 237.244C946.434 229.564 945.63 228.659 928.776 230.432C914.844 231.893 904.713 232.28 891.308 228.012C850.97 213.369 824.686 158.594 791.874 163.51C784.804 165.214 782.654 166.906 773.374 171.629C746.709 184.199 738.269 167.274 717.604 206.454C708.692 224.509 678.989 297.659 653.116 295.24C636.482 291.099 627.932 270.584 613.814 275.387C589.752 290.352 580.153 391.765 562.933 387.457C551.461 375.569 546.821 331.538 533.015 277.093C528.076 259.678 526.49 254.194 513.373 227.392C483.043 166.533 487.623 210.224 454.249 134.797C450.312 126.481 449.201 124.041 444.999 119.997C428.297 114.574 426.734 200.978 412.625 202.171C402.574 192.281 401.208 165.843 389.499 160.371C374.138 162.149 367.571 220.668 350.213 261.179C334.948 290.95 327.969 263.116 311.017 244.629C295.084 229.688 252.205 216.976 236.875 215.059C220.701 214.002 217.341 222.917 199.874 226.037C185.543 227.818 175.533 224.083 160.588 223.858C120.506 224.833 96.5406 276.755 65.7497 213.631C50.1406 179.419 43.9476 155.085 28.75 164.879C20.1922 172.534 18.6753 177.955 1 203.913" stroke="#C02B8B" stroke-width="1.5" stroke-linecap="round" stroke-linejoin="round"/>
<path d="M1481 414.721C1438.25 363.668 1433.46 297.287 1400.06 275.008C1360.95 251.234 1324.24 252.625 1298.32 245.629C1253.39 232.422 1243.96 199.282 1194.06 126.158C1174.96 98.7242 1167.77 93.4198 1154.66 153.794C1144.89 203.483 1142.56 224.709 1134.26 257.172C1122.96 293.772 1122.24 271.568 1096.84 322.059C1076.3 363.986 1068.16 385.512 1055.5 400.71C1025.49 430.695 1017.62 332.865 997.831 286.624C988.927 270.04 984.197 272.076 958.835 259.5C948.576 254.065 947.163 251.976 939.875 248.771C925.337 244.178 919.869 256.502 902.875 259.327C870.018 261.622 862.125 204.591 824.25 200.723C785.707 198.564 779.44 219.376 747.937 220.517C720.17 220.537 715.901 212.179 691.435 249.017C668.411 283.871 671.941 270.831 653.125 307.355C642.167 328.22 634.159 342.544 616.125 329.634C600.283 316.888 592.835 303.625 578.994 334.889C559.202 386.405 552.774 444.48 537.498 428.158C515.813 390.381 514.074 268.333 479.687 252.343C465.096 247.564 458.786 255.782 442.685 245.271C416.508 225.307 403.262 177.456 384.743 219.994C366.332 270.953 360.204 339.374 343.241 339.14C335.995 335.218 332.746 325.668 323.439 302.529C310.1 270.989 309.225 275.032 260.812 258.347C224.24 245.217 228.379 231.321 204.5 244.028C167.778 262.683 155.546 208.522 128.187 228.28C113.526 240.728 108.25 253.821 91.1874 244.051C75.6876 233.765 68.7803 222.688 54.1216 235.75C46.2678 244.093 43.6576 249.567 33.835 263.493C20.3133 281.259 15.1143 277.197 1 261.289" stroke="#9C35B2" stroke-width="1.5" stroke-linecap="round" stroke-linejoin="round"/>
<path d="M1481 356.841C1447.73 337.315 1445.29 351.223 1397.56 334.548C1385.89 330.108 1382.91 327.502 1376.79 319.424C1354.09 284.834 1362.17 275.645 1318.58 269.754C1307.98 268.42 1304.45 268.186 1296.28 266.903C1267.54 261.807 1257.8 248.584 1238.18 262.585C1223.21 275.114 1217.75 291.792 1201.18 300.724C1187.63 306.656 1180.73 302.158 1164.18 303.835C1155.4 305.083 1154.3 306.081 1145.68 307.709C1116.69 311.63 1112.73 272.344 1090.18 277.133C1076.73 282.41 1056.37 315.001 1048.69 327.116C1009.84 390.738 996.813 472.322 969.933 403.785C951.315 350.62 946.996 297.931 930.632 277.793C920.632 268.56 909.912 269.25 889.016 259.89C858.641 245.379 838.749 219.845 810.374 225.237C793.493 229.536 787.727 238.514 773.374 224.856C756.859 206.986 751.055 189.215 736.374 232.636C717.855 290.438 718.285 265.631 699.374 282.607C665.317 319.277 652.676 443.924 618.437 413.833C585.987 379.377 571.764 285.951 535.187 271.606C508.652 263.301 475.093 295.145 385.875 255.512C365.781 246.751 363.801 248.864 345.569 242.19C329.638 236.033 315.854 227.955 299.415 220.952C254.207 202.597 243.93 221.438 202.496 211.666C158.016 200.952 154.122 214.384 121.79 264.598C89.6583 314.136 83.1178 352.567 63.3716 328.622C54.812 316.148 52.4879 308.069 43.0593 291.78C31.6556 274.516 28.9447 279.416 1 268.498" stroke="#24A9FA" stroke-width="1.5" stroke-linecap="round" stroke-linejoin="round"/>
</g>
</svg>
