<svg width="156" height="156" viewBox="0 0 156 156" fill="none" xmlns="http://www.w3.org/2000/svg">
<path d="M0 64.9999C0 57.8202 5.8203 51.9999 13 51.9999C20.1797 51.9999 26 57.8202 26 64.9999V77.9999H0V64.9999Z" fill="#FF444E"/>
<path d="M130 78.0001H156V91.0001C156 98.1798 150.18 104 143 104C135.82 104 130 98.1798 130 91.0001V78.0001Z" fill="#FF444E"/>
<path d="M52 13C52 5.82031 57.8203 0 65 0C72.1797 0 78 5.8203 78 13V78.0001H52V13Z" fill="#FF444E"/>
<path d="M26 78.0001H52V143C52 150.18 46.1797 156 39 156C31.8203 156 26 150.18 26 143V78.0001Z" fill="#FF444E"/>
<path d="M78 78.0001H104V117C104 124.18 98.1797 130 91 130C83.8203 130 78 124.18 78 117V78.0001Z" fill="#FF444E"/>
<path d="M104 39.0003C104 31.8206 109.82 26.0002 117 26.0002C124.18 26.0002 130 31.8205 130 39.0003V78.0003H104V39.0003Z" fill="#FF444E"/>
</svg>
