<svg width="40" height="40" viewBox="0 0 40 40" fill="none" xmlns="http://www.w3.org/2000/svg">
<rect width="40" height="40" rx="20" fill="white" fill-opacity="0.16"/>
<path d="M17.5004 20.5C17.5004 19.1193 18.6193 17.9998 20 17.9998C21.3807 17.9998 22.5002 19.1193 22.5002 20.5C22.5002 21.8807 21.3807 23.0002 20 23.0002C18.6193 23.0002 17.5004 21.8807 17.5004 20.5ZM16.1488 20.5C16.1488 22.627 17.873 24.3512 20 24.3512C22.127 24.3512 23.8512 22.627 23.8512 20.5C23.8512 18.373 22.127 16.6488 20 16.6488C17.873 16.6488 16.1488 18.373 16.1488 20.5ZM23.1036 16.4961C23.1035 16.6741 23.1563 16.8482 23.2551 16.9962C23.3539 17.1443 23.4944 17.2597 23.6589 17.3279C23.8233 17.396 24.0043 17.4139 24.1788 17.3793C24.3534 17.3446 24.5138 17.259 24.6398 17.1332C24.7657 17.0073 24.8515 16.847 24.8863 16.6724C24.9211 16.4979 24.9033 16.3169 24.8352 16.1524C24.7672 15.9879 24.6519 15.8473 24.5039 15.7484C24.356 15.6494 24.182 15.5966 24.004 15.5965H24.0036C23.765 15.5966 23.5362 15.6914 23.3675 15.8601C23.1987 16.0288 23.1038 16.2575 23.1036 16.4961ZM16.97 26.6048C16.2388 26.5715 15.8413 26.4497 15.5772 26.3468C15.2271 26.2105 14.9772 26.0481 14.7145 25.7858C14.4519 25.5235 14.2893 25.2739 14.1535 24.9237C14.0506 24.6597 13.9288 24.2622 13.8955 23.531C13.8592 22.7404 13.8519 22.5029 13.8519 20.5001C13.8519 18.4972 13.8598 18.2604 13.8955 17.4692C13.9288 16.7379 14.0515 16.3412 14.1535 16.0764C14.2899 15.7262 14.4522 15.4764 14.7145 15.2137C14.9769 14.951 15.2265 14.7884 15.5772 14.6527C15.8412 14.5497 16.2388 14.4279 16.97 14.3947C17.7606 14.3583 17.998 14.3511 20 14.3511C22.002 14.3511 22.2397 14.3589 23.0309 14.3947C23.7621 14.428 24.1589 14.5507 24.4237 14.6527C24.7738 14.7884 25.0237 14.9514 25.2864 15.2137C25.549 15.476 25.711 15.7262 25.8474 16.0764C25.9503 16.3404 26.0721 16.7379 26.1054 17.4692C26.1417 18.2604 26.149 18.4972 26.149 20.5001C26.149 22.5029 26.1417 22.7397 26.1054 23.531C26.0721 24.2622 25.9497 24.6596 25.8474 24.9237C25.711 25.2739 25.5487 25.5237 25.2864 25.7858C25.024 26.0479 24.7738 26.2105 24.4237 26.3468C24.1597 26.4498 23.7621 26.5716 23.0309 26.6048C22.2403 26.6412 22.0029 26.6484 20 26.6484C17.9971 26.6484 17.7603 26.6412 16.97 26.6048ZM16.9079 13.0454C16.1095 13.0818 15.5639 13.2084 15.0874 13.3938C14.594 13.5852 14.1763 13.8421 13.7589 14.2589C13.3414 14.6756 13.0852 15.094 12.8938 15.5874C12.7084 16.0642 12.5818 16.6095 12.5454 17.4079C12.5085 18.2076 12.5 18.4632 12.5 20.5C12.5 22.5368 12.5085 22.7924 12.5454 23.5921C12.5818 24.3906 12.7084 24.9358 12.8938 25.4126C13.0852 25.9057 13.3415 26.3246 13.7589 26.7411C14.1762 27.1577 14.594 27.4142 15.0874 27.6062C15.5648 27.7916 16.1095 27.9182 16.9079 27.9546C17.708 27.9909 17.9632 28 20 28C22.0368 28 22.2924 27.9915 23.0921 27.9546C23.8906 27.9182 24.4358 27.7916 24.9126 27.6062C25.4057 27.4142 25.8237 27.1579 26.2411 26.7411C26.6586 26.3244 26.9142 25.9057 27.1062 25.4126C27.2916 24.9358 27.4188 24.3905 27.4546 23.5921C27.4909 22.7918 27.4994 22.5368 27.4994 20.5C27.4994 18.4632 27.4909 18.2076 27.4546 17.4079C27.4182 16.6094 27.2916 16.0639 27.1062 15.5874C26.9142 15.0943 26.6579 14.6763 26.2411 14.2589C25.8244 13.8414 25.4057 13.5852 24.9132 13.3938C24.4358 13.2084 23.8905 13.0812 23.0927 13.0454C22.293 13.0091 22.0374 13 20.0006 13C17.9638 13 17.708 13.0085 16.9079 13.0454Z" fill="white"/>
</svg>
