<svg width="1272" height="484" viewBox="0 0 1272 484" fill="none" xmlns="http://www.w3.org/2000/svg">
<path d="M1246.44 0.121861C1251.9 -0.737712 1257.02 2.98806 1257.88 8.44361L1271.89 97.3469C1272.75 102.802 1269.02 107.922 1263.56 108.781C1258.11 109.641 1252.99 105.915 1252.13 100.46L1239.68 21.4345L1160.65 33.8857C1155.2 34.7453 1150.08 31.0195 1149.22 25.5639C1148.36 20.1084 1152.08 14.989 1157.54 14.1294L1246.44 0.121861ZM1042.17 132.21L1042.07 122.211L1042.17 132.21ZM924.159 124.621L915.838 119.075L915.838 119.075L924.159 124.621ZM760.171 187.412L754.054 195.323L760.171 187.412ZM693.044 152.067L692.818 162.065L693.044 152.067ZM346.522 309.775L344.929 299.903L346.522 309.775ZM205.829 474L205.829 464L205.829 474ZM1256.09 15.8844C1243.35 33.3786 1233.24 41.5557 1221.03 45.6613C1215.36 47.5682 1209.57 48.4705 1203.97 49.3377C1198.21 50.2288 1192.14 51.1462 1184.83 52.9757L1179.98 33.5735C1188.29 31.4929 1195.21 30.4552 1200.91 29.5734C1206.75 28.6675 1210.87 27.9789 1214.66 26.704C1221.37 24.4461 1228.43 19.896 1239.91 4.11564L1256.09 15.8844ZM1184.83 52.9757C1170.39 56.5871 1161.81 61.6849 1150.66 66.8272C1139.33 72.0498 1127.01 76.3522 1107.61 76.3522V56.3522C1123.39 56.3522 1132.83 53.0259 1142.29 48.6647C1151.92 44.2233 1163.15 37.7823 1179.98 33.5735L1184.83 52.9757ZM1107.61 76.3522C1102.43 76.3522 1098.17 78.588 1093.82 83.3478C1089.21 88.3941 1085.26 95.4631 1080.96 103.77C1076.94 111.528 1072.44 120.779 1067.1 127.834C1061.66 135.017 1053.76 142.09 1042.27 142.21L1042.07 122.211C1044.42 122.186 1047.22 120.954 1051.15 115.762C1055.18 110.442 1058.71 103.246 1063.2 94.5759C1067.4 86.4543 1072.43 77.1129 1079.06 69.856C1085.95 62.3125 1095.2 56.3522 1107.61 56.3522V76.3522ZM1042.27 142.21C1031.52 142.322 1023.25 137.143 1016.98 130.974C1010.9 124.998 1005.84 117.234 1001.51 110.612C996.89 103.538 993.043 97.6494 988.868 93.38C984.857 89.2791 981.669 87.8525 978.567 87.8525V67.8525C989.143 67.8525 997.163 73.2581 1003.17 79.3961C1009 85.3656 1013.98 93.123 1018.26 99.6756C1022.83 106.681 1026.74 112.525 1031 116.713C1035.07 120.708 1038.5 122.248 1042.07 122.211L1042.27 142.21ZM978.567 87.8525C969.899 87.8525 964.491 88.7973 960.836 90.1748C957.456 91.4489 955.142 93.2517 952.915 95.9793C950.424 99.0318 948.186 103.03 944.913 109.057C941.758 114.866 937.908 122.021 932.481 130.166L915.838 119.075C920.7 111.779 924.157 105.368 927.337 99.5127C930.398 93.8761 933.52 88.1119 937.422 83.3326C941.588 78.2284 946.699 74.1295 953.783 71.4599C960.592 68.8936 968.687 67.8525 978.567 67.8525V87.8525ZM932.481 130.166C923.231 144.048 913.177 152.6 902.193 156.637C891.168 160.689 880.583 159.686 871.319 157.113C862.359 154.624 853.646 150.334 846.87 147.299C839.364 143.938 834.416 142.21 830.671 142.21L830.671 122.21C839.301 122.21 847.993 125.888 855.044 129.046C862.826 132.531 869.588 135.874 876.672 137.842C883.452 139.725 889.481 140.001 895.293 137.865C901.147 135.714 908.153 130.608 915.838 119.075L932.481 130.166ZM830.671 142.21C826.894 142.21 822.741 144.366 817.551 150.445C812.336 156.552 807.758 164.578 802.523 173.277C797.771 181.174 791.973 190.571 784.772 196.078C780.879 199.055 775.951 201.412 770.075 201.402C764.209 201.392 758.842 199.025 754.054 195.323L766.287 179.501C768.665 181.339 769.857 181.401 770.11 181.402C770.354 181.402 771.107 181.35 772.622 180.192C776.239 177.426 780.168 171.638 785.387 162.964C790.123 155.093 795.761 145.164 802.341 137.458C808.944 129.725 818.163 122.21 830.671 122.21L830.671 142.21ZM754.054 195.323C726.487 174.01 719.647 162.672 692.818 162.065L693.27 142.07C728.55 142.868 742.314 160.966 766.287 179.501L754.054 195.323ZM692.818 162.065C687.45 161.944 683.412 164.072 679.338 168.597C674.88 173.548 671.169 180.495 666.737 188.977C662.608 196.88 657.765 206.3 651.326 213.569C644.533 221.239 635.345 227.236 622.697 227.236V207.236C628.094 207.236 632.212 204.985 636.354 200.308C640.851 195.231 644.575 188.205 649.011 179.715C653.145 171.802 657.999 162.406 664.475 155.214C671.334 147.597 680.598 141.783 693.27 142.07L692.818 162.065ZM622.697 227.236C609.63 227.236 600.419 220.39 593.848 212.061C587.578 204.113 582.921 193.816 578.892 185.022C574.586 175.626 570.908 167.734 566.416 162.04C562.224 156.726 558.246 154.477 553.269 154.477V134.477C566.337 134.477 575.547 141.323 582.118 149.652C588.388 157.601 593.045 167.898 597.074 176.691C601.38 186.087 605.058 193.98 609.55 199.674C613.742 204.987 617.721 207.236 622.697 207.236V227.236ZM553.269 154.477C546.296 154.477 541.187 158.099 536.614 166.842C531.821 176.004 528.803 188.811 526.09 203.08C523.518 216.61 521.172 231.87 517.468 243.3C515.598 249.071 513.076 254.926 509.276 259.48C505.204 264.358 499.434 267.947 491.965 267.947V247.947C492.312 247.947 492.814 247.991 493.921 246.664C495.3 245.012 496.865 242.002 498.442 237.135C501.633 227.29 503.622 214.182 506.442 199.345C509.122 185.246 512.555 169.686 518.891 157.572C525.446 145.04 536.142 134.477 553.269 134.477V154.477ZM491.965 267.947C480.757 267.947 470.903 275.644 458.365 286.866C452.603 292.023 446.166 297.961 439.498 302.462C432.741 307.023 424.673 310.882 415.335 310.882V290.882C419.023 290.882 423.14 289.374 428.308 285.885C433.566 282.336 438.795 277.54 445.027 271.963C456.473 261.718 471.907 247.947 491.965 247.947V267.947ZM415.335 310.882C390.349 310.882 389.477 312.973 348.115 319.648L344.929 299.903C384.336 293.544 388.212 290.882 415.335 290.882V310.882ZM348.115 319.648C331.276 322.365 323.489 335.829 315.605 356.763C311.954 366.456 308.153 378.109 303.381 388.04C298.517 398.163 291.905 408.228 281.451 414.72L270.9 397.73C276.648 394.16 281.179 388.066 285.354 379.378C289.621 370.498 292.754 360.689 296.888 349.713C304.573 329.31 315.758 304.61 344.929 299.903L348.115 319.648ZM281.451 414.72C267.354 423.474 257.535 438.344 246.765 453.461C241.666 460.619 236.158 468.051 229.965 473.655C223.627 479.39 215.709 484 205.829 484L205.829 464C208.976 464 212.314 462.654 216.546 458.825C220.922 454.865 225.297 449.126 230.476 441.856C240.265 428.116 252.592 409.099 270.9 397.73L281.451 414.72ZM205.829 484C193.289 484 184.269 475.936 177.947 467.638C171.552 459.244 166.21 448.366 161.489 438.599C156.53 428.339 152.238 419.277 147.611 412.632C142.74 405.637 139.654 404.494 138.088 404.494L138.088 384.494C150.2 384.494 158.513 393.29 164.023 401.203C169.777 409.465 174.848 420.279 179.496 429.895C184.382 440.004 188.893 449.003 193.856 455.517C198.891 462.126 202.736 464 205.829 464L205.829 484ZM138.088 404.494C135.672 404.494 131.933 406.114 126.466 412.184C121.2 418.03 116.032 426.064 110.401 435.012C105.019 443.564 99.135 453.088 92.9419 460.362C87.0763 467.251 78.6962 474.876 67.7412 474.876V454.876C69.162 454.876 72.3434 453.704 77.7138 447.396C82.7565 441.474 87.7831 433.402 93.4739 424.359C98.9163 415.711 104.984 406.15 111.606 398.799C118.025 391.672 126.825 384.494 138.088 384.494L138.088 404.494ZM67.7412 474.876C57.3052 474.876 49.6012 469.853 43.7945 463.942C38.334 458.384 33.5937 450.987 29.5555 445.151C20.7209 432.384 13.2834 424.046 1.60859e-05 424.046V404.046C24.4954 404.046 37.2499 421.123 46.002 433.771C50.7571 440.643 54.1587 445.953 58.0615 449.926C61.6181 453.546 64.4987 454.876 67.7412 454.876V474.876Z" fill="url(#paint0_linear_105_341)"/>
<defs>
<linearGradient id="paint0_linear_105_341" x1="-0.0012256" y1="431.986" x2="1247.67" y2="9.9222" gradientUnits="userSpaceOnUse">
<stop stop-color="#F25757" stop-opacity="0.4"/>
<stop offset="0.504" stop-color="#F9EA51"/>
<stop offset="1" stop-color="#F25757"/>
</linearGradient>
</defs>
</svg>
