<svg width="1256" height="470" viewBox="0 0 1256 470" fill="none" xmlns="http://www.w3.org/2000/svg">
<g style="mix-blend-mode:lighten">
<path d="M1247.53 0.0365582C1249.17 -0.221314 1250.71 0.896418 1250.96 2.53308L1255.17 29.2041C1255.42 30.8407 1254.31 32.3765 1252.67 32.6344C1251.03 32.8923 1249.5 31.7746 1249.24 30.1379L1245.5 6.43036L1221.8 10.1657C1220.16 10.4236 1218.62 9.30584 1218.37 7.66918C1218.11 6.03252 1219.23 4.49669 1220.86 4.23882L1247.53 0.0365582ZM1042.17 125.21L1042.14 122.211L1042.17 125.21ZM924.159 117.621L921.663 115.957L921.663 115.957L924.159 117.621ZM760.171 180.412L758.336 182.785L760.171 180.412ZM693.044 145.067L692.976 148.067L693.044 145.067ZM346.522 302.775L346.044 299.814L346.522 302.775ZM205.829 467V464V467ZM1250.43 4.76531C1238.13 21.6597 1229.09 28.5673 1218.8 32.0263C1213.79 33.712 1208.58 34.5395 1202.9 35.4202C1197.16 36.308 1190.8 37.2675 1183.13 39.1849L1181.68 33.3642C1189.64 31.3715 1196.26 30.376 1201.98 29.4909C1207.74 28.5986 1212.44 27.8352 1216.89 26.3391C1225.53 23.4344 1233.65 17.6149 1245.57 1.23469L1250.43 4.76531ZM1183.13 39.1849C1167.86 43.0054 1158.35 48.5733 1147.73 53.4704C1137.06 58.3914 1125.74 62.3522 1107.61 62.3522V56.3522C1124.65 56.3522 1135.1 52.6843 1145.22 48.0216C1155.38 43.3349 1165.68 37.364 1181.68 33.3642L1183.13 39.1849ZM1107.61 62.3522C1099.9 62.3522 1093.89 65.8916 1088.65 71.6257C1083.34 77.4457 1079.01 85.31 1074.74 93.552C1070.56 101.63 1066.4 110.161 1061.52 116.609C1056.61 123.095 1050.49 128.124 1042.2 128.21L1042.14 122.211C1047.69 122.153 1052.27 118.876 1056.73 112.987C1061.22 107.06 1065.09 99.1447 1069.42 90.7938C1073.65 82.6074 1078.3 74.0613 1084.22 67.5781C1090.23 61.0089 1097.73 56.3522 1107.61 56.3522V62.3522ZM1042.2 128.21C1033.96 128.296 1027.39 124.391 1021.89 118.982C1016.45 113.632 1011.78 106.54 1007.37 99.7842C1002.87 92.8925 998.63 86.3501 993.872 81.4857C989.164 76.6718 984.285 73.8525 978.567 73.8525V67.8525C986.527 67.8525 992.856 71.8655 998.162 77.2905C1003.42 82.6649 1008 89.7681 1012.39 96.5033C1016.88 103.374 1021.2 109.89 1026.1 114.704C1030.93 119.46 1036.05 122.274 1042.14 122.211L1042.2 128.21ZM978.567 73.8525C969.475 73.8525 963.126 74.831 958.367 76.6246C953.691 78.3871 950.398 80.9936 947.493 84.553C944.508 88.2098 941.96 92.8258 938.761 98.7166C935.598 104.542 931.885 111.437 926.656 119.284L921.663 115.957C926.722 108.364 930.318 101.692 933.489 95.8532C936.624 90.0798 939.437 84.9339 942.844 80.7589C946.332 76.4866 950.464 73.1913 956.251 71.0101C961.957 68.8599 969.111 67.8525 978.567 67.8525V73.8525ZM926.656 119.284C917.953 132.344 908.966 139.69 899.778 143.067C890.578 146.449 881.587 145.7 873.192 143.368C864.889 141.061 856.859 137.103 849.731 133.911C842.384 130.621 836.126 128.21 830.671 128.21L830.671 122.21C837.591 122.21 844.973 125.206 852.183 128.435C859.613 131.762 867.057 135.437 874.798 137.587C882.448 139.712 890.072 140.242 897.708 137.435C905.357 134.624 913.43 128.312 921.663 115.957L926.656 119.284ZM830.671 128.21C823.838 128.21 817.912 132.242 812.227 138.9C806.535 145.566 801.586 154.258 796.526 162.667C791.61 170.836 786.466 178.97 780.52 183.518C777.459 185.859 773.992 187.409 770.088 187.402C766.185 187.395 762.28 185.835 758.336 182.785L762.006 178.039C765.227 180.529 767.88 181.398 770.098 181.402C772.313 181.406 774.527 180.547 776.875 178.752C781.746 175.026 786.329 167.975 791.385 159.574C796.296 151.413 801.562 142.15 807.664 135.004C813.773 127.849 821.219 122.21 830.671 122.21L830.671 128.21ZM758.336 182.785C732.027 162.445 722.763 148.74 692.976 148.067L693.112 142.068C725.434 142.799 736.775 158.532 762.006 178.039L758.336 182.785ZM692.976 148.067C685.052 147.887 679.185 151.306 674.136 156.913C668.972 162.648 664.86 170.453 660.533 178.735C656.296 186.844 651.845 195.426 646.086 201.928C640.22 208.55 632.807 213.236 622.697 213.236V207.236C630.632 207.236 636.524 203.674 641.594 197.95C646.771 192.105 650.886 184.242 655.215 175.956C659.453 167.845 663.907 159.306 669.677 152.898C675.561 146.363 682.996 141.839 693.112 142.068L692.976 148.067ZM622.697 213.236C612.462 213.236 605.082 207.999 599.344 200.726C593.696 193.566 589.382 184.111 585.256 175.106C581.047 165.921 577.026 157.187 571.912 150.704C566.888 144.335 561.078 140.477 553.269 140.477V134.477C563.505 134.477 570.884 139.714 576.622 146.988C582.27 154.147 586.585 163.603 590.711 172.607C594.919 181.792 598.94 190.526 604.055 197.009C609.079 203.378 614.889 207.236 622.697 207.236V213.236ZM553.269 140.477C542.742 140.477 535.678 146.528 530.411 156.598C525.078 166.793 521.915 180.563 519.213 194.773C516.554 208.76 514.334 223.267 510.809 234.143C509.042 239.597 506.855 244.456 503.902 247.994C500.867 251.629 496.941 253.947 491.965 253.947V247.947C494.805 247.947 497.15 246.719 499.295 244.149C501.522 241.482 503.422 237.476 505.102 232.293C508.472 221.893 510.585 208.032 513.319 193.652C516.011 179.494 519.298 164.897 525.094 153.817C530.955 142.611 539.696 134.477 553.269 134.477V140.477ZM491.965 253.947C477.66 253.947 465.853 263.77 453.696 274.65C447.771 279.954 441.756 285.492 435.582 289.66C429.381 293.846 422.696 296.882 415.335 296.882V290.882C421.001 290.882 426.5 288.551 432.225 284.687C437.976 280.805 443.628 275.609 449.695 270.179C461.524 259.592 475.005 247.947 491.965 247.947V253.947ZM415.335 296.882C389.601 296.882 387.677 299.173 347 305.737L346.044 299.814C386.135 293.344 388.96 290.882 415.335 290.882V296.882ZM347 305.737C325.845 309.151 316.869 326.547 309.054 347.296C305.234 357.438 301.667 368.445 297.071 378.009C292.449 387.629 286.565 396.304 277.758 401.773L274.593 396.676C281.988 392.084 287.247 384.6 291.663 375.41C296.107 366.162 299.474 355.707 303.439 345.181C311.194 324.591 321.189 303.824 346.044 299.814L347 305.737ZM277.758 401.773C262.188 411.443 251.491 427.764 241.064 442.399C235.937 449.597 230.825 456.436 225.268 461.464C219.667 466.532 213.352 470 205.829 470V464C211.332 464 216.274 461.511 221.242 457.015C226.255 452.48 231.026 446.149 236.178 438.918C246.31 424.696 257.759 407.13 274.593 396.676L277.758 401.773ZM205.829 470C196.595 470 189.387 464.102 183.515 456.395C177.621 448.66 172.571 438.44 167.792 428.553C162.941 418.518 158.377 408.843 153.355 401.632C148.26 394.316 143.345 390.494 138.088 390.494L138.088 384.494C146.509 384.494 152.992 390.611 158.279 398.203C163.638 405.899 168.437 416.1 173.194 425.942C178.022 435.931 182.823 445.587 188.288 452.759C193.774 459.959 199.43 464 205.829 464V470ZM138.088 390.494C132.575 390.494 127.065 394.06 121.265 400.499C115.524 406.872 110.041 415.441 104.476 424.283C98.9862 433.007 93.4025 442.023 87.612 448.824C81.9198 455.51 75.3592 460.876 67.7412 460.876V454.876C72.4989 454.876 77.4999 451.445 83.0436 444.934C88.489 438.539 93.8156 429.959 99.3984 421.088C104.907 412.335 110.659 403.308 116.807 396.484C122.893 389.727 129.922 384.494 138.088 384.494L138.088 390.494ZM67.7412 460.876C59.8229 460.876 53.8071 457.145 48.788 452.037C43.8727 447.033 39.6009 440.366 35.3118 434.168C26.5061 421.442 17.2076 410.046 1.60859e-05 410.046V404.046C20.5712 404.046 31.4647 418.064 40.2457 430.754C44.7499 437.263 48.6201 443.304 53.0681 447.832C57.4122 452.253 61.9809 454.876 67.7412 454.876V460.876Z" fill="url(#paint0_linear_105_340)"/>
</g>
<defs>
<linearGradient id="paint0_linear_105_340" x1="-0.0012256" y1="424.986" x2="1247.67" y2="2.9222" gradientUnits="userSpaceOnUse">
<stop stop-color="#F25757" stop-opacity="0.4"/>
<stop offset="0.504" stop-color="#F9EA51"/>
<stop offset="1" stop-color="#F25757"/>
</linearGradient>
</defs>
</svg>
