<svg width="40" height="40" viewBox="0 0 40 40" fill="none" xmlns="http://www.w3.org/2000/svg">
<rect width="40" height="40" rx="8" fill="#F5E11A"/>
<path d="M20.0003 11.6665C15.4087 11.6665 11.667 15.4082 11.667 19.9998C11.667 24.5915 15.4087 28.3332 20.0003 28.3332C24.592 28.3332 28.3337 24.5915 28.3337 19.9998C28.3337 15.4082 24.592 11.6665 20.0003 11.6665ZM23.6253 22.9748C23.5087 23.1748 23.3003 23.2832 23.0837 23.2832C22.9753 23.2832 22.867 23.2582 22.767 23.1915L20.1837 21.6498C19.542 21.2665 19.067 20.4248 19.067 19.6832V16.2665C19.067 15.9248 19.3503 15.6415 19.692 15.6415C20.0337 15.6415 20.317 15.9248 20.317 16.2665V19.6832C20.317 19.9832 20.567 20.4248 20.8253 20.5748L23.4087 22.1165C23.7087 22.2915 23.8087 22.6748 23.6253 22.9748Z" fill="#786363"/>
</svg>
