<svg width="41" height="41" viewBox="0 0 41 41" fill="none" xmlns="http://www.w3.org/2000/svg">
<rect x="0.5" y="0.5" width="40" height="40" rx="8" fill="#F5E11A"/>
<path d="M18.0003 12.1665C15.817 12.1665 14.042 13.9415 14.042 16.1248C14.042 18.2665 15.717 19.9998 17.9003 20.0748C17.967 20.0665 18.0337 20.0665 18.0837 20.0748C18.1003 20.0748 18.1087 20.0748 18.1253 20.0748C18.1337 20.0748 18.1337 20.0748 18.142 20.0748C20.2753 19.9998 21.9503 18.2665 21.9587 16.1248C21.9587 13.9415 20.1837 12.1665 18.0003 12.1665Z" fill="#786363"/>
<path d="M22.2338 22.2919C19.9088 20.7419 16.1171 20.7419 13.7755 22.2919C12.7171 23.0002 12.1338 23.9586 12.1338 24.9836C12.1338 26.0086 12.7171 26.9586 13.7671 27.6586C14.9338 28.4419 16.4671 28.8336 18.0005 28.8336C19.5338 28.8336 21.0671 28.4419 22.2338 27.6586C23.2838 26.9502 23.8671 26.0002 23.8671 24.9669C23.8588 23.9419 23.2838 22.9919 22.2338 22.2919Z" fill="#786363"/>
<path d="M27.1588 16.6166C27.2921 18.2333 26.1421 19.6499 24.5505 19.8416C24.5421 19.8416 24.5421 19.8416 24.5338 19.8416H24.5088C24.4588 19.8416 24.4088 19.8416 24.3671 19.8583C23.5588 19.8999 22.8171 19.6416 22.2588 19.1666C23.1171 18.3999 23.6088 17.2499 23.5088 15.9999C23.4505 15.3249 23.2171 14.7083 22.8671 14.1833C23.1838 14.0249 23.5505 13.9249 23.9255 13.8916C25.5588 13.7499 27.0171 14.9666 27.1588 16.6166Z" fill="#786363"/>
<path d="M28.8249 24.3252C28.7582 25.1335 28.2415 25.8335 27.3749 26.3085C26.5415 26.7668 25.4915 26.9835 24.4499 26.9585C25.0499 26.4168 25.3999 25.7418 25.4665 25.0252C25.5499 23.9918 25.0582 23.0002 24.0749 22.2085C23.5165 21.7668 22.8665 21.4168 22.1582 21.1585C23.9999 20.6252 26.3165 20.9835 27.7415 22.1335C28.5082 22.7502 28.8999 23.5252 28.8249 24.3252Z" fill="#786363"/>
</svg>
