<svg width="180" height="41" viewBox="0 0 180 41" fill="none" xmlns="http://www.w3.org/2000/svg">
<rect x="0.5" y="0.5" width="179" height="40" rx="8" fill="white"/>
<rect x="0.5" y="0.5" width="40" height="40" rx="8" fill="#F5E11A"/>
<path d="M18.0003 12.1667C15.817 12.1667 14.042 13.9417 14.042 16.125C14.042 18.2667 15.717 20 17.9003 20.075C17.967 20.0667 18.0337 20.0667 18.0837 20.075C18.1003 20.075 18.1087 20.075 18.1253 20.075C18.1337 20.075 18.1337 20.075 18.142 20.075C20.2753 20 21.9503 18.2667 21.9587 16.125C21.9587 13.9417 20.1837 12.1667 18.0003 12.1667Z" fill="#786363"/>
<path d="M22.2338 22.2917C19.9088 20.7417 16.1171 20.7417 13.7755 22.2917C12.7171 23 12.1338 23.9583 12.1338 24.9833C12.1338 26.0083 12.7171 26.9583 13.7671 27.6583C14.9338 28.4417 16.4671 28.8333 18.0005 28.8333C19.5338 28.8333 21.0671 28.4417 22.2338 27.6583C23.2838 26.95 23.8671 26 23.8671 24.9667C23.8588 23.9417 23.2838 22.9917 22.2338 22.2917Z" fill="#786363"/>
<path d="M27.1588 16.6166C27.2921 18.2333 26.1421 19.65 24.5505 19.8416C24.5421 19.8416 24.5421 19.8416 24.5338 19.8416H24.5088C24.4588 19.8416 24.4088 19.8416 24.3671 19.8583C23.5588 19.9 22.8171 19.6416 22.2588 19.1666C23.1171 18.4 23.6088 17.25 23.5088 16C23.4505 15.325 23.2171 14.7083 22.8671 14.1833C23.1838 14.025 23.5505 13.925 23.9255 13.8916C25.5588 13.75 27.0171 14.9666 27.1588 16.6166Z" fill="#786363"/>
<path d="M28.8249 24.325C28.7582 25.1333 28.2415 25.8333 27.3749 26.3083C26.5415 26.7667 25.4915 26.9833 24.4499 26.9583C25.0499 26.4167 25.3999 25.7417 25.4665 25.025C25.5499 23.9917 25.0582 23 24.0749 22.2083C23.5165 21.7667 22.8665 21.4167 22.1582 21.1583C23.9999 20.625 26.3165 20.9833 27.7415 22.1333C28.5082 22.75 28.8999 23.525 28.8249 24.325Z" fill="#786363"/>
<path d="M61.6813 14.66V26.5H59.8413V17.556L57.6013 17.572V16.468L57.9853 16.356C58.5826 16.1747 59.0626 15.972 59.4253 15.748C59.7986 15.524 60.1506 15.2147 60.4813 14.82L60.6253 14.66H61.6813ZM68.8236 26.644C68.0662 26.644 67.3942 26.484 66.8076 26.164C66.2316 25.844 65.7462 25.4013 65.3516 24.836C64.9569 24.2707 64.6582 23.6253 64.4556 22.9C64.2529 22.164 64.1516 21.3853 64.1516 20.564C64.1516 19.7427 64.2529 18.9693 64.4556 18.244C64.6582 17.508 64.9569 16.8573 65.3516 16.292C65.7462 15.7267 66.2316 15.284 66.8076 14.964C67.3942 14.644 68.0662 14.484 68.8236 14.484C69.5809 14.484 70.2476 14.644 70.8236 14.964C71.4102 15.284 71.9009 15.7267 72.2956 16.292C72.6902 16.8573 72.9889 17.508 73.1916 18.244C73.3942 18.9693 73.4956 19.7427 73.4956 20.564C73.4956 21.3853 73.3942 22.164 73.1916 22.9C72.9889 23.6253 72.6902 24.2707 72.2956 24.836C71.9009 25.4013 71.4102 25.844 70.8236 26.164C70.2476 26.484 69.5809 26.644 68.8236 26.644ZM68.8236 24.964C69.6129 24.964 70.2689 24.596 70.7916 23.86C71.3142 23.1133 71.5756 22.0147 71.5756 20.564C71.5756 19.124 71.3142 18.036 70.7916 17.3C70.2689 16.564 69.6129 16.196 68.8236 16.196C68.0342 16.196 67.3782 16.564 66.8556 17.3C66.3329 18.036 66.0716 19.124 66.0716 20.564C66.0716 22.004 66.3276 23.0973 66.8396 23.844C67.3622 24.5907 68.0236 24.964 68.8236 24.964ZM79.7611 26.644C79.0037 26.644 78.3317 26.484 77.7451 26.164C77.1691 25.844 76.6837 25.4013 76.2891 24.836C75.8944 24.2707 75.5957 23.6253 75.3931 22.9C75.1904 22.164 75.0891 21.3853 75.0891 20.564C75.0891 19.7427 75.1904 18.9693 75.3931 18.244C75.5957 17.508 75.8944 16.8573 76.2891 16.292C76.6837 15.7267 77.1691 15.284 77.7451 14.964C78.3317 14.644 79.0037 14.484 79.7611 14.484C80.5184 14.484 81.1851 14.644 81.7611 14.964C82.3477 15.284 82.8384 15.7267 83.2331 16.292C83.6277 16.8573 83.9264 17.508 84.1291 18.244C84.3317 18.9693 84.4331 19.7427 84.4331 20.564C84.4331 21.3853 84.3317 22.164 84.1291 22.9C83.9264 23.6253 83.6277 24.2707 83.2331 24.836C82.8384 25.4013 82.3477 25.844 81.7611 26.164C81.1851 26.484 80.5184 26.644 79.7611 26.644ZM79.7611 24.964C80.5504 24.964 81.2064 24.596 81.7291 23.86C82.2517 23.1133 82.5131 22.0147 82.5131 20.564C82.5131 19.124 82.2517 18.036 81.7291 17.3C81.2064 16.564 80.5504 16.196 79.7611 16.196C78.9717 16.196 78.3157 16.564 77.7931 17.3C77.2704 18.036 77.0091 19.124 77.0091 20.564C77.0091 22.004 77.2651 23.0973 77.7771 23.844C78.2997 24.5907 78.9611 24.964 79.7611 24.964ZM89.4666 24.596V22.244H87.0986V20.756H89.4666V18.388H90.9546V20.756H93.3066V22.244H90.9546V24.596H89.4666ZM100.099 26.5V14.66H107.827V16.292H101.971V19.668H107.091V21.284H101.971V24.868H107.907V26.5H100.099ZM109.97 26.5V18.02H111.794V19.252H111.89C111.965 19.1027 112.093 18.9213 112.274 18.708C112.455 18.484 112.706 18.2867 113.026 18.116C113.357 17.9453 113.773 17.86 114.274 17.86C114.903 17.86 115.431 18.004 115.858 18.292C116.285 18.58 116.605 18.964 116.818 19.444C117.042 19.924 117.154 20.452 117.154 21.028V26.5H115.33V21.22C115.33 20.708 115.186 20.276 114.898 19.924C114.621 19.572 114.205 19.396 113.65 19.396C113.213 19.396 112.855 19.508 112.578 19.732C112.311 19.9453 112.114 20.228 111.986 20.58C111.858 20.9213 111.794 21.2893 111.794 21.684V26.5H109.97ZM119.267 26.5V18.02H121.091V19.14H121.155C121.315 18.8093 121.566 18.516 121.907 18.26C122.259 17.9933 122.766 17.86 123.427 17.86C123.63 17.86 123.8 17.8707 123.939 17.892C124.088 17.9133 124.163 17.924 124.163 17.924V19.684C124.163 19.684 124.083 19.6733 123.923 19.652C123.763 19.6307 123.582 19.62 123.379 19.62C122.632 19.62 122.062 19.8333 121.667 20.26C121.283 20.676 121.091 21.3533 121.091 22.292V26.5H119.267ZM129.317 26.66C128.389 26.66 127.605 26.452 126.965 26.036C126.335 25.62 125.855 25.076 125.525 24.404C125.205 23.732 125.045 23.0173 125.045 22.26C125.045 21.5027 125.205 20.788 125.525 20.116C125.855 19.444 126.335 18.9 126.965 18.484C127.605 18.068 128.389 17.86 129.317 17.86C130.234 17.86 131.007 18.068 131.637 18.484C132.277 18.9 132.757 19.444 133.077 20.116C133.407 20.788 133.573 21.5027 133.573 22.26C133.573 23.0173 133.407 23.732 133.077 24.404C132.757 25.076 132.277 25.62 131.637 26.036C131.007 26.452 130.234 26.66 129.317 26.66ZM129.317 25.108C129.839 25.108 130.277 24.9747 130.629 24.708C130.991 24.4413 131.263 24.0893 131.445 23.652C131.637 23.2147 131.733 22.7507 131.733 22.26C131.733 21.7587 131.637 21.2947 131.445 20.868C131.263 20.4307 130.991 20.0787 130.629 19.812C130.277 19.5453 129.839 19.412 129.317 19.412C128.794 19.412 128.351 19.5453 127.989 19.812C127.626 20.0787 127.354 20.4307 127.173 20.868C126.991 21.2947 126.901 21.7587 126.901 22.26C126.901 22.7507 126.991 23.2147 127.173 23.652C127.354 24.0893 127.626 24.4413 127.989 24.708C128.351 24.9747 128.794 25.108 129.317 25.108ZM135.677 26.5L135.693 14.34H137.501V26.5H135.677ZM139.927 26.5L139.943 14.34H141.751V26.5H139.927ZM147.97 26.66C147.255 26.66 146.636 26.5373 146.114 26.292C145.602 26.036 145.175 25.7 144.834 25.284C144.503 24.8573 144.252 24.3827 144.082 23.86C143.922 23.3373 143.842 22.804 143.842 22.26C143.842 21.7267 143.922 21.1987 144.082 20.676C144.242 20.1533 144.487 19.6787 144.818 19.252C145.148 18.8253 145.57 18.4893 146.082 18.244C146.594 17.988 147.196 17.86 147.89 17.86C148.636 17.86 149.292 18.0307 149.858 18.372C150.434 18.7027 150.882 19.1987 151.202 19.86C151.532 20.5107 151.698 21.3213 151.698 22.292V22.788H145.682C145.724 23.4387 145.943 23.9987 146.338 24.468C146.732 24.9373 147.276 25.172 147.97 25.172C148.364 25.172 148.69 25.108 148.946 24.98C149.202 24.8413 149.399 24.6867 149.538 24.516C149.676 24.3453 149.772 24.196 149.826 24.068C149.89 23.94 149.922 23.876 149.922 23.876H151.618C151.618 23.876 151.591 23.972 151.538 24.164C151.484 24.3453 151.383 24.5747 151.234 24.852C151.095 25.1293 150.892 25.4067 150.626 25.684C150.359 25.9613 150.007 26.196 149.57 26.388C149.132 26.5693 148.599 26.66 147.97 26.66ZM145.698 21.508H149.938C149.895 20.7613 149.671 20.212 149.266 19.86C148.871 19.508 148.407 19.332 147.874 19.332C147.276 19.332 146.78 19.5293 146.386 19.924C145.991 20.308 145.762 20.836 145.698 21.508ZM157.259 26.66C156.619 26.66 156.059 26.5373 155.579 26.292C155.11 26.036 154.715 25.7 154.395 25.284C154.075 24.8573 153.835 24.3827 153.675 23.86C153.526 23.3373 153.451 22.804 153.451 22.26C153.451 21.716 153.526 21.1827 153.675 20.66C153.835 20.1373 154.075 19.668 154.395 19.252C154.715 18.8253 155.11 18.4893 155.579 18.244C156.059 17.988 156.619 17.86 157.259 17.86C157.792 17.86 158.235 17.9453 158.587 18.116C158.95 18.2867 159.238 18.484 159.451 18.708C159.664 18.932 159.819 19.124 159.915 19.284H160.011V14.34H161.835V26.5H160.011V25.236H159.915C159.819 25.396 159.664 25.588 159.451 25.812C159.238 26.036 158.95 26.2333 158.587 26.404C158.235 26.5747 157.792 26.66 157.259 26.66ZM157.659 25.14C158.182 25.14 158.614 25.0013 158.955 24.724C159.307 24.436 159.568 24.0733 159.739 23.636C159.92 23.1987 160.011 22.74 160.011 22.26C160.011 21.78 159.92 21.3213 159.739 20.884C159.568 20.4467 159.307 20.0893 158.955 19.812C158.614 19.524 158.182 19.38 157.659 19.38C157.136 19.38 156.699 19.524 156.347 19.812C155.995 20.0893 155.728 20.4467 155.547 20.884C155.376 21.3213 155.291 21.78 155.291 22.26C155.291 22.74 155.376 23.1987 155.547 23.636C155.728 24.0733 155.995 24.436 156.347 24.724C156.699 25.0013 157.136 25.14 157.659 25.14Z" fill="#0E0606"/>
</svg>
