<svg width="197" height="64" viewBox="0 0 197 64" fill="none" xmlns="http://www.w3.org/2000/svg">
<g filter="url(#filter0_d_1_6233)">
<rect x="12" y="8" width="173" height="40" rx="8" fill="white" shape-rendering="crispEdges"/>
<rect x="12" y="8" width="40" height="40" rx="8" fill="#F5E11A"/>
<path d="M32.0003 19.6667C27.4087 19.6667 23.667 23.4084 23.667 28C23.667 32.5917 27.4087 36.3334 32.0003 36.3334C36.592 36.3334 40.3337 32.5917 40.3337 28C40.3337 23.4084 36.592 19.6667 32.0003 19.6667ZM35.6253 30.975C35.5087 31.175 35.3003 31.2834 35.0837 31.2834C34.9753 31.2834 34.867 31.2584 34.767 31.1917L32.1837 29.65C31.542 29.2667 31.067 28.425 31.067 27.6834V24.2667C31.067 23.925 31.3503 23.6417 31.692 23.6417C32.0337 23.6417 32.317 23.925 32.317 24.2667V27.6834C32.317 27.9834 32.567 28.425 32.8253 28.575L35.4087 30.1167C35.7087 30.2917 35.8087 30.675 35.6253 30.975Z" fill="#786363"/>
<path d="M69.5196 34V32.704L71.9356 30.512C72.7036 29.8293 73.3702 29.2373 73.9356 28.736C74.5009 28.224 74.9382 27.7387 75.2476 27.28C75.5676 26.8107 75.7276 26.2987 75.7276 25.744C75.7276 25.3067 75.6209 24.9333 75.4076 24.624C75.1942 24.3147 74.9222 24.08 74.5916 23.92C74.2609 23.7493 73.9142 23.664 73.5516 23.664C73.1142 23.664 72.7516 23.7387 72.4636 23.888C72.1862 24.0267 71.9622 24.208 71.7916 24.432C71.6316 24.6453 71.5142 24.8693 71.4396 25.104C71.3649 25.328 71.3169 25.5307 71.2956 25.712C71.2742 25.8827 71.2636 25.9893 71.2636 26.032H69.4716C69.4716 25.9147 69.4929 25.7013 69.5356 25.392C69.5889 25.0827 69.6902 24.7413 69.8396 24.368C69.9996 23.984 70.2289 23.6107 70.5276 23.248C70.8369 22.8853 71.2369 22.5867 71.7276 22.352C72.2289 22.1173 72.8529 22 73.5996 22C74.3142 22 74.9756 22.144 75.5836 22.432C76.1916 22.72 76.6769 23.1413 77.0396 23.696C77.4129 24.24 77.5996 24.9013 77.5996 25.68C77.5996 26.3947 77.4182 27.0453 77.0556 27.632C76.7036 28.208 76.2236 28.7787 75.6156 29.344C75.0182 29.8987 74.3516 30.496 73.6156 31.136L72.2876 32.336H77.8236V34H69.5196ZM85.0213 34V31.36L79.2613 31.344V29.68L84.6053 22.16H86.8933V29.76H88.8773V31.36H86.8933V34H85.0213ZM81.1493 29.76H85.0213V24.272L81.1493 29.76ZM90.4596 36.576L96.0116 20.784H97.7236L92.1556 36.576H90.4596ZM102.041 34C102.084 32.9973 102.217 32.0427 102.441 31.136C102.665 30.2293 102.942 29.392 103.273 28.624C103.614 27.8453 103.972 27.1413 104.345 26.512C104.718 25.8827 105.076 25.3387 105.417 24.88C105.758 24.4213 106.036 24.064 106.249 23.808H100.073V22.16H108.361V23.52C108.361 23.52 108.26 23.6373 108.057 23.872C107.854 24.096 107.588 24.4267 107.257 24.864C106.937 25.3013 106.59 25.8293 106.217 26.448C105.844 27.0667 105.486 27.7653 105.145 28.544C104.814 29.3227 104.532 30.1707 104.297 31.088C104.062 31.9947 103.929 32.9653 103.897 34H102.041ZM117.82 34.16C117.116 34.16 116.508 34.0693 115.996 33.888C115.495 33.7067 115.079 33.4773 114.748 33.2C114.418 32.912 114.151 32.608 113.948 32.288C113.756 31.968 113.612 31.6693 113.516 31.392C113.42 31.104 113.356 30.8693 113.324 30.688C113.292 30.5067 113.276 30.416 113.276 30.416H115.18C115.18 30.416 115.196 30.4907 115.228 30.64C115.26 30.7787 115.324 30.9547 115.42 31.168C115.516 31.3707 115.66 31.5787 115.852 31.792C116.055 31.9947 116.316 32.1707 116.636 32.32C116.967 32.4587 117.383 32.528 117.884 32.528C118.631 32.528 119.212 32.352 119.628 32C120.055 31.648 120.268 31.2 120.268 30.656C120.268 30.1867 120.108 29.824 119.788 29.568C119.479 29.3013 119.02 29.0987 118.412 28.96L116.844 28.592C116.258 28.464 115.714 28.2773 115.212 28.032C114.722 27.776 114.322 27.4347 114.012 27.008C113.714 26.5813 113.564 26.0427 113.564 25.392C113.564 24.688 113.735 24.0853 114.076 23.584C114.428 23.072 114.908 22.6827 115.516 22.416C116.135 22.1387 116.839 22 117.628 22C118.396 22 119.031 22.1173 119.532 22.352C120.034 22.576 120.434 22.8533 120.732 23.184C121.031 23.5147 121.25 23.8507 121.388 24.192C121.538 24.5227 121.634 24.8053 121.676 25.04C121.719 25.264 121.74 25.376 121.74 25.376H119.916C119.916 25.376 119.895 25.2907 119.852 25.12C119.81 24.9387 119.708 24.7307 119.548 24.496C119.399 24.2613 119.164 24.0587 118.844 23.888C118.535 23.7067 118.114 23.616 117.58 23.616C116.844 23.616 116.295 23.7867 115.932 24.128C115.57 24.4693 115.388 24.848 115.388 25.264C115.388 25.6693 115.543 25.9947 115.852 26.24C116.162 26.4747 116.578 26.6507 117.1 26.768L118.78 27.168C119.399 27.3067 119.959 27.5147 120.46 27.792C120.972 28.0693 121.378 28.4373 121.676 28.896C121.975 29.344 122.124 29.8933 122.124 30.544C122.124 31.2053 121.959 31.8133 121.628 32.368C121.308 32.912 120.828 33.3493 120.188 33.68C119.548 34 118.759 34.16 117.82 34.16ZM126.581 34.16C125.727 34.16 125.061 33.8933 124.581 33.36C124.101 32.8267 123.861 32.1173 123.861 31.232V25.52H125.685V31.008C125.685 31.52 125.818 31.92 126.085 32.208C126.362 32.4853 126.735 32.624 127.205 32.624C127.663 32.624 128.031 32.5067 128.309 32.272C128.586 32.0373 128.783 31.7387 128.901 31.376C129.029 31.0027 129.093 30.6187 129.093 30.224V25.52H130.917V34H129.093V32.784H128.997C128.911 32.944 128.773 33.136 128.581 33.36C128.399 33.5733 128.143 33.76 127.813 33.92C127.493 34.08 127.082 34.16 126.581 34.16ZM133.193 37.136V25.52H135.017V26.784H135.113C135.219 26.624 135.374 26.432 135.577 26.208C135.79 25.984 136.073 25.7867 136.425 25.616C136.787 25.4453 137.241 25.36 137.785 25.36C138.414 25.36 138.969 25.488 139.449 25.744C139.929 25.9893 140.323 26.3253 140.633 26.752C140.953 27.168 141.187 27.6373 141.337 28.16C141.497 28.6827 141.577 29.216 141.577 29.76C141.577 30.304 141.497 30.8373 141.337 31.36C141.187 31.8827 140.953 32.3573 140.633 32.784C140.323 33.2 139.929 33.536 139.449 33.792C138.969 34.0373 138.414 34.16 137.785 34.16C137.241 34.16 136.787 34.0747 136.425 33.904C136.073 33.7333 135.79 33.536 135.577 33.312C135.374 33.088 135.219 32.896 135.113 32.736H135.017V37.136H133.193ZM135.017 29.76C135.017 30.24 135.102 30.6987 135.273 31.136C135.454 31.5733 135.715 31.936 136.057 32.224C136.409 32.5013 136.846 32.64 137.369 32.64C137.902 32.64 138.339 32.5013 138.681 32.224C139.033 31.936 139.294 31.5733 139.465 31.136C139.646 30.6987 139.737 30.24 139.737 29.76C139.737 29.28 139.646 28.8213 139.465 28.384C139.294 27.9467 139.033 27.5893 138.681 27.312C138.339 27.024 137.902 26.88 137.369 26.88C136.846 26.88 136.409 27.024 136.057 27.312C135.715 27.5893 135.454 27.9467 135.273 28.384C135.102 28.8213 135.017 29.28 135.017 29.76ZM143.677 37.136V25.52H145.501V26.784H145.597C145.704 26.624 145.858 26.432 146.061 26.208C146.274 25.984 146.557 25.7867 146.909 25.616C147.272 25.4453 147.725 25.36 148.269 25.36C148.898 25.36 149.453 25.488 149.933 25.744C150.413 25.9893 150.808 26.3253 151.117 26.752C151.437 27.168 151.672 27.6373 151.821 28.16C151.981 28.6827 152.061 29.216 152.061 29.76C152.061 30.304 151.981 30.8373 151.821 31.36C151.672 31.8827 151.437 32.3573 151.117 32.784C150.808 33.2 150.413 33.536 149.933 33.792C149.453 34.0373 148.898 34.16 148.269 34.16C147.725 34.16 147.272 34.0747 146.909 33.904C146.557 33.7333 146.274 33.536 146.061 33.312C145.858 33.088 145.704 32.896 145.597 32.736H145.501V37.136H143.677ZM145.501 29.76C145.501 30.24 145.586 30.6987 145.757 31.136C145.938 31.5733 146.2 31.936 146.541 32.224C146.893 32.5013 147.33 32.64 147.853 32.64C148.386 32.64 148.824 32.5013 149.165 32.224C149.517 31.936 149.778 31.5733 149.949 31.136C150.13 30.6987 150.221 30.24 150.221 29.76C150.221 29.28 150.13 28.8213 149.949 28.384C149.778 27.9467 149.517 27.5893 149.165 27.312C148.824 27.024 148.386 26.88 147.853 26.88C147.33 26.88 146.893 27.024 146.541 27.312C146.2 27.5893 145.938 27.9467 145.757 28.384C145.586 28.8213 145.501 29.28 145.501 29.76ZM158.082 34.16C157.154 34.16 156.37 33.952 155.73 33.536C155.101 33.12 154.621 32.576 154.29 31.904C153.97 31.232 153.81 30.5173 153.81 29.76C153.81 29.0027 153.97 28.288 154.29 27.616C154.621 26.944 155.101 26.4 155.73 25.984C156.37 25.568 157.154 25.36 158.082 25.36C159 25.36 159.773 25.568 160.402 25.984C161.042 26.4 161.522 26.944 161.842 27.616C162.173 28.288 162.338 29.0027 162.338 29.76C162.338 30.5173 162.173 31.232 161.842 31.904C161.522 32.576 161.042 33.12 160.402 33.536C159.773 33.952 159 34.16 158.082 34.16ZM158.082 32.608C158.605 32.608 159.042 32.4747 159.394 32.208C159.757 31.9413 160.029 31.5893 160.21 31.152C160.402 30.7147 160.498 30.2507 160.498 29.76C160.498 29.2587 160.402 28.7947 160.21 28.368C160.029 27.9307 159.757 27.5787 159.394 27.312C159.042 27.0453 158.605 26.912 158.082 26.912C157.56 26.912 157.117 27.0453 156.754 27.312C156.392 27.5787 156.12 27.9307 155.938 28.368C155.757 28.7947 155.666 29.2587 155.666 29.76C155.666 30.2507 155.757 30.7147 155.938 31.152C156.12 31.5893 156.392 31.9413 156.754 32.208C157.117 32.4747 157.56 32.608 158.082 32.608ZM164.314 34V25.52H166.138V26.64H166.202C166.362 26.3093 166.612 26.016 166.954 25.76C167.306 25.4933 167.812 25.36 168.474 25.36C168.676 25.36 168.847 25.3707 168.986 25.392C169.135 25.4133 169.21 25.424 169.21 25.424V27.184C169.21 27.184 169.13 27.1733 168.97 27.152C168.81 27.1307 168.628 27.12 168.426 27.12C167.679 27.12 167.108 27.3333 166.714 27.76C166.33 28.176 166.138 28.8533 166.138 29.792V34H164.314ZM174.526 34.16C173.854 34.16 173.315 34.0373 172.91 33.792C172.504 33.5467 172.211 33.2213 172.03 32.816C171.859 32.4 171.774 31.952 171.774 31.472V26.992H170.286V25.52H171.774V23.408H173.598V25.52H175.582V26.992H173.598V31.44C173.598 32.24 174.04 32.64 174.926 32.64C175.15 32.64 175.358 32.624 175.55 32.592C175.742 32.56 175.838 32.544 175.838 32.544V34.032C175.838 34.032 175.704 34.0533 175.438 34.096C175.182 34.1387 174.878 34.16 174.526 34.16Z" fill="#0E0606"/>
</g>
<defs>
<filter id="filter0_d_1_6233" x="0" y="0" width="197" height="64" filterUnits="userSpaceOnUse" color-interpolation-filters="sRGB">
<feFlood flood-opacity="0" result="BackgroundImageFix"/>
<feColorMatrix in="SourceAlpha" type="matrix" values="0 0 0 0 0 0 0 0 0 0 0 0 0 0 0 0 0 0 127 0" result="hardAlpha"/>
<feOffset dy="4"/>
<feGaussianBlur stdDeviation="6"/>
<feComposite in2="hardAlpha" operator="out"/>
<feColorMatrix type="matrix" values="0 0 0 0 0 0 0 0 0 0 0 0 0 0 0 0 0 0 0.1 0"/>
<feBlend mode="normal" in2="BackgroundImageFix" result="effect1_dropShadow_1_6233"/>
<feBlend mode="normal" in="SourceGraphic" in2="effect1_dropShadow_1_6233" result="shape"/>
</filter>
</defs>
</svg>
