<svg width="165" height="64" viewBox="0 0 165 64" fill="none" xmlns="http://www.w3.org/2000/svg">
<g filter="url(#filter0_d_1_6237)">
<rect x="12" y="8" width="141" height="40" rx="8" fill="white" shape-rendering="crispEdges"/>
<rect x="12" y="8" width="40" height="40" rx="8" fill="#F5E11A"/>
<path d="M36.9248 26.9333H34.3498V20.9333C34.3498 19.5333 33.5914 19.25 32.6664 20.3L31.9998 21.0583L26.3581 27.475C25.5831 28.35 25.9081 29.0667 27.0748 29.0667H29.6498V35.0667C29.6498 36.4667 30.4081 36.75 31.3331 35.7L31.9998 34.9417L37.6414 28.525C38.4164 27.65 38.0914 26.9333 36.9248 26.9333Z" fill="#786363"/>
<path d="M73.4363 34.16C72.6789 34.16 72.0443 34.0533 71.5323 33.84C71.0309 33.616 70.6203 33.3387 70.3003 33.008C69.9909 32.6667 69.7509 32.32 69.5803 31.968C69.4203 31.616 69.3083 31.3013 69.2443 31.024C69.1909 30.7467 69.1643 30.56 69.1643 30.464H70.9083C70.9083 30.464 70.9189 30.5387 70.9403 30.688C70.9723 30.8267 71.0256 31.0027 71.1003 31.216C71.1856 31.4293 71.3189 31.6427 71.5003 31.856C71.6816 32.0587 71.9269 32.2347 72.2363 32.384C72.5456 32.5227 72.9403 32.592 73.4203 32.592C73.9963 32.592 74.4709 32.4693 74.8443 32.224C75.2283 31.9787 75.5109 31.664 75.6923 31.28C75.8843 30.896 75.9803 30.4907 75.9803 30.064C75.9803 29.6373 75.8843 29.2267 75.6923 28.832C75.5109 28.4267 75.2336 28.1013 74.8603 27.856C74.4869 27.6 74.0283 27.472 73.4843 27.472C73.0576 27.472 72.7003 27.5413 72.4123 27.68C72.1349 27.8187 71.9109 27.9787 71.7403 28.16C71.5803 28.3307 71.4629 28.4853 71.3883 28.624C71.3243 28.7627 71.2923 28.832 71.2923 28.832H69.4523L70.4283 22.16H76.9883V23.808H71.7563L71.3083 26.96H71.3563C71.4523 26.8533 71.5963 26.7253 71.7883 26.576C71.9803 26.416 72.2363 26.2773 72.5563 26.16C72.8869 26.032 73.3083 25.968 73.8203 25.968C74.6843 25.968 75.4096 26.1653 75.9963 26.56C76.5936 26.944 77.0416 27.4507 77.3403 28.08C77.6496 28.6987 77.8043 29.3493 77.8043 30.032C77.8043 30.544 77.7136 31.0453 77.5323 31.536C77.3509 32.0267 77.0789 32.4693 76.7163 32.864C76.3643 33.2587 75.9109 33.5733 75.3563 33.808C74.8123 34.0427 74.1723 34.16 73.4363 34.16ZM84.3001 34.144C83.5428 34.144 82.8708 33.984 82.2841 33.664C81.7081 33.344 81.2228 32.9013 80.8281 32.336C80.4335 31.7707 80.1348 31.1253 79.9321 30.4C79.7295 29.664 79.6281 28.8853 79.6281 28.064C79.6281 27.2427 79.7295 26.4693 79.9321 25.744C80.1348 25.008 80.4335 24.3573 80.8281 23.792C81.2228 23.2267 81.7081 22.784 82.2841 22.464C82.8708 22.144 83.5428 21.984 84.3001 21.984C85.0575 21.984 85.7241 22.144 86.3001 22.464C86.8868 22.784 87.3775 23.2267 87.7721 23.792C88.1668 24.3573 88.4655 25.008 88.6681 25.744C88.8708 26.4693 88.9721 27.2427 88.9721 28.064C88.9721 28.8853 88.8708 29.664 88.6681 30.4C88.4655 31.1253 88.1668 31.7707 87.7721 32.336C87.3775 32.9013 86.8868 33.344 86.3001 33.664C85.7241 33.984 85.0575 34.144 84.3001 34.144ZM84.3001 32.464C85.0895 32.464 85.7455 32.096 86.2681 31.36C86.7908 30.6133 87.0521 29.5147 87.0521 28.064C87.0521 26.624 86.7908 25.536 86.2681 24.8C85.7455 24.064 85.0895 23.696 84.3001 23.696C83.5108 23.696 82.8548 24.064 82.3321 24.8C81.8095 25.536 81.5481 26.624 81.5481 28.064C81.5481 29.504 81.8041 30.5973 82.3161 31.344C82.8388 32.0907 83.5001 32.464 84.3001 32.464ZM94.0056 32.096V29.744H91.6376V28.256H94.0056V25.888H95.4936V28.256H97.8456V29.744H95.4936V32.096H94.0056ZM108.75 34.16C108.046 34.16 107.438 34.0693 106.926 33.888C106.425 33.7067 106.009 33.4773 105.678 33.2C105.347 32.912 105.081 32.608 104.878 32.288C104.686 31.968 104.542 31.6693 104.446 31.392C104.35 31.104 104.286 30.8693 104.254 30.688C104.222 30.5067 104.206 30.416 104.206 30.416H106.11C106.11 30.416 106.126 30.4907 106.158 30.64C106.19 30.7787 106.254 30.9547 106.35 31.168C106.446 31.3707 106.59 31.5787 106.782 31.792C106.985 31.9947 107.246 32.1707 107.566 32.32C107.897 32.4587 108.313 32.528 108.814 32.528C109.561 32.528 110.142 32.352 110.558 32C110.985 31.648 111.198 31.2 111.198 30.656C111.198 30.1867 111.038 29.824 110.718 29.568C110.409 29.3013 109.95 29.0987 109.342 28.96L107.774 28.592C107.187 28.464 106.643 28.2773 106.142 28.032C105.651 27.776 105.251 27.4347 104.942 27.008C104.643 26.5813 104.494 26.0427 104.494 25.392C104.494 24.688 104.665 24.0853 105.006 23.584C105.358 23.072 105.838 22.6827 106.446 22.416C107.065 22.1387 107.769 22 108.558 22C109.326 22 109.961 22.1173 110.462 22.352C110.963 22.576 111.363 22.8533 111.662 23.184C111.961 23.5147 112.179 23.8507 112.318 24.192C112.467 24.5227 112.563 24.8053 112.606 25.04C112.649 25.264 112.67 25.376 112.67 25.376H110.846C110.846 25.376 110.825 25.2907 110.782 25.12C110.739 24.9387 110.638 24.7307 110.478 24.496C110.329 24.2613 110.094 24.0587 109.774 23.888C109.465 23.7067 109.043 23.616 108.51 23.616C107.774 23.616 107.225 23.7867 106.862 24.128C106.499 24.4693 106.318 24.848 106.318 25.264C106.318 25.6693 106.473 25.9947 106.782 26.24C107.091 26.4747 107.507 26.6507 108.03 26.768L109.71 27.168C110.329 27.3067 110.889 27.5147 111.39 27.792C111.902 28.0693 112.307 28.4373 112.606 28.896C112.905 29.344 113.054 29.8933 113.054 30.544C113.054 31.2053 112.889 31.8133 112.558 32.368C112.238 32.912 111.758 33.3493 111.118 33.68C110.478 34 109.689 34.16 108.75 34.16ZM114.95 34V21.84H116.774V28.896L119.958 25.52H122.198L118.502 29.392L122.31 34H120.054L116.774 30V34H114.95ZM125.051 24.064C124.721 24.064 124.449 23.952 124.235 23.728C124.022 23.504 123.915 23.2427 123.915 22.944C123.915 22.6347 124.022 22.3733 124.235 22.16C124.449 21.936 124.721 21.824 125.051 21.824C125.382 21.824 125.654 21.936 125.867 22.16C126.091 22.3733 126.203 22.6347 126.203 22.944C126.203 23.2533 126.091 23.52 125.867 23.744C125.654 23.9573 125.382 24.064 125.051 24.064ZM124.155 34V25.52H125.979V34H124.155ZM128.322 34V25.52H130.146V26.752H130.242C130.316 26.6027 130.444 26.4213 130.626 26.208C130.807 25.984 131.058 25.7867 131.378 25.616C131.708 25.4453 132.124 25.36 132.626 25.36C133.255 25.36 133.783 25.504 134.21 25.792C134.636 26.08 134.956 26.464 135.17 26.944C135.394 27.424 135.506 27.952 135.506 28.528V34H133.682V28.72C133.682 28.208 133.538 27.776 133.25 27.424C132.972 27.072 132.556 26.896 132.002 26.896C131.564 26.896 131.207 27.008 130.93 27.232C130.663 27.4453 130.466 27.728 130.338 28.08C130.21 28.4213 130.146 28.7893 130.146 29.184V34H128.322ZM140.883 34.16C140.211 34.16 139.656 34.0693 139.219 33.888C138.792 33.696 138.451 33.4667 138.195 33.2C137.939 32.9227 137.747 32.6453 137.618 32.368C137.501 32.0907 137.427 31.8613 137.395 31.68C137.363 31.488 137.347 31.392 137.347 31.392H139.123C139.123 31.392 139.139 31.4613 139.171 31.6C139.213 31.728 139.293 31.8773 139.411 32.048C139.528 32.2187 139.709 32.3733 139.955 32.512C140.2 32.64 140.525 32.704 140.931 32.704C141.421 32.704 141.784 32.592 142.019 32.368C142.264 32.144 142.387 31.888 142.387 31.6C142.387 31.3227 142.285 31.104 142.083 30.944C141.88 30.784 141.592 30.6613 141.219 30.576L140.067 30.32C139.619 30.2133 139.197 30.0693 138.803 29.888C138.419 29.696 138.104 29.4453 137.859 29.136C137.624 28.816 137.507 28.4053 137.507 27.904C137.507 27.168 137.784 26.56 138.339 26.08C138.893 25.6 139.64 25.36 140.579 25.36C141.187 25.36 141.688 25.4453 142.083 25.616C142.488 25.7867 142.808 26 143.043 26.256C143.277 26.5013 143.453 26.752 143.571 27.008C143.688 27.2533 143.763 27.4613 143.795 27.632C143.837 27.792 143.859 27.872 143.859 27.872H142.147C142.147 27.872 142.131 27.8187 142.099 27.712C142.067 27.6053 141.997 27.4827 141.891 27.344C141.784 27.1947 141.624 27.0667 141.411 26.96C141.208 26.8427 140.931 26.784 140.579 26.784C140.099 26.784 139.752 26.8907 139.539 27.104C139.325 27.3173 139.219 27.5467 139.219 27.792C139.219 28.048 139.32 28.2507 139.523 28.4C139.736 28.5387 140.013 28.6453 140.355 28.72L141.491 28.976C142.248 29.1467 142.872 29.4293 143.363 29.824C143.853 30.208 144.099 30.768 144.099 31.504C144.099 31.9947 143.971 32.4427 143.715 32.848C143.469 33.2427 143.107 33.5627 142.627 33.808C142.147 34.0427 141.565 34.16 140.883 34.16Z" fill="#0E0606"/>
</g>
<defs>
<filter id="filter0_d_1_6237" x="0" y="0" width="165" height="64" filterUnits="userSpaceOnUse" color-interpolation-filters="sRGB">
<feFlood flood-opacity="0" result="BackgroundImageFix"/>
<feColorMatrix in="SourceAlpha" type="matrix" values="0 0 0 0 0 0 0 0 0 0 0 0 0 0 0 0 0 0 127 0" result="hardAlpha"/>
<feOffset dy="4"/>
<feGaussianBlur stdDeviation="6"/>
<feComposite in2="hardAlpha" operator="out"/>
<feColorMatrix type="matrix" values="0 0 0 0 0 0 0 0 0 0 0 0 0 0 0 0 0 0 0.1 0"/>
<feBlend mode="normal" in2="BackgroundImageFix" result="effect1_dropShadow_1_6237"/>
<feBlend mode="normal" in="SourceGraphic" in2="effect1_dropShadow_1_6237" result="shape"/>
</filter>
</defs>
</svg>
