<svg width="40" height="40" viewBox="0 0 40 40" fill="none" xmlns="http://www.w3.org/2000/svg">
<rect width="40" height="40" rx="20" fill="white" fill-opacity="0.16"/>
<path d="M25.8813 16.9062C25.8813 17.0375 25.8813 17.1688 25.8813 17.2813C25.8813 21.1625 22.9188 25.6438 17.5188 25.6438C15.85 25.6438 14.3125 25.1562 13 24.3313C13.225 24.35 13.4687 24.3688 13.6937 24.3688C15.0625 24.3688 16.3375 23.9 17.35 23.1125C16.0562 23.0938 14.9688 22.2313 14.6125 21.0688C14.8 21.1063 14.9687 21.125 15.175 21.125C15.4375 21.125 15.7 21.0875 15.9438 21.0125C14.5938 20.75 13.5813 19.5688 13.5813 18.1438C13.5813 18.125 13.5813 18.125 13.5813 18.1063C13.975 18.3313 14.425 18.4625 14.9125 18.4813C14.125 17.9563 13.6 17.0563 13.6 16.025C13.6 15.4813 13.75 14.975 13.9938 14.5438C15.4375 16.325 17.6125 17.4875 20.05 17.6188C19.9937 17.4125 19.975 17.1688 19.975 16.9438C19.975 15.3125 21.2875 14 22.9187 14C23.7625 14 24.5312 14.3563 25.0562 14.9188C25.7312 14.7875 26.35 14.5438 26.9312 14.2063C26.7062 14.9 26.2375 15.4625 25.6375 15.8375C26.2375 15.7625 26.8 15.6125 27.325 15.3688C26.95 15.9688 26.4625 16.4938 25.8813 16.9062Z" fill="white"/>
</svg>
