<svg width="609" height="94" viewBox="0 0 609 94" fill="none" xmlns="http://www.w3.org/2000/svg">
<path d="M608 63.066C594.354 55.052 593.355 60.7601 573.779 53.9164C568.991 52.0942 567.769 51.0249 565.261 47.7094C555.952 33.5133 559.265 29.7419 541.387 27.3242C537.04 26.7766 535.592 26.6806 532.239 26.1543C520.453 24.0628 516.457 18.6357 508.412 24.3819C502.273 29.5239 500.033 36.369 493.237 40.0346C487.679 42.4692 484.848 40.6231 478.062 41.3116C474.459 41.8237 474.008 42.2332 470.475 42.9017C458.585 44.5106 456.958 28.3873 447.712 30.3526C442.193 32.5184 433.845 45.8944 430.694 50.8662C414.762 76.9777 409.418 110.461 398.393 82.3326C390.758 60.5128 388.986 38.8882 382.275 30.6236C378.174 26.8343 373.777 27.1174 365.207 23.2761C352.749 17.3205 344.59 6.84095 332.953 9.05398C326.029 10.818 323.665 14.5031 317.778 8.89758C311.004 1.56336 308.624 -5.72997 302.603 12.0907C295.007 35.8131 295.184 25.6322 287.428 32.5993C273.46 47.6493 268.275 98.8061 254.233 86.4562C240.924 72.3151 235.09 33.9715 220.089 28.0841C209.206 24.6758 195.442 37.7451 158.851 21.479C150.609 17.8835 149.797 18.7508 142.32 16.0115C135.786 13.4847 130.133 10.1695 123.391 7.29508C104.849 -0.237911 100.634 7.49459 83.6405 3.48424C65.398 -0.913095 63.8008 4.59948 50.5404 25.2079C37.3619 45.5391 34.6794 61.3117 26.5808 51.4845C23.0702 46.3649 22.117 43.0491 18.25 36.364C13.5729 29.2787 12.4611 31.2897 1 26.8088" stroke="#E2DF3F" stroke-opacity="0.6" stroke-width="1.5" stroke-linecap="round" stroke-linejoin="round"/>
</svg>
