<svg width="400" height="128" viewBox="0 0 400 128" fill="none" xmlns="http://www.w3.org/2000/svg">
<rect width="400" height="128" rx="24" fill="url(#paint0_linear_1_275)"/>
<rect x="0.5" y="0.5" width="399" height="127" rx="23.5" stroke="white" stroke-opacity="0.16"/>
<path opacity="0.4" d="M323.027 63.952C320.307 63.952 317.837 63.408 315.615 62.32C313.394 61.232 311.49 59.668 309.903 57.628C308.362 55.588 307.161 53.1627 306.299 50.352C305.483 47.496 305.075 44.3227 305.075 40.832C305.075 35.8453 305.846 31.6067 307.387 28.116C308.929 24.58 311.059 21.8827 313.779 20.024C316.499 18.1653 319.627 17.236 323.163 17.236C326.835 17.236 329.986 18.2333 332.615 20.228C335.29 22.1773 337.33 24.92 338.735 28.456C340.186 31.9467 340.911 36.0493 340.911 40.764C340.911 44.2093 340.503 47.36 339.687 50.216C338.871 53.072 337.67 55.52 336.083 57.56C334.497 59.6 332.615 61.1867 330.439 62.32C328.263 63.408 325.793 63.952 323.027 63.952ZM323.027 58.58C324.705 58.58 326.246 58.2173 327.651 57.492C329.057 56.7213 330.281 55.588 331.323 54.092C332.411 52.596 333.25 50.7373 333.839 48.516C334.429 46.2493 334.723 43.5973 334.723 40.56C334.723 36.7973 334.225 33.5787 333.227 30.904C332.275 28.2293 330.915 26.1667 329.147 24.716C327.425 23.2653 325.407 22.54 323.095 22.54C321.01 22.54 319.061 23.1747 317.247 24.444C315.479 25.668 314.029 27.6173 312.895 30.292C311.807 32.9213 311.263 36.344 311.263 40.56C311.263 43.5067 311.558 46.1133 312.147 48.38C312.737 50.6013 313.553 52.4827 314.595 54.024C315.638 55.52 316.862 56.6533 318.267 57.424C319.718 58.1947 321.305 58.58 323.027 58.58ZM348.352 63V55.724L364.332 43.552C365.329 42.736 366.349 41.8747 367.392 40.968C368.434 40.016 369.386 38.9733 370.248 37.84C371.154 36.7067 371.88 35.5053 372.424 34.236C373.013 32.9667 373.308 31.6067 373.308 30.156C373.308 28.66 372.968 27.3453 372.288 26.212C371.608 25.0787 370.588 24.2173 369.228 23.628C367.913 22.9933 366.258 22.676 364.264 22.676C362.904 22.676 361.634 22.8573 360.456 23.22C359.277 23.5827 358.257 24.2173 357.396 25.124C356.534 26.0307 355.877 27.232 355.424 28.728C355.016 30.224 354.812 32.0827 354.812 34.304L348.828 33.284C348.737 30.02 349.258 27.1867 350.392 24.784C351.525 22.336 353.248 20.4547 355.56 19.14C357.917 17.8253 360.864 17.168 364.4 17.168C367.437 17.168 370.089 17.6667 372.356 18.664C374.622 19.6613 376.368 21.112 377.592 23.016C378.861 24.8747 379.496 27.096 379.496 29.68C379.496 31.8107 379.133 33.7827 378.408 35.596C377.682 37.364 376.753 38.996 375.62 40.492C374.486 41.9427 373.24 43.2573 371.88 44.436C370.565 45.5693 369.273 46.5893 368.004 47.496L355.152 57.288V57.9L380.584 57.628V63H348.352Z" fill="url(#paint1_linear_1_275)"/>
<rect x="24" y="24" width="80" height="80" rx="8" fill="#FF444E"/>
<path fill-rule="evenodd" clip-rule="evenodd" d="M70.1367 81.331H55.0749V82.75H70.1367V81.331ZM64.3081 77.599H60.9035C60.7668 78.6005 60.2843 79.4951 59.5775 80.1591H65.6341C64.9273 79.4951 64.4448 78.6005 64.3081 77.599ZM49.4164 75.421C49.4164 75.7471 49.3724 76.008 49.604 76.2396C49.7197 76.3553 49.8789 76.4272 50.0535 76.4272H75.0438C75.3929 76.4272 75.6808 76.1394 75.6808 75.7902V75.421H49.4164ZM53.2446 62.1256C53.2446 61.802 53.5069 61.5397 53.8305 61.5397C54.1541 61.5397 54.4164 61.802 54.4164 62.1256V68.1419C54.4164 68.4655 54.1541 68.7279 53.8305 68.7279C53.5069 68.7279 53.2446 68.4655 53.2446 68.1419V62.1256ZM58.9769 62.7034C58.9769 62.3798 59.2392 62.1175 59.5628 62.1175C59.8864 62.1175 60.1488 62.3798 60.1488 62.7034V65.8376C60.1488 66.1612 59.8864 66.4236 59.5628 66.4236C59.2392 66.4236 58.9769 66.1612 58.9769 65.8376V62.7034ZM61.8431 61.4106C61.8431 61.087 62.1054 60.8247 62.429 60.8247C62.7526 60.8247 63.015 61.087 63.015 61.4106V67.7694C63.015 68.093 62.7526 68.3553 62.429 68.3553C62.1054 68.3553 61.8431 68.093 61.8431 67.7694V61.4106ZM64.7092 62.7308C64.7092 62.4072 64.9716 62.1448 65.2952 62.1448C65.6188 62.1448 65.8811 62.4072 65.8811 62.7308V66.7677C65.8811 67.0913 65.6188 67.3537 65.2952 67.3537C64.9716 67.3537 64.7092 67.0913 64.7092 66.7677V62.7308ZM70.4417 64.3266C70.4417 64.003 70.704 63.7407 71.0276 63.7407C71.3512 63.7407 71.6135 64.003 71.6135 64.3266V68.6569C71.6135 68.9805 71.3512 69.2429 71.0276 69.2429C70.704 69.2429 70.4417 68.9805 70.4417 68.6569V64.3266ZM58.2414 71.1728H57.2515V72.1627H58.2414V71.1728ZM56.6656 70.0008H58.8274C59.151 70.0008 59.4134 70.2632 59.4134 70.5868V71.0818H72.4885C72.8121 71.0818 73.0744 71.3441 73.0744 71.6677C73.0744 71.9913 72.8121 72.2537 72.4885 72.2537H59.4134V72.7487C59.4134 73.0722 59.151 73.3346 58.8274 73.3346H56.6656C56.342 73.3346 56.0796 73.0722 56.0796 72.7487V72.2537H52.6089C52.2853 72.2537 52.0229 71.9913 52.0229 71.6677C52.0229 71.3441 52.2853 71.0818 52.6089 71.0818H56.0796V70.5868C56.0796 70.2632 56.342 70.0008 56.6656 70.0008ZM74.2707 55.1302C75.4547 53.9165 77.4003 53.891 78.6142 55.0751C79.8279 56.259 79.8535 58.2046 78.6693 59.4184C77.4853 60.6321 75.5399 60.6577 74.3259 59.4736C73.1121 58.2896 73.0867 56.3441 74.2707 55.1302ZM78.3288 52.7485C78.1807 52.6876 78.0312 52.6344 77.8807 52.5891C77.6655 52.5398 77.4874 52.3703 77.4387 52.1401L77.2268 51.1575L75.6549 51.177L75.4782 52.1076C75.4478 52.3278 75.2925 52.521 75.0656 52.5886C74.7972 52.6687 74.3884 52.8288 74.1528 52.9651C73.9671 53.0805 73.7241 53.0865 73.5279 52.9607L72.6806 52.414L71.5828 53.5395L72.1263 54.3377C72.2506 54.5132 72.2731 54.7508 72.1643 54.9531C72.029 55.2042 71.8557 55.5962 71.785 55.8635C71.7357 56.0787 71.5661 56.2568 71.3359 56.3055L70.3532 56.5175L70.3728 58.0894L71.3035 58.2661C71.5237 58.2965 71.7169 58.4518 71.7845 58.6788C71.8646 58.9472 72.0246 59.3557 72.161 59.5914C72.2764 59.777 72.2824 60.0201 72.1566 60.2162L71.6098 61.0637L72.7353 62.1615L73.5333 61.6181C73.7088 61.4938 73.9464 61.4713 74.1487 61.5801C74.3997 61.7153 74.792 61.8887 75.0592 61.9594C75.2744 62.0087 75.4524 62.1783 75.5013 62.4085L75.7132 63.3911L77.2851 63.3715L77.4617 62.4408C77.4921 62.2205 77.6475 62.0273 77.8744 61.9597C78.1427 61.8797 78.5514 61.7196 78.787 61.5832C78.9726 61.4678 79.2157 61.4617 79.4119 61.5876L80.2594 62.1344L81.3572 61.009L80.8138 60.2108C80.6895 60.0354 80.667 59.7977 80.7757 59.5955C80.911 59.3444 81.0844 58.9522 81.1552 58.6849C81.2045 58.4697 81.374 58.2916 81.6042 58.2429L82.5868 58.031L82.5673 56.459L81.6366 56.2824C81.4164 56.2519 81.2232 56.0967 81.1556 55.8697C81.0755 55.6015 80.9153 55.1926 80.779 54.9571C80.6637 54.7715 80.6576 54.5284 80.7835 54.3322L81.3303 53.4847L80.2048 52.3869L79.4067 52.9304C79.2312 53.0547 78.9935 53.0772 78.7913 52.9684C78.6366 52.8849 78.4821 52.8114 78.3289 52.7483L78.3288 52.7485ZM69.2026 57.8793H50.0535C49.7043 57.8793 49.4164 58.1671 49.4164 58.5162V74.249H75.6808V64.5591L75.2488 64.5645C74.9656 64.5678 74.7271 64.3689 74.6703 64.102L74.4278 62.9807L73.9173 62.7715L72.9991 63.3967C72.7586 63.5608 72.4394 63.5212 72.2454 63.3164L70.452 61.567C70.2493 61.3698 70.2203 61.0614 70.3674 60.8324L70.991 59.8657L70.777 59.3561L69.6875 59.1493C69.3983 59.0951 69.199 58.8366 69.211 58.5511L69.2026 57.8793ZM67.5754 61.9721C67.5754 61.6485 67.8378 61.3862 68.1614 61.3862C68.4849 61.3862 68.7473 61.6485 68.7473 61.9721V68.0972C68.7473 68.4208 68.4849 68.6832 68.1614 68.6832C67.8378 68.6832 67.5754 68.4208 67.5754 68.0972V61.9721ZM52.269 47.503L56.6699 45.3221C57.0406 45.1281 57.4546 45.3469 57.5269 45.7245L58.5949 51.3042C58.6001 51.3315 58.6033 51.3587 58.6046 51.3857C58.6596 51.6122 58.6665 51.8518 58.6274 52.0912C58.3628 53.711 56.2588 54.5437 55.2324 53.3808C54.8956 52.9993 54.7775 52.5001 54.859 52.0015C55.0352 50.9234 56.1007 50.072 57.1884 50.179L56.5224 46.6998L53.1632 48.3645L54.1477 53.5081C54.1529 53.5354 54.1561 53.5626 54.1574 53.5896C54.2124 53.8162 54.2193 54.0557 54.1803 54.295C53.9157 55.9148 51.8116 56.7475 50.7852 55.5847C50.4484 55.2031 50.3303 54.7039 50.4118 54.2054C50.588 53.1273 51.6535 52.2759 52.7412 52.3829L51.9307 48.1482C51.8785 47.8753 52.025 47.6103 52.269 47.503ZM64.1228 46.7062C64.1049 46.3958 64.3344 46.1233 64.6478 46.0913C65.1603 46.0389 65.7338 46.2919 66.1822 46.7584C66.5914 47.184 66.9128 47.7983 66.9871 48.518C67.0199 48.8391 66.7864 49.1261 66.4653 49.1589C66.1435 49.1918 65.8582 48.9612 65.8237 48.6305C65.7759 48.1727 65.5671 47.7877 65.2962 47.5249L65.3317 52.3514C65.3332 52.6247 65.3207 52.8594 65.2239 53.1295C64.8882 54.0676 63.8416 54.6988 62.8542 54.5555C61.7758 54.3988 61.1639 53.3861 61.5312 52.3596C61.8982 51.3341 63.1029 50.684 64.1542 50.9883L64.1228 46.7063L64.1228 46.7062ZM56.1107 63.609C56.1107 63.2854 56.3731 63.023 56.6967 63.023C57.0203 63.023 57.2826 63.2854 57.2826 63.609V66.7432C57.2826 67.0668 57.0203 67.3291 56.6967 67.3291C56.3731 67.3291 56.1107 67.0668 56.1107 66.7432V63.609Z" fill="white"/>
<path d="M147.768 92.368V89.944H151.44C152.72 89.944 153.672 89.696 154.296 89.2C154.936 88.688 155.256 87.856 155.256 86.704C155.256 85.664 154.96 84.88 154.368 84.352C153.776 83.824 152.872 83.56 151.656 83.56H147.768V81.16H151.752C152.76 81.16 153.664 81.28 154.464 81.52C155.28 81.76 155.976 82.112 156.552 82.576C157.128 83.04 157.568 83.624 157.872 84.328C158.176 85.032 158.328 85.848 158.328 86.776C158.328 87.992 158.048 89.016 157.488 89.848C156.944 90.68 156.136 91.312 155.064 91.744C153.992 92.16 152.656 92.368 151.056 92.368H147.768ZM145.776 97V81.16H148.8V97H145.776ZM160.631 97V90.688V84.448H163.199L163.127 88.888H163.559C163.687 87.832 163.903 86.96 164.207 86.272C164.511 85.568 164.927 85.04 165.455 84.688C165.999 84.336 166.655 84.16 167.423 84.16C167.599 84.16 167.783 84.176 167.975 84.208C168.167 84.224 168.383 84.272 168.623 84.352L168.479 87.568C168.223 87.456 167.959 87.376 167.687 87.328C167.415 87.28 167.167 87.256 166.943 87.256C166.319 87.256 165.783 87.424 165.335 87.76C164.887 88.08 164.527 88.544 164.255 89.152C163.983 89.744 163.791 90.456 163.679 91.288V97H160.631ZM176.091 97.312C174.859 97.312 173.771 97.064 172.827 96.568C171.883 96.056 171.147 95.312 170.619 94.336C170.091 93.36 169.827 92.144 169.827 90.688C169.827 89.216 170.099 88 170.643 87.04C171.187 86.064 171.931 85.336 172.875 84.856C173.819 84.376 174.883 84.136 176.067 84.136C177.283 84.136 178.363 84.384 179.307 84.88C180.251 85.376 180.995 86.12 181.539 87.112C182.083 88.088 182.355 89.304 182.355 90.76C182.355 92.232 182.075 93.456 181.515 94.432C180.971 95.408 180.227 96.136 179.283 96.616C178.339 97.08 177.275 97.312 176.091 97.312ZM176.187 95.008C176.843 95.008 177.403 94.856 177.867 94.552C178.331 94.232 178.683 93.76 178.923 93.136C179.179 92.512 179.307 91.768 179.307 90.904C179.307 89.992 179.179 89.216 178.923 88.576C178.667 87.92 178.291 87.416 177.795 87.064C177.299 86.712 176.699 86.536 175.995 86.536C175.339 86.536 174.779 86.696 174.315 87.016C173.851 87.32 173.491 87.784 173.235 88.408C172.995 89.016 172.875 89.76 172.875 90.64C172.875 92.048 173.163 93.128 173.739 93.88C174.331 94.632 175.147 95.008 176.187 95.008ZM189.401 97.312C188.361 97.312 187.457 97.048 186.689 96.52C185.921 95.976 185.321 95.216 184.889 94.24C184.473 93.248 184.265 92.072 184.265 90.712C184.265 89.416 184.457 88.28 184.841 87.304C185.225 86.312 185.785 85.544 186.521 85C187.273 84.44 188.193 84.16 189.281 84.16C190.113 84.16 190.809 84.328 191.369 84.664C191.929 84.984 192.385 85.448 192.737 86.056C193.089 86.648 193.361 87.352 193.553 88.168H194.033C193.937 87.656 193.849 87.152 193.769 86.656C193.689 86.144 193.625 85.656 193.577 85.192C193.529 84.728 193.505 84.312 193.505 83.944V80.032H196.553V90.976V97H193.961L194.009 93.376H193.577C193.401 94.24 193.129 94.968 192.761 95.56C192.409 96.136 191.953 96.576 191.393 96.88C190.833 97.168 190.169 97.312 189.401 97.312ZM190.337 94.816C190.865 94.816 191.329 94.696 191.729 94.456C192.129 94.216 192.457 93.904 192.713 93.52C192.985 93.12 193.185 92.696 193.313 92.248C193.441 91.8 193.505 91.36 193.505 90.928V90.568C193.505 90.248 193.457 89.912 193.361 89.56C193.281 89.192 193.153 88.84 192.977 88.504C192.817 88.168 192.609 87.864 192.353 87.592C192.097 87.304 191.801 87.08 191.465 86.92C191.129 86.744 190.745 86.656 190.313 86.656C189.705 86.656 189.185 86.832 188.753 87.184C188.321 87.536 187.993 88.024 187.769 88.648C187.545 89.256 187.433 89.96 187.433 90.76C187.433 91.576 187.545 92.288 187.769 92.896C188.009 93.504 188.345 93.976 188.777 94.312C189.225 94.648 189.745 94.816 190.337 94.816ZM203.924 97.312C202.484 97.312 201.396 96.824 200.66 95.848C199.94 94.856 199.58 93.352 199.58 91.336V84.448H202.628V91.024C202.628 92.304 202.812 93.248 203.18 93.856C203.564 94.464 204.156 94.768 204.956 94.768C205.42 94.768 205.828 94.656 206.18 94.432C206.532 94.192 206.836 93.864 207.092 93.448C207.364 93.016 207.572 92.512 207.716 91.936C207.86 91.344 207.948 90.696 207.98 89.992V84.448H211.004V91.744V97H208.484L208.556 92.92H208.148C207.94 93.944 207.652 94.784 207.284 95.44C206.916 96.08 206.452 96.552 205.892 96.856C205.348 97.16 204.692 97.312 203.924 97.312ZM219.874 97.312C218.802 97.312 217.866 97.152 217.066 96.832C216.282 96.512 215.626 96.064 215.098 95.488C214.586 94.896 214.202 94.208 213.946 93.424C213.69 92.64 213.562 91.792 213.562 90.88C213.562 89.92 213.69 89.032 213.946 88.216C214.218 87.4 214.618 86.688 215.146 86.08C215.674 85.456 216.322 84.976 217.09 84.64C217.858 84.304 218.746 84.136 219.754 84.136C220.794 84.136 221.69 84.312 222.442 84.664C223.194 85.016 223.794 85.504 224.242 86.128C224.69 86.736 224.978 87.448 225.106 88.264L222.298 89.08C222.266 88.584 222.138 88.144 221.914 87.76C221.69 87.376 221.386 87.08 221.002 86.872C220.618 86.664 220.17 86.56 219.658 86.56C219.162 86.56 218.722 86.656 218.338 86.848C217.97 87.04 217.658 87.32 217.402 87.688C217.146 88.056 216.954 88.496 216.826 89.008C216.698 89.52 216.634 90.104 216.634 90.76C216.634 91.656 216.754 92.424 216.994 93.064C217.234 93.688 217.594 94.168 218.074 94.504C218.57 94.84 219.186 95.008 219.922 95.008C220.562 95.008 221.082 94.88 221.482 94.624C221.898 94.368 222.21 94.04 222.418 93.64C222.626 93.224 222.754 92.776 222.802 92.296L225.49 92.848C225.426 93.488 225.258 94.088 224.986 94.648C224.714 95.192 224.346 95.664 223.882 96.064C223.418 96.464 222.85 96.776 222.178 97C221.522 97.208 220.754 97.312 219.874 97.312ZM231.962 97.288C230.634 97.288 229.65 96.936 229.01 96.232C228.386 95.512 228.074 94.4 228.074 92.896V86.872H226.274L226.322 84.52H227.45C227.946 84.504 228.306 84.408 228.53 84.232C228.77 84.056 228.914 83.76 228.962 83.344L229.226 81.664H231.002V84.448H234.266V86.968H231.002V92.776C231.002 93.384 231.138 93.824 231.41 94.096C231.698 94.352 232.114 94.48 232.658 94.48C232.946 94.48 233.234 94.448 233.522 94.384C233.826 94.304 234.106 94.184 234.362 94.024V96.88C233.882 97.04 233.442 97.144 233.042 97.192C232.642 97.256 232.282 97.288 231.962 97.288ZM236.733 97V84.448H239.757V97H236.733ZM238.269 82.576C237.645 82.576 237.173 82.448 236.853 82.192C236.533 81.92 236.373 81.536 236.373 81.04C236.373 80.544 236.533 80.168 236.853 79.912C237.189 79.64 237.661 79.504 238.269 79.504C238.893 79.504 239.365 79.64 239.685 79.912C240.021 80.168 240.189 80.544 240.189 81.04C240.189 81.536 240.021 81.92 239.685 82.192C239.365 82.448 238.893 82.576 238.269 82.576ZM248.607 97.312C247.375 97.312 246.287 97.064 245.343 96.568C244.399 96.056 243.663 95.312 243.135 94.336C242.607 93.36 242.343 92.144 242.343 90.688C242.343 89.216 242.615 88 243.159 87.04C243.703 86.064 244.447 85.336 245.391 84.856C246.335 84.376 247.399 84.136 248.583 84.136C249.799 84.136 250.879 84.384 251.823 84.88C252.767 85.376 253.511 86.12 254.055 87.112C254.599 88.088 254.871 89.304 254.871 90.76C254.871 92.232 254.591 93.456 254.031 94.432C253.487 95.408 252.743 96.136 251.799 96.616C250.855 97.08 249.791 97.312 248.607 97.312ZM248.703 95.008C249.359 95.008 249.919 94.856 250.383 94.552C250.847 94.232 251.199 93.76 251.439 93.136C251.695 92.512 251.823 91.768 251.823 90.904C251.823 89.992 251.695 89.216 251.439 88.576C251.183 87.92 250.807 87.416 250.311 87.064C249.815 86.712 249.215 86.536 248.511 86.536C247.855 86.536 247.295 86.696 246.831 87.016C246.367 87.32 246.007 87.784 245.751 88.408C245.511 89.016 245.391 89.76 245.391 90.64C245.391 92.048 245.679 93.128 246.255 93.88C246.847 94.632 247.663 95.008 248.703 95.008ZM257.405 97V89.488V84.448H259.949L259.853 88.504H260.285C260.477 87.512 260.757 86.696 261.125 86.056C261.509 85.416 261.997 84.936 262.589 84.616C263.181 84.296 263.877 84.136 264.677 84.136C266.101 84.136 267.181 84.64 267.917 85.648C268.653 86.64 269.021 88.184 269.021 90.28V97H265.973V90.592C265.973 89.264 265.773 88.288 265.373 87.664C264.973 87.04 264.381 86.728 263.597 86.728C262.925 86.728 262.357 86.944 261.893 87.376C261.429 87.792 261.069 88.36 260.813 89.08C260.573 89.8 260.445 90.616 260.429 91.528V97H257.405Z" fill="#0E0606"/>
<defs>
<linearGradient id="paint0_linear_1_275" x1="-6.544e-06" y1="18" x2="397.93" y2="123.787" gradientUnits="userSpaceOnUse">
<stop stop-color="#EDE5E5"/>
<stop offset="1" stop-color="#E4D0D0"/>
</linearGradient>
<linearGradient id="paint1_linear_1_275" x1="300" y1="21.1833" x2="367.504" y2="76.5038" gradientUnits="userSpaceOnUse">
<stop stop-color="#0E0606"/>
<stop offset="1" stop-color="#0E0606"/>
</linearGradient>
</defs>
</svg>
