<svg width="328" height="128" viewBox="0 0 328 128" fill="none" xmlns="http://www.w3.org/2000/svg">
<rect width="328" height="128" rx="24" fill="url(#paint0_linear_1_324)"/>
<rect x="0.5" y="0.5" width="327" height="127" rx="23.5" stroke="white" stroke-opacity="0.16"/>
<path opacity="0.4" d="M246.113 63.952C243.393 63.952 240.923 63.408 238.701 62.32C236.48 61.232 234.576 59.668 232.989 57.628C231.448 55.588 230.247 53.1627 229.385 50.352C228.569 47.496 228.161 44.3227 228.161 40.832C228.161 35.8453 228.932 31.6067 230.473 28.116C232.015 24.58 234.145 21.8827 236.865 20.024C239.585 18.1653 242.713 17.236 246.249 17.236C249.921 17.236 253.072 18.2333 255.701 20.228C258.376 22.1773 260.416 24.92 261.821 28.456C263.272 31.9467 263.997 36.0493 263.997 40.764C263.997 44.2093 263.589 47.36 262.773 50.216C261.957 53.072 260.756 55.52 259.169 57.56C257.583 59.6 255.701 61.1867 253.525 62.32C251.349 63.408 248.879 63.952 246.113 63.952ZM246.113 58.58C247.791 58.58 249.332 58.2173 250.737 57.492C252.143 56.7213 253.367 55.588 254.409 54.092C255.497 52.596 256.336 50.7373 256.925 48.516C257.515 46.2493 257.809 43.5973 257.809 40.56C257.809 36.7973 257.311 33.5787 256.313 30.904C255.361 28.2293 254.001 26.1667 252.233 24.716C250.511 23.2653 248.493 22.54 246.181 22.54C244.096 22.54 242.147 23.1747 240.333 24.444C238.565 25.668 237.115 27.6173 235.981 30.292C234.893 32.9213 234.349 36.344 234.349 40.56C234.349 43.5067 234.644 46.1133 235.233 48.38C235.823 50.6013 236.639 52.4827 237.681 54.024C238.724 55.52 239.948 56.6533 241.353 57.424C242.804 58.1947 244.391 58.58 246.113 58.58ZM291.762 64.02C285.778 64.02 281.086 62.0933 277.686 58.24C274.331 54.3867 272.654 48.652 272.654 41.036C272.654 36.1853 273.356 31.9693 274.762 28.388C276.212 24.8067 278.32 22.0413 281.086 20.092C283.851 18.1427 287.251 17.168 291.286 17.168C293.371 17.168 295.275 17.44 296.998 17.984C298.766 18.528 300.307 19.344 301.622 20.432C302.936 21.52 304.024 22.88 304.886 24.512C305.747 26.0987 306.291 27.9573 306.518 30.088L300.602 31.584C300.375 29.4987 299.808 27.7987 298.902 26.484C298.04 25.1693 296.93 24.1947 295.57 23.56C294.255 22.9253 292.782 22.608 291.15 22.608C288.928 22.608 287.024 23.1293 285.438 24.172C283.851 25.2147 282.559 26.62 281.562 28.388C280.564 30.156 279.839 32.1733 279.386 34.44C278.932 36.6613 278.706 39.0187 278.706 41.512C278.706 43.008 278.819 44.5947 279.046 46.272C279.272 47.9493 279.59 49.536 279.998 51.032H280.61C280.428 48.2213 280.678 45.8413 281.358 43.892C282.083 41.8973 283.103 40.288 284.418 39.064C285.732 37.84 287.228 36.9333 288.906 36.344C290.583 35.7547 292.306 35.46 294.074 35.46C296.522 35.46 298.788 35.9813 300.874 37.024C302.959 38.0667 304.636 39.608 305.905 41.648C307.22 43.688 307.878 46.2267 307.878 49.264C307.878 51.2133 307.56 53.072 306.926 54.84C306.336 56.608 305.384 58.1947 304.07 59.6C302.755 60.96 301.078 62.048 299.038 62.864C296.998 63.6347 294.572 64.02 291.762 64.02ZM291.286 58.716C293.19 58.716 294.799 58.444 296.114 57.9C297.428 57.356 298.494 56.6307 299.31 55.724C300.126 54.8173 300.715 53.82 301.078 52.732C301.44 51.5987 301.622 50.4427 301.622 49.264C301.622 47.224 301.168 45.5467 300.262 44.232C299.4 42.9173 298.267 41.9427 296.862 41.308C295.502 40.6733 294.028 40.356 292.442 40.356C290.447 40.356 288.702 40.7867 287.206 41.648C285.755 42.5093 284.599 43.7107 283.738 45.252C282.922 46.7933 282.514 48.584 282.514 50.624C282.514 52.256 282.763 53.5933 283.262 54.636C283.806 55.6787 284.508 56.4947 285.37 57.084C286.231 57.6733 287.16 58.104 288.158 58.376C289.2 58.6027 290.243 58.716 291.286 58.716Z" fill="url(#paint1_linear_1_324)"/>
<rect x="24" y="24" width="80" height="80" rx="8" fill="white"/>
<path d="M68.3335 50.6875V53.8375C68.0207 53.727 67.6842 53.6668 67.3335 53.6668C65.6767 53.6668 64.3335 55.01 64.3335 56.6668C64.3335 58.3237 65.6767 59.6668 67.3335 59.6668C68.9903 59.6668 70.3335 58.3237 70.3335 56.6668V49.3335C70.3335 49.0162 70.1828 48.7177 69.9276 48.5291C69.6723 48.3406 69.3427 48.2844 69.0394 48.3777L61.0394 50.8393C60.6198 50.9684 60.3335 51.356 60.3335 51.795V55.1709C60.0207 55.0603 59.6841 55.0002 59.3335 55.0002C57.6766 55.0002 56.3335 56.3433 56.3335 58.0002C56.3335 59.657 57.6766 61.0002 59.3335 61.0002C60.9903 61.0002 62.3335 59.657 62.3335 58.0002V52.5336L68.3335 50.6875Z" fill="#FF444E"/>
<path fill-rule="evenodd" clip-rule="evenodd" d="M72.0002 63.0001C76.2343 63.0001 79.6668 66.4327 79.6668 70.6668C79.6668 74.9009 76.2343 78.3335 72.0002 78.3335H56.0002C51.766 78.3335 48.3335 74.9009 48.3335 70.6668C48.3335 66.8537 51.1163 63.6924 54.7618 63.0998C54.8132 63.0915 54.8651 63.0871 54.9172 63.0868L63.0002 63.0459V61.3335C63.0002 60.7812 63.4479 60.3335 64.0002 60.3335C64.5524 60.3335 65.0002 60.7812 65.0002 61.3335V63.0356L72.0002 63.0001ZM56.3335 68.6668C56.3335 68.1145 55.8858 67.6668 55.3335 67.6668C54.7812 67.6668 54.3335 68.1145 54.3335 68.6668V69.6668H53.3335C52.7812 69.6668 52.3335 70.1145 52.3335 70.6668C52.3335 71.2191 52.7812 71.6668 53.3335 71.6668H54.3335V72.6668C54.3335 73.2191 54.7812 73.6668 55.3335 73.6668C55.8858 73.6668 56.3335 73.2191 56.3335 72.6668V71.6668H57.3335C57.8858 71.6668 58.3335 71.2191 58.3335 70.6668C58.3335 70.1145 57.8858 69.6668 57.3335 69.6668H56.3335V68.6668ZM63.3335 73.0001C62.7812 73.0001 62.3335 73.4479 62.3335 74.0001C62.3335 74.5524 62.7812 75.0001 63.3335 75.0001H64.6668C65.2191 75.0001 65.6668 74.5524 65.6668 74.0001C65.6668 73.4479 65.2191 73.0001 64.6668 73.0001H63.3335ZM68.3335 70.6668C68.3335 70.1145 68.7812 69.6668 69.3335 69.6668H70.0002C70.5524 69.6668 71.0002 70.1145 71.0002 70.6668C71.0002 71.2191 70.5524 71.6668 70.0002 71.6668H69.3335C68.7812 71.6668 68.3335 71.2191 68.3335 70.6668ZM72.0002 67.6668C71.4479 67.6668 71.0002 68.1145 71.0002 68.6668C71.0002 69.2191 71.4479 69.6668 72.0002 69.6668H72.6668C73.2191 69.6668 73.6668 69.2191 73.6668 68.6668C73.6668 68.1145 73.2191 67.6668 72.6668 67.6668H72.0002ZM71.0002 72.6668C71.0002 72.1145 71.4479 71.6668 72.0002 71.6668H72.6668C73.2191 71.6668 73.6668 72.1145 73.6668 72.6668C73.6668 73.2191 73.2191 73.6668 72.6668 73.6668H72.0002C71.4479 73.6668 71.0002 73.2191 71.0002 72.6668ZM74.6668 69.6668C74.1146 69.6668 73.6668 70.1145 73.6668 70.6668C73.6668 71.2191 74.1146 71.6668 74.6668 71.6668H75.3335C75.8858 71.6668 76.3335 71.2191 76.3335 70.6668C76.3335 70.1145 75.8858 69.6668 75.3335 69.6668H74.6668Z" fill="#FF444E"/>
<path d="M149.784 97L144.48 81.16H147.792L151.776 94.408H152.064L156.072 81.16H159.336L154.008 97H149.784ZM161.428 97V84.448H164.452V97H161.428ZM162.964 82.576C162.34 82.576 161.868 82.448 161.548 82.192C161.228 81.92 161.068 81.536 161.068 81.04C161.068 80.544 161.228 80.168 161.548 79.912C161.884 79.64 162.356 79.504 162.964 79.504C163.588 79.504 164.06 79.64 164.38 79.912C164.716 80.168 164.884 80.544 164.884 81.04C164.884 81.536 164.716 81.92 164.38 82.192C164.06 82.448 163.588 82.576 162.964 82.576ZM172.198 97.312C171.158 97.312 170.254 97.048 169.486 96.52C168.718 95.976 168.118 95.216 167.686 94.24C167.27 93.248 167.062 92.072 167.062 90.712C167.062 89.416 167.254 88.28 167.638 87.304C168.022 86.312 168.582 85.544 169.318 85C170.07 84.44 170.99 84.16 172.078 84.16C172.91 84.16 173.606 84.328 174.166 84.664C174.726 84.984 175.182 85.448 175.534 86.056C175.886 86.648 176.158 87.352 176.35 88.168H176.83C176.734 87.656 176.646 87.152 176.566 86.656C176.486 86.144 176.422 85.656 176.374 85.192C176.326 84.728 176.302 84.312 176.302 83.944V80.032H179.35V90.976V97H176.758L176.806 93.376H176.374C176.198 94.24 175.926 94.968 175.558 95.56C175.206 96.136 174.75 96.576 174.19 96.88C173.63 97.168 172.966 97.312 172.198 97.312ZM173.134 94.816C173.662 94.816 174.126 94.696 174.526 94.456C174.926 94.216 175.254 93.904 175.51 93.52C175.782 93.12 175.982 92.696 176.11 92.248C176.238 91.8 176.302 91.36 176.302 90.928V90.568C176.302 90.248 176.254 89.912 176.158 89.56C176.078 89.192 175.95 88.84 175.774 88.504C175.614 88.168 175.406 87.864 175.15 87.592C174.894 87.304 174.598 87.08 174.262 86.92C173.926 86.744 173.542 86.656 173.11 86.656C172.502 86.656 171.982 86.832 171.55 87.184C171.118 87.536 170.79 88.024 170.566 88.648C170.342 89.256 170.23 89.96 170.23 90.76C170.23 91.576 170.342 92.288 170.566 92.896C170.806 93.504 171.142 93.976 171.574 94.312C172.022 94.648 172.542 94.816 173.134 94.816ZM188.257 97.312C187.233 97.312 186.329 97.168 185.545 96.88C184.761 96.592 184.097 96.168 183.553 95.608C183.009 95.048 182.601 94.376 182.329 93.592C182.057 92.808 181.921 91.928 181.921 90.952C181.921 89.976 182.049 89.072 182.305 88.24C182.577 87.408 182.977 86.688 183.505 86.08C184.033 85.456 184.673 84.976 185.425 84.64C186.193 84.304 187.065 84.136 188.041 84.136C188.953 84.136 189.769 84.288 190.489 84.592C191.225 84.896 191.833 85.352 192.313 85.96C192.809 86.568 193.169 87.312 193.393 88.192C193.633 89.072 193.713 90.088 193.633 91.24L183.865 91.312V89.56L191.809 89.488L190.825 90.472C190.905 89.576 190.833 88.84 190.609 88.264C190.385 87.688 190.049 87.256 189.601 86.968C189.153 86.68 188.641 86.536 188.065 86.536C187.409 86.536 186.833 86.712 186.337 87.064C185.857 87.416 185.481 87.912 185.209 88.552C184.953 89.192 184.825 89.968 184.825 90.88C184.825 92.272 185.129 93.312 185.737 94C186.345 94.688 187.193 95.032 188.281 95.032C188.745 95.032 189.145 94.976 189.481 94.864C189.817 94.736 190.089 94.568 190.297 94.36C190.521 94.152 190.697 93.92 190.825 93.664C190.969 93.392 191.073 93.12 191.137 92.848L193.801 93.376C193.673 93.968 193.473 94.504 193.201 94.984C192.929 95.464 192.561 95.88 192.097 96.232C191.649 96.584 191.105 96.848 190.465 97.024C189.841 97.216 189.105 97.312 188.257 97.312ZM201.966 97.312C200.734 97.312 199.646 97.064 198.702 96.568C197.758 96.056 197.022 95.312 196.494 94.336C195.966 93.36 195.702 92.144 195.702 90.688C195.702 89.216 195.974 88 196.518 87.04C197.062 86.064 197.806 85.336 198.75 84.856C199.694 84.376 200.758 84.136 201.942 84.136C203.158 84.136 204.238 84.384 205.182 84.88C206.126 85.376 206.87 86.12 207.414 87.112C207.958 88.088 208.23 89.304 208.23 90.76C208.23 92.232 207.95 93.456 207.39 94.432C206.846 95.408 206.102 96.136 205.158 96.616C204.214 97.08 203.15 97.312 201.966 97.312ZM202.062 95.008C202.718 95.008 203.278 94.856 203.742 94.552C204.206 94.232 204.558 93.76 204.798 93.136C205.054 92.512 205.182 91.768 205.182 90.904C205.182 89.992 205.054 89.216 204.798 88.576C204.542 87.92 204.166 87.416 203.67 87.064C203.174 86.712 202.574 86.536 201.87 86.536C201.214 86.536 200.654 86.696 200.19 87.016C199.726 87.32 199.366 87.784 199.11 88.408C198.87 89.016 198.75 89.76 198.75 90.64C198.75 92.048 199.038 93.128 199.614 93.88C200.206 94.632 201.022 95.008 202.062 95.008ZM222.773 97.312C221.477 97.312 220.317 97.016 219.293 96.424C218.269 95.816 217.461 94.912 216.869 93.712C216.293 92.512 216.005 91.016 216.005 89.224C216.005 87.912 216.165 86.744 216.485 85.72C216.821 84.696 217.309 83.824 217.949 83.104C218.605 82.368 219.405 81.808 220.349 81.424C221.293 81.04 222.389 80.848 223.637 80.848C224.581 80.848 225.429 80.96 226.181 81.184C226.949 81.408 227.605 81.736 228.149 82.168C228.709 82.584 229.149 83.096 229.469 83.704C229.789 84.312 229.965 84.992 229.997 85.744L227.117 86.56C227.085 85.824 226.901 85.224 226.565 84.76C226.245 84.296 225.813 83.952 225.269 83.728C224.741 83.488 224.157 83.368 223.517 83.368C222.637 83.368 221.869 83.576 221.213 83.992C220.573 84.392 220.069 85.016 219.701 85.864C219.349 86.712 219.173 87.792 219.173 89.104C219.173 90.112 219.277 90.976 219.485 91.696C219.709 92.416 220.013 93.008 220.397 93.472C220.781 93.936 221.237 94.28 221.765 94.504C222.309 94.712 222.917 94.816 223.589 94.816C224.341 94.816 224.989 94.688 225.533 94.432C226.077 94.16 226.509 93.76 226.829 93.232C227.149 92.688 227.333 92.008 227.381 91.192H224.237V88.936H230.381V91.672V97H228.149L228.341 92.824H227.957C227.733 93.816 227.405 94.648 226.973 95.32C226.541 95.976 225.981 96.472 225.293 96.808C224.605 97.144 223.765 97.312 222.773 97.312ZM236.263 97.312C235.575 97.312 234.959 97.184 234.415 96.928C233.871 96.656 233.439 96.264 233.119 95.752C232.799 95.224 232.639 94.568 232.639 93.784C232.639 93.112 232.767 92.544 233.023 92.08C233.279 91.616 233.655 91.24 234.151 90.952C234.647 90.648 235.255 90.4 235.975 90.208C236.711 90 237.551 89.832 238.495 89.704C239.071 89.608 239.535 89.52 239.887 89.44C240.239 89.36 240.495 89.24 240.655 89.08C240.831 88.92 240.919 88.672 240.919 88.336C240.919 87.824 240.735 87.392 240.367 87.04C240.015 86.688 239.455 86.512 238.687 86.512C238.239 86.512 237.807 86.592 237.391 86.752C236.975 86.912 236.615 87.168 236.311 87.52C236.007 87.856 235.799 88.304 235.687 88.864L232.999 88.096C233.143 87.44 233.383 86.864 233.719 86.368C234.055 85.872 234.471 85.456 234.967 85.12C235.463 84.784 236.031 84.536 236.671 84.376C237.327 84.216 238.031 84.136 238.783 84.136C239.935 84.136 240.887 84.328 241.639 84.712C242.391 85.096 242.951 85.688 243.319 86.488C243.703 87.272 243.895 88.28 243.895 89.512V91.864C243.895 92.408 243.903 92.976 243.919 93.568C243.951 94.144 243.983 94.728 244.015 95.32C244.047 95.896 244.087 96.456 244.135 97H241.423C241.375 96.536 241.327 96.04 241.279 95.512C241.247 94.984 241.223 94.44 241.207 93.88H240.847C240.639 94.504 240.327 95.08 239.911 95.608C239.495 96.136 238.983 96.552 238.375 96.856C237.767 97.16 237.063 97.312 236.263 97.312ZM237.439 95.056C237.775 95.056 238.111 95 238.447 94.888C238.783 94.776 239.111 94.608 239.431 94.384C239.751 94.144 240.039 93.848 240.295 93.496C240.567 93.144 240.791 92.728 240.967 92.248L240.943 90.304L241.519 90.376C241.247 90.6 240.919 90.776 240.535 90.904C240.151 91.032 239.735 91.136 239.287 91.216C238.839 91.28 238.399 91.352 237.967 91.432C237.535 91.512 237.135 91.624 236.767 91.768C236.415 91.896 236.127 92.088 235.903 92.344C235.695 92.6 235.591 92.944 235.591 93.376C235.591 93.904 235.759 94.32 236.095 94.624C236.447 94.912 236.895 95.056 237.439 95.056ZM246.999 97V89.272V84.448H249.495L249.423 88.504H249.831C250.039 87.512 250.319 86.696 250.671 86.056C251.023 85.416 251.463 84.936 251.991 84.616C252.535 84.296 253.151 84.136 253.839 84.136C254.623 84.136 255.263 84.32 255.759 84.688C256.255 85.04 256.631 85.536 256.887 86.176C257.159 86.816 257.311 87.584 257.343 88.48H257.727C257.919 87.488 258.207 86.672 258.591 86.032C258.991 85.392 259.471 84.92 260.031 84.616C260.591 84.296 261.223 84.136 261.927 84.136C262.599 84.136 263.183 84.272 263.679 84.544C264.191 84.8 264.615 85.192 264.951 85.72C265.303 86.232 265.567 86.88 265.743 87.664C265.919 88.432 266.007 89.328 266.007 90.352V97H262.959V90.712C262.959 89.832 262.879 89.104 262.719 88.528C262.575 87.936 262.343 87.496 262.023 87.208C261.719 86.92 261.327 86.776 260.847 86.776C260.287 86.776 259.799 86.968 259.383 87.352C258.967 87.736 258.639 88.272 258.399 88.96C258.159 89.648 258.015 90.44 257.967 91.336V97H255.015V90.832C255.015 89.92 254.935 89.168 254.775 88.576C254.615 87.984 254.375 87.536 254.055 87.232C253.751 86.928 253.359 86.776 252.879 86.776C252.303 86.776 251.807 86.976 251.391 87.376C250.991 87.76 250.671 88.304 250.431 89.008C250.191 89.696 250.055 90.488 250.023 91.384V97H246.999ZM274.718 97.312C273.694 97.312 272.79 97.168 272.006 96.88C271.222 96.592 270.558 96.168 270.014 95.608C269.47 95.048 269.062 94.376 268.79 93.592C268.518 92.808 268.382 91.928 268.382 90.952C268.382 89.976 268.51 89.072 268.766 88.24C269.038 87.408 269.438 86.688 269.966 86.08C270.494 85.456 271.134 84.976 271.886 84.64C272.654 84.304 273.526 84.136 274.502 84.136C275.414 84.136 276.23 84.288 276.95 84.592C277.686 84.896 278.294 85.352 278.774 85.96C279.27 86.568 279.63 87.312 279.854 88.192C280.094 89.072 280.174 90.088 280.094 91.24L270.326 91.312V89.56L278.27 89.488L277.286 90.472C277.366 89.576 277.294 88.84 277.07 88.264C276.846 87.688 276.51 87.256 276.062 86.968C275.614 86.68 275.102 86.536 274.526 86.536C273.87 86.536 273.294 86.712 272.798 87.064C272.318 87.416 271.942 87.912 271.67 88.552C271.414 89.192 271.286 89.968 271.286 90.88C271.286 92.272 271.59 93.312 272.198 94C272.806 94.688 273.654 95.032 274.742 95.032C275.206 95.032 275.606 94.976 275.942 94.864C276.278 94.736 276.55 94.568 276.758 94.36C276.982 94.152 277.158 93.92 277.286 93.664C277.43 93.392 277.534 93.12 277.598 92.848L280.262 93.376C280.134 93.968 279.934 94.504 279.662 94.984C279.39 95.464 279.022 95.88 278.558 96.232C278.11 96.584 277.566 96.848 276.926 97.024C276.302 97.216 275.566 97.312 274.718 97.312ZM287.778 97.312C286.93 97.312 286.162 97.224 285.474 97.048C284.802 96.888 284.218 96.648 283.722 96.328C283.242 96.008 282.858 95.616 282.57 95.152C282.298 94.688 282.138 94.168 282.09 93.592L284.49 92.8C284.538 93.232 284.698 93.624 284.97 93.976C285.258 94.312 285.65 94.576 286.146 94.768C286.658 94.944 287.266 95.032 287.97 95.032C288.754 95.032 289.362 94.912 289.794 94.672C290.242 94.416 290.466 94.056 290.466 93.592C290.466 93.256 290.346 92.992 290.106 92.8C289.866 92.592 289.522 92.424 289.074 92.296C288.626 92.152 288.082 92.016 287.442 91.888C286.834 91.76 286.226 91.616 285.618 91.456C285.026 91.28 284.474 91.056 283.962 90.784C283.466 90.496 283.066 90.128 282.762 89.68C282.458 89.216 282.306 88.64 282.306 87.952C282.306 87.184 282.506 86.52 282.906 85.96C283.322 85.384 283.922 84.936 284.706 84.616C285.49 84.296 286.426 84.136 287.514 84.136C288.554 84.136 289.45 84.288 290.202 84.592C290.97 84.88 291.594 85.296 292.074 85.84C292.554 86.384 292.842 87.048 292.938 87.832L290.442 88.552C290.394 88.104 290.242 87.72 289.986 87.4C289.746 87.08 289.41 86.84 288.978 86.68C288.562 86.504 288.066 86.416 287.49 86.416C286.754 86.416 286.178 86.544 285.762 86.8C285.346 87.056 285.138 87.408 285.138 87.856C285.138 88.192 285.266 88.464 285.522 88.672C285.794 88.88 286.162 89.048 286.626 89.176C287.09 89.304 287.634 89.44 288.258 89.584C288.882 89.696 289.49 89.84 290.082 90.016C290.69 90.176 291.234 90.392 291.714 90.664C292.194 90.936 292.578 91.296 292.866 91.744C293.154 92.176 293.298 92.744 293.298 93.448C293.298 94.264 293.074 94.968 292.626 95.56C292.194 96.136 291.562 96.576 290.73 96.88C289.914 97.168 288.93 97.312 287.778 97.312Z" fill="#0E0606"/>
<defs>
<linearGradient id="paint0_linear_1_324" x1="-5.36608e-06" y1="18" x2="333.515" y2="90.703" gradientUnits="userSpaceOnUse">
<stop stop-color="#EDE5E5"/>
<stop offset="1" stop-color="#E4D0D0"/>
</linearGradient>
<linearGradient id="paint1_linear_1_324" x1="223" y1="21.1833" x2="291.165" y2="80.3704" gradientUnits="userSpaceOnUse">
<stop stop-color="#0E0606"/>
<stop offset="1" stop-color="#0E0606" stop-opacity="0"/>
</linearGradient>
</defs>
</svg>
