<svg width="400" height="128" viewBox="0 0 400 128" fill="none" xmlns="http://www.w3.org/2000/svg">
<rect width="400" height="128" rx="24" fill="url(#paint0_linear_1_281)"/>
<rect x="0.5" y="0.5" width="399" height="127" rx="23.5" stroke="white" stroke-opacity="0.16"/>
<path opacity="0.4" d="M321.898 63.952C319.178 63.952 316.708 63.408 314.486 62.32C312.265 61.232 310.361 59.668 308.774 57.628C307.233 55.588 306.032 53.1627 305.17 50.352C304.354 47.496 303.946 44.3227 303.946 40.832C303.946 35.8453 304.717 31.6067 306.258 28.116C307.8 24.58 309.93 21.8827 312.65 20.024C315.37 18.1653 318.498 17.236 322.034 17.236C325.706 17.236 328.857 18.2333 331.486 20.228C334.161 22.1773 336.201 24.92 337.606 28.456C339.057 31.9467 339.782 36.0493 339.782 40.764C339.782 44.2093 339.374 47.36 338.558 50.216C337.742 53.072 336.541 55.52 334.954 57.56C333.368 59.6 331.486 61.1867 329.31 62.32C327.134 63.408 324.664 63.952 321.898 63.952ZM321.898 58.58C323.576 58.58 325.117 58.2173 326.522 57.492C327.928 56.7213 329.152 55.588 330.194 54.092C331.282 52.596 332.121 50.7373 332.71 48.516C333.3 46.2493 333.594 43.5973 333.594 40.56C333.594 36.7973 333.096 33.5787 332.098 30.904C331.146 28.2293 329.786 26.1667 328.018 24.716C326.296 23.2653 324.278 22.54 321.966 22.54C319.881 22.54 317.932 23.1747 316.118 24.444C314.35 25.668 312.9 27.6173 311.766 30.292C310.678 32.9213 310.134 36.344 310.134 40.56C310.134 43.5067 310.429 46.1133 311.018 48.38C311.608 50.6013 312.424 52.4827 313.466 54.024C314.509 55.52 315.733 56.6533 317.138 57.424C318.589 58.1947 320.176 58.58 321.898 58.58ZM362.659 63.952C359.893 63.952 357.491 63.6347 355.451 63C353.456 62.4107 351.779 61.5493 350.419 60.416C349.104 59.2373 348.084 57.8547 347.359 56.268C346.679 54.636 346.271 52.8453 346.135 50.896L351.915 49.196C352.005 51.0547 352.368 52.6187 353.003 53.888C353.683 55.112 354.544 56.0867 355.587 56.812C356.629 57.492 357.763 57.9907 358.987 58.308C360.256 58.58 361.48 58.716 362.659 58.716C364.789 58.716 366.693 58.444 368.371 57.9C370.093 57.3107 371.476 56.3813 372.519 55.112C373.561 53.8427 374.083 52.2107 374.083 50.216C374.083 47.632 373.312 45.6147 371.771 44.164C370.229 42.7133 368.076 41.6933 365.311 41.104C362.591 40.5147 359.372 40.288 355.655 40.424V36.344L371.431 23.832V23.288L347.903 23.424V18.12H377.687V24.784L363.067 36.48V36.956C367.192 36.956 370.501 37.5227 372.995 38.656C375.533 39.7893 377.369 41.3533 378.503 43.348C379.681 45.3427 380.271 47.5867 380.271 50.08C380.271 52.8907 379.613 55.3387 378.299 57.424C376.984 59.464 375.012 61.0733 372.383 62.252C369.799 63.3853 366.557 63.952 362.659 63.952Z" fill="url(#paint1_linear_1_281)"/>
<rect x="24" y="24" width="80" height="80" rx="8" fill="white"/>
<g clip-path="url(#clip0_1_281)">
<path d="M55.2862 65.3645C55.2862 64.9287 54.8188 64.5752 54.2424 64.5752C53.6657 64.5752 53.1982 64.9287 53.1982 65.3645C53.1982 65.8002 53.6657 66.1534 54.2424 66.1534C54.8188 66.1534 55.2862 65.8002 55.2862 65.3645Z" fill="#FF444E"/>
<path d="M61.6606 57.3511L56.2295 59.4922V60.9712L61.6606 58.8301V57.3511Z" fill="#FF444E"/>
<path d="M61.6608 63.5848C61.6608 63.1491 61.1933 62.7959 60.6169 62.7959C60.0402 62.7959 59.5728 63.1491 59.5728 63.5848C59.5728 64.0206 60.0402 64.3738 60.6169 64.3738C61.1933 64.3738 61.6608 64.0206 61.6608 63.5848Z" fill="#FF444E"/>
<path d="M66.106 74.1084L69.3653 73.9223L79.1772 65.3322L76.5856 62.3721L66.7699 70.9652L66.106 74.1084Z" fill="#FF444E"/>
<path d="M63.4502 48.15H51.5403C50.1474 48.1518 49.0187 49.2803 49.0172 50.6731L49.0172 77.3268C49.0186 78.7197 50.1475 79.8485 51.5404 79.8499H69.4316C70.8245 79.8485 71.9531 78.7197 71.9548 77.3267V73.1085L69.9637 74.8521C69.9637 74.8521 69.9636 74.8521 69.9636 74.8521C69.8593 74.9435 69.7277 74.9974 69.5892 75.0051L69.5893 75.0051L69.5807 74.8553L69.5891 75.0051L63.4502 48.15ZM63.4502 48.15V52.8879V52.888C63.4524 54.9669 65.1373 56.6518 67.2165 56.6543H67.2167H71.9548V64.9732L63.4502 48.15ZM61.5108 60.0645V61.8757C61.2276 61.7605 60.9239 61.7013 60.6167 61.7025C60.6168 61.7025 60.6169 61.7025 60.617 61.7025L61.5108 60.0645ZM61.5108 60.0645L56.3797 62.0873M61.5108 60.0645L55.1363 63.6552C54.853 63.5398 54.5492 63.4806 54.2419 63.4816M54.2419 63.4816C54.2421 63.4816 54.2423 63.4816 54.2424 63.4816V63.6316L54.2419 63.4816ZM54.2419 63.4816C53.0832 63.4818 52.1049 64.3075 52.1049 65.3643C52.1049 66.4209 53.0835 67.2467 54.2424 67.2467C55.401 67.2467 56.3797 66.4209 56.3797 65.3643V62.0873M56.3797 62.0873V61.9852H56.2297L56.2847 62.1248L56.3797 62.0873ZM72.1048 72.7778L71.9548 72.9091L72.1048 72.9772V72.7778ZM52.7263 75.7065H63.0723C63.4159 75.7065 63.694 75.4279 63.694 75.0847C63.694 74.7415 63.4159 74.463 63.0723 74.463H52.7263C52.383 74.463 52.1045 74.7415 52.1045 75.0847C52.1045 75.428 52.383 75.7065 52.7263 75.7065ZM52.7263 71.3195H63.0723C63.4159 71.3195 63.694 71.0413 63.694 70.6978C63.694 70.3546 63.4159 70.076 63.0723 70.076H52.7263C52.383 70.076 52.1045 70.3545 52.1045 70.6978C52.1045 71.0414 52.3831 71.3195 52.7263 71.3195Z" fill="#FF444E" stroke="white" stroke-width="0.3"/>
<path d="M67.2165 55.5609H71.4539L64.5435 48.6655V52.8879C64.545 54.3632 65.7409 55.5591 67.2165 55.5609Z" fill="#FF444E"/>
</g>
<path d="M151.68 97.312C150.656 97.312 149.736 97.208 148.92 97C148.104 96.792 147.408 96.48 146.832 96.064C146.272 95.632 145.84 95.104 145.536 94.48C145.232 93.856 145.08 93.128 145.08 92.296L147.768 91.528C147.768 92.296 147.936 92.936 148.272 93.448C148.608 93.944 149.088 94.312 149.712 94.552C150.336 94.792 151.048 94.912 151.848 94.912C152.6 94.912 153.24 94.824 153.768 94.648C154.296 94.456 154.696 94.2 154.968 93.88C155.24 93.544 155.376 93.168 155.376 92.752C155.376 92.288 155.208 91.912 154.872 91.624C154.536 91.336 154.08 91.104 153.504 90.928C152.944 90.752 152.304 90.584 151.584 90.424C150.816 90.248 150.064 90.056 149.328 89.848C148.592 89.624 147.92 89.344 147.312 89.008C146.72 88.656 146.24 88.208 145.872 87.664C145.52 87.104 145.344 86.4 145.344 85.552C145.344 84.592 145.584 83.76 146.064 83.056C146.56 82.352 147.256 81.808 148.152 81.424C149.064 81.04 150.16 80.848 151.44 80.848C152.704 80.848 153.8 81.04 154.728 81.424C155.672 81.808 156.408 82.36 156.936 83.08C157.464 83.8 157.736 84.664 157.752 85.672L154.992 86.392C154.992 85.864 154.904 85.408 154.728 85.024C154.568 84.624 154.328 84.296 154.008 84.04C153.704 83.768 153.328 83.568 152.88 83.44C152.448 83.296 151.952 83.224 151.392 83.224C150.736 83.224 150.168 83.32 149.688 83.512C149.224 83.688 148.864 83.928 148.608 84.232C148.352 84.536 148.224 84.896 148.224 85.312C148.224 85.808 148.408 86.208 148.776 86.512C149.16 86.816 149.664 87.064 150.288 87.256C150.928 87.432 151.616 87.608 152.352 87.784C153.04 87.928 153.728 88.104 154.416 88.312C155.12 88.52 155.768 88.8 156.36 89.152C156.952 89.488 157.424 89.944 157.776 90.52C158.128 91.08 158.304 91.792 158.304 92.656C158.304 93.6 158.056 94.424 157.56 95.128C157.064 95.832 156.32 96.376 155.328 96.76C154.352 97.128 153.136 97.312 151.68 97.312ZM166.529 97.312C165.297 97.312 164.209 97.064 163.265 96.568C162.321 96.056 161.585 95.312 161.057 94.336C160.529 93.36 160.265 92.144 160.265 90.688C160.265 89.216 160.537 88 161.081 87.04C161.625 86.064 162.369 85.336 163.313 84.856C164.257 84.376 165.321 84.136 166.505 84.136C167.721 84.136 168.801 84.384 169.745 84.88C170.689 85.376 171.433 86.12 171.977 87.112C172.521 88.088 172.793 89.304 172.793 90.76C172.793 92.232 172.513 93.456 171.953 94.432C171.409 95.408 170.665 96.136 169.721 96.616C168.777 97.08 167.713 97.312 166.529 97.312ZM166.625 95.008C167.281 95.008 167.841 94.856 168.305 94.552C168.769 94.232 169.121 93.76 169.361 93.136C169.617 92.512 169.745 91.768 169.745 90.904C169.745 89.992 169.617 89.216 169.361 88.576C169.105 87.92 168.729 87.416 168.233 87.064C167.737 86.712 167.137 86.536 166.433 86.536C165.777 86.536 165.217 86.696 164.753 87.016C164.289 87.32 163.929 87.784 163.673 88.408C163.433 89.016 163.313 89.76 163.313 90.64C163.313 92.048 163.601 93.128 164.177 93.88C164.769 94.632 165.585 95.008 166.625 95.008ZM175.327 97V89.488V84.448H177.871L177.775 88.504H178.207C178.399 87.512 178.679 86.696 179.047 86.056C179.431 85.416 179.919 84.936 180.511 84.616C181.103 84.296 181.799 84.136 182.599 84.136C184.023 84.136 185.103 84.64 185.839 85.648C186.575 86.64 186.943 88.184 186.943 90.28V97H183.895V90.592C183.895 89.264 183.695 88.288 183.295 87.664C182.895 87.04 182.303 86.728 181.519 86.728C180.847 86.728 180.279 86.944 179.815 87.376C179.351 87.792 178.991 88.36 178.735 89.08C178.495 89.8 178.367 90.616 178.351 91.528V97H175.327ZM194.847 101.248C193.487 101.248 192.375 101.144 191.511 100.936C190.647 100.728 190.015 100.416 189.615 100C189.215 99.584 189.015 99.08 189.015 98.488C189.015 97.752 189.303 97.152 189.879 96.688C190.455 96.224 191.319 95.928 192.471 95.8V95.368C191.591 95.384 190.927 95.296 190.479 95.104C190.031 94.896 189.807 94.56 189.807 94.096C189.807 93.664 190.031 93.28 190.479 92.944C190.927 92.608 191.663 92.336 192.687 92.128V91.696C191.711 91.616 190.951 91.296 190.407 90.736C189.863 90.16 189.591 89.416 189.591 88.504C189.591 87.688 189.807 86.976 190.239 86.368C190.687 85.744 191.343 85.256 192.207 84.904C193.071 84.536 194.119 84.352 195.351 84.352H201.567V86.752L197.607 86.176V86.656C198.631 86.832 199.375 87.12 199.839 87.52C200.303 87.92 200.535 88.464 200.535 89.152C200.535 89.808 200.327 90.392 199.911 90.904C199.511 91.4 198.919 91.792 198.135 92.08C197.351 92.352 196.399 92.488 195.279 92.488C195.055 92.488 194.815 92.48 194.559 92.464C194.319 92.448 193.959 92.408 193.479 92.344C193.127 92.568 192.847 92.776 192.639 92.968C192.431 93.144 192.327 93.312 192.327 93.472C192.327 93.6 192.407 93.704 192.567 93.784C192.727 93.864 192.927 93.92 193.167 93.952C193.407 93.984 193.647 94 193.887 94H197.271C197.591 94 197.999 94.024 198.495 94.072C199.007 94.12 199.511 94.248 200.007 94.456C200.519 94.664 200.943 94.992 201.279 95.44C201.631 95.888 201.807 96.512 201.807 97.312C201.807 98.224 201.551 98.968 201.039 99.544C200.527 100.136 199.751 100.568 198.711 100.84C197.687 101.112 196.399 101.248 194.847 101.248ZM195.087 98.776C196.095 98.776 196.895 98.72 197.487 98.608C198.079 98.496 198.503 98.32 198.759 98.08C199.015 97.84 199.143 97.536 199.143 97.168C199.143 96.816 199.063 96.544 198.903 96.352C198.743 96.16 198.535 96.024 198.279 95.944C198.039 95.864 197.791 95.816 197.535 95.8C197.279 95.784 197.063 95.776 196.887 95.776H193.911C193.159 95.904 192.631 96.12 192.327 96.424C192.023 96.728 191.871 97.072 191.871 97.456C191.871 97.824 191.999 98.104 192.255 98.296C192.511 98.488 192.879 98.616 193.359 98.68C193.839 98.744 194.415 98.776 195.087 98.776ZM195.183 90.808C196.015 90.808 196.639 90.616 197.055 90.232C197.487 89.832 197.703 89.312 197.703 88.672C197.703 88 197.487 87.448 197.055 87.016C196.623 86.584 195.991 86.368 195.159 86.368C194.343 86.368 193.711 86.584 193.263 87.016C192.815 87.432 192.591 87.976 192.591 88.648C192.591 89.064 192.687 89.44 192.879 89.776C193.087 90.096 193.383 90.352 193.767 90.544C194.151 90.72 194.623 90.808 195.183 90.808ZM212.421 97L208.725 81.16H212.037L214.653 94.336H214.893L217.797 81.16H221.685L224.613 94.336H224.829L227.493 81.16H230.637L226.893 97H222.621L219.813 83.872H219.597L216.765 97H212.421ZM232.421 97V90.688V84.448H234.989L234.917 88.888H235.349C235.477 87.832 235.693 86.96 235.997 86.272C236.301 85.568 236.717 85.04 237.245 84.688C237.789 84.336 238.445 84.16 239.213 84.16C239.389 84.16 239.573 84.176 239.765 84.208C239.957 84.224 240.173 84.272 240.413 84.352L240.269 87.568C240.013 87.456 239.749 87.376 239.477 87.328C239.205 87.28 238.957 87.256 238.733 87.256C238.109 87.256 237.573 87.424 237.125 87.76C236.677 88.08 236.317 88.544 236.045 89.152C235.773 89.744 235.581 90.456 235.469 91.288V97H232.421ZM242.405 97V84.448H245.429V97H242.405ZM243.941 82.576C243.317 82.576 242.845 82.448 242.525 82.192C242.205 81.92 242.045 81.536 242.045 81.04C242.045 80.544 242.205 80.168 242.525 79.912C242.861 79.64 243.333 79.504 243.941 79.504C244.565 79.504 245.037 79.64 245.357 79.912C245.693 80.168 245.861 80.544 245.861 81.04C245.861 81.536 245.693 81.92 245.357 82.192C245.037 82.448 244.565 82.576 243.941 82.576ZM253.103 97.288C251.775 97.288 250.791 96.936 250.151 96.232C249.527 95.512 249.215 94.4 249.215 92.896V86.872H247.415L247.463 84.52H248.591C249.087 84.504 249.447 84.408 249.671 84.232C249.911 84.056 250.055 83.76 250.103 83.344L250.367 81.664H252.143V84.448H255.407V86.968H252.143V92.776C252.143 93.384 252.279 93.824 252.551 94.096C252.839 94.352 253.255 94.48 253.799 94.48C254.087 94.48 254.375 94.448 254.663 94.384C254.967 94.304 255.247 94.184 255.503 94.024V96.88C255.023 97.04 254.583 97.144 254.183 97.192C253.783 97.256 253.423 97.288 253.103 97.288ZM257.874 97V84.448H260.898V97H257.874ZM259.41 82.576C258.786 82.576 258.314 82.448 257.994 82.192C257.674 81.92 257.514 81.536 257.514 81.04C257.514 80.544 257.674 80.168 257.994 79.912C258.33 79.64 258.802 79.504 259.41 79.504C260.034 79.504 260.506 79.64 260.826 79.912C261.162 80.168 261.33 80.544 261.33 81.04C261.33 81.536 261.162 81.92 260.826 82.192C260.506 82.448 260.034 82.576 259.41 82.576ZM264.131 97V89.488V84.448H266.675L266.579 88.504H267.011C267.203 87.512 267.483 86.696 267.851 86.056C268.235 85.416 268.723 84.936 269.315 84.616C269.907 84.296 270.603 84.136 271.403 84.136C272.827 84.136 273.907 84.64 274.643 85.648C275.379 86.64 275.747 88.184 275.747 90.28V97H272.699V90.592C272.699 89.264 272.499 88.288 272.099 87.664C271.699 87.04 271.107 86.728 270.323 86.728C269.651 86.728 269.083 86.944 268.619 87.376C268.155 87.792 267.795 88.36 267.539 89.08C267.299 89.8 267.171 90.616 267.155 91.528V97H264.131ZM283.652 101.248C282.292 101.248 281.18 101.144 280.316 100.936C279.452 100.728 278.82 100.416 278.42 100C278.02 99.584 277.82 99.08 277.82 98.488C277.82 97.752 278.108 97.152 278.684 96.688C279.26 96.224 280.124 95.928 281.276 95.8V95.368C280.396 95.384 279.732 95.296 279.284 95.104C278.836 94.896 278.612 94.56 278.612 94.096C278.612 93.664 278.836 93.28 279.284 92.944C279.732 92.608 280.468 92.336 281.492 92.128V91.696C280.516 91.616 279.756 91.296 279.212 90.736C278.668 90.16 278.396 89.416 278.396 88.504C278.396 87.688 278.612 86.976 279.044 86.368C279.492 85.744 280.148 85.256 281.012 84.904C281.876 84.536 282.924 84.352 284.156 84.352H290.372V86.752L286.412 86.176V86.656C287.436 86.832 288.18 87.12 288.644 87.52C289.108 87.92 289.34 88.464 289.34 89.152C289.34 89.808 289.132 90.392 288.716 90.904C288.316 91.4 287.724 91.792 286.94 92.08C286.156 92.352 285.204 92.488 284.084 92.488C283.86 92.488 283.62 92.48 283.364 92.464C283.124 92.448 282.764 92.408 282.284 92.344C281.932 92.568 281.652 92.776 281.444 92.968C281.236 93.144 281.132 93.312 281.132 93.472C281.132 93.6 281.212 93.704 281.372 93.784C281.532 93.864 281.732 93.92 281.972 93.952C282.212 93.984 282.452 94 282.692 94H286.076C286.396 94 286.804 94.024 287.3 94.072C287.812 94.12 288.316 94.248 288.812 94.456C289.324 94.664 289.748 94.992 290.084 95.44C290.436 95.888 290.612 96.512 290.612 97.312C290.612 98.224 290.356 98.968 289.844 99.544C289.332 100.136 288.556 100.568 287.516 100.84C286.492 101.112 285.204 101.248 283.652 101.248ZM283.892 98.776C284.9 98.776 285.7 98.72 286.292 98.608C286.884 98.496 287.308 98.32 287.564 98.08C287.82 97.84 287.948 97.536 287.948 97.168C287.948 96.816 287.868 96.544 287.708 96.352C287.548 96.16 287.34 96.024 287.084 95.944C286.844 95.864 286.596 95.816 286.34 95.8C286.084 95.784 285.868 95.776 285.692 95.776H282.716C281.964 95.904 281.436 96.12 281.132 96.424C280.828 96.728 280.676 97.072 280.676 97.456C280.676 97.824 280.804 98.104 281.06 98.296C281.316 98.488 281.684 98.616 282.164 98.68C282.644 98.744 283.22 98.776 283.892 98.776ZM283.988 90.808C284.82 90.808 285.444 90.616 285.86 90.232C286.292 89.832 286.508 89.312 286.508 88.672C286.508 88 286.292 87.448 285.86 87.016C285.428 86.584 284.796 86.368 283.964 86.368C283.148 86.368 282.516 86.584 282.068 87.016C281.62 87.432 281.396 87.976 281.396 88.648C281.396 89.064 281.492 89.44 281.684 89.776C281.892 90.096 282.188 90.352 282.572 90.544C282.956 90.72 283.428 90.808 283.988 90.808Z" fill="#0E0606"/>
<defs>
<linearGradient id="paint0_linear_1_281" x1="-6.544e-06" y1="18" x2="397.93" y2="123.787" gradientUnits="userSpaceOnUse">
<stop stop-color="#EDE5E5"/>
<stop offset="1" stop-color="#E4D0D0"/>
</linearGradient>
<linearGradient id="paint1_linear_1_281" x1="299" y1="21.1833" x2="366.657" y2="77.2889" gradientUnits="userSpaceOnUse">
<stop stop-color="#0E0606"/>
<stop offset="1" stop-color="#0E0606" stop-opacity="0"/>
</linearGradient>
<clipPath id="clip0_1_281">
<rect width="32" height="32" fill="white" transform="translate(48 48)"/>
</clipPath>
</defs>
</svg>
