<svg width="328" height="128" viewBox="0 0 328 128" fill="none" xmlns="http://www.w3.org/2000/svg">
<rect width="328" height="128" rx="24" fill="url(#paint0_linear_1_309)"/>
<rect x="0.5" y="0.5" width="327" height="127" rx="23.5" stroke="white" stroke-opacity="0.16"/>
<path opacity="0.4" d="M249.434 63.952C246.714 63.952 244.243 63.408 242.022 62.32C239.8 61.232 237.896 59.668 236.31 57.628C234.768 55.588 233.567 53.1627 232.706 50.352C231.89 47.496 231.482 44.3227 231.482 40.832C231.482 35.8453 232.252 31.6067 233.794 28.116C235.335 24.58 237.466 21.8827 240.186 20.024C242.906 18.1653 246.034 17.236 249.57 17.236C253.242 17.236 256.392 18.2333 259.022 20.228C261.696 22.1773 263.736 24.92 265.142 28.456C266.592 31.9467 267.318 36.0493 267.318 40.764C267.318 44.2093 266.91 47.36 266.094 50.216C265.278 53.072 264.076 55.52 262.49 57.56C260.903 59.6 259.022 61.1867 256.846 62.32C254.67 63.408 252.199 63.952 249.434 63.952ZM249.434 58.58C251.111 58.58 252.652 58.2173 254.058 57.492C255.463 56.7213 256.687 55.588 257.73 54.092C258.818 52.596 259.656 50.7373 260.246 48.516C260.835 46.2493 261.13 43.5973 261.13 40.56C261.13 36.7973 260.631 33.5787 259.634 30.904C258.682 28.2293 257.322 26.1667 255.554 24.716C253.831 23.2653 251.814 22.54 249.502 22.54C247.416 22.54 245.467 23.1747 243.654 24.444C241.886 25.668 240.435 27.6173 239.302 30.292C238.214 32.9213 237.67 36.344 237.67 40.56C237.67 43.5067 237.964 46.1133 238.554 48.38C239.143 50.6013 239.959 52.4827 241.002 54.024C242.044 55.52 243.268 56.6533 244.674 57.424C246.124 58.1947 247.711 58.58 249.434 58.58ZM291.345 63.952C288.126 63.952 285.338 63.476 282.981 62.524C280.669 61.5267 278.878 60.1213 277.609 58.308C276.34 56.4947 275.682 54.3413 275.637 51.848L281.417 50.42C281.644 53.004 282.528 55.0213 284.069 56.472C285.656 57.8773 288.036 58.58 291.209 58.58C294.518 58.58 297.08 57.7187 298.893 55.996C300.752 54.228 301.681 51.4853 301.681 47.768C301.681 46.408 301.522 45.116 301.205 43.892C300.933 42.6227 300.457 41.512 299.777 40.56C299.142 39.5627 298.258 38.792 297.125 38.248C295.992 37.6587 294.586 37.364 292.909 37.364C291.504 37.364 290.257 37.5453 289.169 37.908C288.126 38.2707 287.242 38.7693 286.517 39.404C285.792 39.9933 285.18 40.6733 284.681 41.444C284.228 42.1693 283.865 42.94 283.593 43.756H276.589L278.017 18.12H305.897V23.56H283.389L282.369 39.608H283.185C284.137 36.9333 285.656 35.052 287.741 33.964C289.872 32.8307 292.161 32.264 294.609 32.264C297.692 32.264 300.208 32.9213 302.157 34.236C304.152 35.5053 305.625 37.296 306.577 39.608C307.574 41.8747 308.073 44.5493 308.073 47.632C308.073 51.5307 307.325 54.6813 305.829 57.084C304.378 59.4867 302.384 61.232 299.845 62.32C297.352 63.408 294.518 63.952 291.345 63.952Z" fill="url(#paint1_linear_1_309)"/>
<rect x="24" y="24" width="80" height="80" rx="8" fill="white"/>
<g clip-path="url(#clip0_1_309)">
<path d="M52.6665 60.6665C51.5638 60.6665 50.6665 61.5638 50.6665 62.6665V70.6665C50.6665 71.7692 51.5638 72.6665 52.6665 72.6665C53.7692 72.6665 54.6665 71.7692 54.6665 70.6665V62.6665C54.6665 61.5638 53.7692 60.6665 52.6665 60.6665Z" fill="#FF444E"/>
<path d="M51.3333 62H50C48.8973 62 48 62.8973 48 64V69.3333C48 70.436 48.8973 71.3333 50 71.3333H51.3333C51.7013 71.3333 52 71.0353 52 70.6667V62.6667C52 62.2987 51.7013 62 51.3333 62Z" fill="#FF444E"/>
<path d="M50.0002 63.3332C49.6315 63.3332 49.3335 63.0338 49.3335 62.6658L49.3362 59.3325C49.3362 58.9645 49.6348 58.6665 50.0028 58.6665H50.0035C50.3715 58.6665 50.6702 58.9658 50.6695 59.3338L50.6668 62.6672C50.6668 63.0352 50.3682 63.3332 50.0002 63.3332Z" fill="#FF444E"/>
<path d="M69.3335 64H70.6668V65.3333H69.3335V64Z" fill="#FF444E"/>
<path d="M65.3335 72H66.6668V73.3333H65.3335V72Z" fill="#FF444E"/>
<path d="M61.3335 64H62.6668V65.3333H61.3335V64Z" fill="#FF444E"/>
<path d="M73.3335 72H74.6668V73.3333H73.3335V72Z" fill="#FF444E"/>
<path d="M65.7648 56H70.0655C68.6235 51.3387 64.2475 48 59.2402 48C53.6368 48 48.8135 52.1753 48.0202 57.714C47.9388 58.29 48.1122 58.8727 48.4935 59.3113C48.8742 59.7493 49.4228 60 50.0002 60C50.9955 60 51.8442 59.276 51.9735 58.3187C52.4735 54.716 55.5975 52 59.2402 52C62.0682 52 64.5462 53.596 65.7648 56Z" fill="#FF444E"/>
<path d="M76.6667 57.3335H59.3333C57.4953 57.3335 56 58.8288 56 60.6668V76.6668C56 78.5048 57.4953 80.0002 59.3333 80.0002H76.6667C78.5047 80.0002 80 78.5048 80 76.6668V60.6668C80 58.8288 78.5047 57.3335 76.6667 57.3335ZM63.3333 66.6668H62.6667V76.6668C62.6667 77.0355 62.368 77.3335 62 77.3335C61.632 77.3335 61.3333 77.0355 61.3333 76.6668V66.6668H60.6667C60.2987 66.6668 60 66.3688 60 66.0002V63.3335C60 62.9655 60.2987 62.6668 60.6667 62.6668H61.3333V60.6668C61.3333 60.2988 61.632 60.0002 62 60.0002C62.368 60.0002 62.6667 60.2988 62.6667 60.6668V62.6668H63.3333C63.7013 62.6668 64 62.9655 64 63.3335V66.0002C64 66.3688 63.7013 66.6668 63.3333 66.6668ZM68 74.0002C68 74.3688 67.7013 74.6668 67.3333 74.6668H66.6667V76.6668C66.6667 77.0355 66.368 77.3335 66 77.3335C65.632 77.3335 65.3333 77.0355 65.3333 76.6668V74.6668H64.6667C64.2987 74.6668 64 74.3688 64 74.0002V71.3335C64 70.9648 64.2987 70.6668 64.6667 70.6668H65.3333V60.6668C65.3333 60.2988 65.632 60.0002 66 60.0002C66.368 60.0002 66.6667 60.2988 66.6667 60.6668V70.6668H67.3333C67.7013 70.6668 68 70.9648 68 71.3335V74.0002ZM71.3333 66.6668H70.6667V76.6668C70.6667 77.0355 70.368 77.3335 70 77.3335C69.632 77.3335 69.3333 77.0355 69.3333 76.6668V66.6668H68.6667C68.2987 66.6668 68 66.3688 68 66.0002V63.3335C68 62.9655 68.2987 62.6668 68.6667 62.6668H69.3333V60.6668C69.3333 60.2988 69.632 60.0002 70 60.0002C70.368 60.0002 70.6667 60.2988 70.6667 60.6668V62.6668H71.3333C71.7013 62.6668 72 62.9655 72 63.3335V66.0002C72 66.3688 71.7013 66.6668 71.3333 66.6668ZM76 74.0002C76 74.3688 75.7013 74.6668 75.3333 74.6668H74.6667V76.6668C74.6667 77.0355 74.368 77.3335 74 77.3335C73.632 77.3335 73.3333 77.0355 73.3333 76.6668V74.6668H72.6667C72.2987 74.6668 72 74.3688 72 74.0002V71.3335C72 70.9648 72.2987 70.6668 72.6667 70.6668H73.3333V60.6668C73.3333 60.2988 73.632 60.0002 74 60.0002C74.368 60.0002 74.6667 60.2988 74.6667 60.6668V70.6668H75.3333C75.7013 70.6668 76 70.9648 76 71.3335V74.0002Z" fill="#FF444E"/>
</g>
<path d="M151.68 97.312C150.656 97.312 149.736 97.208 148.92 97C148.104 96.792 147.408 96.48 146.832 96.064C146.272 95.632 145.84 95.104 145.536 94.48C145.232 93.856 145.08 93.128 145.08 92.296L147.768 91.528C147.768 92.296 147.936 92.936 148.272 93.448C148.608 93.944 149.088 94.312 149.712 94.552C150.336 94.792 151.048 94.912 151.848 94.912C152.6 94.912 153.24 94.824 153.768 94.648C154.296 94.456 154.696 94.2 154.968 93.88C155.24 93.544 155.376 93.168 155.376 92.752C155.376 92.288 155.208 91.912 154.872 91.624C154.536 91.336 154.08 91.104 153.504 90.928C152.944 90.752 152.304 90.584 151.584 90.424C150.816 90.248 150.064 90.056 149.328 89.848C148.592 89.624 147.92 89.344 147.312 89.008C146.72 88.656 146.24 88.208 145.872 87.664C145.52 87.104 145.344 86.4 145.344 85.552C145.344 84.592 145.584 83.76 146.064 83.056C146.56 82.352 147.256 81.808 148.152 81.424C149.064 81.04 150.16 80.848 151.44 80.848C152.704 80.848 153.8 81.04 154.728 81.424C155.672 81.808 156.408 82.36 156.936 83.08C157.464 83.8 157.736 84.664 157.752 85.672L154.992 86.392C154.992 85.864 154.904 85.408 154.728 85.024C154.568 84.624 154.328 84.296 154.008 84.04C153.704 83.768 153.328 83.568 152.88 83.44C152.448 83.296 151.952 83.224 151.392 83.224C150.736 83.224 150.168 83.32 149.688 83.512C149.224 83.688 148.864 83.928 148.608 84.232C148.352 84.536 148.224 84.896 148.224 85.312C148.224 85.808 148.408 86.208 148.776 86.512C149.16 86.816 149.664 87.064 150.288 87.256C150.928 87.432 151.616 87.608 152.352 87.784C153.04 87.928 153.728 88.104 154.416 88.312C155.12 88.52 155.768 88.8 156.36 89.152C156.952 89.488 157.424 89.944 157.776 90.52C158.128 91.08 158.304 91.792 158.304 92.656C158.304 93.6 158.056 94.424 157.56 95.128C157.064 95.832 156.32 96.376 155.328 96.76C154.352 97.128 153.136 97.312 151.68 97.312ZM166.529 97.312C165.297 97.312 164.209 97.064 163.265 96.568C162.321 96.056 161.585 95.312 161.057 94.336C160.529 93.36 160.265 92.144 160.265 90.688C160.265 89.216 160.537 88 161.081 87.04C161.625 86.064 162.369 85.336 163.313 84.856C164.257 84.376 165.321 84.136 166.505 84.136C167.721 84.136 168.801 84.384 169.745 84.88C170.689 85.376 171.433 86.12 171.977 87.112C172.521 88.088 172.793 89.304 172.793 90.76C172.793 92.232 172.513 93.456 171.953 94.432C171.409 95.408 170.665 96.136 169.721 96.616C168.777 97.08 167.713 97.312 166.529 97.312ZM166.625 95.008C167.281 95.008 167.841 94.856 168.305 94.552C168.769 94.232 169.121 93.76 169.361 93.136C169.617 92.512 169.745 91.768 169.745 90.904C169.745 89.992 169.617 89.216 169.361 88.576C169.105 87.92 168.729 87.416 168.233 87.064C167.737 86.712 167.137 86.536 166.433 86.536C165.777 86.536 165.217 86.696 164.753 87.016C164.289 87.32 163.929 87.784 163.673 88.408C163.433 89.016 163.313 89.76 163.313 90.64C163.313 92.048 163.601 93.128 164.177 93.88C164.769 94.632 165.585 95.008 166.625 95.008ZM179.479 97.312C178.039 97.312 176.951 96.824 176.215 95.848C175.495 94.856 175.135 93.352 175.135 91.336V84.448H178.183V91.024C178.183 92.304 178.367 93.248 178.735 93.856C179.119 94.464 179.711 94.768 180.511 94.768C180.975 94.768 181.383 94.656 181.735 94.432C182.087 94.192 182.391 93.864 182.647 93.448C182.919 93.016 183.127 92.512 183.271 91.936C183.415 91.344 183.503 90.696 183.535 89.992V84.448H186.559V91.744V97H184.039L184.111 92.92H183.703C183.495 93.944 183.207 94.784 182.839 95.44C182.471 96.08 182.007 96.552 181.447 96.856C180.903 97.16 180.247 97.312 179.479 97.312ZM189.764 97V89.488V84.448H192.308L192.212 88.504H192.644C192.836 87.512 193.116 86.696 193.484 86.056C193.868 85.416 194.356 84.936 194.948 84.616C195.54 84.296 196.236 84.136 197.036 84.136C198.46 84.136 199.54 84.64 200.276 85.648C201.012 86.64 201.38 88.184 201.38 90.28V97H198.332V90.592C198.332 89.264 198.132 88.288 197.732 87.664C197.332 87.04 196.74 86.728 195.956 86.728C195.284 86.728 194.716 86.944 194.252 87.376C193.788 87.792 193.428 88.36 193.172 89.08C192.932 89.8 192.804 90.616 192.788 91.528V97H189.764ZM208.948 97.312C207.908 97.312 207.004 97.048 206.236 96.52C205.468 95.976 204.868 95.216 204.436 94.24C204.02 93.248 203.812 92.072 203.812 90.712C203.812 89.416 204.004 88.28 204.388 87.304C204.772 86.312 205.332 85.544 206.068 85C206.82 84.44 207.74 84.16 208.828 84.16C209.66 84.16 210.356 84.328 210.916 84.664C211.476 84.984 211.932 85.448 212.284 86.056C212.636 86.648 212.908 87.352 213.1 88.168H213.58C213.484 87.656 213.396 87.152 213.316 86.656C213.236 86.144 213.172 85.656 213.124 85.192C213.076 84.728 213.052 84.312 213.052 83.944V80.032H216.1V90.976V97H213.508L213.556 93.376H213.124C212.948 94.24 212.676 94.968 212.308 95.56C211.956 96.136 211.5 96.576 210.94 96.88C210.38 97.168 209.716 97.312 208.948 97.312ZM209.884 94.816C210.412 94.816 210.876 94.696 211.276 94.456C211.676 94.216 212.004 93.904 212.26 93.52C212.532 93.12 212.732 92.696 212.86 92.248C212.988 91.8 213.052 91.36 213.052 90.928V90.568C213.052 90.248 213.004 89.912 212.908 89.56C212.828 89.192 212.7 88.84 212.524 88.504C212.364 88.168 212.156 87.864 211.9 87.592C211.644 87.304 211.348 87.08 211.012 86.92C210.676 86.744 210.292 86.656 209.86 86.656C209.252 86.656 208.732 86.832 208.3 87.184C207.868 87.536 207.54 88.024 207.316 88.648C207.092 89.256 206.98 89.96 206.98 90.76C206.98 91.576 207.092 92.288 207.316 92.896C207.556 93.504 207.892 93.976 208.324 94.312C208.772 94.648 209.292 94.816 209.884 94.816ZM226.6 97V94.48H231.184C232.128 94.48 232.912 94.272 233.536 93.856C234.16 93.44 234.632 92.832 234.952 92.032C235.272 91.232 235.432 90.264 235.432 89.128C235.432 88.184 235.328 87.376 235.12 86.704C234.928 86.016 234.632 85.448 234.232 85C233.848 84.552 233.352 84.224 232.744 84.016C232.152 83.792 231.44 83.68 230.608 83.68H226.6V81.16H230.512C232.384 81.16 233.912 81.472 235.096 82.096C236.296 82.72 237.176 83.616 237.736 84.784C238.296 85.936 238.576 87.328 238.576 88.96C238.576 90.128 238.44 91.16 238.168 92.056C237.896 92.936 237.528 93.688 237.064 94.312C236.6 94.936 236.056 95.448 235.432 95.848C234.808 96.248 234.144 96.544 233.44 96.736C232.736 96.912 232.008 97 231.256 97H226.6ZM225.112 97V81.16H228.136V97H225.112ZM247.062 97.312C246.038 97.312 245.134 97.168 244.35 96.88C243.566 96.592 242.902 96.168 242.358 95.608C241.814 95.048 241.406 94.376 241.134 93.592C240.862 92.808 240.726 91.928 240.726 90.952C240.726 89.976 240.854 89.072 241.11 88.24C241.382 87.408 241.782 86.688 242.31 86.08C242.838 85.456 243.478 84.976 244.23 84.64C244.998 84.304 245.87 84.136 246.846 84.136C247.758 84.136 248.574 84.288 249.294 84.592C250.03 84.896 250.638 85.352 251.118 85.96C251.614 86.568 251.974 87.312 252.198 88.192C252.438 89.072 252.518 90.088 252.438 91.24L242.67 91.312V89.56L250.614 89.488L249.63 90.472C249.71 89.576 249.638 88.84 249.414 88.264C249.19 87.688 248.854 87.256 248.406 86.968C247.958 86.68 247.446 86.536 246.87 86.536C246.214 86.536 245.638 86.712 245.142 87.064C244.662 87.416 244.286 87.912 244.014 88.552C243.758 89.192 243.63 89.968 243.63 90.88C243.63 92.272 243.934 93.312 244.542 94C245.15 94.688 245.998 95.032 247.086 95.032C247.55 95.032 247.95 94.976 248.286 94.864C248.622 94.736 248.894 94.568 249.102 94.36C249.326 94.152 249.502 93.92 249.63 93.664C249.774 93.392 249.878 93.12 249.942 92.848L252.606 93.376C252.478 93.968 252.278 94.504 252.006 94.984C251.734 95.464 251.366 95.88 250.902 96.232C250.454 96.584 249.91 96.848 249.27 97.024C248.646 97.216 247.91 97.312 247.062 97.312ZM260.122 97.312C259.274 97.312 258.506 97.224 257.818 97.048C257.146 96.888 256.562 96.648 256.066 96.328C255.586 96.008 255.202 95.616 254.914 95.152C254.642 94.688 254.482 94.168 254.434 93.592L256.834 92.8C256.882 93.232 257.042 93.624 257.314 93.976C257.602 94.312 257.994 94.576 258.49 94.768C259.002 94.944 259.61 95.032 260.314 95.032C261.098 95.032 261.706 94.912 262.138 94.672C262.586 94.416 262.81 94.056 262.81 93.592C262.81 93.256 262.69 92.992 262.45 92.8C262.21 92.592 261.866 92.424 261.418 92.296C260.97 92.152 260.426 92.016 259.786 91.888C259.178 91.76 258.57 91.616 257.962 91.456C257.37 91.28 256.818 91.056 256.306 90.784C255.81 90.496 255.41 90.128 255.106 89.68C254.802 89.216 254.65 88.64 254.65 87.952C254.65 87.184 254.85 86.52 255.25 85.96C255.666 85.384 256.266 84.936 257.05 84.616C257.834 84.296 258.77 84.136 259.858 84.136C260.898 84.136 261.794 84.288 262.546 84.592C263.314 84.88 263.938 85.296 264.418 85.84C264.898 86.384 265.186 87.048 265.282 87.832L262.786 88.552C262.738 88.104 262.586 87.72 262.33 87.4C262.09 87.08 261.754 86.84 261.322 86.68C260.906 86.504 260.41 86.416 259.834 86.416C259.098 86.416 258.522 86.544 258.106 86.8C257.69 87.056 257.482 87.408 257.482 87.856C257.482 88.192 257.61 88.464 257.866 88.672C258.138 88.88 258.506 89.048 258.97 89.176C259.434 89.304 259.978 89.44 260.602 89.584C261.226 89.696 261.834 89.84 262.426 90.016C263.034 90.176 263.578 90.392 264.058 90.664C264.538 90.936 264.922 91.296 265.21 91.744C265.498 92.176 265.642 92.744 265.642 93.448C265.642 94.264 265.418 94.968 264.97 95.56C264.538 96.136 263.906 96.576 263.074 96.88C262.258 97.168 261.274 97.312 260.122 97.312ZM268.069 97V84.448H271.093V97H268.069ZM269.605 82.576C268.981 82.576 268.509 82.448 268.189 82.192C267.869 81.92 267.709 81.536 267.709 81.04C267.709 80.544 267.869 80.168 268.189 79.912C268.525 79.64 268.997 79.504 269.605 79.504C270.229 79.504 270.701 79.64 271.021 79.912C271.357 80.168 271.525 80.544 271.525 81.04C271.525 81.536 271.357 81.92 271.021 82.192C270.701 82.448 270.229 82.576 269.605 82.576ZM279.199 101.248C277.839 101.248 276.727 101.144 275.863 100.936C274.999 100.728 274.367 100.416 273.967 100C273.567 99.584 273.367 99.08 273.367 98.488C273.367 97.752 273.655 97.152 274.231 96.688C274.807 96.224 275.671 95.928 276.823 95.8V95.368C275.943 95.384 275.279 95.296 274.831 95.104C274.383 94.896 274.159 94.56 274.159 94.096C274.159 93.664 274.383 93.28 274.831 92.944C275.279 92.608 276.015 92.336 277.039 92.128V91.696C276.063 91.616 275.303 91.296 274.759 90.736C274.215 90.16 273.943 89.416 273.943 88.504C273.943 87.688 274.159 86.976 274.591 86.368C275.039 85.744 275.695 85.256 276.559 84.904C277.423 84.536 278.471 84.352 279.703 84.352H285.919V86.752L281.959 86.176V86.656C282.983 86.832 283.727 87.12 284.191 87.52C284.655 87.92 284.887 88.464 284.887 89.152C284.887 89.808 284.679 90.392 284.263 90.904C283.863 91.4 283.271 91.792 282.487 92.08C281.703 92.352 280.751 92.488 279.631 92.488C279.407 92.488 279.167 92.48 278.911 92.464C278.671 92.448 278.311 92.408 277.831 92.344C277.479 92.568 277.199 92.776 276.991 92.968C276.783 93.144 276.679 93.312 276.679 93.472C276.679 93.6 276.759 93.704 276.919 93.784C277.079 93.864 277.279 93.92 277.519 93.952C277.759 93.984 277.999 94 278.239 94H281.623C281.943 94 282.351 94.024 282.847 94.072C283.359 94.12 283.863 94.248 284.359 94.456C284.871 94.664 285.295 94.992 285.631 95.44C285.983 95.888 286.159 96.512 286.159 97.312C286.159 98.224 285.903 98.968 285.391 99.544C284.879 100.136 284.103 100.568 283.063 100.84C282.039 101.112 280.751 101.248 279.199 101.248ZM279.439 98.776C280.447 98.776 281.247 98.72 281.839 98.608C282.431 98.496 282.855 98.32 283.111 98.08C283.367 97.84 283.495 97.536 283.495 97.168C283.495 96.816 283.415 96.544 283.255 96.352C283.095 96.16 282.887 96.024 282.631 95.944C282.391 95.864 282.143 95.816 281.887 95.8C281.631 95.784 281.415 95.776 281.239 95.776H278.263C277.511 95.904 276.983 96.12 276.679 96.424C276.375 96.728 276.223 97.072 276.223 97.456C276.223 97.824 276.351 98.104 276.607 98.296C276.863 98.488 277.231 98.616 277.711 98.68C278.191 98.744 278.767 98.776 279.439 98.776ZM279.535 90.808C280.367 90.808 280.991 90.616 281.407 90.232C281.839 89.832 282.055 89.312 282.055 88.672C282.055 88 281.839 87.448 281.407 87.016C280.975 86.584 280.343 86.368 279.511 86.368C278.695 86.368 278.063 86.584 277.615 87.016C277.167 87.432 276.943 87.976 276.943 88.648C276.943 89.064 277.039 89.44 277.231 89.776C277.439 90.096 277.735 90.352 278.119 90.544C278.503 90.72 278.975 90.808 279.535 90.808ZM288.46 97V89.488V84.448H291.004L290.908 88.504H291.34C291.532 87.512 291.812 86.696 292.18 86.056C292.564 85.416 293.052 84.936 293.644 84.616C294.236 84.296 294.932 84.136 295.732 84.136C297.156 84.136 298.236 84.64 298.972 85.648C299.708 86.64 300.076 88.184 300.076 90.28V97H297.028V90.592C297.028 89.264 296.828 88.288 296.428 87.664C296.028 87.04 295.436 86.728 294.652 86.728C293.98 86.728 293.412 86.944 292.948 87.376C292.484 87.792 292.124 88.36 291.868 89.08C291.628 89.8 291.5 90.616 291.484 91.528V97H288.46Z" fill="#0E0606"/>
<defs>
<linearGradient id="paint0_linear_1_309" x1="-5.36608e-06" y1="18" x2="333.515" y2="90.703" gradientUnits="userSpaceOnUse">
<stop stop-color="#EDE5E5"/>
<stop offset="1" stop-color="#E4D0D0"/>
</linearGradient>
<linearGradient id="paint1_linear_1_309" x1="227" y1="21.1833" x2="294.657" y2="77.2889" gradientUnits="userSpaceOnUse">
<stop stop-color="#0E0606"/>
<stop offset="1" stop-color="#0E0606" stop-opacity="0"/>
</linearGradient>
<clipPath id="clip0_1_309">
<rect width="32" height="32" fill="white" transform="translate(48 48)"/>
</clipPath>
</defs>
</svg>
