<svg width="400" height="128" viewBox="0 0 400 128" fill="none" xmlns="http://www.w3.org/2000/svg">
<rect width="400" height="128" rx="24" fill="url(#paint0_linear_1_255)"/>
<path opacity="0.4" d="M341.223 63.952C338.503 63.952 336.032 63.408 333.811 62.32C331.589 61.232 329.685 59.668 328.099 57.628C326.557 55.588 325.356 53.1627 324.495 50.352C323.679 47.496 323.271 44.3227 323.271 40.832C323.271 35.8453 324.041 31.6067 325.583 28.116C327.124 24.58 329.255 21.8827 331.975 20.024C334.695 18.1653 337.823 17.236 341.359 17.236C345.031 17.236 348.181 18.2333 350.811 20.228C353.485 22.1773 355.525 24.92 356.931 28.456C358.381 31.9467 359.107 36.0493 359.107 40.764C359.107 44.2093 358.699 47.36 357.883 50.216C357.067 53.072 355.865 55.52 354.279 57.56C352.692 59.6 350.811 61.1867 348.635 62.32C346.459 63.408 343.988 63.952 341.223 63.952ZM341.223 58.58C342.9 58.58 344.441 58.2173 345.847 57.492C347.252 56.7213 348.476 55.588 349.519 54.092C350.607 52.596 351.445 50.7373 352.035 48.516C352.624 46.2493 352.919 43.5973 352.919 40.56C352.919 36.7973 352.42 33.5787 351.423 30.904C350.471 28.2293 349.111 26.1667 347.343 24.716C345.62 23.2653 343.603 22.54 341.291 22.54C339.205 22.54 337.256 23.1747 335.443 24.444C333.675 25.668 332.224 27.6173 331.091 30.292C330.003 32.9213 329.459 36.344 329.459 40.56C329.459 43.5067 329.753 46.1133 330.343 48.38C330.932 50.6013 331.748 52.4827 332.791 54.024C333.833 55.52 335.057 56.6533 336.463 57.424C337.913 58.1947 339.5 58.58 341.223 58.58ZM371.919 63V28.592H365.459V23.084C367.499 23.084 369.199 22.7667 370.559 22.132C371.964 21.4973 372.871 20.16 373.279 18.12H378.175V63H371.919Z" fill="url(#paint1_linear_1_255)"/>
<rect x="24" y="24" width="80" height="80" rx="8" fill="white"/>
<path d="M56.7281 66.5842H60.0938H56.7281ZM56.7281 66.5842V61.4154H59.5531V63.9998C59.5531 64.2984 59.7952 64.5404 60.0938 64.5404C60.3923 64.5404 60.6344 64.2984 60.6344 63.9998V61.2495L65.8031 59.3112V68.6884L60.2837 66.6186L56.7281 66.5842Z" fill="#FF444E" stroke="white" stroke-width="0.3"/>
<path d="M62.8281 49.5469H65.1719V51.8906H62.8281V49.5469Z" fill="#FF444E"/>
<path d="M56.5781 49.5469H58.9219V51.8906H56.5781V49.5469Z" fill="#FF444E"/>
<path d="M50.3281 49.5469H52.6719V51.8906H50.3281V49.5469Z" fill="#FF444E"/>
<path d="M69.0781 49.5469H71.4219V51.8906H69.0781V49.5469Z" fill="#FF444E"/>
<path d="M75.3281 49.5469H77.6719V51.8906H75.3281V49.5469Z" fill="#FF444E"/>
<path d="M69.0781 76.1094H71.4219V78.4531H69.0781V76.1094Z" fill="#FF444E"/>
<path d="M75.3281 76.1094H77.6719V78.4531H75.3281V76.1094Z" fill="#FF444E"/>
<path d="M62.8281 76.1094H65.1719V78.4531H62.8281V76.1094Z" fill="#FF444E"/>
<path d="M50.3281 76.1094H52.6719V78.4531H50.3281V76.1094Z" fill="#FF444E"/>
<path d="M66.1539 58.025L66.1539 58.025C66.3198 57.9629 66.5059 57.9857 66.6517 58.0869M66.1539 58.025L66.2066 69.8345C66.251 69.8513 66.2975 69.8594 66.3438 69.8594C66.4222 69.8594 66.5 69.8357 66.5662 69.7898L66.6516 69.9131C66.6517 69.9131 66.6517 69.9131 66.6517 69.913C66.7975 69.8121 66.8844 69.646 66.8844 69.4688V58.5312C66.8844 58.354 66.7975 58.1879 66.6517 58.0869M66.1539 58.025L60.3098 60.2166C60.1021 60.2945 59.8821 60.3344 59.6602 60.3344H56.1875C55.889 60.3344 55.6469 60.5765 55.6469 60.875V67.125C55.6469 67.4236 55.889 67.6656 56.1875 67.6656H59.6602C59.8821 67.6656 60.1021 67.7055 60.3098 67.7834L66.1538 69.9749L66.1539 58.025ZM66.6517 58.0869L66.5662 58.2102M66.6517 58.0869C66.6517 58.0869 66.6517 58.0869 66.6517 58.0869L66.5662 58.2102M66.5662 58.2102C66.4609 58.1371 66.3265 58.1205 66.2066 58.1655L66.5662 58.2102ZM71.5251 59.7115C71.7361 59.5004 72.0785 59.5004 72.2895 59.7115C73.2768 60.6988 73.8208 62.0122 73.8208 63.4084C73.8208 64.8045 73.2768 66.1179 72.2896 67.1051C72.2895 67.1051 72.2895 67.1051 72.2895 67.1051L72.1834 66.9991C72.1072 67.0754 72.0072 67.1135 71.9073 67.1135C71.8073 67.1135 71.7073 67.0754 71.6311 66.9991L71.5251 59.7115ZM71.5251 59.7115C71.3138 59.9226 71.3139 60.2649 71.525 60.4761C72.3084 61.2595 72.7395 62.3003 72.7395 63.4084C72.7395 64.5164 72.3085 65.5572 71.5251 66.3406V59.7115ZM69.8678 61.3687C70.0788 61.1577 70.4212 61.1577 70.6322 61.3688C71.1769 61.9133 71.4771 62.6382 71.4771 63.4084C71.4771 64.1785 71.1769 64.9033 70.6323 65.4479L69.8678 61.3687ZM69.8678 61.3687C69.6566 61.5798 69.6566 61.9222 69.8678 62.1333M69.8678 61.3687L69.8678 62.1333M69.8678 62.1333C70.2085 62.4741 70.3959 62.9265 70.3959 63.4084C70.3959 63.8904 70.2086 64.3426 69.8678 64.6834C69.6566 64.8945 69.6566 65.2369 69.8678 65.448C69.9733 65.5536 70.112 65.6063 70.25 65.6063C70.388 65.6063 70.5267 65.5536 70.6322 65.4479L69.8678 62.1333ZM51.5469 72.0531C50.5251 72.0531 49.6969 71.2249 49.6969 70.2031V57.7969C49.6969 56.7751 50.5251 55.9469 51.5469 55.9469H76.4531C77.4749 55.9469 78.3031 56.7751 78.3031 57.7969V70.2031C78.3031 71.2249 77.4749 72.0531 76.4531 72.0531H51.5469Z" fill="#FF444E" stroke="white" stroke-width="0.3"/>
<path d="M46.5719 50.4219C46.5719 48.2956 48.2956 46.5719 50.4219 46.5719H77.5781C79.7044 46.5719 81.4281 48.2956 81.4281 50.4219V77.5781C81.4281 79.7044 79.7044 81.4281 77.5781 81.4281H50.4219C48.2956 81.4281 46.5719 79.7044 46.5719 77.5781V50.4219ZM74.9375 48.6156C74.6389 48.6156 74.3969 48.8577 74.3969 49.1562V52.2812C74.3969 52.5798 74.6389 52.8219 74.9375 52.8219H78.0625C78.3611 52.8219 78.6031 52.5798 78.6031 52.2812V49.1562C78.6031 48.8577 78.3611 48.6156 78.0625 48.6156H74.9375ZM68.6875 48.6156C68.3889 48.6156 68.1469 48.8577 68.1469 49.1562V52.2812C68.1469 52.5798 68.3889 52.8219 68.6875 52.8219H71.8125C72.1111 52.8219 72.3531 52.5798 72.3531 52.2812V49.1562C72.3531 48.8577 72.1111 48.6156 71.8125 48.6156H68.6875ZM62.4375 48.6156C62.139 48.6156 61.8969 48.8577 61.8969 49.1562V52.2812C61.8969 52.5798 62.139 52.8219 62.4375 52.8219H65.5625C65.8611 52.8219 66.1031 52.5798 66.1031 52.2812V49.1562C66.1031 48.8577 65.8611 48.6156 65.5625 48.6156H62.4375ZM56.1875 48.6156C55.889 48.6156 55.6469 48.8577 55.6469 49.1562V52.2812C55.6469 52.5798 55.889 52.8219 56.1875 52.8219H59.3125C59.611 52.8219 59.8531 52.5798 59.8531 52.2812V49.1562C59.8531 48.8577 59.611 48.6156 59.3125 48.6156H56.1875ZM49.9375 48.6156C49.639 48.6156 49.3969 48.8577 49.3969 49.1562V52.2812C49.3969 52.5798 49.639 52.8219 49.9375 52.8219H53.0625C53.361 52.8219 53.6031 52.5798 53.6031 52.2812V49.1562C53.6031 48.8577 53.361 48.6156 53.0625 48.6156H49.9375ZM53.0625 79.3844C53.361 79.3844 53.6031 79.1424 53.6031 78.8438V75.7188C53.6031 75.4201 53.361 75.1781 53.0625 75.1781H49.9375C49.639 75.1781 49.3969 75.4201 49.3969 75.7188V78.8438C49.3969 79.1424 49.639 79.3844 49.9375 79.3844H53.0625ZM59.3125 79.3844C59.611 79.3844 59.8531 79.1424 59.8531 78.8438V75.7188C59.8531 75.4201 59.611 75.1781 59.3125 75.1781H56.1875C55.889 75.1781 55.6469 75.4201 55.6469 75.7188V78.8438C55.6469 79.1424 55.889 79.3844 56.1875 79.3844H59.3125ZM65.5625 79.3844C65.8611 79.3844 66.1031 79.1424 66.1031 78.8438V75.7188C66.1031 75.4201 65.8611 75.1781 65.5625 75.1781H62.4375C62.139 75.1781 61.8969 75.4201 61.8969 75.7188V78.8438C61.8969 79.1424 62.139 79.3844 62.4375 79.3844H65.5625ZM71.8125 79.3844C72.1111 79.3844 72.3531 79.1424 72.3531 78.8438V75.7188C72.3531 75.4201 72.1111 75.1781 71.8125 75.1781H68.6875C68.3889 75.1781 68.1469 75.4201 68.1469 75.7188V78.8438C68.1469 79.1424 68.3889 79.3844 68.6875 79.3844H71.8125ZM78.0625 79.3844C78.3611 79.3844 78.6031 79.1424 78.6031 78.8438V75.7188C78.6031 75.4201 78.3611 75.1781 78.0625 75.1781H74.9375C74.6389 75.1781 74.3969 75.4201 74.3969 75.7188V78.8438C74.3969 79.1424 74.6389 79.3844 74.9375 79.3844H78.0625ZM78.8438 73.1344C79.1424 73.1344 79.3844 72.8924 79.3844 72.5938V55.4062C79.3844 55.1077 79.1424 54.8656 78.8438 54.8656H49.1562C48.8577 54.8656 48.6156 55.1077 48.6156 55.4062V72.5938C48.6156 72.8924 48.8577 73.1344 49.1562 73.1344H78.8438Z" fill="#FF444E" stroke="white" stroke-width="0.3"/>
<path d="M56.5781 76.1094H58.9219V78.4531H56.5781V76.1094Z" fill="#FF444E"/>
<path d="M149.136 97V81.16H152.184V97H149.136ZM144.48 83.728V81.16H156.84V83.728H144.48ZM163.612 97L158.308 81.16H161.62L165.604 94.408H165.892L169.9 81.16H173.164L167.836 97H163.612ZM183.833 97.312C183.145 97.312 182.529 97.184 181.985 96.928C181.441 96.656 181.009 96.264 180.689 95.752C180.369 95.224 180.209 94.568 180.209 93.784C180.209 93.112 180.337 92.544 180.593 92.08C180.849 91.616 181.225 91.24 181.721 90.952C182.217 90.648 182.825 90.4 183.545 90.208C184.281 90 185.121 89.832 186.065 89.704C186.641 89.608 187.105 89.52 187.457 89.44C187.809 89.36 188.065 89.24 188.225 89.08C188.401 88.92 188.489 88.672 188.489 88.336C188.489 87.824 188.305 87.392 187.937 87.04C187.585 86.688 187.025 86.512 186.257 86.512C185.809 86.512 185.377 86.592 184.961 86.752C184.545 86.912 184.185 87.168 183.881 87.52C183.577 87.856 183.369 88.304 183.257 88.864L180.569 88.096C180.713 87.44 180.953 86.864 181.289 86.368C181.625 85.872 182.041 85.456 182.537 85.12C183.033 84.784 183.601 84.536 184.241 84.376C184.897 84.216 185.601 84.136 186.353 84.136C187.505 84.136 188.457 84.328 189.209 84.712C189.961 85.096 190.521 85.688 190.889 86.488C191.273 87.272 191.465 88.28 191.465 89.512V91.864C191.465 92.408 191.473 92.976 191.489 93.568C191.521 94.144 191.553 94.728 191.585 95.32C191.617 95.896 191.657 96.456 191.705 97H188.993C188.945 96.536 188.897 96.04 188.849 95.512C188.817 94.984 188.793 94.44 188.777 93.88H188.417C188.209 94.504 187.897 95.08 187.481 95.608C187.065 96.136 186.553 96.552 185.945 96.856C185.337 97.16 184.633 97.312 183.833 97.312ZM185.009 95.056C185.345 95.056 185.681 95 186.017 94.888C186.353 94.776 186.681 94.608 187.001 94.384C187.321 94.144 187.609 93.848 187.865 93.496C188.137 93.144 188.361 92.728 188.537 92.248L188.513 90.304L189.089 90.376C188.817 90.6 188.489 90.776 188.105 90.904C187.721 91.032 187.305 91.136 186.857 91.216C186.409 91.28 185.969 91.352 185.537 91.432C185.105 91.512 184.705 91.624 184.337 91.768C183.985 91.896 183.697 92.088 183.473 92.344C183.265 92.6 183.161 92.944 183.161 93.376C183.161 93.904 183.329 94.32 183.665 94.624C184.017 94.912 184.465 95.056 185.009 95.056ZM194.569 97V89.488V84.448H197.113L197.017 88.504H197.449C197.641 87.512 197.921 86.696 198.289 86.056C198.673 85.416 199.161 84.936 199.753 84.616C200.345 84.296 201.041 84.136 201.841 84.136C203.265 84.136 204.345 84.64 205.081 85.648C205.817 86.64 206.185 88.184 206.185 90.28V97H203.137V90.592C203.137 89.264 202.937 88.288 202.537 87.664C202.137 87.04 201.545 86.728 200.761 86.728C200.089 86.728 199.521 86.944 199.057 87.376C198.593 87.792 198.233 88.36 197.977 89.08C197.737 89.8 197.609 90.616 197.593 91.528V97H194.569ZM213.753 97.312C212.713 97.312 211.809 97.048 211.041 96.52C210.273 95.976 209.673 95.216 209.241 94.24C208.825 93.248 208.617 92.072 208.617 90.712C208.617 89.416 208.809 88.28 209.193 87.304C209.577 86.312 210.137 85.544 210.873 85C211.625 84.44 212.545 84.16 213.633 84.16C214.465 84.16 215.161 84.328 215.721 84.664C216.281 84.984 216.737 85.448 217.089 86.056C217.441 86.648 217.713 87.352 217.905 88.168H218.385C218.289 87.656 218.201 87.152 218.121 86.656C218.041 86.144 217.977 85.656 217.929 85.192C217.881 84.728 217.857 84.312 217.857 83.944V80.032H220.905V90.976V97H218.313L218.361 93.376H217.929C217.753 94.24 217.481 94.968 217.113 95.56C216.761 96.136 216.305 96.576 215.745 96.88C215.185 97.168 214.521 97.312 213.753 97.312ZM214.689 94.816C215.217 94.816 215.681 94.696 216.081 94.456C216.481 94.216 216.809 93.904 217.065 93.52C217.337 93.12 217.537 92.696 217.665 92.248C217.793 91.8 217.857 91.36 217.857 90.928V90.568C217.857 90.248 217.809 89.912 217.713 89.56C217.633 89.192 217.505 88.84 217.329 88.504C217.169 88.168 216.961 87.864 216.705 87.592C216.449 87.304 216.153 87.08 215.817 86.92C215.481 86.744 215.097 86.656 214.665 86.656C214.057 86.656 213.537 86.832 213.105 87.184C212.673 87.536 212.345 88.024 212.121 88.648C211.897 89.256 211.785 89.96 211.785 90.76C211.785 91.576 211.897 92.288 212.121 92.896C212.361 93.504 212.697 93.976 213.129 94.312C213.577 94.648 214.097 94.816 214.689 94.816ZM229.917 97V81.16H232.941V97H229.917ZM231.309 90.808V88.288H240.381V90.808H231.309ZM231.309 83.776V81.16H241.317V83.776H231.309ZM243.624 97V84.448H246.648V97H243.624ZM245.16 82.576C244.536 82.576 244.064 82.448 243.744 82.192C243.424 81.92 243.264 81.536 243.264 81.04C243.264 80.544 243.424 80.168 243.744 79.912C244.08 79.64 244.552 79.504 245.16 79.504C245.784 79.504 246.256 79.64 246.576 79.912C246.912 80.168 247.08 80.544 247.08 81.04C247.08 81.536 246.912 81.92 246.576 82.192C246.256 82.448 245.784 82.576 245.16 82.576ZM249.881 97V80.032H252.881V97H249.881ZM256.092 97V89.272V84.448H258.588L258.516 88.504H258.924C259.132 87.512 259.412 86.696 259.764 86.056C260.116 85.416 260.556 84.936 261.084 84.616C261.628 84.296 262.244 84.136 262.932 84.136C263.716 84.136 264.356 84.32 264.852 84.688C265.348 85.04 265.724 85.536 265.98 86.176C266.252 86.816 266.404 87.584 266.436 88.48H266.82C267.012 87.488 267.3 86.672 267.684 86.032C268.084 85.392 268.564 84.92 269.124 84.616C269.684 84.296 270.316 84.136 271.02 84.136C271.692 84.136 272.276 84.272 272.772 84.544C273.284 84.8 273.708 85.192 274.044 85.72C274.396 86.232 274.66 86.88 274.836 87.664C275.012 88.432 275.1 89.328 275.1 90.352V97H272.052V90.712C272.052 89.832 271.972 89.104 271.812 88.528C271.668 87.936 271.436 87.496 271.116 87.208C270.812 86.92 270.42 86.776 269.94 86.776C269.38 86.776 268.892 86.968 268.476 87.352C268.06 87.736 267.732 88.272 267.492 88.96C267.252 89.648 267.108 90.44 267.06 91.336V97H264.108V90.832C264.108 89.92 264.028 89.168 263.868 88.576C263.708 87.984 263.468 87.536 263.148 87.232C262.844 86.928 262.452 86.776 261.972 86.776C261.396 86.776 260.9 86.976 260.484 87.376C260.084 87.76 259.764 88.304 259.524 89.008C259.284 89.696 259.148 90.488 259.116 91.384V97H256.092Z" fill="#0E0606"/>
<defs>
<linearGradient id="paint0_linear_1_255" x1="-6.544e-06" y1="18" x2="397.93" y2="123.787" gradientUnits="userSpaceOnUse">
<stop stop-color="#EDE5E5"/>
<stop offset="1" stop-color="#E4D0D0"/>
</linearGradient>
<linearGradient id="paint1_linear_1_255" x1="319" y1="21.1833" x2="381.274" y2="60.674" gradientUnits="userSpaceOnUse">
<stop stop-color="#0E0606"/>
<stop offset="1" stop-color="#0E0606" stop-opacity="0"/>
</linearGradient>
</defs>
</svg>
