<svg width="328" height="128" viewBox="0 0 328 128" fill="none" xmlns="http://www.w3.org/2000/svg">
<rect width="328" height="128" rx="24" fill="url(#paint0_linear_1_293)"/>
<path opacity="0.4" d="M249.832 63.952C247.112 63.952 244.641 63.408 242.42 62.32C240.199 61.232 238.295 59.668 236.708 57.628C235.167 55.588 233.965 53.1627 233.104 50.352C232.288 47.496 231.88 44.3227 231.88 40.832C231.88 35.8453 232.651 31.6067 234.192 28.116C235.733 24.58 237.864 21.8827 240.584 20.024C243.304 18.1653 246.432 17.236 249.968 17.236C253.64 17.236 256.791 18.2333 259.42 20.228C262.095 22.1773 264.135 24.92 265.54 28.456C266.991 31.9467 267.716 36.0493 267.716 40.764C267.716 44.2093 267.308 47.36 266.492 50.216C265.676 53.072 264.475 55.52 262.888 57.56C261.301 59.6 259.42 61.1867 257.244 62.32C255.068 63.408 252.597 63.952 249.832 63.952ZM249.832 58.58C251.509 58.58 253.051 58.2173 254.456 57.492C255.861 56.7213 257.085 55.588 258.128 54.092C259.216 52.596 260.055 50.7373 260.644 48.516C261.233 46.2493 261.528 43.5973 261.528 40.56C261.528 36.7973 261.029 33.5787 260.032 30.904C259.08 28.2293 257.72 26.1667 255.952 24.716C254.229 23.2653 252.212 22.54 249.9 22.54C247.815 22.54 245.865 23.1747 244.052 24.444C242.284 25.668 240.833 27.6173 239.7 30.292C238.612 32.9213 238.068 36.344 238.068 40.56C238.068 43.5067 238.363 46.1133 238.952 48.38C239.541 50.6013 240.357 52.4827 241.4 54.024C242.443 55.52 243.667 56.6533 245.072 57.424C246.523 58.1947 248.109 58.58 249.832 58.58ZM274.324 53.208V46.136C276.455 44.0053 278.472 41.784 280.376 39.472C282.28 37.1147 284.048 34.7347 285.68 32.332C287.312 29.9293 288.763 27.5267 290.032 25.124C291.302 22.7213 292.367 20.364 293.228 18.052H304.108V63H297.92V22.812H297.376C295.926 26.212 294.294 29.3853 292.48 32.332C290.667 35.2333 288.74 37.9307 286.7 40.424C284.706 42.872 282.643 45.1613 280.512 47.292V47.904H309.752V53.208H274.324Z" fill="url(#paint1_linear_1_293)"/>
<rect x="24" y="24" width="80" height="80" rx="8" fill="white"/>
<g clip-path="url(#clip0_1_293)">
<path d="M77.7931 75.5864H70.3813L69.2083 77.5412C68.9083 78.0387 68.3703 78.3435 67.7893 78.3451H60.2108C59.6298 78.3435 59.0918 78.0387 58.7917 77.5412L57.6188 75.5864H48.5518V77.7933C48.5518 79.0121 49.5398 80.0002 50.7586 80.0002H77.2414C78.4602 80.0002 79.4483 79.0121 79.4483 77.7933V75.5864H77.7931ZM50.7586 78.3451C50.4539 78.3451 50.2069 78.0981 50.2069 77.7933C50.2069 77.4886 50.4539 77.2416 50.7586 77.2416C51.0634 77.2416 51.3104 77.4886 51.3104 77.7933C51.3104 78.0981 51.0633 78.3451 50.7586 78.3451ZM52.9655 78.3451C52.6608 78.3451 52.4138 78.0981 52.4138 77.7933C52.4138 77.4886 52.6608 77.2416 52.9655 77.2416C53.2702 77.2416 53.5173 77.4886 53.5173 77.7933C53.5173 78.0981 53.2703 78.3451 52.9655 78.3451ZM56.2759 78.3451H55.1724C54.8678 78.3451 54.6207 78.0981 54.6207 77.7933C54.6207 77.4886 54.8677 77.2416 55.1724 77.2416H56.2759C56.5806 77.2416 56.8276 77.4886 56.8276 77.7933C56.8276 78.0981 56.5806 78.3451 56.2759 78.3451Z" fill="#FF444E"/>
<path fill-rule="evenodd" clip-rule="evenodd" d="M60.2111 77.2416H67.7896C67.9833 77.2415 68.1628 77.14 68.2624 76.974L69.095 75.5864H58.9058L59.7383 76.9735C59.8379 77.1396 60.0174 77.2414 60.2111 77.2416Z" fill="#FF444E"/>
<path fill-rule="evenodd" clip-rule="evenodd" d="M58.4827 67.8618C56.9876 67.8618 55.7241 68.6199 55.7241 69.517C55.7241 70.4142 56.9876 71.1722 58.4827 71.1722C59.9779 71.1722 61.2414 70.4142 61.2414 69.517V60.5791C61.2414 60.3353 61.4012 60.1205 61.6347 60.0505L68.2554 58.0643C68.4225 58.0143 68.6033 58.0462 68.7432 58.1503C68.8831 58.2544 68.9655 58.4185 68.9655 58.5929V64.6784C68.9655 64.8472 68.8883 65.0067 68.7559 65.1113C68.6235 65.2159 68.4505 65.2542 68.2863 65.2152C67.9664 65.1399 67.6389 65.1023 67.3103 65.1032C65.8151 65.1032 64.5517 65.8613 64.5517 66.7584C64.5517 67.6555 65.8151 68.4136 67.3103 68.4136C68.8055 68.4136 70.0689 67.6555 70.0689 66.7584V55.5518C70.0689 55.3774 69.9865 55.2133 69.8466 55.1092C69.7067 55.005 69.5259 54.9732 69.3588 55.0232L60.5312 57.6715C60.2977 57.7414 60.1379 57.9563 60.1379 58.2V67.437C60.1379 67.6057 60.0607 67.7652 59.9282 67.8698C59.7959 67.9745 59.6229 68.0128 59.4587 67.9738C59.1389 67.8986 58.8114 67.861 58.4827 67.8618Z" fill="#FF444E"/>
<path d="M67.7122 59.5363V63.8643C67.5792 63.8549 67.4451 63.8501 67.3105 63.8501C66.201 63.8501 65.2039 64.1608 64.4802 64.678C63.756 65.1956 63.2984 65.9267 63.2984 66.7587C63.2984 67.5907 63.756 68.3218 64.4802 68.8394C65.2039 69.3566 66.201 69.6673 67.3105 69.6673C68.4199 69.6673 69.417 69.3566 70.1408 68.8394C70.8649 68.3218 71.3225 67.5907 71.3225 66.7587V56.9776H76.6898C76.9117 56.9776 77.0915 57.1575 77.0915 57.3794V74.3329H50.9088V57.3794C50.9088 57.1576 51.0887 56.9777 51.3105 56.9777H59.1927C58.9986 57.1984 58.8858 57.4853 58.8847 57.7893V57.7899V66.6229C58.7516 66.6135 58.6176 66.6087 58.4829 66.6087C57.3735 66.6087 56.3764 66.9194 55.6526 67.4367C54.9285 67.9542 54.4709 68.6853 54.4709 69.5173C54.4709 70.3493 54.9285 71.0805 55.6526 71.598C56.3764 72.1152 57.3735 72.4259 58.4829 72.4259C59.5924 72.4259 60.5895 72.1152 61.3132 71.598C62.0374 71.0805 62.495 70.3493 62.495 69.5173V61.1015L67.7122 59.5363Z" fill="#FF444E" stroke="white" stroke-width="0.3"/>
<path fill-rule="evenodd" clip-rule="evenodd" d="M64 53.5173C63.6953 53.5173 63.4482 53.2702 63.4482 52.9655V48.5518C63.4482 48.247 63.6953 48 64 48C64.3047 48 64.5517 48.247 64.5517 48.5518V52.9656C64.5517 53.2702 64.3047 53.5173 64 53.5173Z" fill="#FF444E"/>
<path fill-rule="evenodd" clip-rule="evenodd" d="M60.6899 53.5174C60.3852 53.5174 60.1382 53.2704 60.1382 52.9656V50.207C60.1382 49.9023 60.3852 49.6553 60.6899 49.6553C60.9947 49.6553 61.2417 49.9023 61.2417 50.207V52.9656C61.2417 53.2704 60.9947 53.5174 60.6899 53.5174Z" fill="#FF444E"/>
<path fill-rule="evenodd" clip-rule="evenodd" d="M67.3105 53.5174C67.0059 53.5174 66.7588 53.2704 66.7588 52.9656V50.207C66.7588 49.9023 67.0058 49.6553 67.3105 49.6553C67.6153 49.6553 67.8623 49.9023 67.8623 50.207V52.9656C67.8622 53.2704 67.6152 53.5174 67.3105 53.5174Z" fill="#FF444E"/>
</g>
<path d="M145.776 97V81.16H150.384L154.968 93.616H155.088L159.624 81.16H164.04V97H161.136L161.328 84.232H161.112L156.192 97H153.528L148.68 84.232H148.464L148.632 97H145.776ZM171.557 97.312C170.117 97.312 169.029 96.824 168.293 95.848C167.573 94.856 167.213 93.352 167.213 91.336V84.448H170.261V91.024C170.261 92.304 170.445 93.248 170.813 93.856C171.197 94.464 171.789 94.768 172.589 94.768C173.053 94.768 173.461 94.656 173.813 94.432C174.165 94.192 174.469 93.864 174.725 93.448C174.997 93.016 175.205 92.512 175.349 91.936C175.493 91.344 175.581 90.696 175.613 89.992V84.448H178.637V91.744V97H176.117L176.189 92.92H175.781C175.573 93.944 175.285 94.784 174.917 95.44C174.549 96.08 174.085 96.552 173.525 96.856C172.981 97.16 172.325 97.312 171.557 97.312ZM186.762 97.312C185.914 97.312 185.146 97.224 184.458 97.048C183.786 96.888 183.202 96.648 182.706 96.328C182.226 96.008 181.842 95.616 181.554 95.152C181.282 94.688 181.122 94.168 181.074 93.592L183.474 92.8C183.522 93.232 183.682 93.624 183.954 93.976C184.242 94.312 184.634 94.576 185.13 94.768C185.642 94.944 186.25 95.032 186.954 95.032C187.738 95.032 188.346 94.912 188.778 94.672C189.226 94.416 189.45 94.056 189.45 93.592C189.45 93.256 189.33 92.992 189.09 92.8C188.85 92.592 188.506 92.424 188.058 92.296C187.61 92.152 187.066 92.016 186.426 91.888C185.818 91.76 185.21 91.616 184.602 91.456C184.01 91.28 183.458 91.056 182.946 90.784C182.45 90.496 182.05 90.128 181.746 89.68C181.442 89.216 181.29 88.64 181.29 87.952C181.29 87.184 181.49 86.52 181.89 85.96C182.306 85.384 182.906 84.936 183.69 84.616C184.474 84.296 185.41 84.136 186.498 84.136C187.538 84.136 188.434 84.288 189.186 84.592C189.954 84.88 190.578 85.296 191.058 85.84C191.538 86.384 191.826 87.048 191.922 87.832L189.426 88.552C189.378 88.104 189.226 87.72 188.97 87.4C188.73 87.08 188.394 86.84 187.962 86.68C187.546 86.504 187.05 86.416 186.474 86.416C185.738 86.416 185.162 86.544 184.746 86.8C184.33 87.056 184.122 87.408 184.122 87.856C184.122 88.192 184.25 88.464 184.506 88.672C184.778 88.88 185.146 89.048 185.61 89.176C186.074 89.304 186.618 89.44 187.242 89.584C187.866 89.696 188.474 89.84 189.066 90.016C189.674 90.176 190.218 90.392 190.698 90.664C191.178 90.936 191.562 91.296 191.85 91.744C192.138 92.176 192.282 92.744 192.282 93.448C192.282 94.264 192.058 94.968 191.61 95.56C191.178 96.136 190.546 96.576 189.714 96.88C188.898 97.168 187.914 97.312 186.762 97.312ZM194.71 97V84.448H197.734V97H194.71ZM196.246 82.576C195.622 82.576 195.15 82.448 194.83 82.192C194.51 81.92 194.35 81.536 194.35 81.04C194.35 80.544 194.51 80.168 194.83 79.912C195.166 79.64 195.638 79.504 196.246 79.504C196.87 79.504 197.342 79.64 197.662 79.912C197.998 80.168 198.166 80.544 198.166 81.04C198.166 81.536 197.998 81.92 197.662 82.192C197.342 82.448 196.87 82.576 196.246 82.576ZM206.631 97.312C205.559 97.312 204.623 97.152 203.823 96.832C203.039 96.512 202.383 96.064 201.855 95.488C201.343 94.896 200.959 94.208 200.703 93.424C200.447 92.64 200.319 91.792 200.319 90.88C200.319 89.92 200.447 89.032 200.703 88.216C200.975 87.4 201.375 86.688 201.903 86.08C202.431 85.456 203.079 84.976 203.847 84.64C204.615 84.304 205.503 84.136 206.511 84.136C207.551 84.136 208.447 84.312 209.199 84.664C209.951 85.016 210.551 85.504 210.999 86.128C211.447 86.736 211.735 87.448 211.863 88.264L209.055 89.08C209.023 88.584 208.895 88.144 208.671 87.76C208.447 87.376 208.143 87.08 207.759 86.872C207.375 86.664 206.927 86.56 206.415 86.56C205.919 86.56 205.479 86.656 205.095 86.848C204.727 87.04 204.415 87.32 204.159 87.688C203.903 88.056 203.711 88.496 203.583 89.008C203.455 89.52 203.391 90.104 203.391 90.76C203.391 91.656 203.511 92.424 203.751 93.064C203.991 93.688 204.351 94.168 204.831 94.504C205.327 94.84 205.943 95.008 206.679 95.008C207.319 95.008 207.839 94.88 208.239 94.624C208.655 94.368 208.967 94.04 209.175 93.64C209.383 93.224 209.511 92.776 209.559 92.296L212.247 92.848C212.183 93.488 212.015 94.088 211.743 94.648C211.471 95.192 211.103 95.664 210.639 96.064C210.175 96.464 209.607 96.776 208.935 97C208.279 97.208 207.511 97.312 206.631 97.312ZM223.456 97V81.16H226.504V97H223.456ZM218.8 83.728V81.16H231.16V83.728H218.8ZM237.171 97.312C236.147 97.312 235.243 97.168 234.459 96.88C233.675 96.592 233.011 96.168 232.467 95.608C231.923 95.048 231.515 94.376 231.243 93.592C230.971 92.808 230.835 91.928 230.835 90.952C230.835 89.976 230.963 89.072 231.219 88.24C231.491 87.408 231.891 86.688 232.419 86.08C232.947 85.456 233.587 84.976 234.339 84.64C235.107 84.304 235.979 84.136 236.955 84.136C237.867 84.136 238.683 84.288 239.403 84.592C240.139 84.896 240.747 85.352 241.227 85.96C241.723 86.568 242.083 87.312 242.307 88.192C242.547 89.072 242.627 90.088 242.547 91.24L232.779 91.312V89.56L240.723 89.488L239.739 90.472C239.819 89.576 239.747 88.84 239.523 88.264C239.299 87.688 238.963 87.256 238.515 86.968C238.067 86.68 237.555 86.536 236.979 86.536C236.323 86.536 235.747 86.712 235.251 87.064C234.771 87.416 234.395 87.912 234.123 88.552C233.867 89.192 233.739 89.968 233.739 90.88C233.739 92.272 234.043 93.312 234.651 94C235.259 94.688 236.107 95.032 237.195 95.032C237.659 95.032 238.059 94.976 238.395 94.864C238.731 94.736 239.003 94.568 239.211 94.36C239.435 94.152 239.611 93.92 239.739 93.664C239.883 93.392 239.987 93.12 240.051 92.848L242.715 93.376C242.587 93.968 242.387 94.504 242.115 94.984C241.843 95.464 241.475 95.88 241.011 96.232C240.563 96.584 240.019 96.848 239.379 97.024C238.755 97.216 238.019 97.312 237.171 97.312ZM250.928 97.312C249.856 97.312 248.92 97.152 248.12 96.832C247.336 96.512 246.68 96.064 246.152 95.488C245.64 94.896 245.256 94.208 245 93.424C244.744 92.64 244.616 91.792 244.616 90.88C244.616 89.92 244.744 89.032 245 88.216C245.272 87.4 245.672 86.688 246.2 86.08C246.728 85.456 247.376 84.976 248.144 84.64C248.912 84.304 249.8 84.136 250.808 84.136C251.848 84.136 252.744 84.312 253.496 84.664C254.248 85.016 254.848 85.504 255.296 86.128C255.744 86.736 256.032 87.448 256.16 88.264L253.352 89.08C253.32 88.584 253.192 88.144 252.968 87.76C252.744 87.376 252.44 87.08 252.056 86.872C251.672 86.664 251.224 86.56 250.712 86.56C250.216 86.56 249.776 86.656 249.392 86.848C249.024 87.04 248.712 87.32 248.456 87.688C248.2 88.056 248.008 88.496 247.88 89.008C247.752 89.52 247.688 90.104 247.688 90.76C247.688 91.656 247.808 92.424 248.048 93.064C248.288 93.688 248.648 94.168 249.128 94.504C249.624 94.84 250.24 95.008 250.976 95.008C251.616 95.008 252.136 94.88 252.536 94.624C252.952 94.368 253.264 94.04 253.472 93.64C253.68 93.224 253.808 92.776 253.856 92.296L256.544 92.848C256.48 93.488 256.312 94.088 256.04 94.648C255.768 95.192 255.4 95.664 254.936 96.064C254.472 96.464 253.904 96.776 253.232 97C252.576 97.208 251.808 97.312 250.928 97.312ZM258.6 97V89.416V80.032H261.648V83.848C261.648 84.184 261.632 84.544 261.6 84.928C261.584 85.296 261.552 85.68 261.504 86.08C261.456 86.464 261.4 86.856 261.336 87.256C261.288 87.656 261.232 88.048 261.168 88.432H261.624C261.832 87.504 262.112 86.72 262.464 86.08C262.832 85.44 263.296 84.96 263.856 84.64C264.416 84.304 265.104 84.136 265.92 84.136C267.36 84.136 268.432 84.64 269.136 85.648C269.856 86.656 270.216 88.192 270.216 90.256V97H267.168V90.64C267.168 89.296 266.968 88.304 266.568 87.664C266.168 87.024 265.568 86.704 264.768 86.704C264.096 86.704 263.536 86.912 263.088 87.328C262.64 87.728 262.296 88.28 262.056 88.984C261.816 89.688 261.672 90.504 261.624 91.432V97H258.6Z" fill="#0E0606"/>
<defs>
<linearGradient id="paint0_linear_1_293" x1="-5.36608e-06" y1="18" x2="333.515" y2="90.703" gradientUnits="userSpaceOnUse">
<stop stop-color="#EDE5E5"/>
<stop offset="1" stop-color="#E4D0D0"/>
</linearGradient>
<linearGradient id="paint1_linear_1_293" x1="227" y1="21.1833" x2="294.657" y2="77.2889" gradientUnits="userSpaceOnUse">
<stop stop-color="#0E0606"/>
<stop offset="1" stop-color="#0E0606" stop-opacity="0"/>
</linearGradient>
<clipPath id="clip0_1_293">
<rect width="32" height="32" fill="white" transform="translate(48 48)"/>
</clipPath>
</defs>
</svg>
