<svg width="384" height="269" viewBox="0 0 384 269" fill="none" xmlns="http://www.w3.org/2000/svg">
<rect width="384" height="269" rx="24" fill="white" fill-opacity="0.16"/>
<rect x="0.5" y="0.5" width="383" height="268" rx="23.5" stroke="white" stroke-opacity="0.4"/>
<rect x="24" y="24" width="80" height="80" rx="16" fill="white"/>
<path d="M48 69.7148C48 70.1694 48.1806 70.6054 48.5021 70.9269C48.8236 71.2484 49.2596 71.429 49.7142 71.429H51.9999C52.1515 71.429 52.2968 71.3688 52.404 71.2617C52.5111 71.1545 52.5713 71.0091 52.5713 70.8576V64.0006C52.5713 63.8491 52.5111 63.7037 52.404 63.5966C52.2968 63.4894 52.1515 63.4292 51.9999 63.4292H49.7142C49.2596 63.4292 48.8236 63.6098 48.5021 63.9313C48.1806 64.2528 48 64.6888 48 65.1434V69.7148Z" fill="#FF444E"/>
<path d="M77.716 62.2854V61.714C77.716 58.0768 76.2712 54.5886 73.6993 52.0167C71.1274 49.4449 67.6392 48 64.0021 48C60.3649 48 56.8767 49.4449 54.3048 52.0167C51.7329 54.5886 50.2881 58.0768 50.2881 61.714V62.2854H51.4309V61.714C51.4309 58.3799 52.7554 55.1824 55.1129 52.8248C57.4705 50.4673 60.668 49.1428 64.0021 49.1428C67.3361 49.1428 70.5336 50.4673 72.8912 52.8248C75.2487 55.1824 76.5732 58.3799 76.5732 61.714V62.2854H77.716Z" fill="#FF444E"/>
<path d="M70.2873 78.2859H67.4302V79.4288H70.2873C72.1569 79.4258 73.9567 78.7184 75.3281 77.4475C76.6994 76.1767 77.5415 74.4358 77.6865 72.5718H76.5437C76.3999 74.1324 75.6789 75.5831 74.5217 76.64C73.3645 77.6969 71.8545 78.2839 70.2873 78.2859Z" fill="#FF444E"/>
<path d="M62.8591 80.0005H65.7162C65.8678 80.0005 66.0131 79.9403 66.1203 79.8331C66.2274 79.726 66.2876 79.5806 66.2876 79.4291V78.2863C66.2876 78.1347 66.2274 77.9894 66.1203 77.8822C66.0131 77.775 65.8678 77.7148 65.7162 77.7148H62.8591C62.556 77.7148 62.2654 77.8352 62.051 78.0496C61.8367 78.2639 61.7163 78.5546 61.7163 78.8577C61.7163 79.1608 61.8367 79.4515 62.051 79.6658C62.2654 79.8801 62.556 80.0005 62.8591 80.0005Z" fill="#FF444E"/>
<path d="M63.9998 76.571C66.0341 76.571 68.0227 75.9677 69.7141 74.8375C71.4056 73.7074 72.7239 72.101 73.5024 70.2216C74.2809 68.3421 74.4845 66.2741 74.0877 64.2789C73.6908 62.2837 72.7112 60.451 71.2728 59.0126C69.8343 57.5741 68.0016 56.5945 66.0064 56.1976C64.0112 55.8008 61.9432 56.0045 60.0637 56.7829C58.1843 57.5614 56.578 58.8797 55.4478 60.5712C54.3176 62.2626 53.7144 64.2512 53.7144 66.2855C53.7175 69.0124 54.8022 71.6267 56.7304 73.5549C58.6586 75.4831 61.2729 76.5678 63.9998 76.571ZM68.5712 63.4284H71.4282C71.5302 63.4284 71.6304 63.4557 71.7183 63.5075C71.8061 63.5592 71.8786 63.6336 71.928 63.7228C71.9775 63.812 72.0021 63.9129 71.9994 64.0148C71.9968 64.1168 71.9669 64.2162 71.9128 64.3027L69.0557 68.874C69.0159 68.9378 68.964 68.9931 68.9028 69.0368C68.8417 69.0805 68.7725 69.1118 68.6993 69.1287C68.6261 69.1457 68.5502 69.1481 68.4761 69.1358C68.4019 69.1234 68.3309 69.0966 68.2672 69.0568C68.2034 69.0171 68.1481 68.9651 68.1043 68.904C68.0606 68.8428 68.0294 68.7737 68.0124 68.7004C67.9954 68.6272 67.993 68.5514 68.0054 68.4772C68.0177 68.4031 68.0445 68.3321 68.0843 68.2683L70.3997 64.5712H68.5712C68.4196 64.5712 68.2743 64.511 68.1671 64.4039C68.0599 64.2967 67.9997 64.1514 67.9997 63.9998C67.9997 63.8483 68.0599 63.7029 68.1671 63.5958C68.2743 63.4886 68.4196 63.4284 68.5712 63.4284ZM65.7255 63.3141C65.7595 63.1699 65.8482 63.0446 65.9729 62.9646C66.0976 62.8845 66.2484 62.856 66.3937 62.8851C66.539 62.9141 66.6673 62.9985 66.7516 63.1203C66.8358 63.2421 66.8695 63.3919 66.8455 63.5381L65.7026 69.2523C65.6772 69.3822 65.6075 69.4992 65.5054 69.5834C65.4032 69.6677 65.275 69.7138 65.1427 69.714C65.1043 69.7142 65.066 69.7104 65.0284 69.7025C64.9548 69.6875 64.885 69.6582 64.8228 69.6162C64.7606 69.5742 64.7072 69.5204 64.6658 69.4577C64.6245 69.3951 64.5958 69.325 64.5815 69.2513C64.5673 69.1776 64.5677 69.1018 64.5827 69.0283L65.7255 63.3141ZM59.9999 63.9998C59.9999 63.8483 60.0601 63.7029 60.1673 63.5958C60.2744 63.4886 60.4198 63.4284 60.5713 63.4284C60.7229 63.4284 60.8682 63.4886 60.9754 63.5958C61.0826 63.7029 61.1428 63.8483 61.1428 63.9998V66.8569H61.7142V66.2855C61.7142 66.1339 61.7744 65.9886 61.8815 65.8814C61.9887 65.7743 62.134 65.7141 62.2856 65.7141C62.4371 65.7141 62.5825 65.7743 62.6896 65.8814C62.7968 65.9886 62.857 66.1339 62.857 66.2855V66.8569H63.4284C63.58 66.8569 63.7253 66.9171 63.8325 67.0243C63.9396 67.1314 63.9998 67.2768 63.9998 67.4283C63.9998 67.5799 63.9396 67.7252 63.8325 67.8324C63.7253 67.9395 63.58 67.9997 63.4284 67.9997H62.857V68.5711C62.857 68.7227 62.7968 68.868 62.6896 68.9752C62.5825 69.0824 62.4371 69.1426 62.2856 69.1426C62.134 69.1426 61.9887 69.0824 61.8815 68.9752C61.7744 68.868 61.7142 68.7227 61.7142 68.5711V67.9997H60.5713C60.4198 67.9997 60.2744 67.9395 60.1673 67.8324C60.0601 67.7252 59.9999 67.5799 59.9999 67.4283V63.9998ZM55.4286 68.5711C55.4286 67.4489 56.1926 66.8929 56.8069 66.4466C57.3863 66.0249 57.7143 65.7609 57.7143 65.2466C57.7273 65.0815 57.6745 64.9179 57.5675 64.7914C57.4605 64.6649 57.3079 64.5858 57.1428 64.5712C56.7691 64.5712 56.52 65.0684 56.5171 65.0735C56.4524 65.2094 56.3366 65.3142 56.195 65.3651C56.0533 65.4161 55.8973 65.4092 55.7608 65.3458C55.6243 65.2824 55.5183 65.1678 55.4658 65.0267C55.4134 64.8856 55.4187 64.7296 55.4806 64.5924C55.6235 64.264 55.8543 63.9815 56.1477 63.7761C56.441 63.5707 56.7854 63.4504 57.1428 63.4284C57.6109 63.4433 58.054 63.643 58.3752 63.9837C58.6965 64.3245 58.8697 64.7785 58.8571 65.2466C58.8571 66.3689 58.0931 66.9243 57.4788 67.3706C57.2094 67.5447 56.9664 67.7566 56.7571 67.9997H58.2857C58.4372 67.9997 58.5826 68.0599 58.6897 68.1671C58.7969 68.2743 58.8571 68.4196 58.8571 68.5711C58.8571 68.7227 58.7969 68.868 58.6897 68.9752C58.5826 69.0824 58.4372 69.1426 58.2857 69.1426H56C55.8485 69.1426 55.7031 69.0824 55.596 68.9752C55.4888 68.868 55.4286 68.7227 55.4286 68.5711Z" fill="#FF444E"/>
<path d="M80 65.1434C80 64.6888 79.8194 64.2528 79.4979 63.9313C79.1765 63.6098 78.7404 63.4292 78.2858 63.4292H76.0001C75.8486 63.4292 75.7032 63.4894 75.5961 63.5966C75.4889 63.7037 75.4287 63.8491 75.4287 64.0006V70.8576C75.4287 71.0091 75.4889 71.1545 75.5961 71.2617C75.7032 71.3688 75.8486 71.429 76.0001 71.429H78.2858C78.7404 71.429 79.1765 71.2484 79.4979 70.9269C79.8194 70.6054 80 70.1694 80 69.7148V65.1434Z" fill="#FF444E"/>
<path d="M25.032 150V146.784L30.984 142.632C31.288 142.408 31.6 142.16 31.92 141.888C32.24 141.616 32.536 141.32 32.808 141C33.08 140.664 33.296 140.304 33.456 139.92C33.616 139.52 33.696 139.096 33.696 138.648C33.696 138.184 33.592 137.784 33.384 137.448C33.176 137.112 32.872 136.848 32.472 136.656C32.072 136.464 31.568 136.368 30.96 136.368C30.448 136.368 30 136.448 29.616 136.608C29.248 136.768 28.936 137.008 28.68 137.328C28.44 137.632 28.264 138.016 28.152 138.48C28.056 138.944 28.016 139.48 28.032 140.088L25.104 139.56C25.072 138.376 25.272 137.352 25.704 136.488C26.152 135.624 26.824 134.96 27.72 134.496C28.632 134.032 29.736 133.8 31.032 133.8C32.168 133.8 33.16 133.984 34.008 134.352C34.872 134.704 35.536 135.224 36 135.912C36.48 136.6 36.72 137.448 36.72 138.456C36.72 139.224 36.592 139.928 36.336 140.568C36.08 141.192 35.744 141.76 35.328 142.272C34.912 142.768 34.456 143.216 33.96 143.616C33.464 144.016 32.984 144.368 32.52 144.672L28.512 147.384V147.576L37.008 147.48V150H25.032ZM38.451 146.784V143.736C39.219 142.872 39.915 142.032 40.539 141.216C41.163 140.384 41.723 139.576 42.219 138.792C42.715 137.992 43.147 137.208 43.515 136.44C43.883 135.656 44.195 134.888 44.451 134.136H49.707V150H46.683V136.272H46.491C46.059 137.312 45.579 138.296 45.051 139.224C44.523 140.152 43.955 141.016 43.347 141.816C42.739 142.616 42.107 143.376 41.451 144.096V144.312H51.819V146.784H38.451ZM55.5336 141.96L53.2536 140.304L55.7016 138.072L55.6536 137.904L52.3656 137.424L53.1816 134.688L56.1336 136.368L56.2536 136.272L55.6296 133.032H58.5096L57.9096 136.272L58.0296 136.368L60.9336 134.688L61.7976 137.448L58.5336 137.904L58.4856 138.048L60.9576 140.304L58.6776 141.96L57.1656 138.96H56.9976L55.5336 141.96ZM65.5307 150C65.5307 148.896 65.6427 147.76 65.8667 146.592C66.1067 145.424 66.4507 144.264 66.8987 143.112C67.3627 141.944 67.9547 140.824 68.6747 139.752C69.3947 138.68 70.2427 137.688 71.2187 136.776V136.584L63.0827 136.68V134.136H74.0027V136.776C73.2667 137.48 72.5867 138.32 71.9627 139.296C71.3387 140.256 70.7947 141.304 70.3307 142.44C69.8667 143.576 69.5067 144.784 69.2507 146.064C68.9947 147.344 68.8667 148.656 68.8667 150H65.5307ZM85.2688 150V134.16H88.3168V150H85.2688ZM80.6128 136.728V134.16H92.9728V136.728H80.6128ZM98.9835 150.312C97.9595 150.312 97.0555 150.168 96.2715 149.88C95.4875 149.592 94.8235 149.168 94.2795 148.608C93.7355 148.048 93.3275 147.376 93.0555 146.592C92.7835 145.808 92.6475 144.928 92.6475 143.952C92.6475 142.976 92.7755 142.072 93.0315 141.24C93.3035 140.408 93.7035 139.688 94.2315 139.08C94.7595 138.456 95.3995 137.976 96.1515 137.64C96.9195 137.304 97.7915 137.136 98.7675 137.136C99.6795 137.136 100.496 137.288 101.216 137.592C101.952 137.896 102.56 138.352 103.04 138.96C103.536 139.568 103.896 140.312 104.12 141.192C104.36 142.072 104.44 143.088 104.359 144.24L94.5915 144.312V142.56L102.536 142.488L101.552 143.472C101.632 142.576 101.56 141.84 101.336 141.264C101.112 140.688 100.776 140.256 100.328 139.968C99.8795 139.68 99.3675 139.536 98.7915 139.536C98.1355 139.536 97.5595 139.712 97.0635 140.064C96.5835 140.416 96.2075 140.912 95.9355 141.552C95.6795 142.192 95.5515 142.968 95.5515 143.88C95.5515 145.272 95.8555 146.312 96.4635 147C97.0715 147.688 97.9195 148.032 99.0075 148.032C99.4715 148.032 99.8715 147.976 100.208 147.864C100.544 147.736 100.816 147.568 101.024 147.36C101.248 147.152 101.424 146.92 101.552 146.664C101.696 146.392 101.8 146.12 101.864 145.848L104.528 146.376C104.4 146.968 104.2 147.504 103.928 147.984C103.656 148.464 103.288 148.88 102.824 149.232C102.376 149.584 101.832 149.848 101.192 150.024C100.568 150.216 99.8315 150.312 98.9835 150.312ZM109.982 150.312C109.294 150.312 108.678 150.184 108.134 149.928C107.59 149.656 107.158 149.264 106.838 148.752C106.518 148.224 106.358 147.568 106.358 146.784C106.358 146.112 106.486 145.544 106.742 145.08C106.998 144.616 107.374 144.24 107.87 143.952C108.366 143.648 108.974 143.4 109.694 143.208C110.43 143 111.27 142.832 112.214 142.704C112.79 142.608 113.254 142.52 113.606 142.44C113.958 142.36 114.214 142.24 114.374 142.08C114.55 141.92 114.638 141.672 114.638 141.336C114.638 140.824 114.454 140.392 114.086 140.04C113.734 139.688 113.174 139.512 112.406 139.512C111.958 139.512 111.526 139.592 111.11 139.752C110.694 139.912 110.334 140.168 110.03 140.52C109.726 140.856 109.518 141.304 109.406 141.864L106.718 141.096C106.862 140.44 107.102 139.864 107.438 139.368C107.774 138.872 108.19 138.456 108.686 138.12C109.182 137.784 109.75 137.536 110.39 137.376C111.046 137.216 111.75 137.136 112.502 137.136C113.654 137.136 114.606 137.328 115.358 137.712C116.11 138.096 116.67 138.688 117.038 139.488C117.422 140.272 117.614 141.28 117.614 142.512V144.864C117.614 145.408 117.622 145.976 117.638 146.568C117.67 147.144 117.702 147.728 117.734 148.32C117.766 148.896 117.806 149.456 117.854 150H115.142C115.094 149.536 115.046 149.04 114.998 148.512C114.966 147.984 114.942 147.44 114.926 146.88H114.566C114.358 147.504 114.046 148.08 113.63 148.608C113.214 149.136 112.702 149.552 112.094 149.856C111.486 150.16 110.782 150.312 109.982 150.312ZM111.158 148.056C111.494 148.056 111.83 148 112.166 147.888C112.502 147.776 112.83 147.608 113.15 147.384C113.47 147.144 113.758 146.848 114.014 146.496C114.286 146.144 114.51 145.728 114.686 145.248L114.662 143.304L115.238 143.376C114.966 143.6 114.638 143.776 114.254 143.904C113.87 144.032 113.454 144.136 113.006 144.216C112.558 144.28 112.118 144.352 111.686 144.432C111.254 144.512 110.854 144.624 110.486 144.768C110.134 144.896 109.846 145.088 109.622 145.344C109.414 145.6 109.31 145.944 109.31 146.376C109.31 146.904 109.478 147.32 109.814 147.624C110.166 147.912 110.614 148.056 111.158 148.056ZM126.381 150.312C125.309 150.312 124.373 150.152 123.573 149.832C122.789 149.512 122.133 149.064 121.605 148.488C121.093 147.896 120.709 147.208 120.453 146.424C120.197 145.64 120.069 144.792 120.069 143.88C120.069 142.92 120.197 142.032 120.453 141.216C120.725 140.4 121.125 139.688 121.653 139.08C122.181 138.456 122.829 137.976 123.597 137.64C124.365 137.304 125.253 137.136 126.261 137.136C127.301 137.136 128.197 137.312 128.949 137.664C129.701 138.016 130.301 138.504 130.749 139.128C131.197 139.736 131.485 140.448 131.613 141.264L128.805 142.08C128.773 141.584 128.645 141.144 128.421 140.76C128.197 140.376 127.893 140.08 127.509 139.872C127.125 139.664 126.677 139.56 126.165 139.56C125.669 139.56 125.229 139.656 124.845 139.848C124.477 140.04 124.165 140.32 123.909 140.688C123.653 141.056 123.461 141.496 123.333 142.008C123.205 142.52 123.141 143.104 123.141 143.76C123.141 144.656 123.261 145.424 123.501 146.064C123.741 146.688 124.101 147.168 124.581 147.504C125.077 147.84 125.693 148.008 126.429 148.008C127.069 148.008 127.589 147.88 127.989 147.624C128.405 147.368 128.717 147.04 128.925 146.64C129.133 146.224 129.261 145.776 129.309 145.296L131.997 145.848C131.933 146.488 131.765 147.088 131.493 147.648C131.221 148.192 130.853 148.664 130.389 149.064C129.925 149.464 129.357 149.776 128.685 150C128.029 150.208 127.261 150.312 126.381 150.312ZM134.053 150V142.416V133.032H137.101V136.848C137.101 137.184 137.085 137.544 137.053 137.928C137.037 138.296 137.005 138.68 136.957 139.08C136.909 139.464 136.853 139.856 136.789 140.256C136.741 140.656 136.685 141.048 136.621 141.432H137.077C137.285 140.504 137.565 139.72 137.917 139.08C138.285 138.44 138.749 137.96 139.309 137.64C139.869 137.304 140.557 137.136 141.373 137.136C142.813 137.136 143.885 137.64 144.589 138.648C145.309 139.656 145.669 141.192 145.669 143.256V150H142.621V143.64C142.621 142.296 142.421 141.304 142.021 140.664C141.621 140.024 141.021 139.704 140.221 139.704C139.549 139.704 138.989 139.912 138.541 140.328C138.093 140.728 137.749 141.28 137.509 141.984C137.269 142.688 137.125 143.504 137.077 144.432V150H134.053ZM154.39 150.312C153.366 150.312 152.462 150.168 151.678 149.88C150.894 149.592 150.23 149.168 149.686 148.608C149.142 148.048 148.734 147.376 148.462 146.592C148.19 145.808 148.054 144.928 148.054 143.952C148.054 142.976 148.182 142.072 148.438 141.24C148.71 140.408 149.11 139.688 149.638 139.08C150.166 138.456 150.806 137.976 151.558 137.64C152.326 137.304 153.198 137.136 154.174 137.136C155.086 137.136 155.902 137.288 156.622 137.592C157.358 137.896 157.966 138.352 158.446 138.96C158.942 139.568 159.302 140.312 159.526 141.192C159.766 142.072 159.846 143.088 159.766 144.24L149.998 144.312V142.56L157.942 142.488L156.958 143.472C157.038 142.576 156.966 141.84 156.742 141.264C156.518 140.688 156.182 140.256 155.734 139.968C155.286 139.68 154.774 139.536 154.198 139.536C153.542 139.536 152.966 139.712 152.47 140.064C151.99 140.416 151.614 140.912 151.342 141.552C151.086 142.192 150.958 142.968 150.958 143.88C150.958 145.272 151.262 146.312 151.87 147C152.478 147.688 153.326 148.032 154.414 148.032C154.878 148.032 155.278 147.976 155.614 147.864C155.95 147.736 156.222 147.568 156.43 147.36C156.654 147.152 156.83 146.92 156.958 146.664C157.102 146.392 157.206 146.12 157.27 145.848L159.934 146.376C159.806 146.968 159.606 147.504 159.334 147.984C159.062 148.464 158.694 148.88 158.23 149.232C157.782 149.584 157.238 149.848 156.598 150.024C155.974 150.216 155.238 150.312 154.39 150.312ZM162.389 150V143.688V137.448H164.957L164.885 141.888H165.317C165.445 140.832 165.661 139.96 165.965 139.272C166.269 138.568 166.685 138.04 167.213 137.688C167.757 137.336 168.413 137.16 169.181 137.16C169.357 137.16 169.541 137.176 169.733 137.208C169.925 137.224 170.141 137.272 170.381 137.352L170.237 140.568C169.981 140.456 169.717 140.376 169.445 140.328C169.173 140.28 168.925 140.256 168.701 140.256C168.077 140.256 167.541 140.424 167.093 140.76C166.645 141.08 166.285 141.544 166.013 142.152C165.741 142.744 165.549 143.456 165.437 144.288V150H162.389ZM176.871 150L182.343 134.16H186.735L192.183 150H188.895L184.695 136.608H184.383L180.159 150H176.871ZM179.775 146.76V144.6H189.711V146.76H179.775ZM199.114 150.312C198.266 150.312 197.498 150.224 196.81 150.048C196.138 149.888 195.554 149.648 195.058 149.328C194.578 149.008 194.194 148.616 193.906 148.152C193.634 147.688 193.474 147.168 193.426 146.592L195.826 145.8C195.874 146.232 196.034 146.624 196.306 146.976C196.594 147.312 196.986 147.576 197.482 147.768C197.994 147.944 198.602 148.032 199.306 148.032C200.09 148.032 200.698 147.912 201.13 147.672C201.578 147.416 201.802 147.056 201.802 146.592C201.802 146.256 201.682 145.992 201.442 145.8C201.202 145.592 200.858 145.424 200.41 145.296C199.962 145.152 199.418 145.016 198.778 144.888C198.17 144.76 197.562 144.616 196.954 144.456C196.362 144.28 195.81 144.056 195.298 143.784C194.802 143.496 194.402 143.128 194.098 142.68C193.794 142.216 193.642 141.64 193.642 140.952C193.642 140.184 193.842 139.52 194.242 138.96C194.658 138.384 195.258 137.936 196.042 137.616C196.826 137.296 197.762 137.136 198.85 137.136C199.89 137.136 200.786 137.288 201.538 137.592C202.306 137.88 202.93 138.296 203.41 138.84C203.89 139.384 204.178 140.048 204.274 140.832L201.778 141.552C201.73 141.104 201.578 140.72 201.322 140.4C201.082 140.08 200.746 139.84 200.314 139.68C199.898 139.504 199.402 139.416 198.826 139.416C198.09 139.416 197.514 139.544 197.098 139.8C196.682 140.056 196.474 140.408 196.474 140.856C196.474 141.192 196.602 141.464 196.858 141.672C197.13 141.88 197.498 142.048 197.962 142.176C198.426 142.304 198.97 142.44 199.594 142.584C200.218 142.696 200.826 142.84 201.418 143.016C202.026 143.176 202.57 143.392 203.05 143.664C203.53 143.936 203.914 144.296 204.202 144.744C204.49 145.176 204.634 145.744 204.634 146.448C204.634 147.264 204.41 147.968 203.962 148.56C203.53 149.136 202.898 149.576 202.066 149.88C201.25 150.168 200.266 150.312 199.114 150.312ZM212.145 150.312C211.297 150.312 210.529 150.224 209.841 150.048C209.169 149.888 208.585 149.648 208.089 149.328C207.609 149.008 207.225 148.616 206.937 148.152C206.665 147.688 206.505 147.168 206.457 146.592L208.857 145.8C208.905 146.232 209.065 146.624 209.337 146.976C209.625 147.312 210.017 147.576 210.513 147.768C211.025 147.944 211.633 148.032 212.337 148.032C213.121 148.032 213.729 147.912 214.161 147.672C214.609 147.416 214.833 147.056 214.833 146.592C214.833 146.256 214.713 145.992 214.473 145.8C214.233 145.592 213.889 145.424 213.441 145.296C212.993 145.152 212.449 145.016 211.809 144.888C211.201 144.76 210.593 144.616 209.985 144.456C209.393 144.28 208.841 144.056 208.329 143.784C207.833 143.496 207.433 143.128 207.129 142.68C206.825 142.216 206.673 141.64 206.673 140.952C206.673 140.184 206.873 139.52 207.273 138.96C207.689 138.384 208.289 137.936 209.073 137.616C209.857 137.296 210.793 137.136 211.881 137.136C212.921 137.136 213.817 137.288 214.569 137.592C215.337 137.88 215.961 138.296 216.441 138.84C216.921 139.384 217.209 140.048 217.305 140.832L214.809 141.552C214.761 141.104 214.609 140.72 214.353 140.4C214.113 140.08 213.777 139.84 213.345 139.68C212.929 139.504 212.433 139.416 211.857 139.416C211.121 139.416 210.545 139.544 210.129 139.8C209.713 140.056 209.505 140.408 209.505 140.856C209.505 141.192 209.633 141.464 209.889 141.672C210.161 141.88 210.529 142.048 210.993 142.176C211.457 142.304 212.001 142.44 212.625 142.584C213.249 142.696 213.857 142.84 214.449 143.016C215.057 143.176 215.601 143.392 216.081 143.664C216.561 143.936 216.945 144.296 217.233 144.744C217.521 145.176 217.665 145.744 217.665 146.448C217.665 147.264 217.441 147.968 216.993 148.56C216.561 149.136 215.929 149.576 215.097 149.88C214.281 150.168 213.297 150.312 212.145 150.312ZM220.092 150V137.448H223.116V150H220.092ZM221.628 135.576C221.004 135.576 220.532 135.448 220.212 135.192C219.892 134.92 219.732 134.536 219.732 134.04C219.732 133.544 219.892 133.168 220.212 132.912C220.548 132.64 221.02 132.504 221.628 132.504C222.252 132.504 222.724 132.64 223.044 132.912C223.38 133.168 223.548 133.544 223.548 134.04C223.548 134.536 223.38 134.92 223.044 135.192C222.724 135.448 222.252 135.576 221.628 135.576ZM231.27 150.312C230.422 150.312 229.654 150.224 228.966 150.048C228.294 149.888 227.71 149.648 227.214 149.328C226.734 149.008 226.35 148.616 226.062 148.152C225.79 147.688 225.63 147.168 225.582 146.592L227.982 145.8C228.03 146.232 228.19 146.624 228.462 146.976C228.75 147.312 229.142 147.576 229.638 147.768C230.15 147.944 230.758 148.032 231.462 148.032C232.246 148.032 232.854 147.912 233.286 147.672C233.734 147.416 233.958 147.056 233.958 146.592C233.958 146.256 233.838 145.992 233.598 145.8C233.358 145.592 233.014 145.424 232.566 145.296C232.118 145.152 231.574 145.016 230.934 144.888C230.326 144.76 229.718 144.616 229.11 144.456C228.518 144.28 227.966 144.056 227.454 143.784C226.958 143.496 226.558 143.128 226.254 142.68C225.95 142.216 225.798 141.64 225.798 140.952C225.798 140.184 225.998 139.52 226.398 138.96C226.814 138.384 227.414 137.936 228.198 137.616C228.982 137.296 229.918 137.136 231.006 137.136C232.046 137.136 232.942 137.288 233.694 137.592C234.462 137.88 235.086 138.296 235.566 138.84C236.046 139.384 236.334 140.048 236.43 140.832L233.934 141.552C233.886 141.104 233.734 140.72 233.478 140.4C233.238 140.08 232.902 139.84 232.47 139.68C232.054 139.504 231.558 139.416 230.982 139.416C230.246 139.416 229.67 139.544 229.254 139.8C228.838 140.056 228.63 140.408 228.63 140.856C228.63 141.192 228.758 141.464 229.014 141.672C229.286 141.88 229.654 142.048 230.118 142.176C230.582 142.304 231.126 142.44 231.75 142.584C232.374 142.696 232.982 142.84 233.574 143.016C234.182 143.176 234.726 143.392 235.206 143.664C235.686 143.936 236.07 144.296 236.358 144.744C236.646 145.176 236.79 145.744 236.79 146.448C236.79 147.264 236.566 147.968 236.118 148.56C235.686 149.136 235.054 149.576 234.222 149.88C233.406 150.168 232.422 150.312 231.27 150.312ZM243.611 150.288C242.283 150.288 241.299 149.936 240.659 149.232C240.035 148.512 239.723 147.4 239.723 145.896V139.872H237.923L237.971 137.52H239.099C239.595 137.504 239.955 137.408 240.179 137.232C240.419 137.056 240.563 136.76 240.611 136.344L240.875 134.664H242.651V137.448H245.915V139.968H242.651V145.776C242.651 146.384 242.787 146.824 243.059 147.096C243.347 147.352 243.763 147.48 244.307 147.48C244.595 147.48 244.883 147.448 245.171 147.384C245.475 147.304 245.755 147.184 246.011 147.024V149.88C245.531 150.04 245.091 150.144 244.691 150.192C244.291 150.256 243.931 150.288 243.611 150.288ZM251.31 150.312C250.622 150.312 250.006 150.184 249.462 149.928C248.918 149.656 248.486 149.264 248.166 148.752C247.846 148.224 247.686 147.568 247.686 146.784C247.686 146.112 247.814 145.544 248.07 145.08C248.326 144.616 248.702 144.24 249.198 143.952C249.694 143.648 250.302 143.4 251.022 143.208C251.758 143 252.598 142.832 253.542 142.704C254.118 142.608 254.582 142.52 254.934 142.44C255.286 142.36 255.542 142.24 255.702 142.08C255.878 141.92 255.966 141.672 255.966 141.336C255.966 140.824 255.782 140.392 255.414 140.04C255.062 139.688 254.502 139.512 253.734 139.512C253.286 139.512 252.854 139.592 252.438 139.752C252.022 139.912 251.662 140.168 251.358 140.52C251.054 140.856 250.846 141.304 250.734 141.864L248.046 141.096C248.19 140.44 248.43 139.864 248.766 139.368C249.102 138.872 249.518 138.456 250.014 138.12C250.51 137.784 251.078 137.536 251.718 137.376C252.374 137.216 253.078 137.136 253.83 137.136C254.982 137.136 255.934 137.328 256.686 137.712C257.438 138.096 257.998 138.688 258.366 139.488C258.75 140.272 258.942 141.28 258.942 142.512V144.864C258.942 145.408 258.95 145.976 258.966 146.568C258.998 147.144 259.03 147.728 259.062 148.32C259.094 148.896 259.134 149.456 259.182 150H256.47C256.422 149.536 256.374 149.04 256.326 148.512C256.294 147.984 256.27 147.44 256.254 146.88H255.894C255.686 147.504 255.374 148.08 254.958 148.608C254.542 149.136 254.03 149.552 253.422 149.856C252.814 150.16 252.11 150.312 251.31 150.312ZM252.486 148.056C252.822 148.056 253.158 148 253.494 147.888C253.83 147.776 254.158 147.608 254.478 147.384C254.798 147.144 255.086 146.848 255.342 146.496C255.614 146.144 255.838 145.728 256.014 145.248L255.99 143.304L256.566 143.376C256.294 143.6 255.966 143.776 255.582 143.904C255.198 144.032 254.782 144.136 254.334 144.216C253.886 144.28 253.446 144.352 253.014 144.432C252.582 144.512 252.182 144.624 251.814 144.768C251.462 144.896 251.174 145.088 250.95 145.344C250.742 145.6 250.638 145.944 250.638 146.376C250.638 146.904 250.806 147.32 251.142 147.624C251.494 147.912 251.942 148.056 252.486 148.056ZM262.046 150V142.488V137.448H264.59L264.494 141.504H264.926C265.118 140.512 265.398 139.696 265.766 139.056C266.15 138.416 266.638 137.936 267.23 137.616C267.822 137.296 268.518 137.136 269.318 137.136C270.742 137.136 271.822 137.64 272.557 138.648C273.293 139.64 273.661 141.184 273.661 143.28V150H270.614V143.592C270.614 142.264 270.414 141.288 270.014 140.664C269.614 140.04 269.022 139.728 268.238 139.728C267.566 139.728 266.998 139.944 266.534 140.376C266.07 140.792 265.71 141.36 265.454 142.08C265.214 142.8 265.086 143.616 265.07 144.528V150H262.046ZM282.358 150.312C281.286 150.312 280.35 150.152 279.55 149.832C278.766 149.512 278.11 149.064 277.582 148.488C277.07 147.896 276.686 147.208 276.43 146.424C276.174 145.64 276.046 144.792 276.046 143.88C276.046 142.92 276.174 142.032 276.43 141.216C276.702 140.4 277.102 139.688 277.63 139.08C278.158 138.456 278.806 137.976 279.574 137.64C280.342 137.304 281.23 137.136 282.238 137.136C283.278 137.136 284.174 137.312 284.926 137.664C285.678 138.016 286.278 138.504 286.726 139.128C287.174 139.736 287.462 140.448 287.59 141.264L284.782 142.08C284.75 141.584 284.622 141.144 284.398 140.76C284.174 140.376 283.87 140.08 283.486 139.872C283.102 139.664 282.654 139.56 282.142 139.56C281.646 139.56 281.206 139.656 280.822 139.848C280.454 140.04 280.142 140.32 279.886 140.688C279.63 141.056 279.438 141.496 279.31 142.008C279.182 142.52 279.118 143.104 279.118 143.76C279.118 144.656 279.238 145.424 279.478 146.064C279.718 146.688 280.078 147.168 280.558 147.504C281.054 147.84 281.67 148.008 282.406 148.008C283.046 148.008 283.566 147.88 283.966 147.624C284.382 147.368 284.694 147.04 284.902 146.64C285.11 146.224 285.238 145.776 285.286 145.296L287.974 145.848C287.91 146.488 287.742 147.088 287.47 147.648C287.198 148.192 286.83 148.664 286.366 149.064C285.902 149.464 285.334 149.776 284.662 150C284.006 150.208 283.238 150.312 282.358 150.312ZM295.718 150.312C294.694 150.312 293.79 150.168 293.006 149.88C292.222 149.592 291.558 149.168 291.014 148.608C290.47 148.048 290.062 147.376 289.79 146.592C289.518 145.808 289.382 144.928 289.382 143.952C289.382 142.976 289.51 142.072 289.766 141.24C290.038 140.408 290.438 139.688 290.966 139.08C291.494 138.456 292.134 137.976 292.886 137.64C293.654 137.304 294.526 137.136 295.502 137.136C296.414 137.136 297.23 137.288 297.95 137.592C298.686 137.896 299.294 138.352 299.774 138.96C300.27 139.568 300.63 140.312 300.854 141.192C301.094 142.072 301.174 143.088 301.094 144.24L291.326 144.312V142.56L299.27 142.488L298.286 143.472C298.366 142.576 298.294 141.84 298.07 141.264C297.846 140.688 297.51 140.256 297.062 139.968C296.614 139.68 296.102 139.536 295.526 139.536C294.87 139.536 294.294 139.712 293.798 140.064C293.318 140.416 292.942 140.912 292.67 141.552C292.414 142.192 292.286 142.968 292.286 143.88C292.286 145.272 292.59 146.312 293.198 147C293.806 147.688 294.654 148.032 295.742 148.032C296.206 148.032 296.606 147.976 296.942 147.864C297.278 147.736 297.55 147.568 297.758 147.36C297.982 147.152 298.158 146.92 298.286 146.664C298.43 146.392 298.534 146.12 298.598 145.848L301.262 146.376C301.134 146.968 300.934 147.504 300.662 147.984C300.39 148.464 300.022 148.88 299.558 149.232C299.11 149.584 298.566 149.848 297.926 150.024C297.302 150.216 296.566 150.312 295.718 150.312Z" fill="white"/>
<path d="M30.56 191.16C29.6 191.16 28.7627 190.989 28.048 190.648C27.3333 190.307 26.7413 189.848 26.272 189.272C25.8027 188.685 25.4507 188.035 25.216 187.32C24.992 186.595 24.88 185.853 24.88 185.096C24.88 184.339 24.992 183.597 25.216 182.872C25.4507 182.147 25.8027 181.496 26.272 180.92C26.752 180.333 27.3493 179.869 28.064 179.528C28.7893 179.176 29.6373 179 30.608 179C31.3547 179 31.9947 179.096 32.528 179.288C33.072 179.48 33.5253 179.725 33.888 180.024C34.2507 180.323 34.544 180.643 34.768 180.984C34.992 181.315 35.1627 181.629 35.28 181.928C35.3973 182.227 35.472 182.472 35.504 182.664C35.5467 182.856 35.568 182.952 35.568 182.952H33.984C33.984 182.952 33.9627 182.867 33.92 182.696C33.8773 182.525 33.792 182.317 33.664 182.072C33.536 181.816 33.344 181.565 33.088 181.32C32.8427 181.064 32.5173 180.851 32.112 180.68C31.7173 180.509 31.2213 180.424 30.624 180.424C29.92 180.424 29.3067 180.557 28.784 180.824C28.2613 181.091 27.8293 181.448 27.488 181.896C27.1467 182.333 26.8907 182.829 26.72 183.384C26.5493 183.928 26.464 184.488 26.464 185.064C26.464 185.651 26.5493 186.227 26.72 186.792C26.8907 187.347 27.1467 187.848 27.488 188.296C27.84 188.733 28.272 189.085 28.784 189.352C29.296 189.608 29.888 189.736 30.56 189.736C31.6587 189.736 32.528 189.416 33.168 188.776C33.8187 188.125 34.1707 187.251 34.224 186.152H30.704V184.856H35.728V185.672C35.728 186.888 35.4933 187.901 35.024 188.712C34.5653 189.523 33.9467 190.136 33.168 190.552C32.3893 190.957 31.52 191.16 30.56 191.16ZM41.5073 191.16C40.8139 191.16 40.2113 191.037 39.6993 190.792C39.1979 190.536 38.7819 190.195 38.4513 189.768C38.1313 189.341 37.8913 188.872 37.7313 188.36C37.5713 187.837 37.4913 187.304 37.4913 186.76C37.4913 186.227 37.5659 185.699 37.7153 185.176C37.8753 184.653 38.1153 184.179 38.4353 183.752C38.7659 183.325 39.1766 182.989 39.6673 182.744C40.1686 182.488 40.7606 182.36 41.4433 182.36C42.1686 182.36 42.8086 182.525 43.3633 182.856C43.9179 183.187 44.3553 183.677 44.6753 184.328C44.9953 184.979 45.1553 185.795 45.1553 186.776V187.224H39.0273C39.0593 187.704 39.1713 188.147 39.3633 188.552C39.5659 188.947 39.8486 189.267 40.2113 189.512C40.5739 189.747 41.0059 189.864 41.5073 189.864C41.9446 189.864 42.2966 189.795 42.5633 189.656C42.8406 189.507 43.0593 189.336 43.2193 189.144C43.3793 188.952 43.4859 188.787 43.5393 188.648C43.6033 188.499 43.6353 188.424 43.6353 188.424H45.0593C45.0593 188.424 45.0326 188.52 44.9792 188.712C44.9259 188.893 44.8299 189.117 44.6913 189.384C44.5526 189.651 44.3499 189.923 44.0833 190.2C43.8166 190.467 43.4753 190.696 43.0593 190.888C42.6433 191.069 42.1259 191.16 41.5073 191.16ZM39.0433 186.04H43.6673C43.6459 185.485 43.5286 185.037 43.3153 184.696C43.1019 184.344 42.8299 184.083 42.4993 183.912C42.1686 183.741 41.8166 183.656 41.4433 183.656C40.7713 183.656 40.2219 183.875 39.7953 184.312C39.3686 184.739 39.1179 185.315 39.0433 186.04ZM50.6731 191.16C49.7985 191.16 49.1371 190.936 48.6891 190.488C48.2518 190.04 48.0331 189.411 48.0331 188.6V183.768H46.5131V182.52H48.0331V180.392H49.5531V182.52H51.6171V183.768H49.5531V188.6C49.5531 189.027 49.6705 189.341 49.9051 189.544C50.1398 189.736 50.4811 189.832 50.9291 189.832C51.1638 189.832 51.3878 189.816 51.6011 189.784C51.8145 189.752 51.9211 189.736 51.9211 189.736V191.032C51.9211 191.032 51.7985 191.053 51.5531 191.096C51.3078 191.139 51.0145 191.16 50.6731 191.16ZM57.7804 191V189.896L60.3724 187.496C61.0977 186.824 61.7324 186.237 62.2764 185.736C62.831 185.224 63.263 184.728 63.5724 184.248C63.8817 183.768 64.0364 183.24 64.0364 182.664C64.0364 182.184 63.919 181.779 63.6844 181.448C63.4604 181.117 63.167 180.867 62.8044 180.696C62.4524 180.515 62.0844 180.424 61.7004 180.424C61.199 180.424 60.7884 180.509 60.4684 180.68C60.1484 180.851 59.903 181.064 59.7324 181.32C59.5617 181.565 59.439 181.816 59.3644 182.072C59.2897 182.317 59.247 182.525 59.2364 182.696C59.2257 182.867 59.2204 182.952 59.2204 182.952H57.7164C57.7164 182.952 57.7217 182.856 57.7324 182.664C57.743 182.472 57.7804 182.227 57.8444 181.928C57.919 181.629 58.0364 181.315 58.1964 180.984C58.3564 180.643 58.5804 180.323 58.8684 180.024C59.167 179.725 59.5457 179.48 60.0044 179.288C60.4737 179.096 61.0444 179 61.7164 179C62.399 179 63.0337 179.144 63.6204 179.432C64.2177 179.709 64.6977 180.12 65.0604 180.664C65.423 181.197 65.6044 181.853 65.6044 182.632C65.6044 183.347 65.423 183.997 65.0604 184.584C64.7084 185.16 64.239 185.725 63.6524 186.28C63.0657 186.835 62.4257 187.432 61.7324 188.072L60.1004 189.576H65.8604V191H57.7804ZM73.0939 191V188.248L67.3019 188.232V186.808L72.7419 179.16H74.6619V186.888H76.7259V188.248H74.6619V191H73.0939ZM68.9179 186.888H73.0939V181L68.9179 186.888ZM80.3093 185.496L79.3173 184.792L80.8213 182.776L78.4213 182.024L78.7893 180.856L81.1733 181.672L81.1413 179.16H82.3573L82.3413 181.672L84.7253 180.856L85.0933 182.024L82.7093 182.776L84.1973 184.792L83.2053 185.496L81.7493 183.464L80.3093 185.496ZM88.6304 191C88.6624 189.976 88.7957 189.005 89.0304 188.088C89.265 187.16 89.5584 186.296 89.9104 185.496C90.2624 184.696 90.6304 183.976 91.0144 183.336C91.3984 182.685 91.761 182.125 92.1024 181.656C92.4544 181.187 92.7424 180.819 92.9664 180.552H86.6144V179.16H94.7584V180.328C94.7584 180.328 94.6517 180.451 94.4384 180.696C94.225 180.931 93.9477 181.272 93.6064 181.72C93.2757 182.168 92.9184 182.712 92.5344 183.352C92.161 183.981 91.7984 184.696 91.4464 185.496C91.105 186.285 90.817 187.144 90.5824 188.072C90.3477 188.989 90.209 189.965 90.1664 191H88.6304ZM103.642 191.16C102.767 191.16 102.106 190.936 101.658 190.488C101.221 190.04 101.002 189.411 101.002 188.6V183.768H99.4819V182.52H101.002V180.392H102.522V182.52H104.586V183.768H102.522V188.6C102.522 189.027 102.639 189.341 102.874 189.544C103.109 189.736 103.45 189.832 103.898 189.832C104.133 189.832 104.357 189.816 104.57 189.784C104.783 189.752 104.89 189.736 104.89 189.736V191.032C104.89 191.032 104.767 191.053 104.522 191.096C104.277 191.139 103.983 191.16 103.642 191.16ZM110.429 191.16C109.736 191.16 109.133 191.037 108.621 190.792C108.12 190.536 107.704 190.195 107.373 189.768C107.053 189.341 106.813 188.872 106.653 188.36C106.493 187.837 106.413 187.304 106.413 186.76C106.413 186.227 106.488 185.699 106.637 185.176C106.797 184.653 107.037 184.179 107.357 183.752C107.688 183.325 108.098 182.989 108.589 182.744C109.09 182.488 109.682 182.36 110.365 182.36C111.09 182.36 111.73 182.525 112.285 182.856C112.84 183.187 113.277 183.677 113.597 184.328C113.917 184.979 114.077 185.795 114.077 186.776V187.224H107.949C107.981 187.704 108.093 188.147 108.285 188.552C108.488 188.947 108.77 189.267 109.133 189.512C109.496 189.747 109.928 189.864 110.429 189.864C110.866 189.864 111.218 189.795 111.485 189.656C111.762 189.507 111.981 189.336 112.141 189.144C112.301 188.952 112.408 188.787 112.461 188.648C112.525 188.499 112.557 188.424 112.557 188.424H113.981C113.981 188.424 113.954 188.52 113.901 188.712C113.848 188.893 113.752 189.117 113.613 189.384C113.474 189.651 113.272 189.923 113.005 190.2C112.738 190.467 112.397 190.696 111.981 190.888C111.565 191.069 111.048 191.16 110.429 191.16ZM107.965 186.04H112.589C112.568 185.485 112.45 185.037 112.237 184.696C112.024 184.344 111.752 184.083 111.421 183.912C111.09 183.741 110.738 183.656 110.365 183.656C109.693 183.656 109.144 183.875 108.717 184.312C108.29 184.739 108.04 185.315 107.965 186.04ZM119.753 182.36C120.286 182.36 120.734 182.445 121.097 182.616C121.46 182.787 121.753 182.989 121.977 183.224C122.201 183.448 122.372 183.661 122.489 183.864H122.585V182.52H124.105V191H122.585V189.656H122.489C122.372 189.859 122.201 190.077 121.977 190.312C121.753 190.547 121.46 190.749 121.097 190.92C120.734 191.08 120.286 191.16 119.753 191.16C119.113 191.16 118.553 191.037 118.073 190.792C117.593 190.536 117.193 190.2 116.873 189.784C116.553 189.357 116.313 188.883 116.153 188.36C115.993 187.837 115.913 187.304 115.913 186.76C115.913 186.216 115.993 185.683 116.153 185.16C116.313 184.637 116.553 184.168 116.873 183.752C117.193 183.325 117.593 182.989 118.073 182.744C118.553 182.488 119.113 182.36 119.753 182.36ZM120.009 183.656C119.444 183.656 118.969 183.811 118.585 184.12C118.201 184.419 117.913 184.803 117.721 185.272C117.54 185.741 117.449 186.237 117.449 186.76C117.449 187.272 117.54 187.768 117.721 188.248C117.913 188.717 118.201 189.107 118.585 189.416C118.969 189.715 119.444 189.864 120.009 189.864C120.574 189.864 121.044 189.715 121.417 189.416C121.801 189.107 122.084 188.717 122.265 188.248C122.457 187.768 122.553 187.272 122.553 186.76C122.553 186.237 122.457 185.741 122.265 185.272C122.084 184.803 121.801 184.419 121.417 184.12C121.044 183.811 120.574 183.656 120.009 183.656ZM130.355 191.16C129.661 191.16 129.053 191.037 128.531 190.792C128.008 190.536 127.571 190.2 127.219 189.784C126.877 189.357 126.616 188.883 126.435 188.36C126.264 187.837 126.179 187.304 126.179 186.76C126.179 186.216 126.264 185.688 126.435 185.176C126.605 184.653 126.861 184.179 127.203 183.752C127.555 183.325 127.992 182.989 128.515 182.744C129.037 182.488 129.651 182.36 130.355 182.36C131.037 182.36 131.603 182.461 132.051 182.664C132.499 182.867 132.856 183.123 133.123 183.432C133.4 183.731 133.603 184.035 133.731 184.344C133.869 184.643 133.96 184.893 134.003 185.096C134.045 185.299 134.067 185.4 134.067 185.4H132.595C132.595 185.4 132.568 185.315 132.515 185.144C132.461 184.963 132.36 184.76 132.211 184.536C132.061 184.312 131.837 184.115 131.539 183.944C131.24 183.763 130.845 183.672 130.355 183.672C129.768 183.672 129.272 183.821 128.867 184.12C128.472 184.408 128.173 184.787 127.971 185.256C127.779 185.725 127.683 186.227 127.683 186.76C127.683 187.293 127.779 187.795 127.971 188.264C128.173 188.733 128.472 189.117 128.867 189.416C129.272 189.704 129.768 189.848 130.355 189.848C130.845 189.848 131.24 189.763 131.539 189.592C131.837 189.411 132.061 189.208 132.211 188.984C132.36 188.76 132.461 188.563 132.515 188.392C132.568 188.211 132.595 188.12 132.595 188.12H134.067C134.067 188.12 134.045 188.221 134.003 188.424C133.96 188.627 133.869 188.883 133.731 189.192C133.603 189.491 133.4 189.795 133.123 190.104C132.856 190.403 132.499 190.653 132.051 190.856C131.603 191.059 131.037 191.16 130.355 191.16ZM136.311 191V178.84H137.831V183.752H137.927C138.002 183.624 138.125 183.448 138.295 183.224C138.477 183 138.733 182.803 139.063 182.632C139.394 182.451 139.81 182.36 140.311 182.36C140.93 182.36 141.458 182.504 141.895 182.792C142.333 183.069 142.663 183.448 142.887 183.928C143.122 184.408 143.239 184.947 143.239 185.544V191H141.719V185.64C141.719 185.075 141.559 184.605 141.239 184.232C140.93 183.859 140.477 183.672 139.879 183.672C139.399 183.672 139.01 183.795 138.711 184.04C138.413 184.275 138.189 184.589 138.039 184.984C137.901 185.368 137.831 185.779 137.831 186.216V191H136.311ZM149.335 191.16C148.642 191.16 148.039 191.037 147.527 190.792C147.026 190.536 146.61 190.195 146.279 189.768C145.959 189.341 145.719 188.872 145.559 188.36C145.399 187.837 145.319 187.304 145.319 186.76C145.319 186.227 145.394 185.699 145.543 185.176C145.703 184.653 145.943 184.179 146.263 183.752C146.594 183.325 147.005 182.989 147.495 182.744C147.997 182.488 148.589 182.36 149.271 182.36C149.997 182.36 150.637 182.525 151.191 182.856C151.746 183.187 152.183 183.677 152.503 184.328C152.823 184.979 152.983 185.795 152.983 186.776V187.224H146.855C146.887 187.704 146.999 188.147 147.191 188.552C147.394 188.947 147.677 189.267 148.039 189.512C148.402 189.747 148.834 189.864 149.335 189.864C149.773 189.864 150.125 189.795 150.391 189.656C150.669 189.507 150.887 189.336 151.047 189.144C151.207 188.952 151.314 188.787 151.367 188.648C151.431 188.499 151.463 188.424 151.463 188.424H152.887C152.887 188.424 152.861 188.52 152.807 188.712C152.754 188.893 152.658 189.117 152.519 189.384C152.381 189.651 152.178 189.923 151.911 190.2C151.645 190.467 151.303 190.696 150.887 190.888C150.471 191.069 149.954 191.16 149.335 191.16ZM146.871 186.04H151.495C151.474 185.485 151.357 185.037 151.143 184.696C150.93 184.344 150.658 184.083 150.327 183.912C149.997 183.741 149.645 183.656 149.271 183.656C148.599 183.656 148.05 183.875 147.623 184.312C147.197 184.739 146.946 185.315 146.871 186.04ZM155.058 191V182.52H156.578V183.576H156.642C156.823 183.256 157.09 182.973 157.442 182.728C157.794 182.483 158.29 182.36 158.93 182.36C159.111 182.36 159.276 182.371 159.426 182.392C159.575 182.403 159.65 182.408 159.65 182.408V183.864C159.65 183.864 159.564 183.859 159.394 183.848C159.234 183.827 159.063 183.816 158.882 183.816C158.146 183.816 157.575 184.029 157.17 184.456C156.775 184.872 156.578 185.555 156.578 186.504V191H155.058ZM168.691 182.36C169.224 182.36 169.672 182.445 170.035 182.616C170.397 182.787 170.691 182.989 170.915 183.224C171.139 183.448 171.309 183.661 171.427 183.864H171.523V182.52H173.043V191H171.523V189.656H171.427C171.309 189.859 171.139 190.077 170.915 190.312C170.691 190.547 170.397 190.749 170.035 190.92C169.672 191.08 169.224 191.16 168.691 191.16C168.051 191.16 167.491 191.037 167.011 190.792C166.531 190.536 166.131 190.2 165.811 189.784C165.491 189.357 165.251 188.883 165.091 188.36C164.931 187.837 164.851 187.304 164.851 186.76C164.851 186.216 164.931 185.683 165.091 185.16C165.251 184.637 165.491 184.168 165.811 183.752C166.131 183.325 166.531 182.989 167.011 182.744C167.491 182.488 168.051 182.36 168.691 182.36ZM168.947 183.656C168.381 183.656 167.907 183.811 167.523 184.12C167.139 184.419 166.851 184.803 166.659 185.272C166.477 185.741 166.387 186.237 166.387 186.76C166.387 187.272 166.477 187.768 166.659 188.248C166.851 188.717 167.139 189.107 167.523 189.416C167.907 189.715 168.381 189.864 168.947 189.864C169.512 189.864 169.981 189.715 170.355 189.416C170.739 189.107 171.021 188.717 171.203 188.248C171.395 187.768 171.491 187.272 171.491 186.76C171.491 186.237 171.395 185.741 171.203 185.272C171.021 184.803 170.739 184.419 170.355 184.12C169.981 183.811 169.512 183.656 168.947 183.656ZM178.38 191.16C177.73 191.16 177.191 191.069 176.764 190.888C176.348 190.707 176.018 190.483 175.772 190.216C175.527 189.939 175.346 189.667 175.228 189.4C175.111 189.123 175.036 188.893 175.004 188.712C174.972 188.531 174.956 188.44 174.956 188.44H176.492C176.492 188.44 176.508 188.515 176.54 188.664C176.583 188.803 176.663 188.968 176.78 189.16C176.908 189.341 177.1 189.507 177.356 189.656C177.623 189.795 177.975 189.864 178.412 189.864C178.914 189.864 179.303 189.747 179.58 189.512C179.858 189.267 179.996 188.968 179.996 188.616C179.996 188.307 179.884 188.061 179.66 187.88C179.447 187.699 179.138 187.56 178.732 187.464L177.58 187.192C177.154 187.085 176.754 186.941 176.38 186.76C176.007 186.579 175.703 186.333 175.468 186.024C175.244 185.704 175.132 185.309 175.132 184.84C175.132 184.115 175.404 183.523 175.948 183.064C176.492 182.595 177.202 182.36 178.076 182.36C178.663 182.36 179.148 182.445 179.532 182.616C179.916 182.776 180.22 182.979 180.444 183.224C180.679 183.469 180.85 183.715 180.956 183.96C181.074 184.205 181.148 184.413 181.18 184.584C181.212 184.744 181.228 184.824 181.228 184.824H179.756C179.756 184.824 179.74 184.765 179.708 184.648C179.676 184.52 179.602 184.381 179.484 184.232C179.378 184.072 179.212 183.933 178.988 183.816C178.764 183.688 178.466 183.624 178.092 183.624C177.58 183.624 177.207 183.741 176.972 183.976C176.738 184.211 176.62 184.467 176.62 184.744C176.62 185.011 176.727 185.229 176.94 185.4C177.164 185.56 177.452 185.683 177.804 185.768L178.972 186.04C179.698 186.211 180.295 186.493 180.764 186.888C181.244 187.272 181.484 187.827 181.484 188.552C181.484 189.021 181.362 189.459 181.116 189.864C180.871 190.259 180.519 190.573 180.06 190.808C179.602 191.043 179.042 191.16 178.38 191.16ZM186.505 191.16C185.855 191.16 185.316 191.069 184.889 190.888C184.473 190.707 184.143 190.483 183.897 190.216C183.652 189.939 183.471 189.667 183.353 189.4C183.236 189.123 183.161 188.893 183.129 188.712C183.097 188.531 183.081 188.44 183.081 188.44H184.617C184.617 188.44 184.633 188.515 184.665 188.664C184.708 188.803 184.788 188.968 184.905 189.16C185.033 189.341 185.225 189.507 185.481 189.656C185.748 189.795 186.1 189.864 186.537 189.864C187.039 189.864 187.428 189.747 187.705 189.512C187.983 189.267 188.121 188.968 188.121 188.616C188.121 188.307 188.009 188.061 187.785 187.88C187.572 187.699 187.263 187.56 186.857 187.464L185.705 187.192C185.279 187.085 184.879 186.941 184.505 186.76C184.132 186.579 183.828 186.333 183.593 186.024C183.369 185.704 183.257 185.309 183.257 184.84C183.257 184.115 183.529 183.523 184.073 183.064C184.617 182.595 185.327 182.36 186.201 182.36C186.788 182.36 187.273 182.445 187.657 182.616C188.041 182.776 188.345 182.979 188.569 183.224C188.804 183.469 188.975 183.715 189.081 183.96C189.199 184.205 189.273 184.413 189.305 184.584C189.337 184.744 189.353 184.824 189.353 184.824H187.881C187.881 184.824 187.865 184.765 187.833 184.648C187.801 184.52 187.727 184.381 187.609 184.232C187.503 184.072 187.337 183.933 187.113 183.816C186.889 183.688 186.591 183.624 186.217 183.624C185.705 183.624 185.332 183.741 185.097 183.976C184.863 184.211 184.745 184.467 184.745 184.744C184.745 185.011 184.852 185.229 185.065 185.4C185.289 185.56 185.577 185.683 185.929 185.768L187.097 186.04C187.823 186.211 188.42 186.493 188.889 186.888C189.369 187.272 189.609 187.827 189.609 188.552C189.609 189.021 189.487 189.459 189.241 189.864C188.996 190.259 188.644 190.573 188.185 190.808C187.727 191.043 187.167 191.16 186.505 191.16ZM192.518 180.904C192.23 180.904 191.99 180.808 191.798 180.616C191.617 180.424 191.526 180.195 191.526 179.928C191.526 179.651 191.617 179.416 191.798 179.224C191.99 179.032 192.23 178.936 192.518 178.936C192.796 178.936 193.03 179.032 193.222 179.224C193.414 179.416 193.51 179.651 193.51 179.928C193.51 180.195 193.414 180.424 193.222 180.616C193.03 180.808 192.796 180.904 192.518 180.904ZM191.766 191V182.52H193.286V191H191.766ZM198.849 191.16C198.198 191.16 197.66 191.069 197.233 190.888C196.817 190.707 196.486 190.483 196.241 190.216C195.996 189.939 195.814 189.667 195.697 189.4C195.58 189.123 195.505 188.893 195.473 188.712C195.441 188.531 195.425 188.44 195.425 188.44H196.961C196.961 188.44 196.977 188.515 197.009 188.664C197.052 188.803 197.132 188.968 197.249 189.16C197.377 189.341 197.569 189.507 197.825 189.656C198.092 189.795 198.444 189.864 198.881 189.864C199.382 189.864 199.772 189.747 200.049 189.512C200.326 189.267 200.465 188.968 200.465 188.616C200.465 188.307 200.353 188.061 200.129 187.88C199.916 187.699 199.606 187.56 199.201 187.464L198.049 187.192C197.622 187.085 197.222 186.941 196.849 186.76C196.476 186.579 196.172 186.333 195.937 186.024C195.713 185.704 195.601 185.309 195.601 184.84C195.601 184.115 195.873 183.523 196.417 183.064C196.961 182.595 197.67 182.36 198.545 182.36C199.132 182.36 199.617 182.445 200.001 182.616C200.385 182.776 200.689 182.979 200.913 183.224C201.148 183.469 201.318 183.715 201.425 183.96C201.542 184.205 201.617 184.413 201.649 184.584C201.681 184.744 201.697 184.824 201.697 184.824H200.225C200.225 184.824 200.209 184.765 200.177 184.648C200.145 184.52 200.07 184.381 199.953 184.232C199.846 184.072 199.681 183.933 199.457 183.816C199.233 183.688 198.934 183.624 198.561 183.624C198.049 183.624 197.676 183.741 197.441 183.976C197.206 184.211 197.089 184.467 197.089 184.744C197.089 185.011 197.196 185.229 197.409 185.4C197.633 185.56 197.921 185.683 198.273 185.768L199.441 186.04C200.166 186.211 200.764 186.493 201.233 186.888C201.713 187.272 201.953 187.827 201.953 188.552C201.953 189.021 201.83 189.459 201.585 189.864C201.34 190.259 200.988 190.573 200.529 190.808C200.07 191.043 199.51 191.16 198.849 191.16ZM207.314 191.16C206.439 191.16 205.778 190.936 205.33 190.488C204.892 190.04 204.674 189.411 204.674 188.6V183.768H203.154V182.52H204.674V180.392H206.194V182.52H208.258V183.768H206.194V188.6C206.194 189.027 206.311 189.341 206.546 189.544C206.78 189.736 207.122 189.832 207.57 189.832C207.804 189.832 208.028 189.816 208.242 189.784C208.455 189.752 208.562 189.736 208.562 189.736V191.032C208.562 191.032 208.439 191.053 208.194 191.096C207.948 191.139 207.655 191.16 207.314 191.16ZM213.925 182.36C214.458 182.36 214.906 182.445 215.269 182.616C215.632 182.787 215.925 182.989 216.149 183.224C216.373 183.448 216.544 183.661 216.661 183.864H216.757V182.52H218.277V191H216.757V189.656H216.661C216.544 189.859 216.373 190.077 216.149 190.312C215.925 190.547 215.632 190.749 215.269 190.92C214.906 191.08 214.458 191.16 213.925 191.16C213.285 191.16 212.725 191.037 212.245 190.792C211.765 190.536 211.365 190.2 211.045 189.784C210.725 189.357 210.485 188.883 210.325 188.36C210.165 187.837 210.085 187.304 210.085 186.76C210.085 186.216 210.165 185.683 210.325 185.16C210.485 184.637 210.725 184.168 211.045 183.752C211.365 183.325 211.765 182.989 212.245 182.744C212.725 182.488 213.285 182.36 213.925 182.36ZM214.181 183.656C213.616 183.656 213.141 183.811 212.757 184.12C212.373 184.419 212.085 184.803 211.893 185.272C211.712 185.741 211.621 186.237 211.621 186.76C211.621 187.272 211.712 187.768 211.893 188.248C212.085 188.717 212.373 189.107 212.757 189.416C213.141 189.715 213.616 189.864 214.181 189.864C214.746 189.864 215.216 189.715 215.589 189.416C215.973 189.107 216.256 188.717 216.437 188.248C216.629 187.768 216.725 187.272 216.725 186.76C216.725 186.237 216.629 185.741 216.437 185.272C216.256 184.803 215.973 184.419 215.589 184.12C215.216 183.811 214.746 183.656 214.181 183.656ZM220.511 191V182.52H222.031V183.752H222.127C222.201 183.624 222.324 183.448 222.495 183.224C222.676 183 222.932 182.803 223.263 182.632C223.593 182.451 224.009 182.36 224.511 182.36C225.129 182.36 225.657 182.504 226.095 182.792C226.532 183.069 226.863 183.448 227.087 183.928C227.321 184.408 227.439 184.947 227.439 185.544V191H225.919V185.64C225.919 185.075 225.759 184.605 225.439 184.232C225.129 183.859 224.676 183.672 224.079 183.672C223.599 183.672 223.209 183.795 222.911 184.04C222.612 184.275 222.388 184.589 222.239 184.984C222.1 185.368 222.031 185.779 222.031 186.216V191H220.511ZM233.699 191.16C233.005 191.16 232.397 191.037 231.875 190.792C231.352 190.536 230.915 190.2 230.562 189.784C230.221 189.357 229.96 188.883 229.779 188.36C229.608 187.837 229.523 187.304 229.523 186.76C229.523 186.216 229.608 185.688 229.779 185.176C229.949 184.653 230.205 184.179 230.547 183.752C230.899 183.325 231.336 182.989 231.859 182.744C232.381 182.488 232.995 182.36 233.699 182.36C234.381 182.36 234.947 182.461 235.395 182.664C235.843 182.867 236.2 183.123 236.467 183.432C236.744 183.731 236.947 184.035 237.075 184.344C237.213 184.643 237.304 184.893 237.347 185.096C237.389 185.299 237.411 185.4 237.411 185.4H235.939C235.939 185.4 235.912 185.315 235.859 185.144C235.805 184.963 235.704 184.76 235.555 184.536C235.405 184.312 235.181 184.115 234.883 183.944C234.584 183.763 234.189 183.672 233.699 183.672C233.112 183.672 232.616 183.821 232.211 184.12C231.816 184.408 231.517 184.787 231.315 185.256C231.123 185.725 231.027 186.227 231.027 186.76C231.027 187.293 231.123 187.795 231.315 188.264C231.517 188.733 231.816 189.117 232.211 189.416C232.616 189.704 233.112 189.848 233.699 189.848C234.189 189.848 234.584 189.763 234.883 189.592C235.181 189.411 235.405 189.208 235.555 188.984C235.704 188.76 235.805 188.563 235.859 188.392C235.912 188.211 235.939 188.12 235.939 188.12H237.411C237.411 188.12 237.389 188.221 237.347 188.424C237.304 188.627 237.213 188.883 237.075 189.192C236.947 189.491 236.744 189.795 236.467 190.104C236.2 190.403 235.843 190.653 235.395 190.856C234.947 191.059 234.381 191.16 233.699 191.16ZM243.351 191.16C242.658 191.16 242.055 191.037 241.543 190.792C241.042 190.536 240.626 190.195 240.295 189.768C239.975 189.341 239.735 188.872 239.575 188.36C239.415 187.837 239.335 187.304 239.335 186.76C239.335 186.227 239.41 185.699 239.559 185.176C239.719 184.653 239.959 184.179 240.279 183.752C240.61 183.325 241.02 182.989 241.511 182.744C242.012 182.488 242.604 182.36 243.287 182.36C244.012 182.36 244.652 182.525 245.207 182.856C245.762 183.187 246.199 183.677 246.519 184.328C246.839 184.979 246.999 185.795 246.999 186.776V187.224H240.871C240.903 187.704 241.015 188.147 241.207 188.552C241.41 188.947 241.692 189.267 242.055 189.512C242.418 189.747 242.85 189.864 243.351 189.864C243.788 189.864 244.14 189.795 244.407 189.656C244.684 189.507 244.903 189.336 245.063 189.144C245.223 188.952 245.33 188.787 245.383 188.648C245.447 188.499 245.479 188.424 245.479 188.424H246.903C246.903 188.424 246.876 188.52 246.823 188.712C246.77 188.893 246.674 189.117 246.535 189.384C246.396 189.651 246.194 189.923 245.927 190.2C245.66 190.467 245.319 190.696 244.903 190.888C244.487 191.069 243.97 191.16 243.351 191.16ZM240.887 186.04H245.511C245.49 185.485 245.372 185.037 245.159 184.696C244.946 184.344 244.674 184.083 244.343 183.912C244.012 183.741 243.66 183.656 243.287 183.656C242.615 183.656 242.066 183.875 241.639 184.312C241.212 184.739 240.962 185.315 240.887 186.04ZM256.361 191.16C255.486 191.16 254.825 190.936 254.377 190.488C253.939 190.04 253.721 189.411 253.721 188.6V183.768H252.201V182.52H253.721V180.392H255.241V182.52H257.305V183.768H255.241V188.6C255.241 189.027 255.358 189.341 255.593 189.544C255.827 189.736 256.169 189.832 256.617 189.832C256.851 189.832 257.075 189.816 257.289 189.784C257.502 189.752 257.609 189.736 257.609 189.736V191.032C257.609 191.032 257.486 191.053 257.241 191.096C256.995 191.139 256.702 191.16 256.361 191.16ZM263.308 191.16C262.401 191.16 261.639 190.952 261.02 190.536C260.401 190.109 259.932 189.56 259.612 188.888C259.292 188.216 259.132 187.507 259.132 186.76C259.132 186.003 259.292 185.293 259.612 184.632C259.932 183.96 260.401 183.416 261.02 183C261.639 182.573 262.401 182.36 263.308 182.36C264.215 182.36 264.977 182.573 265.596 183C266.215 183.416 266.684 183.96 267.004 184.632C267.324 185.293 267.484 186.003 267.484 186.76C267.484 187.507 267.324 188.216 267.004 188.888C266.684 189.56 266.215 190.109 265.596 190.536C264.977 190.952 264.215 191.16 263.308 191.16ZM263.308 189.832C263.884 189.832 264.364 189.688 264.748 189.4C265.143 189.101 265.436 188.717 265.628 188.248C265.831 187.779 265.932 187.283 265.932 186.76C265.932 186.227 265.831 185.731 265.628 185.272C265.436 184.803 265.143 184.424 264.748 184.136C264.364 183.837 263.884 183.688 263.308 183.688C262.743 183.688 262.263 183.837 261.868 184.136C261.473 184.424 261.175 184.803 260.972 185.272C260.78 185.731 260.684 186.227 260.684 186.76C260.684 187.283 260.78 187.779 260.972 188.248C261.175 188.717 261.473 189.101 261.868 189.4C262.263 189.688 262.743 189.832 263.308 189.832ZM273.405 191L273.421 178.84H274.925V191H273.405ZM281.179 191.16C280.486 191.16 279.883 191.037 279.371 190.792C278.87 190.536 278.454 190.195 278.123 189.768C277.803 189.341 277.563 188.872 277.403 188.36C277.243 187.837 277.163 187.304 277.163 186.76C277.163 186.227 277.238 185.699 277.387 185.176C277.547 184.653 277.787 184.179 278.107 183.752C278.438 183.325 278.848 182.989 279.339 182.744C279.84 182.488 280.432 182.36 281.115 182.36C281.84 182.36 282.48 182.525 283.035 182.856C283.59 183.187 284.027 183.677 284.347 184.328C284.667 184.979 284.827 185.795 284.827 186.776V187.224H278.699C278.731 187.704 278.843 188.147 279.035 188.552C279.238 188.947 279.52 189.267 279.883 189.512C280.246 189.747 280.678 189.864 281.179 189.864C281.616 189.864 281.968 189.795 282.235 189.656C282.512 189.507 282.731 189.336 282.891 189.144C283.051 188.952 283.158 188.787 283.211 188.648C283.275 188.499 283.307 188.424 283.307 188.424H284.731C284.731 188.424 284.704 188.52 284.651 188.712C284.598 188.893 284.502 189.117 284.363 189.384C284.224 189.651 284.022 189.923 283.755 190.2C283.488 190.467 283.147 190.696 282.731 190.888C282.315 191.069 281.798 191.16 281.179 191.16ZM278.715 186.04H283.339C283.318 185.485 283.2 185.037 282.987 184.696C282.774 184.344 282.502 184.083 282.171 183.912C281.84 183.741 281.488 183.656 281.115 183.656C280.443 183.656 279.894 183.875 279.467 184.312C279.04 184.739 278.79 185.315 278.715 186.04ZM290.345 191.16C289.47 191.16 288.809 190.936 288.361 190.488C287.924 190.04 287.705 189.411 287.705 188.6V183.768H286.185V182.52H287.705V180.392H289.225V182.52H291.289V183.768H289.225V188.6C289.225 189.027 289.342 189.341 289.577 189.544C289.812 189.736 290.153 189.832 290.601 189.832C290.836 189.832 291.06 189.816 291.273 189.784C291.486 189.752 291.593 189.736 291.593 189.736V191.032C291.593 191.032 291.47 191.053 291.225 191.096C290.98 191.139 290.686 191.16 290.345 191.16ZM300.876 191.16C300.002 191.16 299.34 190.936 298.892 190.488C298.455 190.04 298.236 189.411 298.236 188.6V183.768H296.716V182.52H298.236V180.392H299.756V182.52H301.82V183.768H299.756V188.6C299.756 189.027 299.874 189.341 300.108 189.544C300.343 189.736 300.684 189.832 301.132 189.832C301.367 189.832 301.591 189.816 301.804 189.784C302.018 189.752 302.124 189.736 302.124 189.736V191.032C302.124 191.032 302.002 191.053 301.756 191.096C301.511 191.139 301.218 191.16 300.876 191.16ZM304.28 191V178.84H305.8V183.752H305.896C305.971 183.624 306.093 183.448 306.264 183.224C306.445 183 306.701 182.803 307.032 182.632C307.363 182.451 307.779 182.36 308.28 182.36C308.899 182.36 309.427 182.504 309.864 182.792C310.301 183.069 310.632 183.448 310.856 183.928C311.091 184.408 311.208 184.947 311.208 185.544V191H309.688V185.64C309.688 185.075 309.528 184.605 309.208 184.232C308.899 183.859 308.445 183.672 307.848 183.672C307.368 183.672 306.979 183.795 306.68 184.04C306.381 184.275 306.157 184.589 306.008 184.984C305.869 185.368 305.8 185.779 305.8 186.216V191H304.28ZM317.304 191.16C316.611 191.16 316.008 191.037 315.496 190.792C314.995 190.536 314.579 190.195 314.248 189.768C313.928 189.341 313.688 188.872 313.528 188.36C313.368 187.837 313.288 187.304 313.288 186.76C313.288 186.227 313.363 185.699 313.512 185.176C313.672 184.653 313.912 184.179 314.232 183.752C314.563 183.325 314.973 182.989 315.464 182.744C315.965 182.488 316.557 182.36 317.24 182.36C317.965 182.36 318.605 182.525 319.16 182.856C319.715 183.187 320.152 183.677 320.472 184.328C320.792 184.979 320.952 185.795 320.952 186.776V187.224H314.824C314.856 187.704 314.968 188.147 315.16 188.552C315.363 188.947 315.645 189.267 316.008 189.512C316.371 189.747 316.803 189.864 317.304 189.864C317.741 189.864 318.093 189.795 318.36 189.656C318.637 189.507 318.856 189.336 319.016 189.144C319.176 188.952 319.283 188.787 319.336 188.648C319.4 188.499 319.432 188.424 319.432 188.424H320.856C320.856 188.424 320.829 188.52 320.776 188.712C320.723 188.893 320.627 189.117 320.488 189.384C320.349 189.651 320.147 189.923 319.88 190.2C319.613 190.467 319.272 190.696 318.856 190.888C318.44 191.069 317.923 191.16 317.304 191.16ZM314.84 186.04H319.464C319.443 185.485 319.325 185.037 319.112 184.696C318.899 184.344 318.627 184.083 318.296 183.912C317.965 183.741 317.613 183.656 317.24 183.656C316.568 183.656 316.019 183.875 315.592 184.312C315.165 184.739 314.915 185.315 314.84 186.04ZM25.12 215V206.52H26.64V207.576H26.704C26.8853 207.256 27.152 206.973 27.504 206.728C27.856 206.483 28.352 206.36 28.992 206.36C29.1733 206.36 29.3387 206.371 29.488 206.392C29.6373 206.403 29.712 206.408 29.712 206.408V207.864C29.712 207.864 29.6267 207.859 29.456 207.848C29.296 207.827 29.1253 207.816 28.944 207.816C28.208 207.816 27.6373 208.029 27.232 208.456C26.8373 208.872 26.64 209.555 26.64 210.504V215H25.12ZM32.6901 204.904C32.4021 204.904 32.1621 204.808 31.9701 204.616C31.7888 204.424 31.6981 204.195 31.6981 203.928C31.6981 203.651 31.7888 203.416 31.9701 203.224C32.1621 203.032 32.4021 202.936 32.6901 202.936C32.9675 202.936 33.2021 203.032 33.3941 203.224C33.5861 203.416 33.6821 203.651 33.6821 203.928C33.6821 204.195 33.5861 204.424 33.3941 204.616C33.2021 204.808 32.9675 204.904 32.6901 204.904ZM31.9381 215V206.52H33.4581V215H31.9381ZM38.5889 215L35.3569 206.52H36.9409L39.4209 213.144L41.8529 206.52H43.4529L40.2049 215H38.5889ZM48.6791 215.16C47.9858 215.16 47.3831 215.037 46.8711 214.792C46.3698 214.536 45.9538 214.195 45.6231 213.768C45.3031 213.341 45.0631 212.872 44.9031 212.36C44.7431 211.837 44.6631 211.304 44.6631 210.76C44.6631 210.227 44.7378 209.699 44.8871 209.176C45.0471 208.653 45.2871 208.179 45.6071 207.752C45.9378 207.325 46.3485 206.989 46.8391 206.744C47.3405 206.488 47.9325 206.36 48.6151 206.36C49.3405 206.36 49.9805 206.525 50.5351 206.856C51.0898 207.187 51.5271 207.677 51.8471 208.328C52.1671 208.979 52.3271 209.795 52.3271 210.776V211.224H46.1991C46.2311 211.704 46.3431 212.147 46.5351 212.552C46.7378 212.947 47.0205 213.267 47.3831 213.512C47.7458 213.747 48.1778 213.864 48.6791 213.864C49.1165 213.864 49.4685 213.795 49.7351 213.656C50.0125 213.507 50.2311 213.336 50.3911 213.144C50.5511 212.952 50.6578 212.787 50.7111 212.648C50.7751 212.499 50.8071 212.424 50.8071 212.424H52.2311C52.2311 212.424 52.2045 212.52 52.1511 212.712C52.0978 212.893 52.0018 213.117 51.8631 213.384C51.7245 213.651 51.5218 213.923 51.2551 214.2C50.9885 214.467 50.6471 214.696 50.2311 214.888C49.8151 215.069 49.2978 215.16 48.6791 215.16ZM46.2151 210.04H50.8391C50.8178 209.485 50.7005 209.037 50.4871 208.696C50.2738 208.344 50.0018 208.083 49.6711 207.912C49.3405 207.741 48.9885 207.656 48.6151 207.656C47.9431 207.656 47.3938 207.875 46.9671 208.312C46.5405 208.739 46.2898 209.315 46.2151 210.04ZM54.4013 215V206.52H55.9213V207.576H55.9853C56.1666 207.256 56.4333 206.973 56.7853 206.728C57.1373 206.483 57.6333 206.36 58.2733 206.36C58.4546 206.36 58.6199 206.371 58.7693 206.392C58.9186 206.403 58.9933 206.408 58.9933 206.408V207.864C58.9933 207.864 58.9079 207.859 58.7373 207.848C58.5773 207.827 58.4066 207.816 58.2253 207.816C57.4893 207.816 56.9186 208.029 56.5133 208.456C56.1186 208.872 55.9213 209.555 55.9213 210.504V215H54.4013ZM68.3704 215.16C67.4637 215.16 66.701 214.952 66.0824 214.536C65.4637 214.109 64.9944 213.56 64.6744 212.888C64.3544 212.216 64.1944 211.507 64.1944 210.76C64.1944 210.003 64.3544 209.293 64.6744 208.632C64.9944 207.96 65.4637 207.416 66.0824 207C66.701 206.573 67.4637 206.36 68.3704 206.36C69.277 206.36 70.0397 206.573 70.6584 207C71.277 207.416 71.7464 207.96 72.0664 208.632C72.3864 209.293 72.5464 210.003 72.5464 210.76C72.5464 211.507 72.3864 212.216 72.0664 212.888C71.7464 213.56 71.277 214.109 70.6584 214.536C70.0397 214.952 69.277 215.16 68.3704 215.16ZM68.3704 213.832C68.9464 213.832 69.4264 213.688 69.8104 213.4C70.205 213.101 70.4984 212.717 70.6904 212.248C70.893 211.779 70.9944 211.283 70.9944 210.76C70.9944 210.227 70.893 209.731 70.6904 209.272C70.4984 208.803 70.205 208.424 69.8104 208.136C69.4264 207.837 68.9464 207.688 68.3704 207.688C67.805 207.688 67.325 207.837 66.9304 208.136C66.5357 208.424 66.237 208.803 66.0344 209.272C65.8424 209.731 65.7464 210.227 65.7464 210.76C65.7464 211.283 65.8424 211.779 66.0344 212.248C66.237 212.717 66.5357 213.101 66.9304 213.4C67.325 213.688 67.805 213.832 68.3704 213.832ZM75.612 215V207.768H74.22V206.52H75.612V205.48C75.612 205.032 75.692 204.595 75.852 204.168C76.012 203.731 76.2787 203.373 76.652 203.096C77.0253 202.819 77.532 202.68 78.172 202.68C78.4813 202.68 78.7267 202.707 78.908 202.76C79.1 202.803 79.196 202.824 79.196 202.824V204.024C79.196 204.024 79.1107 204.008 78.94 203.976C78.78 203.933 78.5933 203.912 78.38 203.912C77.8893 203.912 77.5587 204.061 77.388 204.36C77.2173 204.659 77.132 205.032 77.132 205.48V206.52H79.1V207.768H77.132V215H75.612ZM84.6394 215V202.84H86.1594V209.912L89.5354 206.52H91.5194L87.6154 210.376L91.5994 215H89.6634L86.1594 210.92V215H84.6394ZM93.3544 215V206.52H94.8744V207.752H94.9704C95.045 207.624 95.1677 207.448 95.3384 207.224C95.5197 207 95.7757 206.803 96.1064 206.632C96.437 206.451 96.853 206.36 97.3544 206.36C97.973 206.36 98.501 206.504 98.9384 206.792C99.3757 207.069 99.7064 207.448 99.9304 207.928C100.165 208.408 100.282 208.947 100.282 209.544V215H98.7624V209.64C98.7624 209.075 98.6024 208.605 98.2824 208.232C97.973 207.859 97.5197 207.672 96.9224 207.672C96.4424 207.672 96.053 207.795 95.7544 208.04C95.4557 208.275 95.2317 208.589 95.0824 208.984C94.9437 209.368 94.8744 209.779 94.8744 210.216V215H93.3544ZM106.542 215.16C105.636 215.16 104.873 214.952 104.254 214.536C103.636 214.109 103.166 213.56 102.846 212.888C102.526 212.216 102.366 211.507 102.366 210.76C102.366 210.003 102.526 209.293 102.846 208.632C103.166 207.96 103.636 207.416 104.254 207C104.873 206.573 105.636 206.36 106.542 206.36C107.449 206.36 108.212 206.573 108.83 207C109.449 207.416 109.918 207.96 110.238 208.632C110.558 209.293 110.718 210.003 110.718 210.76C110.718 211.507 110.558 212.216 110.238 212.888C109.918 213.56 109.449 214.109 108.83 214.536C108.212 214.952 107.449 215.16 106.542 215.16ZM106.542 213.832C107.118 213.832 107.598 213.688 107.982 213.4C108.377 213.101 108.67 212.717 108.862 212.248C109.065 211.779 109.166 211.283 109.166 210.76C109.166 210.227 109.065 209.731 108.862 209.272C108.67 208.803 108.377 208.424 107.982 208.136C107.598 207.837 107.118 207.688 106.542 207.688C105.977 207.688 105.497 207.837 105.102 208.136C104.708 208.424 104.409 208.803 104.206 209.272C104.014 209.731 103.918 210.227 103.918 210.76C103.918 211.283 104.014 211.779 104.206 212.248C104.409 212.717 104.708 213.101 105.102 213.4C105.497 213.688 105.977 213.832 106.542 213.832ZM114.655 215L111.919 206.52H113.471L115.487 212.952L117.599 206.52H119.039L121.135 212.952L123.167 206.52H124.719L121.967 215H120.335L118.319 208.744L116.303 215H114.655ZM126.561 215L126.577 202.84H128.081V215H126.561ZM134.335 215.16C133.642 215.16 133.039 215.037 132.527 214.792C132.026 214.536 131.61 214.195 131.279 213.768C130.959 213.341 130.719 212.872 130.559 212.36C130.399 211.837 130.319 211.304 130.319 210.76C130.319 210.227 130.394 209.699 130.543 209.176C130.703 208.653 130.943 208.179 131.263 207.752C131.594 207.325 132.005 206.989 132.495 206.744C132.997 206.488 133.589 206.36 134.271 206.36C134.997 206.36 135.637 206.525 136.191 206.856C136.746 207.187 137.183 207.677 137.503 208.328C137.823 208.979 137.983 209.795 137.983 210.776V211.224H131.855C131.887 211.704 131.999 212.147 132.191 212.552C132.394 212.947 132.677 213.267 133.039 213.512C133.402 213.747 133.834 213.864 134.335 213.864C134.773 213.864 135.125 213.795 135.391 213.656C135.669 213.507 135.887 213.336 136.047 213.144C136.207 212.952 136.314 212.787 136.367 212.648C136.431 212.499 136.463 212.424 136.463 212.424H137.887C137.887 212.424 137.861 212.52 137.807 212.712C137.754 212.893 137.658 213.117 137.519 213.384C137.381 213.651 137.178 213.923 136.911 214.2C136.645 214.467 136.303 214.696 135.887 214.888C135.471 215.069 134.954 215.16 134.335 215.16ZM131.871 210.04H136.495C136.474 209.485 136.357 209.037 136.143 208.696C135.93 208.344 135.658 208.083 135.327 207.912C134.997 207.741 134.645 207.656 134.271 207.656C133.599 207.656 133.05 207.875 132.623 208.312C132.197 208.739 131.946 209.315 131.871 210.04ZM143.659 215.16C143.019 215.16 142.459 215.037 141.979 214.792C141.499 214.536 141.099 214.2 140.779 213.784C140.459 213.357 140.219 212.883 140.059 212.36C139.899 211.837 139.819 211.304 139.819 210.76C139.819 210.216 139.899 209.683 140.059 209.16C140.219 208.637 140.459 208.168 140.779 207.752C141.099 207.325 141.499 206.989 141.979 206.744C142.459 206.488 143.019 206.36 143.659 206.36C144.193 206.36 144.641 206.445 145.003 206.616C145.366 206.787 145.659 206.989 145.883 207.224C146.107 207.448 146.278 207.661 146.395 207.864H146.491V202.84H148.011V215H146.491V213.656H146.395C146.278 213.859 146.107 214.077 145.883 214.312C145.659 214.547 145.366 214.749 145.003 214.92C144.641 215.08 144.193 215.16 143.659 215.16ZM143.915 213.864C144.481 213.864 144.95 213.715 145.323 213.416C145.707 213.107 145.99 212.717 146.171 212.248C146.363 211.768 146.459 211.272 146.459 210.76C146.459 210.237 146.363 209.741 146.171 209.272C145.99 208.803 145.707 208.419 145.323 208.12C144.95 207.811 144.481 207.656 143.915 207.656C143.35 207.656 142.875 207.811 142.491 208.12C142.107 208.419 141.819 208.803 141.627 209.272C141.446 209.741 141.355 210.237 141.355 210.76C141.355 211.272 141.446 211.768 141.627 212.248C141.819 212.717 142.107 213.107 142.491 213.416C142.875 213.715 143.35 213.864 143.915 213.864ZM154.497 218.36C153.793 218.36 153.206 218.264 152.737 218.072C152.268 217.891 151.889 217.656 151.601 217.368C151.324 217.091 151.116 216.813 150.977 216.536C150.838 216.259 150.748 216.024 150.705 215.832C150.662 215.651 150.641 215.56 150.641 215.56H152.161C152.161 215.56 152.188 215.635 152.241 215.784C152.294 215.933 152.396 216.104 152.545 216.296C152.705 216.488 152.94 216.659 153.249 216.808C153.558 216.957 153.974 217.032 154.497 217.032C155.116 217.032 155.601 216.909 155.953 216.664C156.305 216.429 156.556 216.12 156.705 215.736C156.865 215.352 156.945 214.947 156.945 214.52V213.544H156.865C156.758 213.725 156.588 213.933 156.353 214.168C156.129 214.392 155.83 214.589 155.457 214.76C155.084 214.92 154.625 215 154.081 215C153.441 215 152.881 214.877 152.401 214.632C151.921 214.387 151.521 214.056 151.201 213.64C150.892 213.224 150.657 212.76 150.497 212.248C150.337 211.736 150.257 211.213 150.257 210.68C150.257 210.147 150.337 209.624 150.497 209.112C150.657 208.6 150.892 208.136 151.201 207.72C151.521 207.304 151.921 206.973 152.401 206.728C152.881 206.483 153.441 206.36 154.081 206.36C154.625 206.36 155.084 206.445 155.457 206.616C155.83 206.776 156.129 206.968 156.353 207.192C156.588 207.416 156.758 207.624 156.865 207.816H156.945V206.52H158.465V214.504C158.465 215.688 158.118 216.627 157.425 217.32C156.742 218.013 155.766 218.36 154.497 218.36ZM154.369 213.704C154.934 213.704 155.404 213.56 155.777 213.272C156.161 212.973 156.444 212.595 156.625 212.136C156.817 211.677 156.913 211.192 156.913 210.68C156.913 210.168 156.817 209.683 156.625 209.224C156.444 208.755 156.161 208.376 155.777 208.088C155.404 207.8 154.934 207.656 154.369 207.656C153.804 207.656 153.329 207.8 152.945 208.088C152.561 208.376 152.273 208.755 152.081 209.224C151.9 209.683 151.809 210.168 151.809 210.68C151.809 211.192 151.9 211.677 152.081 212.136C152.273 212.595 152.561 212.973 152.945 213.272C153.329 213.56 153.804 213.704 154.369 213.704ZM164.242 215.16C163.548 215.16 162.946 215.037 162.434 214.792C161.932 214.536 161.516 214.195 161.186 213.768C160.866 213.341 160.626 212.872 160.466 212.36C160.306 211.837 160.226 211.304 160.226 210.76C160.226 210.227 160.3 209.699 160.45 209.176C160.61 208.653 160.85 208.179 161.17 207.752C161.5 207.325 161.911 206.989 162.402 206.744C162.903 206.488 163.495 206.36 164.178 206.36C164.903 206.36 165.543 206.525 166.098 206.856C166.652 207.187 167.09 207.677 167.41 208.328C167.73 208.979 167.89 209.795 167.89 210.776V211.224H161.762C161.794 211.704 161.906 212.147 162.098 212.552C162.3 212.947 162.583 213.267 162.946 213.512C163.308 213.747 163.74 213.864 164.242 213.864C164.679 213.864 165.031 213.795 165.298 213.656C165.575 213.507 165.794 213.336 165.954 213.144C166.114 212.952 166.22 212.787 166.274 212.648C166.338 212.499 166.37 212.424 166.37 212.424H167.794C167.794 212.424 167.767 212.52 167.714 212.712C167.66 212.893 167.564 213.117 167.426 213.384C167.287 213.651 167.084 213.923 166.818 214.2C166.551 214.467 166.21 214.696 165.794 214.888C165.378 215.069 164.86 215.16 164.242 215.16ZM161.778 210.04H166.402C166.38 209.485 166.263 209.037 166.05 208.696C165.836 208.344 165.564 208.083 165.234 207.912C164.903 207.741 164.551 207.656 164.178 207.656C163.506 207.656 162.956 207.875 162.53 208.312C162.103 208.739 161.852 209.315 161.778 210.04ZM174.643 215V207.768H173.251V206.52H174.643V205.48C174.643 205.032 174.723 204.595 174.883 204.168C175.043 203.731 175.31 203.373 175.683 203.096C176.057 202.819 176.563 202.68 177.203 202.68C177.513 202.68 177.758 202.707 177.939 202.76C178.131 202.803 178.227 202.824 178.227 202.824V204.024C178.227 204.024 178.142 204.008 177.971 203.976C177.811 203.933 177.625 203.912 177.411 203.912C176.921 203.912 176.59 204.061 176.419 204.36C176.249 204.659 176.163 205.032 176.163 205.48V206.52H178.131V207.768H176.163V215H174.643ZM179.983 215L179.999 202.84H181.503V215H179.983ZM187.917 215.16C187.011 215.16 186.248 214.952 185.629 214.536C185.011 214.109 184.541 213.56 184.221 212.888C183.901 212.216 183.741 211.507 183.741 210.76C183.741 210.003 183.901 209.293 184.221 208.632C184.541 207.96 185.011 207.416 185.629 207C186.248 206.573 187.011 206.36 187.917 206.36C188.824 206.36 189.587 206.573 190.205 207C190.824 207.416 191.293 207.96 191.613 208.632C191.933 209.293 192.093 210.003 192.093 210.76C192.093 211.507 191.933 212.216 191.613 212.888C191.293 213.56 190.824 214.109 190.205 214.536C189.587 214.952 188.824 215.16 187.917 215.16ZM187.917 213.832C188.493 213.832 188.973 213.688 189.357 213.4C189.752 213.101 190.045 212.717 190.237 212.248C190.44 211.779 190.541 211.283 190.541 210.76C190.541 210.227 190.44 209.731 190.237 209.272C190.045 208.803 189.752 208.424 189.357 208.136C188.973 207.837 188.493 207.688 187.917 207.688C187.352 207.688 186.872 207.837 186.477 208.136C186.083 208.424 185.784 208.803 185.581 209.272C185.389 209.731 185.293 210.227 185.293 210.76C185.293 211.283 185.389 211.779 185.581 212.248C185.784 212.717 186.083 213.101 186.477 213.4C186.872 213.688 187.352 213.832 187.917 213.832ZM196.03 215L193.294 206.52H194.846L196.862 212.952L198.974 206.52H200.414L202.51 212.952L204.542 206.52H206.094L203.342 215H201.71L199.694 208.744L197.678 215H196.03ZM215.144 206.36C215.677 206.36 216.125 206.445 216.488 206.616C216.85 206.787 217.144 206.989 217.368 207.224C217.592 207.448 217.762 207.661 217.88 207.864H217.976V206.52H219.496V215H217.976V213.656H217.88C217.762 213.859 217.592 214.077 217.368 214.312C217.144 214.547 216.85 214.749 216.488 214.92C216.125 215.08 215.677 215.16 215.144 215.16C214.504 215.16 213.944 215.037 213.464 214.792C212.984 214.536 212.584 214.2 212.264 213.784C211.944 213.357 211.704 212.883 211.544 212.36C211.384 211.837 211.304 211.304 211.304 210.76C211.304 210.216 211.384 209.683 211.544 209.16C211.704 208.637 211.944 208.168 212.264 207.752C212.584 207.325 212.984 206.989 213.464 206.744C213.944 206.488 214.504 206.36 215.144 206.36ZM215.4 207.656C214.834 207.656 214.36 207.811 213.976 208.12C213.592 208.419 213.304 208.803 213.112 209.272C212.93 209.741 212.84 210.237 212.84 210.76C212.84 211.272 212.93 211.768 213.112 212.248C213.304 212.717 213.592 213.107 213.976 213.416C214.36 213.715 214.834 213.864 215.4 213.864C215.965 213.864 216.434 213.715 216.808 213.416C217.192 213.107 217.474 212.717 217.656 212.248C217.848 211.768 217.944 211.272 217.944 210.76C217.944 210.237 217.848 209.741 217.656 209.272C217.474 208.803 217.192 208.419 216.808 208.12C216.434 207.811 215.965 207.656 215.4 207.656ZM225.017 215.16C224.142 215.16 223.481 214.936 223.033 214.488C222.596 214.04 222.377 213.411 222.377 212.6V207.768H220.857V206.52H222.377V204.392H223.897V206.52H225.961V207.768H223.897V212.6C223.897 213.027 224.014 213.341 224.249 213.544C224.484 213.736 224.825 213.832 225.273 213.832C225.508 213.832 225.732 213.816 225.945 213.784C226.158 213.752 226.265 213.736 226.265 213.736V215.032C226.265 215.032 226.142 215.053 225.897 215.096C225.652 215.139 225.358 215.16 225.017 215.16ZM232.94 204.904C232.652 204.904 232.412 204.808 232.22 204.616C232.039 204.424 231.948 204.195 231.948 203.928C231.948 203.651 232.039 203.416 232.22 203.224C232.412 203.032 232.652 202.936 232.94 202.936C233.217 202.936 233.452 203.032 233.644 203.224C233.836 203.416 233.932 203.651 233.932 203.928C233.932 204.195 233.836 204.424 233.644 204.616C233.452 204.808 233.217 204.904 232.94 204.904ZM232.188 215V206.52H233.708V215H232.188ZM239.767 215.16C238.892 215.16 238.231 214.936 237.783 214.488C237.346 214.04 237.127 213.411 237.127 212.6V207.768H235.607V206.52H237.127V204.392H238.647V206.52H240.711V207.768H238.647V212.6C238.647 213.027 238.764 213.341 238.999 213.544C239.234 213.736 239.575 213.832 240.023 213.832C240.258 213.832 240.482 213.816 240.695 213.784C240.908 213.752 241.015 213.736 241.015 213.736V215.032C241.015 215.032 240.892 215.053 240.647 215.096C240.402 215.139 240.108 215.16 239.767 215.16ZM246.115 215.16C245.464 215.16 244.925 215.069 244.499 214.888C244.083 214.707 243.752 214.483 243.507 214.216C243.261 213.939 243.08 213.667 242.963 213.4C242.845 213.123 242.771 212.893 242.739 212.712C242.707 212.531 242.691 212.44 242.691 212.44H244.227C244.227 212.44 244.243 212.515 244.275 212.664C244.317 212.803 244.397 212.968 244.515 213.16C244.643 213.341 244.835 213.507 245.091 213.656C245.357 213.795 245.709 213.864 246.147 213.864C246.648 213.864 247.037 213.747 247.315 213.512C247.592 213.267 247.731 212.968 247.731 212.616C247.731 212.307 247.619 212.061 247.395 211.88C247.181 211.699 246.872 211.56 246.467 211.464L245.315 211.192C244.888 211.085 244.488 210.941 244.115 210.76C243.741 210.579 243.437 210.333 243.203 210.024C242.979 209.704 242.867 209.309 242.867 208.84C242.867 208.115 243.139 207.523 243.683 207.064C244.227 206.595 244.936 206.36 245.811 206.36C246.397 206.36 246.883 206.445 247.267 206.616C247.651 206.776 247.955 206.979 248.179 207.224C248.413 207.469 248.584 207.715 248.691 207.96C248.808 208.205 248.883 208.413 248.915 208.584C248.947 208.744 248.963 208.824 248.963 208.824H247.491C247.491 208.824 247.475 208.765 247.443 208.648C247.411 208.52 247.336 208.381 247.219 208.232C247.112 208.072 246.947 207.933 246.723 207.816C246.499 207.688 246.2 207.624 245.827 207.624C245.315 207.624 244.941 207.741 244.707 207.976C244.472 208.211 244.355 208.467 244.355 208.744C244.355 209.011 244.461 209.229 244.675 209.4C244.899 209.56 245.187 209.683 245.539 209.768L246.707 210.04C247.432 210.211 248.029 210.493 248.499 210.888C248.979 211.272 249.219 211.827 249.219 212.552C249.219 213.021 249.096 213.459 248.851 213.864C248.605 214.259 248.253 214.573 247.795 214.808C247.336 215.043 246.776 215.16 246.115 215.16ZM258.839 215.16C257.932 215.16 257.17 214.952 256.551 214.536C255.932 214.109 255.463 213.56 255.143 212.888C254.823 212.216 254.663 211.507 254.663 210.76C254.663 210.003 254.823 209.293 255.143 208.632C255.463 207.96 255.932 207.416 256.551 207C257.17 206.573 257.932 206.36 258.839 206.36C259.746 206.36 260.508 206.573 261.127 207C261.746 207.416 262.215 207.96 262.535 208.632C262.855 209.293 263.015 210.003 263.015 210.76C263.015 211.507 262.855 212.216 262.535 212.888C262.215 213.56 261.746 214.109 261.127 214.536C260.508 214.952 259.746 215.16 258.839 215.16ZM258.839 213.832C259.415 213.832 259.895 213.688 260.279 213.4C260.674 213.101 260.967 212.717 261.159 212.248C261.362 211.779 261.463 211.283 261.463 210.76C261.463 210.227 261.362 209.731 261.159 209.272C260.967 208.803 260.674 208.424 260.279 208.136C259.895 207.837 259.415 207.688 258.839 207.688C258.274 207.688 257.794 207.837 257.399 208.136C257.004 208.424 256.706 208.803 256.503 209.272C256.311 209.731 256.215 210.227 256.215 210.76C256.215 211.283 256.311 211.779 256.503 212.248C256.706 212.717 257.004 213.101 257.399 213.4C257.794 213.688 258.274 213.832 258.839 213.832ZM266.952 215L264.216 206.52H265.768L267.784 212.952L269.896 206.52H271.336L273.432 212.952L275.464 206.52H277.016L274.264 215H272.632L270.616 208.744L268.6 215H266.952ZM278.698 215V206.52H280.218V207.752H280.314C280.389 207.624 280.511 207.448 280.682 207.224C280.863 207 281.119 206.803 281.45 206.632C281.781 206.451 282.197 206.36 282.698 206.36C283.317 206.36 283.845 206.504 284.282 206.792C284.719 207.069 285.05 207.448 285.274 207.928C285.509 208.408 285.626 208.947 285.626 209.544V215H284.106V209.64C284.106 209.075 283.946 208.605 283.626 208.232C283.317 207.859 282.863 207.672 282.266 207.672C281.786 207.672 281.397 207.795 281.098 208.04C280.799 208.275 280.575 208.589 280.426 208.984C280.287 209.368 280.218 209.779 280.218 210.216V215H278.698ZM291.718 218.136V206.52H293.238V207.864H293.334C293.462 207.661 293.632 207.443 293.846 207.208C294.07 206.973 294.363 206.776 294.726 206.616C295.088 206.445 295.536 206.36 296.07 206.36C296.71 206.36 297.27 206.488 297.75 206.744C298.23 206.989 298.63 207.325 298.95 207.752C299.27 208.168 299.51 208.637 299.67 209.16C299.83 209.683 299.91 210.216 299.91 210.76C299.91 211.304 299.83 211.837 299.67 212.36C299.51 212.883 299.27 213.357 298.95 213.784C298.63 214.2 298.23 214.536 297.75 214.792C297.27 215.037 296.71 215.16 296.07 215.16C295.536 215.16 295.088 215.075 294.726 214.904C294.363 214.733 294.07 214.531 293.846 214.296C293.632 214.061 293.462 213.848 293.334 213.656H293.238V218.136H291.718ZM293.27 210.76C293.27 211.272 293.36 211.768 293.542 212.248C293.734 212.717 294.016 213.107 294.39 213.416C294.774 213.715 295.248 213.864 295.814 213.864C296.39 213.864 296.864 213.715 297.238 213.416C297.622 213.107 297.904 212.717 298.086 212.248C298.278 211.768 298.374 211.272 298.374 210.76C298.374 210.237 298.278 209.741 298.086 209.272C297.904 208.803 297.622 208.419 297.238 208.12C296.864 207.811 296.39 207.656 295.814 207.656C295.248 207.656 294.774 207.811 294.39 208.12C294.016 208.419 293.734 208.803 293.542 209.272C293.36 209.741 293.27 210.237 293.27 210.76ZM305.597 206.36C306.13 206.36 306.578 206.445 306.941 206.616C307.304 206.787 307.597 206.989 307.821 207.224C308.045 207.448 308.216 207.661 308.333 207.864H308.429V206.52H309.949V215H308.429V213.656H308.333C308.216 213.859 308.045 214.077 307.821 214.312C307.597 214.547 307.304 214.749 306.941 214.92C306.578 215.08 306.13 215.16 305.597 215.16C304.957 215.16 304.397 215.037 303.917 214.792C303.437 214.536 303.037 214.2 302.717 213.784C302.397 213.357 302.157 212.883 301.997 212.36C301.837 211.837 301.757 211.304 301.757 210.76C301.757 210.216 301.837 209.683 301.997 209.16C302.157 208.637 302.397 208.168 302.717 207.752C303.037 207.325 303.437 206.989 303.917 206.744C304.397 206.488 304.957 206.36 305.597 206.36ZM305.853 207.656C305.288 207.656 304.813 207.811 304.429 208.12C304.045 208.419 303.757 208.803 303.565 209.272C303.384 209.741 303.293 210.237 303.293 210.76C303.293 211.272 303.384 211.768 303.565 212.248C303.757 212.717 304.045 213.107 304.429 213.416C304.813 213.715 305.288 213.864 305.853 213.864C306.418 213.864 306.888 213.715 307.261 213.416C307.645 213.107 307.928 212.717 308.109 212.248C308.301 211.768 308.397 211.272 308.397 210.76C308.397 210.237 308.301 209.741 308.109 209.272C307.928 208.803 307.645 208.419 307.261 208.12C306.888 207.811 306.418 207.656 305.853 207.656ZM316.199 215.16C315.505 215.16 314.897 215.037 314.375 214.792C313.852 214.536 313.415 214.2 313.062 213.784C312.721 213.357 312.46 212.883 312.279 212.36C312.108 211.837 312.023 211.304 312.023 210.76C312.023 210.216 312.108 209.688 312.279 209.176C312.449 208.653 312.705 208.179 313.047 207.752C313.399 207.325 313.836 206.989 314.359 206.744C314.881 206.488 315.495 206.36 316.199 206.36C316.881 206.36 317.447 206.461 317.895 206.664C318.343 206.867 318.7 207.123 318.967 207.432C319.244 207.731 319.447 208.035 319.575 208.344C319.713 208.643 319.804 208.893 319.847 209.096C319.889 209.299 319.911 209.4 319.911 209.4H318.439C318.439 209.4 318.412 209.315 318.359 209.144C318.305 208.963 318.204 208.76 318.055 208.536C317.905 208.312 317.681 208.115 317.383 207.944C317.084 207.763 316.689 207.672 316.199 207.672C315.612 207.672 315.116 207.821 314.711 208.12C314.316 208.408 314.017 208.787 313.815 209.256C313.623 209.725 313.527 210.227 313.527 210.76C313.527 211.293 313.623 211.795 313.815 212.264C314.017 212.733 314.316 213.117 314.711 213.416C315.116 213.704 315.612 213.848 316.199 213.848C316.689 213.848 317.084 213.763 317.383 213.592C317.681 213.411 317.905 213.208 318.055 212.984C318.204 212.76 318.305 212.563 318.359 212.392C318.412 212.211 318.439 212.12 318.439 212.12H319.911C319.911 212.12 319.889 212.221 319.847 212.424C319.804 212.627 319.713 212.883 319.575 213.192C319.447 213.491 319.244 213.795 318.967 214.104C318.7 214.403 318.343 214.653 317.895 214.856C317.447 215.059 316.881 215.16 316.199 215.16ZM325.851 215.16C325.158 215.16 324.555 215.037 324.043 214.792C323.542 214.536 323.126 214.195 322.795 213.768C322.475 213.341 322.235 212.872 322.075 212.36C321.915 211.837 321.835 211.304 321.835 210.76C321.835 210.227 321.91 209.699 322.059 209.176C322.219 208.653 322.459 208.179 322.779 207.752C323.11 207.325 323.52 206.989 324.011 206.744C324.512 206.488 325.104 206.36 325.787 206.36C326.512 206.36 327.152 206.525 327.707 206.856C328.262 207.187 328.699 207.677 329.019 208.328C329.339 208.979 329.499 209.795 329.499 210.776V211.224H323.371C323.403 211.704 323.515 212.147 323.707 212.552C323.91 212.947 324.192 213.267 324.555 213.512C324.918 213.747 325.35 213.864 325.851 213.864C326.288 213.864 326.64 213.795 326.907 213.656C327.184 213.507 327.403 213.336 327.563 213.144C327.723 212.952 327.83 212.787 327.883 212.648C327.947 212.499 327.979 212.424 327.979 212.424H329.403C329.403 212.424 329.376 212.52 329.323 212.712C329.27 212.893 329.174 213.117 329.035 213.384C328.896 213.651 328.694 213.923 328.427 214.2C328.16 214.467 327.819 214.696 327.403 214.888C326.987 215.069 326.47 215.16 325.851 215.16ZM323.387 210.04H328.011C327.99 209.485 327.872 209.037 327.659 208.696C327.446 208.344 327.174 208.083 326.843 207.912C326.512 207.741 326.16 207.656 325.787 207.656C325.115 207.656 324.566 207.875 324.139 208.312C323.712 208.739 323.462 209.315 323.387 210.04ZM28.8 230.36C29.3333 230.36 29.7813 230.445 30.144 230.616C30.5067 230.787 30.8 230.989 31.024 231.224C31.248 231.448 31.4187 231.661 31.536 231.864H31.632V230.52H33.152V239H31.632V237.656H31.536C31.4187 237.859 31.248 238.077 31.024 238.312C30.8 238.547 30.5067 238.749 30.144 238.92C29.7813 239.08 29.3333 239.16 28.8 239.16C28.16 239.16 27.6 239.037 27.12 238.792C26.64 238.536 26.24 238.2 25.92 237.784C25.6 237.357 25.36 236.883 25.2 236.36C25.04 235.837 24.96 235.304 24.96 234.76C24.96 234.216 25.04 233.683 25.2 233.16C25.36 232.637 25.6 232.168 25.92 231.752C26.24 231.325 26.64 230.989 27.12 230.744C27.6 230.488 28.16 230.36 28.8 230.36ZM29.056 231.656C28.4907 231.656 28.016 231.811 27.632 232.12C27.248 232.419 26.96 232.803 26.768 233.272C26.5867 233.741 26.496 234.237 26.496 234.76C26.496 235.272 26.5867 235.768 26.768 236.248C26.96 236.717 27.248 237.107 27.632 237.416C28.016 237.715 28.4907 237.864 29.056 237.864C29.6213 237.864 30.0907 237.715 30.464 237.416C30.848 237.107 31.1307 236.717 31.312 236.248C31.504 235.768 31.6 235.272 31.6 234.76C31.6 234.237 31.504 233.741 31.312 233.272C31.1307 232.803 30.848 232.419 30.464 232.12C30.0907 231.811 29.6213 231.656 29.056 231.656ZM35.3856 239V230.52H36.9056V231.752H37.0016C37.0763 231.624 37.199 231.448 37.3696 231.224C37.551 231 37.807 230.803 38.1376 230.632C38.4683 230.451 38.8843 230.36 39.3856 230.36C40.0043 230.36 40.5323 230.504 40.9696 230.792C41.407 231.069 41.7376 231.448 41.9616 231.928C42.1963 232.408 42.3136 232.947 42.3136 233.544V239H40.7936V233.64C40.7936 233.075 40.6336 232.605 40.3136 232.232C40.0043 231.859 39.551 231.672 38.9536 231.672C38.4736 231.672 38.0843 231.795 37.7856 232.04C37.487 232.275 37.263 232.589 37.1136 232.984C36.975 233.368 36.9056 233.779 36.9056 234.216V239H35.3856ZM48.2375 239.16C47.5975 239.16 47.0375 239.037 46.5575 238.792C46.0775 238.536 45.6775 238.2 45.3575 237.784C45.0375 237.357 44.7975 236.883 44.6375 236.36C44.4775 235.837 44.3975 235.304 44.3975 234.76C44.3975 234.216 44.4775 233.683 44.6375 233.16C44.7975 232.637 45.0375 232.168 45.3575 231.752C45.6775 231.325 46.0775 230.989 46.5575 230.744C47.0375 230.488 47.5975 230.36 48.2375 230.36C48.7708 230.36 49.2188 230.445 49.5815 230.616C49.9442 230.787 50.2375 230.989 50.4615 231.224C50.6855 231.448 50.8562 231.661 50.9735 231.864H51.0695V226.84H52.5895V239H51.0695V237.656H50.9735C50.8562 237.859 50.6855 238.077 50.4615 238.312C50.2375 238.547 49.9442 238.749 49.5815 238.92C49.2188 239.08 48.7708 239.16 48.2375 239.16ZM48.4935 237.864C49.0588 237.864 49.5282 237.715 49.9015 237.416C50.2855 237.107 50.5682 236.717 50.7495 236.248C50.9415 235.768 51.0375 235.272 51.0375 234.76C51.0375 234.237 50.9415 233.741 50.7495 233.272C50.5682 232.803 50.2855 232.419 49.9015 232.12C49.5282 231.811 49.0588 231.656 48.4935 231.656C47.9282 231.656 47.4535 231.811 47.0695 232.12C46.6855 232.419 46.3975 232.803 46.2055 233.272C46.0242 233.741 45.9335 234.237 45.9335 234.76C45.9335 235.272 46.0242 235.768 46.2055 236.248C46.3975 236.717 46.6855 237.107 47.0695 237.416C47.4535 237.715 47.9282 237.864 48.4935 237.864ZM58.6825 239V230.52H60.2025V231.752H60.2665C60.3518 231.592 60.4852 231.405 60.6665 231.192C60.8478 230.968 61.0932 230.776 61.4025 230.616C61.7225 230.445 62.1225 230.36 62.6025 230.36C63.2318 230.36 63.7598 230.515 64.1865 230.824C64.6238 231.123 64.9492 231.528 65.1625 232.04H65.1785C65.4132 231.571 65.7438 231.176 66.1705 230.856C66.6078 230.525 67.1732 230.36 67.8665 230.36C68.7838 230.36 69.4878 230.675 69.9785 231.304C70.4798 231.923 70.7305 232.723 70.7305 233.704V239H69.2105V233.784C69.2105 233.155 69.0612 232.648 68.7625 232.264C68.4638 231.869 68.0318 231.672 67.4665 231.672C66.9758 231.672 66.5812 231.805 66.2825 232.072C65.9945 232.339 65.7865 232.669 65.6585 233.064C65.5305 233.459 65.4665 233.853 65.4665 234.248V239H63.9465V233.784C63.9465 233.155 63.7972 232.648 63.4985 232.264C63.2105 231.869 62.7785 231.672 62.2025 231.672C61.7118 231.672 61.3172 231.805 61.0185 232.072C60.7305 232.339 60.5225 232.675 60.3945 233.08C60.2665 233.475 60.2025 233.864 60.2025 234.248V239H58.6825ZM76.9798 239.16C76.0731 239.16 75.3104 238.952 74.6918 238.536C74.0731 238.109 73.6038 237.56 73.2838 236.888C72.9638 236.216 72.8038 235.507 72.8038 234.76C72.8038 234.003 72.9638 233.293 73.2838 232.632C73.6038 231.96 74.0731 231.416 74.6918 231C75.3104 230.573 76.0731 230.36 76.9798 230.36C77.8864 230.36 78.6491 230.573 79.2678 231C79.8864 231.416 80.3558 231.96 80.6758 232.632C80.9958 233.293 81.1558 234.003 81.1558 234.76C81.1558 235.507 80.9958 236.216 80.6758 236.888C80.3558 237.56 79.8864 238.109 79.2678 238.536C78.6491 238.952 77.8864 239.16 76.9798 239.16ZM76.9798 237.832C77.5558 237.832 78.0358 237.688 78.4198 237.4C78.8144 237.101 79.1078 236.717 79.2998 236.248C79.5024 235.779 79.6038 235.283 79.6038 234.76C79.6038 234.227 79.5024 233.731 79.2998 233.272C79.1078 232.803 78.8144 232.424 78.4198 232.136C78.0358 231.837 77.5558 231.688 76.9798 231.688C76.4144 231.688 75.9344 231.837 75.5398 232.136C75.1451 232.424 74.8464 232.803 74.6438 233.272C74.4518 233.731 74.3558 234.227 74.3558 234.76C74.3558 235.283 74.4518 235.779 74.6438 236.248C74.8464 236.717 75.1451 237.101 75.5398 237.4C75.9344 237.688 76.4144 237.832 76.9798 237.832ZM83.2294 239V230.52H84.7494V231.752H84.8134C84.8987 231.592 85.032 231.405 85.2134 231.192C85.3947 230.968 85.64 230.776 85.9494 230.616C86.2694 230.445 86.6694 230.36 87.1494 230.36C87.7787 230.36 88.3067 230.515 88.7334 230.824C89.1707 231.123 89.496 231.528 89.7094 232.04H89.7254C89.96 231.571 90.2907 231.176 90.7174 230.856C91.1547 230.525 91.72 230.36 92.4134 230.36C93.3307 230.36 94.0347 230.675 94.5254 231.304C95.0267 231.923 95.2774 232.723 95.2774 233.704V239H93.7574V233.784C93.7574 233.155 93.608 232.648 93.3094 232.264C93.0107 231.869 92.5787 231.672 92.0134 231.672C91.5227 231.672 91.128 231.805 90.8294 232.072C90.5414 232.339 90.3334 232.669 90.2054 233.064C90.0774 233.459 90.0134 233.853 90.0134 234.248V239H88.4934V233.784C88.4934 233.155 88.344 232.648 88.0454 232.264C87.7574 231.869 87.3254 231.672 86.7494 231.672C86.2587 231.672 85.864 231.805 85.5654 232.072C85.2774 232.339 85.0694 232.675 84.9414 233.08C84.8134 233.475 84.7494 233.864 84.7494 234.248V239H83.2294ZM101.367 239.16C100.673 239.16 100.071 239.037 99.5586 238.792C99.0573 238.536 98.6413 238.195 98.3106 237.768C97.9906 237.341 97.7506 236.872 97.5906 236.36C97.4306 235.837 97.3506 235.304 97.3506 234.76C97.3506 234.227 97.4253 233.699 97.5746 233.176C97.7346 232.653 97.9746 232.179 98.2946 231.752C98.6253 231.325 99.036 230.989 99.5266 230.744C100.028 230.488 100.62 230.36 101.303 230.36C102.028 230.36 102.668 230.525 103.223 230.856C103.777 231.187 104.215 231.677 104.535 232.328C104.855 232.979 105.015 233.795 105.015 234.776V235.224H98.8866C98.9186 235.704 99.0306 236.147 99.2226 236.552C99.4253 236.947 99.708 237.267 100.071 237.512C100.433 237.747 100.865 237.864 101.367 237.864C101.804 237.864 102.156 237.795 102.423 237.656C102.7 237.507 102.919 237.336 103.079 237.144C103.239 236.952 103.345 236.787 103.399 236.648C103.463 236.499 103.495 236.424 103.495 236.424H104.919C104.919 236.424 104.892 236.52 104.839 236.712C104.785 236.893 104.689 237.117 104.551 237.384C104.412 237.651 104.209 237.923 103.943 238.2C103.676 238.467 103.335 238.696 102.919 238.888C102.503 239.069 101.985 239.16 101.367 239.16ZM98.9026 234.04H103.527C103.505 233.485 103.388 233.037 103.175 232.696C102.961 232.344 102.689 232.083 102.359 231.912C102.028 231.741 101.676 231.656 101.303 231.656C100.631 231.656 100.081 231.875 99.6546 232.312C99.228 232.739 98.9773 233.315 98.9026 234.04ZM107.089 239V230.52H108.609V231.752H108.705C108.779 231.624 108.902 231.448 109.073 231.224C109.254 231 109.51 230.803 109.841 230.632C110.171 230.451 110.587 230.36 111.089 230.36C111.707 230.36 112.235 230.504 112.673 230.792C113.11 231.069 113.441 231.448 113.665 231.928C113.899 232.408 114.017 232.947 114.017 233.544V239H112.497V233.64C112.497 233.075 112.337 232.605 112.017 232.232C111.707 231.859 111.254 231.672 110.657 231.672C110.177 231.672 109.787 231.795 109.489 232.04C109.19 232.275 108.966 232.589 108.817 232.984C108.678 233.368 108.609 233.779 108.609 234.216V239H107.089ZM119.548 239.16C118.673 239.16 118.012 238.936 117.564 238.488C117.127 238.04 116.908 237.411 116.908 236.6V231.768H115.388V230.52H116.908V228.392H118.428V230.52H120.492V231.768H118.428V236.6C118.428 237.027 118.545 237.341 118.78 237.544C119.015 237.736 119.356 237.832 119.804 237.832C120.039 237.832 120.263 237.816 120.476 237.784C120.689 237.752 120.796 237.736 120.796 237.736V239.032C120.796 239.032 120.673 239.053 120.428 239.096C120.183 239.139 119.889 239.16 119.548 239.16ZM125.56 239.16C124.717 239.16 124.045 238.899 123.544 238.376C123.043 237.853 122.792 237.128 122.792 236.2V230.52H124.312V236.12C124.312 236.675 124.461 237.101 124.76 237.4C125.069 237.699 125.475 237.848 125.976 237.848C126.488 237.848 126.899 237.715 127.208 237.448C127.517 237.181 127.741 236.84 127.88 236.424C128.019 236.008 128.088 235.581 128.088 235.144V230.52H129.608V239H128.088V237.784H127.992C127.928 237.912 127.805 238.088 127.624 238.312C127.443 238.525 127.187 238.723 126.856 238.904C126.525 239.075 126.093 239.16 125.56 239.16ZM131.854 239V230.52H133.374V231.752H133.438C133.524 231.592 133.657 231.405 133.838 231.192C134.02 230.968 134.265 230.776 134.574 230.616C134.894 230.445 135.294 230.36 135.774 230.36C136.404 230.36 136.932 230.515 137.358 230.824C137.796 231.123 138.121 231.528 138.334 232.04H138.35C138.585 231.571 138.916 231.176 139.342 230.856C139.78 230.525 140.345 230.36 141.038 230.36C141.956 230.36 142.66 230.675 143.15 231.304C143.652 231.923 143.902 232.723 143.902 233.704V239H142.382V233.784C142.382 233.155 142.233 232.648 141.934 232.264C141.636 231.869 141.204 231.672 140.638 231.672C140.148 231.672 139.753 231.805 139.454 232.072C139.166 232.339 138.958 232.669 138.83 233.064C138.702 233.459 138.638 233.853 138.638 234.248V239H137.118V233.784C137.118 233.155 136.969 232.648 136.67 232.264C136.382 231.869 135.95 231.672 135.374 231.672C134.884 231.672 134.489 231.805 134.19 232.072C133.902 232.339 133.694 232.675 133.566 233.08C133.438 233.475 133.374 233.864 133.374 234.248V239H131.854ZM147.304 239.16C147.005 239.16 146.754 239.059 146.552 238.856C146.36 238.643 146.264 238.397 146.264 238.12C146.264 237.832 146.36 237.587 146.552 237.384C146.754 237.181 147.005 237.08 147.304 237.08C147.602 237.08 147.848 237.181 148.04 237.384C148.242 237.587 148.344 237.832 148.344 238.12C148.344 238.408 148.242 238.653 148.04 238.856C147.848 239.059 147.602 239.16 147.304 239.16Z" fill="white" fill-opacity="0.72"/>
<path opacity="0.1" d="M275.8 95.4C271.733 95.4 268.2 94.5667 265.2 92.9C262.2 91.1667 259.7 88.7667 257.7 85.7C255.7 82.6333 254.2 79.0333 253.2 74.9C252.2 70.7667 251.7 66.2333 251.7 61.3C251.7 54.1 252.667 47.9333 254.6 42.8C256.6 37.6 259.433 33.6333 263.1 30.9C266.767 28.1 271.133 26.7 276.2 26.7C281.4 26.7 285.767 28.1333 289.3 31C292.9 33.8 295.633 37.7667 297.5 42.9C299.367 48.0333 300.3 54.0667 300.3 61C300.3 65.9333 299.767 70.5 298.7 74.7C297.7 78.9 296.167 82.5667 294.1 85.7C292.1 88.7667 289.567 91.1667 286.5 92.9C283.433 94.5667 279.867 95.4 275.8 95.4ZM276 87.4C278.4 87.4 280.533 86.8333 282.4 85.7C284.267 84.5667 285.833 82.9 287.1 80.7C288.367 78.4333 289.3 75.7 289.9 72.5C290.567 69.2333 290.9 65.5333 290.9 61.4C290.9 55.8667 290.333 51.1 289.2 47.1C288.067 43.1 286.4 40.0333 284.2 37.9C282 35.7667 279.267 34.7 276 34.7C273.6 34.7 271.467 35.3 269.6 36.5C267.733 37.6333 266.167 39.3333 264.9 41.6C263.633 43.8667 262.667 46.6667 262 50C261.333 53.2667 261 57 261 61.2C261 65.4 261.3 69.1333 261.9 72.4C262.567 75.6 263.533 78.3333 264.8 80.6C266.133 82.8 267.733 84.5 269.6 85.7C271.467 86.8333 273.6 87.4 276 87.4ZM330.257 95.4C326.057 95.4 322.424 94.9333 319.357 94C316.357 93.1333 313.857 91.8333 311.857 90.1C309.924 88.3667 308.524 86.2667 307.657 83.8C306.857 81.2667 306.624 78.4 306.957 75.2L315.757 73.8C315.29 76.6 315.457 78.9 316.257 80.7C317.057 82.5 318.224 83.9 319.757 84.9C321.357 85.9 323.124 86.6 325.057 87C327.057 87.4 328.957 87.6 330.757 87.6C333.557 87.6 336.19 87.2 338.657 86.4C341.124 85.5333 343.09 84.2 344.557 82.4C346.09 80.6 346.857 78.1333 346.857 75C346.857 71.3333 345.824 68.5 343.757 66.5C341.69 64.4333 338.69 63.0667 334.757 62.4C330.89 61.6667 326.124 61.4 320.457 61.6V55.3L342.257 36.4V36H309.657V28H352.557V37L330.757 55.8V56.4C335.357 56.3333 339.257 56.7667 342.457 57.7C345.724 58.6333 348.357 59.9667 350.357 61.7C352.424 63.3667 353.924 65.3667 354.857 67.7C355.79 70.0333 356.257 72.6 356.257 75.4C356.257 79.4667 355.257 83 353.257 86C351.324 89 348.424 91.3333 344.557 93C340.757 94.6 335.99 95.4 330.257 95.4Z" fill="white"/>
</svg>
