<svg width="272" height="59" viewBox="0 0 272 59" fill="none" xmlns="http://www.w3.org/2000/svg">
<path d="M0.500488 29.5C0.500488 13.4837 13.4842 0.5 29.5005 0.5H239.5C257.173 0.5 271.5 14.8269 271.5 32.5V58.5H29.5005C13.4842 58.5 0.500488 45.5163 0.500488 29.5Z" fill="#EFEBA2"/>
<path d="M54.4419 32.5123V14.4375C54.4419 13.9197 54.0222 13.5 53.5044 13.5H37.438C36.9202 13.5 36.5005 13.9197 36.5005 14.4375V32.5123C36.5005 33.0301 36.9202 33.4498 37.438 33.4498H39.1247V37.5331C39.1247 38.0521 39.5463 38.4706 40.062 38.4706C40.3059 38.4706 40.5458 38.3754 40.7251 38.1959L45.4712 33.4498H53.5044C54.0222 33.4498 54.4419 33.0301 54.4419 32.5123ZM50.3868 28.7619C50.266 29.1695 49.8928 29.4334 49.4882 29.4334C49.155 29.4334 47.3054 28.9074 45.4745 27.39C43.7343 28.7881 41.7479 29.4334 41.4545 29.4334C41.0614 29.4334 40.6953 29.1843 40.5648 28.7908C40.4019 28.2993 40.6681 27.7688 41.1596 27.6059C42.3431 27.212 43.322 26.6765 44.1288 26.0589C43.8668 25.7489 43.6141 25.4134 43.376 25.0506L42.6794 23.9894C42.3952 23.5566 42.5157 22.9753 42.9485 22.6912C43.3814 22.407 43.9626 22.5276 44.2467 22.9604L44.9436 24.0219C45.1137 24.281 45.297 24.5297 45.4922 24.7676C46.4244 23.6755 46.988 22.4775 47.3066 21.4H41.4546C40.9369 21.4 40.5171 20.9802 40.5171 20.4625C40.5171 19.9447 40.9369 19.525 41.4546 19.525H44.5338V18.4541C44.5338 17.9364 44.9535 17.5166 45.4713 17.5166C45.989 17.5166 46.4088 17.9364 46.4088 18.4541V19.5249H49.4879C50.0056 19.5249 50.4253 19.9447 50.4253 20.4624C50.4253 20.9802 50.0056 21.3999 49.4879 21.3999H49.2473C48.893 22.8508 48.1656 24.5593 46.8351 26.0839C47.6976 26.7639 48.6871 27.2807 49.7541 27.5968C50.2505 27.7438 50.5338 28.2655 50.3868 28.7619Z" fill="#0E0606"/>
<path d="M67.5621 20.5295H56.3164V31.4553L57.3717 27.2339C57.6195 26.2426 58.5063 25.5502 59.5284 25.5502C60.5513 25.5502 61.4382 26.2425 61.686 27.2338L63.4508 34.2936C63.5764 34.7959 63.271 35.3049 62.7687 35.4305C62.2664 35.556 61.7574 35.2506 61.6318 34.7483L61.3073 33.4502H57.7503L57.4258 34.7483C57.3003 35.2506 56.7913 35.556 56.289 35.4305C55.8222 35.3138 55.526 34.866 55.5871 34.4001C55.0722 34.968 54.329 35.3251 53.5039 35.3251H50.5581V39.5418C50.5581 40.0595 50.9779 40.4793 51.4956 40.4793H59.5288L64.275 45.2254C64.4543 45.4048 64.6941 45.5 64.938 45.5C65.4537 45.5 65.8753 45.0816 65.8753 44.5625V40.4793H67.5621C68.0799 40.4793 68.4996 40.0595 68.4996 39.5418V21.467C68.4996 20.9492 68.0799 20.5295 67.5621 20.5295Z" fill="#0E0606"/>
<path d="M59.53 27.4248C59.369 27.4248 59.2301 27.5331 59.1913 27.6882L58.2197 31.5748H60.8392L59.8676 27.6882C59.8288 27.5331 59.69 27.4248 59.53 27.4248Z" fill="#0E0606"/>
<path d="M82.88 40.5V18.06H87.164V40.5H82.88ZM83.866 40.5V36.828H96.854V40.5H83.866ZM103.826 40.942C102.874 40.942 102.001 40.7607 101.208 40.398C100.437 40.0353 99.8249 39.4913 99.3716 38.766C98.9183 38.018 98.6916 37.0773 98.6916 35.944C98.6916 34.992 98.8729 34.1873 99.2356 33.53C99.5983 32.8727 100.131 32.3287 100.834 31.898C101.536 31.4673 102.386 31.1273 103.384 30.878C104.404 30.606 105.56 30.3793 106.852 30.198C107.713 30.0393 108.404 29.9033 108.926 29.79C109.447 29.6767 109.821 29.5067 110.048 29.28C110.274 29.0533 110.388 28.7133 110.388 28.26C110.388 27.512 110.127 26.9 109.606 26.424C109.084 25.9253 108.291 25.676 107.226 25.676C106.591 25.676 105.979 25.7893 105.39 26.016C104.8 26.22 104.29 26.5713 103.86 27.07C103.452 27.5687 103.18 28.226 103.044 29.042L99.2016 28.056C99.3829 27.0587 99.7116 26.1973 100.188 25.472C100.664 24.7467 101.253 24.146 101.956 23.67C102.681 23.194 103.497 22.8427 104.404 22.616C105.333 22.3893 106.319 22.276 107.362 22.276C108.971 22.276 110.308 22.548 111.374 23.092C112.462 23.636 113.266 24.4747 113.788 25.608C114.332 26.7413 114.604 28.1807 114.604 29.926V33.224C114.604 33.9947 114.615 34.7993 114.638 35.638C114.66 36.454 114.694 37.27 114.74 38.086C114.785 38.902 114.842 39.7067 114.91 40.5H111.068C111.022 39.7973 110.977 39.0607 110.932 38.29C110.886 37.5193 110.852 36.726 110.83 35.91H110.354C110.082 36.8393 109.651 37.6893 109.062 38.46C108.472 39.2307 107.736 39.8427 106.852 40.296C105.99 40.7267 104.982 40.942 103.826 40.942ZM105.492 37.746C105.968 37.746 106.444 37.6667 106.92 37.508C107.418 37.3267 107.894 37.066 108.348 36.726C108.801 36.3633 109.209 35.9213 109.572 35.4C109.934 34.8787 110.229 34.2553 110.456 33.53L110.422 31.048L111.238 31.116C110.898 31.456 110.456 31.7167 109.912 31.898C109.368 32.0567 108.778 32.1927 108.144 32.306C107.532 32.3967 106.908 32.4987 106.274 32.612C105.662 32.7253 105.095 32.884 104.574 33.088C104.075 33.292 103.667 33.5753 103.35 33.938C103.055 34.278 102.908 34.754 102.908 35.366C102.908 36.114 103.146 36.7033 103.622 37.134C104.098 37.542 104.721 37.746 105.492 37.746ZM118.734 40.5V30.028V22.752H122.372L122.236 28.736H122.78C123.052 27.2853 123.448 26.084 123.97 25.132C124.491 24.18 125.171 23.466 126.01 22.99C126.848 22.514 127.846 22.276 129.002 22.276C131.019 22.276 132.538 22.99 133.558 24.418C134.6 25.8233 135.122 27.988 135.122 30.912V40.5H130.804V31.354C130.804 29.4953 130.52 28.1353 129.954 27.274C129.41 26.39 128.594 25.948 127.506 25.948C126.554 25.948 125.749 26.254 125.092 26.866C124.434 27.4553 123.936 28.2827 123.596 29.348C123.256 30.4133 123.074 31.6373 123.052 33.02V40.5H118.734ZM146.09 46.416C144.14 46.416 142.554 46.2687 141.33 45.974C140.128 45.6793 139.244 45.2373 138.678 44.648C138.134 44.0587 137.862 43.356 137.862 42.54C137.862 41.52 138.27 40.6813 139.086 40.024C139.902 39.3667 141.114 38.9473 142.724 38.766V38.188C141.5 38.188 140.57 38.052 139.936 37.78C139.301 37.4853 138.984 37.0093 138.984 36.352C138.984 35.74 139.29 35.196 139.902 34.72C140.536 34.244 141.579 33.87 143.03 33.598V33.02C141.647 32.9067 140.57 32.442 139.8 31.626C139.052 30.81 138.678 29.756 138.678 28.464C138.678 27.308 138.984 26.2993 139.596 25.438C140.23 24.554 141.148 23.8627 142.35 23.364C143.574 22.8653 145.047 22.616 146.77 22.616H155.576V26.016L149.898 25.2V25.846C151.371 26.0727 152.436 26.4807 153.094 27.07C153.774 27.6593 154.114 28.43 154.114 29.382C154.114 30.3113 153.819 31.1387 153.23 31.864C152.663 32.5667 151.824 33.122 150.714 33.53C149.626 33.9153 148.288 34.108 146.702 34.108C146.362 34.108 146.01 34.0967 145.648 34.074C145.285 34.0287 144.786 33.9607 144.152 33.87C143.63 34.21 143.222 34.5047 142.928 34.754C142.633 35.0033 142.486 35.2413 142.486 35.468C142.486 35.6493 142.588 35.7967 142.792 35.91C143.018 36.0007 143.29 36.0687 143.608 36.114C143.948 36.1593 144.288 36.182 144.628 36.182H149.524C149.954 36.182 150.521 36.216 151.224 36.284C151.949 36.352 152.663 36.5333 153.366 36.828C154.091 37.1 154.692 37.5533 155.168 38.188C155.666 38.8227 155.916 39.7067 155.916 40.84C155.916 42.132 155.553 43.186 154.828 44.002C154.102 44.8407 153.014 45.4527 151.564 45.838C150.113 46.2233 148.288 46.416 146.09 46.416ZM146.362 42.88C147.835 42.88 148.991 42.8007 149.83 42.642C150.668 42.4833 151.258 42.234 151.598 41.894C151.96 41.5767 152.142 41.1687 152.142 40.67C152.142 40.194 152.028 39.82 151.802 39.548C151.575 39.276 151.28 39.0833 150.918 38.97C150.578 38.8567 150.226 38.7887 149.864 38.766C149.501 38.7433 149.184 38.732 148.912 38.732H144.662C143.619 38.936 142.882 39.242 142.452 39.65C142.044 40.058 141.84 40.5227 141.84 41.044C141.84 41.5653 142.021 41.9507 142.384 42.2C142.746 42.472 143.268 42.6533 143.948 42.744C144.628 42.8347 145.432 42.88 146.362 42.88ZM146.566 31.694C147.699 31.694 148.56 31.422 149.15 30.878C149.762 30.334 150.068 29.6087 150.068 28.702C150.068 27.75 149.762 26.968 149.15 26.356C148.538 25.744 147.665 25.438 146.532 25.438C145.398 25.438 144.514 25.744 143.88 26.356C143.245 26.9453 142.928 27.7047 142.928 28.634C142.928 29.246 143.064 29.79 143.336 30.266C143.63 30.7193 144.05 31.0707 144.594 31.32C145.138 31.5693 145.795 31.694 146.566 31.694ZM164.824 40.942C162.807 40.942 161.288 40.2507 160.268 38.868C159.248 37.4627 158.738 35.3207 158.738 32.442V22.752H163.056V32.068C163.056 33.8587 163.317 35.1847 163.838 36.046C164.359 36.8847 165.175 37.304 166.286 37.304C166.943 37.304 167.521 37.1453 168.02 36.828C168.541 36.488 168.983 36.0233 169.346 35.434C169.709 34.822 169.992 34.0967 170.196 33.258C170.4 32.3967 170.525 31.4333 170.57 30.368V22.752H174.854V32.884V40.5H171.25L171.386 34.516H170.842C170.57 36.012 170.173 37.236 169.652 38.188C169.153 39.14 168.496 39.8427 167.68 40.296C166.887 40.7267 165.935 40.942 164.824 40.942ZM183.38 40.942C182.428 40.942 181.556 40.7607 180.762 40.398C179.992 40.0353 179.38 39.4913 178.926 38.766C178.473 38.018 178.246 37.0773 178.246 35.944C178.246 34.992 178.428 34.1873 178.79 33.53C179.153 32.8727 179.686 32.3287 180.388 31.898C181.091 31.4673 181.941 31.1273 182.938 30.878C183.958 30.606 185.114 30.3793 186.406 30.198C187.268 30.0393 187.959 29.9033 188.48 29.79C189.002 29.6767 189.376 29.5067 189.602 29.28C189.829 29.0533 189.942 28.7133 189.942 28.26C189.942 27.512 189.682 26.9 189.16 26.424C188.639 25.9253 187.846 25.676 186.78 25.676C186.146 25.676 185.534 25.7893 184.944 26.016C184.355 26.22 183.845 26.5713 183.414 27.07C183.006 27.5687 182.734 28.226 182.598 29.042L178.756 28.056C178.938 27.0587 179.266 26.1973 179.742 25.472C180.218 24.7467 180.808 24.146 181.51 23.67C182.236 23.194 183.052 22.8427 183.958 22.616C184.888 22.3893 185.874 22.276 186.916 22.276C188.526 22.276 189.863 22.548 190.928 23.092C192.016 23.636 192.821 24.4747 193.342 25.608C193.886 26.7413 194.158 28.1807 194.158 29.926V33.224C194.158 33.9947 194.17 34.7993 194.192 35.638C194.215 36.454 194.249 37.27 194.294 38.086C194.34 38.902 194.396 39.7067 194.464 40.5H190.622C190.577 39.7973 190.532 39.0607 190.486 38.29C190.441 37.5193 190.407 36.726 190.384 35.91H189.908C189.636 36.8393 189.206 37.6893 188.616 38.46C188.027 39.2307 187.29 39.8427 186.406 40.296C185.545 40.7267 184.536 40.942 183.38 40.942ZM185.046 37.746C185.522 37.746 185.998 37.6667 186.474 37.508C186.973 37.3267 187.449 37.066 187.902 36.726C188.356 36.3633 188.764 35.9213 189.126 35.4C189.489 34.8787 189.784 34.2553 190.01 33.53L189.976 31.048L190.792 31.116C190.452 31.456 190.01 31.7167 189.466 31.898C188.922 32.0567 188.333 32.1927 187.698 32.306C187.086 32.3967 186.463 32.4987 185.828 32.612C185.216 32.7253 184.65 32.884 184.128 33.088C183.63 33.292 183.222 33.5753 182.904 33.938C182.61 34.278 182.462 34.754 182.462 35.366C182.462 36.114 182.7 36.7033 183.176 37.134C183.652 37.542 184.276 37.746 185.046 37.746ZM205.224 46.416C203.275 46.416 201.688 46.2687 200.464 45.974C199.263 45.6793 198.379 45.2373 197.812 44.648C197.268 44.0587 196.996 43.356 196.996 42.54C196.996 41.52 197.404 40.6813 198.22 40.024C199.036 39.3667 200.249 38.9473 201.858 38.766V38.188C200.634 38.188 199.705 38.052 199.07 37.78C198.436 37.4853 198.118 37.0093 198.118 36.352C198.118 35.74 198.424 35.196 199.036 34.72C199.671 34.244 200.714 33.87 202.164 33.598V33.02C200.782 32.9067 199.705 32.442 198.934 31.626C198.186 30.81 197.812 29.756 197.812 28.464C197.812 27.308 198.118 26.2993 198.73 25.438C199.365 24.554 200.283 23.8627 201.484 23.364C202.708 22.8653 204.182 22.616 205.904 22.616H214.71V26.016L209.032 25.2V25.846C210.506 26.0727 211.571 26.4807 212.228 27.07C212.908 27.6593 213.248 28.43 213.248 29.382C213.248 30.3113 212.954 31.1387 212.364 31.864C211.798 32.5667 210.959 33.122 209.848 33.53C208.76 33.9153 207.423 34.108 205.836 34.108C205.496 34.108 205.145 34.0967 204.782 34.074C204.42 34.0287 203.921 33.9607 203.286 33.87C202.765 34.21 202.357 34.5047 202.062 34.754C201.768 35.0033 201.62 35.2413 201.62 35.468C201.62 35.6493 201.722 35.7967 201.926 35.91C202.153 36.0007 202.425 36.0687 202.742 36.114C203.082 36.1593 203.422 36.182 203.762 36.182H208.658C209.089 36.182 209.656 36.216 210.358 36.284C211.084 36.352 211.798 36.5333 212.5 36.828C213.226 37.1 213.826 37.5533 214.302 38.188C214.801 38.8227 215.05 39.7067 215.05 40.84C215.05 42.132 214.688 43.186 213.962 44.002C213.237 44.8407 212.149 45.4527 210.698 45.838C209.248 46.2233 207.423 46.416 205.224 46.416ZM205.496 42.88C206.97 42.88 208.126 42.8007 208.964 42.642C209.803 42.4833 210.392 42.234 210.732 41.894C211.095 41.5767 211.276 41.1687 211.276 40.67C211.276 40.194 211.163 39.82 210.936 39.548C210.71 39.276 210.415 39.0833 210.052 38.97C209.712 38.8567 209.361 38.7887 208.998 38.766C208.636 38.7433 208.318 38.732 208.046 38.732H203.796C202.754 38.936 202.017 39.242 201.586 39.65C201.178 40.058 200.974 40.5227 200.974 41.044C200.974 41.5653 201.156 41.9507 201.518 42.2C201.881 42.472 202.402 42.6533 203.082 42.744C203.762 42.8347 204.567 42.88 205.496 42.88ZM205.7 31.694C206.834 31.694 207.695 31.422 208.284 30.878C208.896 30.334 209.202 29.6087 209.202 28.702C209.202 27.75 208.896 26.968 208.284 26.356C207.672 25.744 206.8 25.438 205.666 25.438C204.533 25.438 203.649 25.744 203.014 26.356C202.38 26.9453 202.062 27.7047 202.062 28.634C202.062 29.246 202.198 29.79 202.47 30.266C202.765 30.7193 203.184 31.0707 203.728 31.32C204.272 31.5693 204.93 31.694 205.7 31.694ZM225.738 40.942C224.287 40.942 223.007 40.738 221.896 40.33C220.785 39.8993 219.845 39.2873 219.074 38.494C218.326 37.7007 217.759 36.76 217.374 35.672C216.989 34.5613 216.796 33.3147 216.796 31.932C216.796 30.5493 216.977 29.28 217.34 28.124C217.725 26.9453 218.281 25.9253 219.006 25.064C219.754 24.18 220.661 23.5 221.726 23.024C222.814 22.5253 224.049 22.276 225.432 22.276C226.747 22.276 227.914 22.5027 228.934 22.956C229.977 23.3867 230.838 24.0327 231.518 24.894C232.198 25.7553 232.697 26.8093 233.014 28.056C233.331 29.28 233.433 30.6967 233.32 32.306L219.55 32.408V29.926L230.634 29.79L229.308 31.218C229.444 29.9713 229.353 28.9513 229.036 28.158C228.719 27.342 228.254 26.73 227.642 26.322C227.03 25.914 226.305 25.71 225.466 25.71C224.514 25.71 223.698 25.9593 223.018 26.458C222.338 26.934 221.817 27.6253 221.454 28.532C221.114 29.4387 220.944 30.538 220.944 31.83C220.944 33.802 221.363 35.2753 222.202 36.25C223.063 37.2247 224.253 37.712 225.772 37.712C226.452 37.712 227.019 37.6213 227.472 37.44C227.948 37.2587 228.345 37.0207 228.662 36.726C228.979 36.4313 229.217 36.0913 229.376 35.706C229.557 35.3207 229.682 34.924 229.75 34.516L233.558 35.196C233.422 36.0347 233.161 36.8053 232.776 37.508C232.413 38.2107 231.915 38.8227 231.28 39.344C230.645 39.8427 229.863 40.228 228.934 40.5C228.027 40.7947 226.962 40.942 225.738 40.942Z" fill="#0E0606"/>
</svg>
