<svg width="331" height="267" viewBox="0 0 331 267" fill="none" xmlns="http://www.w3.org/2000/svg">
<g clip-path="url(#clip0_1_520)">
<g opacity="0.8" filter="url(#filter0_f_1_520)">
<rect width="310.044" height="310.044" transform="matrix(0.83814 -0.545456 -0.545456 -0.83814 71.6191 379.488)" fill="url(#paint0_linear_1_520)"/>
</g>
<rect x="0.5" y="0.5" width="330" height="266" rx="23.5" fill="white" fill-opacity="0.4"/>
<rect x="0.5" y="0.5" width="330" height="266" rx="23.5" stroke="#EDE5E5"/>
<path d="M25.776 44V28.16H30.384L34.968 40.616H35.088L39.624 28.16H44.04V44H41.136L41.328 31.232H41.112L36.192 44H33.528L28.68 31.232H28.464L28.632 44H25.776ZM53.5009 44.312C52.2689 44.312 51.1809 44.064 50.2369 43.568C49.2929 43.056 48.5569 42.312 48.0289 41.336C47.5009 40.36 47.2369 39.144 47.2369 37.688C47.2369 36.216 47.5089 35 48.0529 34.04C48.5969 33.064 49.3409 32.336 50.2849 31.856C51.2289 31.376 52.2929 31.136 53.4769 31.136C54.6929 31.136 55.7729 31.384 56.7169 31.88C57.6609 32.376 58.4049 33.12 58.9489 34.112C59.4929 35.088 59.7649 36.304 59.7649 37.76C59.7649 39.232 59.4849 40.456 58.9249 41.432C58.3809 42.408 57.6369 43.136 56.6929 43.616C55.7489 44.08 54.6849 44.312 53.5009 44.312ZM53.5969 42.008C54.2529 42.008 54.8129 41.856 55.2769 41.552C55.7409 41.232 56.0929 40.76 56.3329 40.136C56.5889 39.512 56.7169 38.768 56.7169 37.904C56.7169 36.992 56.5889 36.216 56.3329 35.576C56.0769 34.92 55.7009 34.416 55.2049 34.064C54.7089 33.712 54.1089 33.536 53.4049 33.536C52.7489 33.536 52.1889 33.696 51.7249 34.016C51.2609 34.32 50.9009 34.784 50.6449 35.408C50.4049 36.016 50.2849 36.76 50.2849 37.64C50.2849 39.048 50.5729 40.128 51.1489 40.88C51.7409 41.632 52.5569 42.008 53.5969 42.008ZM62.7789 44V36.488V31.448H65.3229L65.2269 35.504H65.6589C65.8509 34.512 66.1309 33.696 66.4989 33.056C66.8829 32.416 67.3709 31.936 67.9629 31.616C68.5549 31.296 69.2509 31.136 70.0509 31.136C71.4749 31.136 72.5549 31.64 73.2909 32.648C74.0269 33.64 74.3949 35.184 74.3949 37.28V44H71.3469V37.592C71.3469 36.264 71.1469 35.288 70.7469 34.664C70.3469 34.04 69.7549 33.728 68.9709 33.728C68.2989 33.728 67.7309 33.944 67.2669 34.376C66.8029 34.792 66.4429 35.36 66.1869 36.08C65.9469 36.8 65.8189 37.616 65.8029 38.528V44H62.7789ZM82.4428 44.312C81.4028 44.312 80.4988 44.048 79.7308 43.52C78.9628 42.976 78.3628 42.216 77.9308 41.24C77.5148 40.248 77.3068 39.072 77.3068 37.712C77.3068 36.416 77.4988 35.28 77.8828 34.304C78.2668 33.312 78.8268 32.544 79.5628 32C80.3148 31.44 81.2348 31.16 82.3228 31.16C83.1548 31.16 83.8508 31.328 84.4108 31.664C84.9708 31.984 85.4268 32.448 85.7788 33.056C86.1308 33.648 86.4028 34.352 86.5948 35.168H87.0748C86.9788 34.656 86.8908 34.152 86.8108 33.656C86.7308 33.144 86.6668 32.656 86.6188 32.192C86.5708 31.728 86.5468 31.312 86.5468 30.944V27.032H89.5948V37.976V44H87.0028L87.0508 40.376H86.6188C86.4428 41.24 86.1708 41.968 85.8028 42.56C85.4508 43.136 84.9948 43.576 84.4348 43.88C83.8748 44.168 83.2108 44.312 82.4428 44.312ZM83.3788 41.816C83.9068 41.816 84.3708 41.696 84.7708 41.456C85.1708 41.216 85.4988 40.904 85.7548 40.52C86.0268 40.12 86.2268 39.696 86.3548 39.248C86.4828 38.8 86.5468 38.36 86.5468 37.928V37.568C86.5468 37.248 86.4988 36.912 86.4028 36.56C86.3228 36.192 86.1948 35.84 86.0188 35.504C85.8588 35.168 85.6508 34.864 85.3948 34.592C85.1388 34.304 84.8428 34.08 84.5068 33.92C84.1708 33.744 83.7868 33.656 83.3548 33.656C82.7468 33.656 82.2268 33.832 81.7948 34.184C81.3628 34.536 81.0348 35.024 80.8108 35.648C80.5868 36.256 80.4748 36.96 80.4748 37.76C80.4748 38.576 80.5868 39.288 80.8108 39.896C81.0508 40.504 81.3868 40.976 81.8188 41.312C82.2668 41.648 82.7868 41.816 83.3788 41.816ZM96.2456 44.312C95.5576 44.312 94.9416 44.184 94.3976 43.928C93.8536 43.656 93.4216 43.264 93.1016 42.752C92.7816 42.224 92.6216 41.568 92.6216 40.784C92.6216 40.112 92.7496 39.544 93.0056 39.08C93.2616 38.616 93.6376 38.24 94.1336 37.952C94.6296 37.648 95.2376 37.4 95.9576 37.208C96.6936 37 97.5336 36.832 98.4776 36.704C99.0536 36.608 99.5176 36.52 99.8696 36.44C100.222 36.36 100.478 36.24 100.638 36.08C100.814 35.92 100.902 35.672 100.902 35.336C100.902 34.824 100.718 34.392 100.35 34.04C99.9976 33.688 99.4376 33.512 98.6696 33.512C98.2216 33.512 97.7896 33.592 97.3736 33.752C96.9576 33.912 96.5976 34.168 96.2936 34.52C95.9896 34.856 95.7816 35.304 95.6696 35.864L92.9816 35.096C93.1256 34.44 93.3656 33.864 93.7016 33.368C94.0376 32.872 94.4536 32.456 94.9496 32.12C95.4456 31.784 96.0136 31.536 96.6536 31.376C97.3096 31.216 98.0136 31.136 98.7656 31.136C99.9176 31.136 100.87 31.328 101.622 31.712C102.374 32.096 102.934 32.688 103.302 33.488C103.686 34.272 103.878 35.28 103.878 36.512V38.864C103.878 39.408 103.886 39.976 103.902 40.568C103.934 41.144 103.966 41.728 103.998 42.32C104.03 42.896 104.07 43.456 104.118 44H101.406C101.358 43.536 101.31 43.04 101.262 42.512C101.23 41.984 101.206 41.44 101.19 40.88H100.83C100.622 41.504 100.31 42.08 99.8936 42.608C99.4776 43.136 98.9656 43.552 98.3576 43.856C97.7496 44.16 97.0456 44.312 96.2456 44.312ZM97.4216 42.056C97.7576 42.056 98.0936 42 98.4296 41.888C98.7656 41.776 99.0936 41.608 99.4136 41.384C99.7336 41.144 100.022 40.848 100.278 40.496C100.55 40.144 100.774 39.728 100.95 39.248L100.926 37.304L101.502 37.376C101.23 37.6 100.902 37.776 100.518 37.904C100.134 38.032 99.7176 38.136 99.2696 38.216C98.8216 38.28 98.3816 38.352 97.9496 38.432C97.5176 38.512 97.1176 38.624 96.7496 38.768C96.3976 38.896 96.1096 39.088 95.8856 39.344C95.6776 39.6 95.5736 39.944 95.5736 40.376C95.5736 40.904 95.7416 41.32 96.0776 41.624C96.4296 41.912 96.8776 42.056 97.4216 42.056ZM111.999 48.224C111.375 48.224 110.735 48.16 110.079 48.032C109.439 47.904 108.839 47.712 108.279 47.456C107.719 47.2 107.239 46.864 106.839 46.448L107.847 43.904C108.327 44.448 108.927 44.848 109.647 45.104C110.383 45.376 111.119 45.512 111.855 45.512C112.735 45.512 113.463 45.328 114.039 44.96C114.615 44.608 115.047 44.064 115.335 43.328C115.639 42.576 115.807 41.648 115.839 40.544L116.007 38.24H115.551C115.391 39.344 115.127 40.24 114.759 40.928C114.391 41.616 113.927 42.12 113.367 42.44C112.823 42.744 112.183 42.896 111.447 42.896C110.519 42.896 109.743 42.664 109.119 42.2C108.511 41.736 108.047 41.048 107.727 40.136C107.423 39.224 107.271 38.104 107.271 36.776V31.448H110.319V36.056C110.319 37.544 110.495 38.632 110.847 39.32C111.215 39.992 111.783 40.328 112.551 40.328C112.951 40.328 113.311 40.224 113.631 40.016C113.967 39.808 114.255 39.496 114.495 39.08C114.735 38.664 114.919 38.152 115.047 37.544C115.191 36.936 115.271 36.24 115.287 35.456V31.448H118.311V40.664C118.311 41.624 118.231 42.504 118.071 43.304C117.911 44.104 117.663 44.808 117.327 45.416C116.991 46.024 116.575 46.536 116.079 46.952C115.583 47.368 114.991 47.68 114.303 47.888C113.631 48.112 112.863 48.224 111.999 48.224ZM131.59 44V28.16H134.638V44H131.59ZM126.934 30.728V28.16H139.294V30.728H126.934ZM145.736 44.312C144.504 44.312 143.416 44.064 142.472 43.568C141.528 43.056 140.792 42.312 140.264 41.336C139.736 40.36 139.472 39.144 139.472 37.688C139.472 36.216 139.744 35 140.288 34.04C140.832 33.064 141.576 32.336 142.52 31.856C143.464 31.376 144.528 31.136 145.712 31.136C146.928 31.136 148.008 31.384 148.952 31.88C149.896 32.376 150.64 33.12 151.184 34.112C151.728 35.088 152 36.304 152 37.76C152 39.232 151.72 40.456 151.16 41.432C150.616 42.408 149.872 43.136 148.928 43.616C147.984 44.08 146.92 44.312 145.736 44.312ZM145.832 42.008C146.488 42.008 147.048 41.856 147.512 41.552C147.976 41.232 148.328 40.76 148.568 40.136C148.824 39.512 148.952 38.768 148.952 37.904C148.952 36.992 148.824 36.216 148.568 35.576C148.312 34.92 147.936 34.416 147.44 34.064C146.944 33.712 146.344 33.536 145.64 33.536C144.984 33.536 144.424 33.696 143.96 34.016C143.496 34.32 143.136 34.784 142.88 35.408C142.64 36.016 142.52 36.76 142.52 37.64C142.52 39.048 142.808 40.128 143.384 40.88C143.976 41.632 144.792 42.008 145.832 42.008ZM161.287 44V28.16H164.311V44H161.287ZM162.679 37.808V35.288H171.751V37.808H162.679ZM162.679 30.776V28.16H172.687V30.776H162.679ZM175.029 44V37.688V31.448H177.597L177.525 35.888H177.957C178.085 34.832 178.301 33.96 178.605 33.272C178.909 32.568 179.325 32.04 179.853 31.688C180.397 31.336 181.053 31.16 181.821 31.16C181.997 31.16 182.181 31.176 182.373 31.208C182.565 31.224 182.781 31.272 183.021 31.352L182.877 34.568C182.621 34.456 182.357 34.376 182.085 34.328C181.813 34.28 181.565 34.256 181.341 34.256C180.717 34.256 180.181 34.424 179.733 34.76C179.285 35.08 178.925 35.544 178.653 36.152C178.381 36.744 178.189 37.456 178.077 38.288V44H175.029ZM185.493 44V31.448H188.517V44H185.493ZM187.029 29.576C186.405 29.576 185.933 29.448 185.613 29.192C185.293 28.92 185.133 28.536 185.133 28.04C185.133 27.544 185.293 27.168 185.613 26.912C185.949 26.64 186.421 26.504 187.029 26.504C187.653 26.504 188.125 26.64 188.445 26.912C188.781 27.168 188.949 27.544 188.949 28.04C188.949 28.536 188.781 28.92 188.445 29.192C188.125 29.448 187.653 29.576 187.029 29.576ZM196.743 44.312C195.703 44.312 194.799 44.048 194.031 43.52C193.263 42.976 192.663 42.216 192.231 41.24C191.815 40.248 191.607 39.072 191.607 37.712C191.607 36.416 191.799 35.28 192.183 34.304C192.567 33.312 193.127 32.544 193.863 32C194.615 31.44 195.535 31.16 196.623 31.16C197.455 31.16 198.151 31.328 198.711 31.664C199.271 31.984 199.727 32.448 200.079 33.056C200.431 33.648 200.703 34.352 200.895 35.168H201.375C201.279 34.656 201.191 34.152 201.111 33.656C201.031 33.144 200.967 32.656 200.919 32.192C200.871 31.728 200.847 31.312 200.847 30.944V27.032H203.895V37.976V44H201.303L201.351 40.376H200.919C200.743 41.24 200.471 41.968 200.103 42.56C199.751 43.136 199.295 43.576 198.735 43.88C198.175 44.168 197.511 44.312 196.743 44.312ZM197.679 41.816C198.207 41.816 198.671 41.696 199.071 41.456C199.471 41.216 199.799 40.904 200.055 40.52C200.327 40.12 200.527 39.696 200.655 39.248C200.783 38.8 200.847 38.36 200.847 37.928V37.568C200.847 37.248 200.799 36.912 200.703 36.56C200.623 36.192 200.495 35.84 200.319 35.504C200.159 35.168 199.951 34.864 199.695 34.592C199.439 34.304 199.143 34.08 198.807 33.92C198.471 33.744 198.087 33.656 197.655 33.656C197.047 33.656 196.527 33.832 196.095 34.184C195.663 34.536 195.335 35.024 195.111 35.648C194.887 36.256 194.775 36.96 194.775 37.76C194.775 38.576 194.887 39.288 195.111 39.896C195.351 40.504 195.687 40.976 196.119 41.312C196.567 41.648 197.087 41.816 197.679 41.816ZM210.546 44.312C209.858 44.312 209.242 44.184 208.698 43.928C208.154 43.656 207.722 43.264 207.402 42.752C207.082 42.224 206.922 41.568 206.922 40.784C206.922 40.112 207.05 39.544 207.306 39.08C207.562 38.616 207.938 38.24 208.434 37.952C208.93 37.648 209.538 37.4 210.258 37.208C210.994 37 211.834 36.832 212.778 36.704C213.354 36.608 213.818 36.52 214.17 36.44C214.522 36.36 214.778 36.24 214.938 36.08C215.114 35.92 215.202 35.672 215.202 35.336C215.202 34.824 215.018 34.392 214.65 34.04C214.298 33.688 213.738 33.512 212.97 33.512C212.522 33.512 212.09 33.592 211.674 33.752C211.258 33.912 210.898 34.168 210.594 34.52C210.29 34.856 210.082 35.304 209.97 35.864L207.282 35.096C207.426 34.44 207.666 33.864 208.002 33.368C208.338 32.872 208.754 32.456 209.25 32.12C209.746 31.784 210.314 31.536 210.954 31.376C211.61 31.216 212.314 31.136 213.066 31.136C214.218 31.136 215.17 31.328 215.922 31.712C216.674 32.096 217.234 32.688 217.602 33.488C217.986 34.272 218.178 35.28 218.178 36.512V38.864C218.178 39.408 218.186 39.976 218.202 40.568C218.234 41.144 218.266 41.728 218.298 42.32C218.33 42.896 218.37 43.456 218.418 44H215.706C215.658 43.536 215.61 43.04 215.562 42.512C215.53 41.984 215.506 41.44 215.49 40.88H215.13C214.922 41.504 214.61 42.08 214.194 42.608C213.778 43.136 213.266 43.552 212.658 43.856C212.05 44.16 211.346 44.312 210.546 44.312ZM211.722 42.056C212.058 42.056 212.394 42 212.73 41.888C213.066 41.776 213.394 41.608 213.714 41.384C214.034 41.144 214.322 40.848 214.578 40.496C214.85 40.144 215.074 39.728 215.25 39.248L215.226 37.304L215.802 37.376C215.53 37.6 215.202 37.776 214.818 37.904C214.434 38.032 214.018 38.136 213.57 38.216C213.122 38.28 212.682 38.352 212.25 38.432C211.818 38.512 211.418 38.624 211.05 38.768C210.698 38.896 210.41 39.088 210.186 39.344C209.978 39.6 209.874 39.944 209.874 40.376C209.874 40.904 210.042 41.32 210.378 41.624C210.73 41.912 211.178 42.056 211.722 42.056ZM226.299 48.224C225.675 48.224 225.035 48.16 224.379 48.032C223.739 47.904 223.139 47.712 222.579 47.456C222.019 47.2 221.539 46.864 221.139 46.448L222.147 43.904C222.627 44.448 223.227 44.848 223.947 45.104C224.683 45.376 225.419 45.512 226.155 45.512C227.035 45.512 227.763 45.328 228.339 44.96C228.915 44.608 229.347 44.064 229.635 43.328C229.939 42.576 230.107 41.648 230.139 40.544L230.307 38.24H229.851C229.691 39.344 229.427 40.24 229.059 40.928C228.691 41.616 228.227 42.12 227.667 42.44C227.123 42.744 226.483 42.896 225.747 42.896C224.819 42.896 224.043 42.664 223.419 42.2C222.811 41.736 222.347 41.048 222.027 40.136C221.723 39.224 221.571 38.104 221.571 36.776V31.448H224.619V36.056C224.619 37.544 224.795 38.632 225.147 39.32C225.515 39.992 226.083 40.328 226.851 40.328C227.251 40.328 227.611 40.224 227.931 40.016C228.267 39.808 228.555 39.496 228.795 39.08C229.035 38.664 229.219 38.152 229.347 37.544C229.491 36.936 229.571 36.24 229.587 35.456V31.448H232.611V40.664C232.611 41.624 232.531 42.504 232.371 43.304C232.211 44.104 231.963 44.808 231.627 45.416C231.291 46.024 230.875 46.536 230.379 46.952C229.883 47.368 229.291 47.68 228.603 47.888C227.931 48.112 227.163 48.224 226.299 48.224Z" fill="#0E0606"/>
<path d="M30.56 186.16C29.6 186.16 28.7627 185.989 28.048 185.648C27.3333 185.307 26.7413 184.848 26.272 184.272C25.8027 183.685 25.4507 183.035 25.216 182.32C24.992 181.595 24.88 180.853 24.88 180.096C24.88 179.339 24.992 178.597 25.216 177.872C25.4507 177.147 25.8027 176.496 26.272 175.92C26.752 175.333 27.3493 174.869 28.064 174.528C28.7893 174.176 29.6373 174 30.608 174C31.3547 174 31.9947 174.096 32.528 174.288C33.072 174.48 33.5253 174.725 33.888 175.024C34.2507 175.323 34.544 175.643 34.768 175.984C34.992 176.315 35.1627 176.629 35.28 176.928C35.3973 177.227 35.472 177.472 35.504 177.664C35.5467 177.856 35.568 177.952 35.568 177.952H33.984C33.984 177.952 33.9627 177.867 33.92 177.696C33.8773 177.525 33.792 177.317 33.664 177.072C33.536 176.816 33.344 176.565 33.088 176.32C32.8427 176.064 32.5173 175.851 32.112 175.68C31.7173 175.509 31.2213 175.424 30.624 175.424C29.92 175.424 29.3067 175.557 28.784 175.824C28.2613 176.091 27.8293 176.448 27.488 176.896C27.1467 177.333 26.8907 177.829 26.72 178.384C26.5493 178.928 26.464 179.488 26.464 180.064C26.464 180.651 26.5493 181.227 26.72 181.792C26.8907 182.347 27.1467 182.848 27.488 183.296C27.84 183.733 28.272 184.085 28.784 184.352C29.296 184.608 29.888 184.736 30.56 184.736C31.6587 184.736 32.528 184.416 33.168 183.776C33.8187 183.125 34.1707 182.251 34.224 181.152H30.704V179.856H35.728V180.672C35.728 181.888 35.4933 182.901 35.024 183.712C34.5653 184.523 33.9467 185.136 33.168 185.552C32.3893 185.957 31.52 186.16 30.56 186.16ZM41.5073 186.16C40.8139 186.16 40.2113 186.037 39.6993 185.792C39.1979 185.536 38.7819 185.195 38.4513 184.768C38.1313 184.341 37.8913 183.872 37.7313 183.36C37.5713 182.837 37.4913 182.304 37.4913 181.76C37.4913 181.227 37.5659 180.699 37.7153 180.176C37.8753 179.653 38.1153 179.179 38.4353 178.752C38.7659 178.325 39.1766 177.989 39.6673 177.744C40.1686 177.488 40.7606 177.36 41.4433 177.36C42.1686 177.36 42.8086 177.525 43.3633 177.856C43.9179 178.187 44.3553 178.677 44.6753 179.328C44.9953 179.979 45.1553 180.795 45.1553 181.776V182.224H39.0273C39.0593 182.704 39.1713 183.147 39.3633 183.552C39.5659 183.947 39.8486 184.267 40.2113 184.512C40.5739 184.747 41.0059 184.864 41.5073 184.864C41.9446 184.864 42.2966 184.795 42.5633 184.656C42.8406 184.507 43.0593 184.336 43.2193 184.144C43.3793 183.952 43.4859 183.787 43.5393 183.648C43.6033 183.499 43.6353 183.424 43.6353 183.424H45.0593C45.0593 183.424 45.0326 183.52 44.9792 183.712C44.9259 183.893 44.8299 184.117 44.6913 184.384C44.5526 184.651 44.3499 184.923 44.0833 185.2C43.8166 185.467 43.4753 185.696 43.0593 185.888C42.6433 186.069 42.1259 186.16 41.5073 186.16ZM39.0433 181.04H43.6673C43.6459 180.485 43.5286 180.037 43.3153 179.696C43.1019 179.344 42.8299 179.083 42.4993 178.912C42.1686 178.741 41.8166 178.656 41.4433 178.656C40.7713 178.656 40.2219 178.875 39.7953 179.312C39.3686 179.739 39.1179 180.315 39.0433 181.04ZM50.6731 186.16C49.7985 186.16 49.1371 185.936 48.6891 185.488C48.2518 185.04 48.0331 184.411 48.0331 183.6V178.768H46.5131V177.52H48.0331V175.392H49.5531V177.52H51.6171V178.768H49.5531V183.6C49.5531 184.027 49.6705 184.341 49.9051 184.544C50.1398 184.736 50.4811 184.832 50.9291 184.832C51.1638 184.832 51.3878 184.816 51.6011 184.784C51.8145 184.752 51.9211 184.736 51.9211 184.736V186.032C51.9211 186.032 51.7985 186.053 51.5531 186.096C51.3078 186.139 51.0145 186.16 50.6731 186.16ZM57.7644 186V174.16H61.9884C62.895 174.16 63.647 174.347 64.2444 174.72C64.8524 175.093 65.3057 175.579 65.6044 176.176C65.9137 176.763 66.0684 177.376 66.0684 178.016C66.0684 178.667 65.9137 179.291 65.6044 179.888C65.3057 180.475 64.8524 180.96 64.2444 181.344C63.647 181.717 62.895 181.904 61.9884 181.904H59.3324V186H57.7644ZM61.9884 175.536H59.3324V180.528H61.9884C62.5537 180.528 63.023 180.405 63.3964 180.16C63.7697 179.915 64.047 179.605 64.2284 179.232C64.4204 178.848 64.5164 178.448 64.5164 178.032C64.5164 177.616 64.4204 177.216 64.2284 176.832C64.047 176.448 63.7697 176.139 63.3964 175.904C63.023 175.659 62.5537 175.536 61.9884 175.536ZM71.4448 186.16C70.7514 186.16 70.1488 186.037 69.6368 185.792C69.1354 185.536 68.7194 185.195 68.3888 184.768C68.0688 184.341 67.8288 183.872 67.6688 183.36C67.5088 182.837 67.4288 182.304 67.4288 181.76C67.4288 181.227 67.5034 180.699 67.6528 180.176C67.8128 179.653 68.0528 179.179 68.3728 178.752C68.7034 178.325 69.1141 177.989 69.6048 177.744C70.1061 177.488 70.6981 177.36 71.3808 177.36C72.1061 177.36 72.7461 177.525 73.3008 177.856C73.8554 178.187 74.2928 178.677 74.6128 179.328C74.9328 179.979 75.0928 180.795 75.0928 181.776V182.224H68.9648C68.9968 182.704 69.1088 183.147 69.3008 183.552C69.5034 183.947 69.7861 184.267 70.1488 184.512C70.5114 184.747 70.9434 184.864 71.4448 184.864C71.8821 184.864 72.2341 184.795 72.5008 184.656C72.7781 184.507 72.9968 184.336 73.1568 184.144C73.3168 183.952 73.4234 183.787 73.4768 183.648C73.5408 183.499 73.5728 183.424 73.5728 183.424H74.9968C74.9968 183.424 74.9701 183.52 74.9167 183.712C74.8634 183.893 74.7674 184.117 74.6288 184.384C74.4901 184.651 74.2874 184.923 74.0208 185.2C73.7541 185.467 73.4128 185.696 72.9968 185.888C72.5808 186.069 72.0634 186.16 71.4448 186.16ZM68.9808 181.04H73.6048C73.5834 180.485 73.4661 180.037 73.2528 179.696C73.0394 179.344 72.7674 179.083 72.4368 178.912C72.1061 178.741 71.7541 178.656 71.3808 178.656C70.7088 178.656 70.1594 178.875 69.7328 179.312C69.3061 179.739 69.0554 180.315 68.9808 181.04ZM77.1669 186V177.52H78.6869V178.576H78.7509C78.9322 178.256 79.1989 177.973 79.5509 177.728C79.9029 177.483 80.3989 177.36 81.0389 177.36C81.2202 177.36 81.3855 177.371 81.5349 177.392C81.6842 177.403 81.7589 177.408 81.7589 177.408V178.864C81.7589 178.864 81.6735 178.859 81.5029 178.848C81.3429 178.827 81.1722 178.816 80.9909 178.816C80.2549 178.816 79.6842 179.029 79.2789 179.456C78.8842 179.872 78.6869 180.555 78.6869 181.504V186H77.1669ZM86.5365 186.16C85.8858 186.16 85.3472 186.069 84.9205 185.888C84.5045 185.707 84.1738 185.483 83.9285 185.216C83.6832 184.939 83.5018 184.667 83.3845 184.4C83.2672 184.123 83.1925 183.893 83.1605 183.712C83.1285 183.531 83.1125 183.44 83.1125 183.44H84.6485C84.6485 183.44 84.6645 183.515 84.6965 183.664C84.7392 183.803 84.8192 183.968 84.9365 184.16C85.0645 184.341 85.2565 184.507 85.5125 184.656C85.7792 184.795 86.1312 184.864 86.5685 184.864C87.0698 184.864 87.4592 184.747 87.7365 184.512C88.0138 184.267 88.1525 183.968 88.1525 183.616C88.1525 183.307 88.0405 183.061 87.8165 182.88C87.6032 182.699 87.2938 182.56 86.8885 182.464L85.7365 182.192C85.3098 182.085 84.9098 181.941 84.5365 181.76C84.1632 181.579 83.8592 181.333 83.6245 181.024C83.4005 180.704 83.2885 180.309 83.2885 179.84C83.2885 179.115 83.5605 178.523 84.1045 178.064C84.6485 177.595 85.3578 177.36 86.2325 177.36C86.8192 177.36 87.3045 177.445 87.6885 177.616C88.0725 177.776 88.3765 177.979 88.6005 178.224C88.8352 178.469 89.0058 178.715 89.1125 178.96C89.2298 179.205 89.3045 179.413 89.3365 179.584C89.3685 179.744 89.3845 179.824 89.3845 179.824H87.9125C87.9125 179.824 87.8965 179.765 87.8645 179.648C87.8325 179.52 87.7578 179.381 87.6405 179.232C87.5338 179.072 87.3685 178.933 87.1445 178.816C86.9205 178.688 86.6218 178.624 86.2485 178.624C85.7365 178.624 85.3632 178.741 85.1285 178.976C84.8938 179.211 84.7765 179.467 84.7765 179.744C84.7765 180.011 84.8832 180.229 85.0965 180.4C85.3205 180.56 85.6085 180.683 85.9605 180.768L87.1285 181.04C87.8538 181.211 88.4512 181.493 88.9205 181.888C89.4005 182.272 89.6405 182.827 89.6405 183.552C89.6405 184.021 89.5178 184.459 89.2725 184.864C89.0272 185.259 88.6752 185.573 88.2165 185.808C87.7578 186.043 87.1978 186.16 86.5365 186.16ZM95.4173 186.16C94.5106 186.16 93.7479 185.952 93.1293 185.536C92.5106 185.109 92.0413 184.56 91.7213 183.888C91.4013 183.216 91.2413 182.507 91.2413 181.76C91.2413 181.003 91.4013 180.293 91.7213 179.632C92.0413 178.96 92.5106 178.416 93.1293 178C93.7479 177.573 94.5106 177.36 95.4173 177.36C96.3239 177.36 97.0866 177.573 97.7053 178C98.3239 178.416 98.7933 178.96 99.1133 179.632C99.4333 180.293 99.5933 181.003 99.5933 181.76C99.5933 182.507 99.4333 183.216 99.1133 183.888C98.7933 184.56 98.3239 185.109 97.7053 185.536C97.0866 185.952 96.3239 186.16 95.4173 186.16ZM95.4173 184.832C95.9933 184.832 96.4733 184.688 96.8573 184.4C97.2519 184.101 97.5453 183.717 97.7373 183.248C97.9399 182.779 98.0413 182.283 98.0413 181.76C98.0413 181.227 97.9399 180.731 97.7373 180.272C97.5453 179.803 97.2519 179.424 96.8573 179.136C96.4733 178.837 95.9933 178.688 95.4173 178.688C94.8519 178.688 94.3719 178.837 93.9773 179.136C93.5826 179.424 93.2839 179.803 93.0813 180.272C92.8893 180.731 92.7933 181.227 92.7933 181.76C92.7933 182.283 92.8893 182.779 93.0813 183.248C93.2839 183.717 93.5826 184.101 93.9773 184.4C94.3719 184.688 94.8519 184.832 95.4173 184.832ZM101.667 186V177.52H103.187V178.752H103.283C103.358 178.624 103.48 178.448 103.651 178.224C103.832 178 104.088 177.803 104.419 177.632C104.75 177.451 105.166 177.36 105.667 177.36C106.286 177.36 106.814 177.504 107.251 177.792C107.688 178.069 108.019 178.448 108.243 178.928C108.478 179.408 108.595 179.947 108.595 180.544V186H107.075V180.64C107.075 180.075 106.915 179.605 106.595 179.232C106.286 178.859 105.832 178.672 105.235 178.672C104.755 178.672 104.366 178.795 104.067 179.04C103.768 179.275 103.544 179.589 103.395 179.984C103.256 180.368 103.187 180.779 103.187 181.216V186H101.667ZM114.519 177.36C115.052 177.36 115.5 177.445 115.863 177.616C116.225 177.787 116.519 177.989 116.743 178.224C116.967 178.448 117.137 178.661 117.255 178.864H117.351V177.52H118.871V186H117.351V184.656H117.255C117.137 184.859 116.967 185.077 116.743 185.312C116.519 185.547 116.225 185.749 115.863 185.92C115.5 186.08 115.052 186.16 114.519 186.16C113.879 186.16 113.319 186.037 112.839 185.792C112.359 185.536 111.959 185.2 111.639 184.784C111.319 184.357 111.079 183.883 110.919 183.36C110.759 182.837 110.679 182.304 110.679 181.76C110.679 181.216 110.759 180.683 110.919 180.16C111.079 179.637 111.319 179.168 111.639 178.752C111.959 178.325 112.359 177.989 112.839 177.744C113.319 177.488 113.879 177.36 114.519 177.36ZM114.775 178.656C114.209 178.656 113.735 178.811 113.351 179.12C112.967 179.419 112.679 179.803 112.487 180.272C112.305 180.741 112.215 181.237 112.215 181.76C112.215 182.272 112.305 182.768 112.487 183.248C112.679 183.717 112.967 184.107 113.351 184.416C113.735 184.715 114.209 184.864 114.775 184.864C115.34 184.864 115.809 184.715 116.183 184.416C116.567 184.107 116.849 183.717 117.031 183.248C117.223 182.768 117.319 182.272 117.319 181.76C117.319 181.237 117.223 180.741 117.031 180.272C116.849 179.803 116.567 179.419 116.183 179.12C115.809 178.811 115.34 178.656 114.775 178.656ZM121.264 186L121.28 173.84H122.784V186H121.264ZM126.174 175.904C125.887 175.904 125.647 175.808 125.455 175.616C125.273 175.424 125.183 175.195 125.183 174.928C125.183 174.651 125.273 174.416 125.455 174.224C125.647 174.032 125.887 173.936 126.174 173.936C126.452 173.936 126.687 174.032 126.879 174.224C127.071 174.416 127.167 174.651 127.167 174.928C127.167 175.195 127.071 175.424 126.879 175.616C126.687 175.808 126.452 175.904 126.174 175.904ZM125.423 186V177.52H126.943V186H125.423ZM128.969 186V184.928L133.929 178.768H129.225V177.52H135.801V178.592L130.825 184.752H135.801V186H128.969ZM141.132 186.16C140.439 186.16 139.836 186.037 139.324 185.792C138.823 185.536 138.407 185.195 138.076 184.768C137.756 184.341 137.516 183.872 137.356 183.36C137.196 182.837 137.116 182.304 137.116 181.76C137.116 181.227 137.191 180.699 137.34 180.176C137.5 179.653 137.74 179.179 138.06 178.752C138.391 178.325 138.802 177.989 139.292 177.744C139.794 177.488 140.386 177.36 141.068 177.36C141.794 177.36 142.434 177.525 142.988 177.856C143.543 178.187 143.98 178.677 144.3 179.328C144.62 179.979 144.78 180.795 144.78 181.776V182.224H138.652C138.684 182.704 138.796 183.147 138.988 183.552C139.191 183.947 139.474 184.267 139.836 184.512C140.199 184.747 140.631 184.864 141.132 184.864C141.57 184.864 141.922 184.795 142.188 184.656C142.466 184.507 142.684 184.336 142.844 184.144C143.004 183.952 143.111 183.787 143.164 183.648C143.228 183.499 143.26 183.424 143.26 183.424H144.684C144.684 183.424 144.658 183.52 144.604 183.712C144.551 183.893 144.455 184.117 144.316 184.384C144.178 184.651 143.975 184.923 143.708 185.2C143.442 185.467 143.1 185.696 142.684 185.888C142.268 186.069 141.751 186.16 141.132 186.16ZM138.668 181.04H143.292C143.271 180.485 143.154 180.037 142.94 179.696C142.727 179.344 142.455 179.083 142.124 178.912C141.794 178.741 141.442 178.656 141.068 178.656C140.396 178.656 139.847 178.875 139.42 179.312C138.994 179.739 138.743 180.315 138.668 181.04ZM150.456 186.16C149.816 186.16 149.256 186.037 148.776 185.792C148.296 185.536 147.896 185.2 147.576 184.784C147.256 184.357 147.016 183.883 146.856 183.36C146.696 182.837 146.616 182.304 146.616 181.76C146.616 181.216 146.696 180.683 146.856 180.16C147.016 179.637 147.256 179.168 147.576 178.752C147.896 178.325 148.296 177.989 148.776 177.744C149.256 177.488 149.816 177.36 150.456 177.36C150.99 177.36 151.438 177.445 151.8 177.616C152.163 177.787 152.456 177.989 152.68 178.224C152.904 178.448 153.075 178.661 153.192 178.864H153.288V173.84H154.808V186H153.288V184.656H153.192C153.075 184.859 152.904 185.077 152.68 185.312C152.456 185.547 152.163 185.749 151.8 185.92C151.438 186.08 150.99 186.16 150.456 186.16ZM150.712 184.864C151.278 184.864 151.747 184.715 152.12 184.416C152.504 184.107 152.787 183.717 152.968 183.248C153.16 182.768 153.256 182.272 153.256 181.76C153.256 181.237 153.16 180.741 152.968 180.272C152.787 179.803 152.504 179.419 152.12 179.12C151.747 178.811 151.278 178.656 150.712 178.656C150.147 178.656 149.672 178.811 149.288 179.12C148.904 179.419 148.616 179.803 148.424 180.272C148.243 180.741 148.152 181.237 148.152 181.76C148.152 182.272 148.243 182.768 148.424 183.248C148.616 183.717 148.904 184.107 149.288 184.416C149.672 184.715 150.147 184.864 150.712 184.864ZM161.061 186V174.16H162.629V179.504L167.749 174.176H169.797L164.261 179.856L170.037 186H167.925L162.629 180.352V186H161.061ZM171.761 186V177.52H173.281V178.752H173.377C173.451 178.624 173.574 178.448 173.745 178.224C173.926 178 174.182 177.803 174.513 177.632C174.843 177.451 175.259 177.36 175.761 177.36C176.379 177.36 176.907 177.504 177.345 177.792C177.782 178.069 178.113 178.448 178.337 178.928C178.571 179.408 178.689 179.947 178.689 180.544V186H177.169V180.64C177.169 180.075 177.009 179.605 176.689 179.232C176.379 178.859 175.926 178.672 175.329 178.672C174.849 178.672 174.459 178.795 174.161 179.04C173.862 179.275 173.638 179.589 173.489 179.984C173.35 180.368 173.281 180.779 173.281 181.216V186H171.761ZM184.949 186.16C184.042 186.16 183.279 185.952 182.661 185.536C182.042 185.109 181.573 184.56 181.253 183.888C180.933 183.216 180.773 182.507 180.773 181.76C180.773 181.003 180.933 180.293 181.253 179.632C181.573 178.96 182.042 178.416 182.661 178C183.279 177.573 184.042 177.36 184.949 177.36C185.855 177.36 186.618 177.573 187.237 178C187.855 178.416 188.325 178.96 188.645 179.632C188.965 180.293 189.125 181.003 189.125 181.76C189.125 182.507 188.965 183.216 188.645 183.888C188.325 184.56 187.855 185.109 187.237 185.536C186.618 185.952 185.855 186.16 184.949 186.16ZM184.949 184.832C185.525 184.832 186.005 184.688 186.389 184.4C186.783 184.101 187.077 183.717 187.269 183.248C187.471 182.779 187.573 182.283 187.573 181.76C187.573 181.227 187.471 180.731 187.269 180.272C187.077 179.803 186.783 179.424 186.389 179.136C186.005 178.837 185.525 178.688 184.949 178.688C184.383 178.688 183.903 178.837 183.509 179.136C183.114 179.424 182.815 179.803 182.613 180.272C182.421 180.731 182.325 181.227 182.325 181.76C182.325 182.283 182.421 182.779 182.613 183.248C182.815 183.717 183.114 184.101 183.509 184.4C183.903 184.688 184.383 184.832 184.949 184.832ZM193.062 186L190.326 177.52H191.878L193.894 183.952L196.006 177.52H197.446L199.542 183.952L201.574 177.52H203.126L200.374 186H198.742L196.726 179.744L194.71 186H193.062ZM204.968 186L204.984 173.84H206.488V186H204.968ZM212.742 186.16C212.048 186.16 211.446 186.037 210.934 185.792C210.432 185.536 210.016 185.195 209.686 184.768C209.366 184.341 209.126 183.872 208.966 183.36C208.806 182.837 208.726 182.304 208.726 181.76C208.726 181.227 208.8 180.699 208.95 180.176C209.11 179.653 209.35 179.179 209.67 178.752C210 178.325 210.411 177.989 210.902 177.744C211.403 177.488 211.995 177.36 212.678 177.36C213.403 177.36 214.043 177.525 214.598 177.856C215.152 178.187 215.59 178.677 215.91 179.328C216.23 179.979 216.39 180.795 216.39 181.776V182.224H210.262C210.294 182.704 210.406 183.147 210.598 183.552C210.8 183.947 211.083 184.267 211.446 184.512C211.808 184.747 212.24 184.864 212.742 184.864C213.179 184.864 213.531 184.795 213.798 184.656C214.075 184.507 214.294 184.336 214.454 184.144C214.614 183.952 214.72 183.787 214.774 183.648C214.838 183.499 214.87 183.424 214.87 183.424H216.294C216.294 183.424 216.267 183.52 216.214 183.712C216.16 183.893 216.064 184.117 215.926 184.384C215.787 184.651 215.584 184.923 215.318 185.2C215.051 185.467 214.71 185.696 214.294 185.888C213.878 186.069 213.36 186.16 212.742 186.16ZM210.278 181.04H214.902C214.88 180.485 214.763 180.037 214.55 179.696C214.336 179.344 214.064 179.083 213.734 178.912C213.403 178.741 213.051 178.656 212.678 178.656C212.006 178.656 211.456 178.875 211.03 179.312C210.603 179.739 210.352 180.315 210.278 181.04ZM222.066 186.16C221.426 186.16 220.866 186.037 220.386 185.792C219.906 185.536 219.506 185.2 219.186 184.784C218.866 184.357 218.626 183.883 218.466 183.36C218.306 182.837 218.226 182.304 218.226 181.76C218.226 181.216 218.306 180.683 218.466 180.16C218.626 179.637 218.866 179.168 219.186 178.752C219.506 178.325 219.906 177.989 220.386 177.744C220.866 177.488 221.426 177.36 222.066 177.36C222.599 177.36 223.047 177.445 223.41 177.616C223.772 177.787 224.066 177.989 224.29 178.224C224.514 178.448 224.684 178.661 224.802 178.864H224.898V173.84H226.418V186H224.898V184.656H224.802C224.684 184.859 224.514 185.077 224.29 185.312C224.066 185.547 223.772 185.749 223.41 185.92C223.047 186.08 222.599 186.16 222.066 186.16ZM222.322 184.864C222.887 184.864 223.356 184.715 223.73 184.416C224.114 184.107 224.396 183.717 224.578 183.248C224.77 182.768 224.866 182.272 224.866 181.76C224.866 181.237 224.77 180.741 224.578 180.272C224.396 179.803 224.114 179.419 223.73 179.12C223.356 178.811 222.887 178.656 222.322 178.656C221.756 178.656 221.282 178.811 220.898 179.12C220.514 179.419 220.226 179.803 220.034 180.272C219.852 180.741 219.762 181.237 219.762 181.76C219.762 182.272 219.852 182.768 220.034 183.248C220.226 183.717 220.514 184.107 220.898 184.416C221.282 184.715 221.756 184.864 222.322 184.864ZM232.903 189.36C232.199 189.36 231.612 189.264 231.143 189.072C230.674 188.891 230.295 188.656 230.007 188.368C229.73 188.091 229.522 187.813 229.383 187.536C229.244 187.259 229.154 187.024 229.111 186.832C229.068 186.651 229.047 186.56 229.047 186.56H230.567C230.567 186.56 230.594 186.635 230.647 186.784C230.7 186.933 230.802 187.104 230.951 187.296C231.111 187.488 231.346 187.659 231.655 187.808C231.964 187.957 232.38 188.032 232.903 188.032C233.522 188.032 234.007 187.909 234.359 187.664C234.711 187.429 234.962 187.12 235.111 186.736C235.271 186.352 235.351 185.947 235.351 185.52V184.544H235.271C235.164 184.725 234.994 184.933 234.759 185.168C234.535 185.392 234.236 185.589 233.863 185.76C233.49 185.92 233.031 186 232.487 186C231.847 186 231.287 185.877 230.807 185.632C230.327 185.387 229.927 185.056 229.607 184.64C229.298 184.224 229.063 183.76 228.903 183.248C228.743 182.736 228.663 182.213 228.663 181.68C228.663 181.147 228.743 180.624 228.903 180.112C229.063 179.6 229.298 179.136 229.607 178.72C229.927 178.304 230.327 177.973 230.807 177.728C231.287 177.483 231.847 177.36 232.487 177.36C233.031 177.36 233.49 177.445 233.863 177.616C234.236 177.776 234.535 177.968 234.759 178.192C234.994 178.416 235.164 178.624 235.271 178.816H235.351V177.52H236.871V185.504C236.871 186.688 236.524 187.627 235.831 188.32C235.148 189.013 234.172 189.36 232.903 189.36ZM232.775 184.704C233.34 184.704 233.81 184.56 234.183 184.272C234.567 183.973 234.85 183.595 235.031 183.136C235.223 182.677 235.319 182.192 235.319 181.68C235.319 181.168 235.223 180.683 235.031 180.224C234.85 179.755 234.567 179.376 234.183 179.088C233.81 178.8 233.34 178.656 232.775 178.656C232.21 178.656 231.735 178.8 231.351 179.088C230.967 179.376 230.679 179.755 230.487 180.224C230.306 180.683 230.215 181.168 230.215 181.68C230.215 182.192 230.306 182.677 230.487 183.136C230.679 183.595 230.967 183.973 231.351 184.272C231.735 184.56 232.21 184.704 232.775 184.704ZM242.648 186.16C241.955 186.16 241.352 186.037 240.84 185.792C240.339 185.536 239.923 185.195 239.592 184.768C239.272 184.341 239.032 183.872 238.872 183.36C238.712 182.837 238.632 182.304 238.632 181.76C238.632 181.227 238.707 180.699 238.856 180.176C239.016 179.653 239.256 179.179 239.576 178.752C239.907 178.325 240.317 177.989 240.808 177.744C241.309 177.488 241.901 177.36 242.584 177.36C243.309 177.36 243.949 177.525 244.504 177.856C245.059 178.187 245.496 178.677 245.816 179.328C246.136 179.979 246.296 180.795 246.296 181.776V182.224H240.168C240.2 182.704 240.312 183.147 240.504 183.552C240.707 183.947 240.989 184.267 241.352 184.512C241.715 184.747 242.147 184.864 242.648 184.864C243.085 184.864 243.437 184.795 243.704 184.656C243.981 184.507 244.2 184.336 244.36 184.144C244.52 183.952 244.627 183.787 244.68 183.648C244.744 183.499 244.776 183.424 244.776 183.424H246.2C246.2 183.424 246.173 183.52 246.12 183.712C246.067 183.893 245.971 184.117 245.832 184.384C245.693 184.651 245.491 184.923 245.224 185.2C244.957 185.467 244.616 185.696 244.2 185.888C243.784 186.069 243.267 186.16 242.648 186.16ZM240.184 181.04H244.808C244.787 180.485 244.669 180.037 244.456 179.696C244.243 179.344 243.971 179.083 243.64 178.912C243.309 178.741 242.957 178.656 242.584 178.656C241.912 178.656 241.363 178.875 240.936 179.312C240.509 179.739 240.259 180.315 240.184 181.04ZM252.218 186V174.16H260.026V175.536H253.786V179.44H259.29V180.816H253.786V186H252.218ZM261.386 186V177.52H262.906V178.576H262.97C263.151 178.256 263.418 177.973 263.77 177.728C264.122 177.483 264.618 177.36 265.258 177.36C265.439 177.36 265.604 177.371 265.754 177.392C265.903 177.403 265.978 177.408 265.978 177.408V178.864C265.978 178.864 265.892 178.859 265.722 178.848C265.562 178.827 265.391 178.816 265.21 178.816C264.474 178.816 263.903 179.029 263.498 179.456C263.103 179.872 262.906 180.555 262.906 181.504V186H261.386ZM271.027 186.16C270.12 186.16 269.357 185.952 268.739 185.536C268.12 185.109 267.651 184.56 267.331 183.888C267.011 183.216 266.851 182.507 266.851 181.76C266.851 181.003 267.011 180.293 267.331 179.632C267.651 178.96 268.12 178.416 268.739 178C269.357 177.573 270.12 177.36 271.027 177.36C271.933 177.36 272.696 177.573 273.315 178C273.933 178.416 274.403 178.96 274.723 179.632C275.043 180.293 275.203 181.003 275.203 181.76C275.203 182.507 275.043 183.216 274.723 183.888C274.403 184.56 273.933 185.109 273.315 185.536C272.696 185.952 271.933 186.16 271.027 186.16ZM271.027 184.832C271.603 184.832 272.083 184.688 272.467 184.4C272.861 184.101 273.155 183.717 273.347 183.248C273.549 182.779 273.651 182.283 273.651 181.76C273.651 181.227 273.549 180.731 273.347 180.272C273.155 179.803 272.861 179.424 272.467 179.136C272.083 178.837 271.603 178.688 271.027 178.688C270.461 178.688 269.981 178.837 269.587 179.136C269.192 179.424 268.893 179.803 268.691 180.272C268.499 180.731 268.403 181.227 268.403 181.76C268.403 182.283 268.499 182.779 268.691 183.248C268.893 183.717 269.192 184.101 269.587 184.4C269.981 184.688 270.461 184.832 271.027 184.832ZM277.276 186V177.52H278.796V178.752H278.86C278.946 178.592 279.079 178.405 279.26 178.192C279.442 177.968 279.687 177.776 279.996 177.616C280.316 177.445 280.716 177.36 281.196 177.36C281.826 177.36 282.354 177.515 282.78 177.824C283.218 178.123 283.543 178.528 283.756 179.04H283.772C284.007 178.571 284.338 178.176 284.764 177.856C285.202 177.525 285.767 177.36 286.46 177.36C287.378 177.36 288.082 177.675 288.572 178.304C289.074 178.923 289.324 179.723 289.324 180.704V186H287.804V180.784C287.804 180.155 287.655 179.648 287.356 179.264C287.058 178.869 286.626 178.672 286.06 178.672C285.57 178.672 285.175 178.805 284.876 179.072C284.588 179.339 284.38 179.669 284.252 180.064C284.124 180.459 284.06 180.853 284.06 181.248V186H282.54V180.784C282.54 180.155 282.391 179.648 282.092 179.264C281.804 178.869 281.372 178.672 280.796 178.672C280.306 178.672 279.911 178.805 279.612 179.072C279.324 179.339 279.116 179.675 278.988 180.08C278.86 180.475 278.796 180.864 278.796 181.248V186H277.276ZM25.28 211V199.16H26.848V211H25.28ZM29.245 211V202.52H30.765V203.752H30.861C30.9357 203.624 31.0583 203.448 31.229 203.224C31.4103 203 31.6663 202.803 31.997 202.632C32.3277 202.451 32.7437 202.36 33.245 202.36C33.8637 202.36 34.3917 202.504 34.829 202.792C35.2663 203.069 35.597 203.448 35.821 203.928C36.0557 204.408 36.173 204.947 36.173 205.544V211H34.653V205.64C34.653 205.075 34.493 204.605 34.173 204.232C33.8637 203.859 33.4103 203.672 32.813 203.672C32.333 203.672 31.9437 203.795 31.645 204.04C31.3463 204.275 31.1223 204.589 30.973 204.984C30.8343 205.368 30.765 205.779 30.765 206.216V211H29.245ZM42.0969 211.16C41.4569 211.16 40.8969 211.037 40.4169 210.792C39.9369 210.536 39.5369 210.2 39.2169 209.784C38.8969 209.357 38.6569 208.883 38.4969 208.36C38.3369 207.837 38.2569 207.304 38.2569 206.76C38.2569 206.216 38.3369 205.683 38.4969 205.16C38.6569 204.637 38.8969 204.168 39.2169 203.752C39.5369 203.325 39.9369 202.989 40.4169 202.744C40.8969 202.488 41.4569 202.36 42.0969 202.36C42.6302 202.36 43.0782 202.445 43.4409 202.616C43.8035 202.787 44.0969 202.989 44.3209 203.224C44.5449 203.448 44.7155 203.661 44.8329 203.864H44.9289V198.84H46.4489V211H44.9289V209.656H44.8329C44.7155 209.859 44.5449 210.077 44.3209 210.312C44.0969 210.547 43.8035 210.749 43.4409 210.92C43.0782 211.08 42.6302 211.16 42.0969 211.16ZM42.3529 209.864C42.9182 209.864 43.3875 209.715 43.7609 209.416C44.1449 209.107 44.4275 208.717 44.6089 208.248C44.8009 207.768 44.8969 207.272 44.8969 206.76C44.8969 206.237 44.8009 205.741 44.6089 205.272C44.4275 204.803 44.1449 204.419 43.7609 204.12C43.3875 203.811 42.9182 203.656 42.3529 203.656C41.7875 203.656 41.3129 203.811 40.9289 204.12C40.5449 204.419 40.2569 204.803 40.0649 205.272C39.8835 205.741 39.7929 206.237 39.7929 206.76C39.7929 207.272 39.8835 207.768 40.0649 208.248C40.2569 208.717 40.5449 209.107 40.9289 209.416C41.3129 209.715 41.7875 209.864 42.3529 209.864ZM51.6224 211.16C50.7797 211.16 50.1077 210.899 49.6064 210.376C49.105 209.853 48.8544 209.128 48.8544 208.2V202.52H50.3744V208.12C50.3744 208.675 50.5237 209.101 50.8224 209.4C51.1317 209.699 51.537 209.848 52.0384 209.848C52.5504 209.848 52.961 209.715 53.2704 209.448C53.5797 209.181 53.8037 208.84 53.9424 208.424C54.081 208.008 54.1504 207.581 54.1504 207.144V202.52H55.6704V211H54.1504V209.784H54.0544C53.9904 209.912 53.8677 210.088 53.6864 210.312C53.505 210.525 53.249 210.723 52.9184 210.904C52.5877 211.075 52.1557 211.16 51.6224 211.16ZM61.0209 211.16C60.3702 211.16 59.8315 211.069 59.4049 210.888C58.9889 210.707 58.6582 210.483 58.4129 210.216C58.1675 209.939 57.9862 209.667 57.8689 209.4C57.7515 209.123 57.6769 208.893 57.6449 208.712C57.6129 208.531 57.5969 208.44 57.5969 208.44H59.1329C59.1329 208.44 59.1489 208.515 59.1809 208.664C59.2235 208.803 59.3035 208.968 59.4209 209.16C59.5489 209.341 59.7409 209.507 59.9969 209.656C60.2635 209.795 60.6155 209.864 61.0529 209.864C61.5542 209.864 61.9435 209.747 62.2209 209.512C62.4982 209.267 62.6369 208.968 62.6369 208.616C62.6369 208.307 62.5249 208.061 62.3009 207.88C62.0875 207.699 61.7782 207.56 61.3729 207.464L60.2209 207.192C59.7942 207.085 59.3942 206.941 59.0209 206.76C58.6475 206.579 58.3435 206.333 58.1089 206.024C57.8849 205.704 57.7729 205.309 57.7729 204.84C57.7729 204.115 58.0449 203.523 58.5889 203.064C59.1329 202.595 59.8422 202.36 60.7169 202.36C61.3035 202.36 61.7889 202.445 62.1729 202.616C62.5569 202.776 62.8609 202.979 63.0849 203.224C63.3195 203.469 63.4902 203.715 63.5969 203.96C63.7142 204.205 63.7889 204.413 63.8209 204.584C63.8529 204.744 63.8689 204.824 63.8689 204.824H62.3969C62.3969 204.824 62.3809 204.765 62.3489 204.648C62.3169 204.52 62.2422 204.381 62.1249 204.232C62.0182 204.072 61.8529 203.933 61.6289 203.816C61.4049 203.688 61.1062 203.624 60.7329 203.624C60.2209 203.624 59.8475 203.741 59.6129 203.976C59.3782 204.211 59.2609 204.467 59.2609 204.744C59.2609 205.011 59.3675 205.229 59.5809 205.4C59.8049 205.56 60.0929 205.683 60.4449 205.768L61.6129 206.04C62.3382 206.211 62.9355 206.493 63.4049 206.888C63.8849 207.272 64.1249 207.827 64.1249 208.552C64.1249 209.021 64.0022 209.459 63.7569 209.864C63.5115 210.259 63.1595 210.573 62.7009 210.808C62.2422 211.043 61.6822 211.16 61.0209 211.16ZM69.4856 211.16C68.611 211.16 67.9496 210.936 67.5016 210.488C67.0643 210.04 66.8456 209.411 66.8456 208.6V203.768H65.3256V202.52H66.8456V200.392H68.3656V202.52H70.4296V203.768H68.3656V208.6C68.3656 209.027 68.483 209.341 68.7176 209.544C68.9523 209.736 69.2936 209.832 69.7416 209.832C69.9763 209.832 70.2003 209.816 70.4136 209.784C70.627 209.752 70.7336 209.736 70.7336 209.736V211.032C70.7336 211.032 70.611 211.053 70.3656 211.096C70.1203 211.139 69.827 211.16 69.4856 211.16ZM72.7294 211V202.52H74.2494V203.576H74.3134C74.4947 203.256 74.7614 202.973 75.1134 202.728C75.4654 202.483 75.9614 202.36 76.6014 202.36C76.7827 202.36 76.948 202.371 77.0974 202.392C77.2467 202.403 77.3214 202.408 77.3214 202.408V203.864C77.3214 203.864 77.236 203.859 77.0654 203.848C76.9054 203.827 76.7347 203.816 76.5534 203.816C75.8174 203.816 75.2467 204.029 74.8414 204.456C74.4467 204.872 74.2494 205.555 74.2494 206.504V211H72.7294ZM79.315 214.12C79.0697 214.12 78.8617 214.109 78.691 214.088C78.5203 214.067 78.435 214.056 78.435 214.056V212.76C78.435 212.76 78.5203 212.765 78.691 212.776C78.8723 212.797 79.0643 212.808 79.267 212.808C79.8963 212.808 80.4083 212.675 80.803 212.408C81.2083 212.152 81.5497 211.725 81.827 211.128L78.547 202.52H80.131L82.579 209.144L85.043 202.52H86.643L83.363 211.016C82.947 212.083 82.4083 212.867 81.747 213.368C81.0963 213.869 80.2857 214.12 79.315 214.12ZM92.1706 211V199.16H99.6906V200.536H93.7386V204.28H98.9546V205.656H93.7386V209.624H99.7706V211H92.1706ZM101.469 211L104.237 206.776L101.453 202.52H103.101L105.277 205.88L107.469 202.52H109.117L106.285 206.776L109.101 211H107.453L105.277 207.656L103.117 211H101.469ZM111.03 214.136V202.52H112.55V203.864H112.646C112.774 203.661 112.945 203.443 113.158 203.208C113.382 202.973 113.675 202.776 114.038 202.616C114.401 202.445 114.849 202.36 115.382 202.36C116.022 202.36 116.582 202.488 117.062 202.744C117.542 202.989 117.942 203.325 118.262 203.752C118.582 204.168 118.822 204.637 118.982 205.16C119.142 205.683 119.222 206.216 119.222 206.76C119.222 207.304 119.142 207.837 118.982 208.36C118.822 208.883 118.582 209.357 118.262 209.784C117.942 210.2 117.542 210.536 117.062 210.792C116.582 211.037 116.022 211.16 115.382 211.16C114.849 211.16 114.401 211.075 114.038 210.904C113.675 210.733 113.382 210.531 113.158 210.296C112.945 210.061 112.774 209.848 112.646 209.656H112.55V214.136H111.03ZM112.582 206.76C112.582 207.272 112.673 207.768 112.854 208.248C113.046 208.717 113.329 209.107 113.702 209.416C114.086 209.715 114.561 209.864 115.126 209.864C115.702 209.864 116.177 209.715 116.55 209.416C116.934 209.107 117.217 208.717 117.398 208.248C117.59 207.768 117.686 207.272 117.686 206.76C117.686 206.237 117.59 205.741 117.398 205.272C117.217 204.803 116.934 204.419 116.55 204.12C116.177 203.811 115.702 203.656 115.126 203.656C114.561 203.656 114.086 203.811 113.702 204.12C113.329 204.419 113.046 204.803 112.854 205.272C112.673 205.741 112.582 206.237 112.582 206.76ZM125.085 211.16C124.392 211.16 123.789 211.037 123.277 210.792C122.776 210.536 122.36 210.195 122.029 209.768C121.709 209.341 121.469 208.872 121.309 208.36C121.149 207.837 121.069 207.304 121.069 206.76C121.069 206.227 121.144 205.699 121.293 205.176C121.453 204.653 121.693 204.179 122.013 203.752C122.344 203.325 122.755 202.989 123.245 202.744C123.747 202.488 124.339 202.36 125.021 202.36C125.747 202.36 126.387 202.525 126.941 202.856C127.496 203.187 127.933 203.677 128.253 204.328C128.573 204.979 128.733 205.795 128.733 206.776V207.224H122.605C122.637 207.704 122.749 208.147 122.941 208.552C123.144 208.947 123.427 209.267 123.789 209.512C124.152 209.747 124.584 209.864 125.085 209.864C125.523 209.864 125.875 209.795 126.141 209.656C126.419 209.507 126.637 209.336 126.797 209.144C126.957 208.952 127.064 208.787 127.117 208.648C127.181 208.499 127.213 208.424 127.213 208.424H128.637C128.637 208.424 128.611 208.52 128.557 208.712C128.504 208.893 128.408 209.117 128.269 209.384C128.131 209.651 127.928 209.923 127.661 210.2C127.395 210.467 127.053 210.696 126.637 210.888C126.221 211.069 125.704 211.16 125.085 211.16ZM122.621 206.04H127.245C127.224 205.485 127.107 205.037 126.893 204.696C126.68 204.344 126.408 204.083 126.077 203.912C125.747 203.741 125.395 203.656 125.021 203.656C124.349 203.656 123.8 203.875 123.373 204.312C122.947 204.739 122.696 205.315 122.621 206.04ZM130.808 211V202.52H132.328V203.576H132.392C132.573 203.256 132.84 202.973 133.192 202.728C133.544 202.483 134.04 202.36 134.68 202.36C134.861 202.36 135.026 202.371 135.176 202.392C135.325 202.403 135.4 202.408 135.4 202.408V203.864C135.4 203.864 135.314 203.859 135.144 203.848C134.984 203.827 134.813 203.816 134.632 203.816C133.896 203.816 133.325 204.029 132.92 204.456C132.525 204.872 132.328 205.555 132.328 206.504V211H130.808ZM140.673 211.16C139.798 211.16 139.137 210.936 138.689 210.488C138.252 210.04 138.033 209.411 138.033 208.6V203.768H136.513V202.52H138.033V200.392H139.553V202.52H141.617V203.768H139.553V208.6C139.553 209.027 139.67 209.341 139.905 209.544C140.14 209.736 140.481 209.832 140.929 209.832C141.164 209.832 141.388 209.816 141.601 209.784C141.814 209.752 141.921 209.736 141.921 209.736V211.032C141.921 211.032 141.798 211.053 141.553 211.096C141.308 211.139 141.014 211.16 140.673 211.16ZM147.021 211.16C146.37 211.16 145.832 211.069 145.405 210.888C144.989 210.707 144.658 210.483 144.413 210.216C144.168 209.939 143.986 209.667 143.869 209.4C143.752 209.123 143.677 208.893 143.645 208.712C143.613 208.531 143.597 208.44 143.597 208.44H145.133C145.133 208.44 145.149 208.515 145.181 208.664C145.224 208.803 145.304 208.968 145.421 209.16C145.549 209.341 145.741 209.507 145.997 209.656C146.264 209.795 146.616 209.864 147.053 209.864C147.554 209.864 147.944 209.747 148.221 209.512C148.498 209.267 148.637 208.968 148.637 208.616C148.637 208.307 148.525 208.061 148.301 207.88C148.088 207.699 147.778 207.56 147.373 207.464L146.221 207.192C145.794 207.085 145.394 206.941 145.021 206.76C144.648 206.579 144.344 206.333 144.109 206.024C143.885 205.704 143.773 205.309 143.773 204.84C143.773 204.115 144.045 203.523 144.589 203.064C145.133 202.595 145.842 202.36 146.717 202.36C147.304 202.36 147.789 202.445 148.173 202.616C148.557 202.776 148.861 202.979 149.085 203.224C149.32 203.469 149.49 203.715 149.597 203.96C149.714 204.205 149.789 204.413 149.821 204.584C149.853 204.744 149.869 204.824 149.869 204.824H148.397C148.397 204.824 148.381 204.765 148.349 204.648C148.317 204.52 148.242 204.381 148.125 204.232C148.018 204.072 147.853 203.933 147.629 203.816C147.405 203.688 147.106 203.624 146.733 203.624C146.221 203.624 145.848 203.741 145.613 203.976C145.378 204.211 145.261 204.467 145.261 204.744C145.261 205.011 145.368 205.229 145.581 205.4C145.805 205.56 146.093 205.683 146.445 205.768L147.613 206.04C148.338 206.211 148.936 206.493 149.405 206.888C149.885 207.272 150.125 207.827 150.125 208.552C150.125 209.021 150.002 209.459 149.757 209.864C149.512 210.259 149.16 210.573 148.701 210.808C148.242 211.043 147.682 211.16 147.021 211.16ZM155.329 211L159.505 199.16H161.473L165.665 211H164.001L163.009 208.168H157.985L156.993 211H155.329ZM158.465 206.76H162.529L160.497 200.952L158.465 206.76ZM167.511 211V202.52H169.031V203.752H169.127C169.201 203.624 169.324 203.448 169.495 203.224C169.676 203 169.932 202.803 170.263 202.632C170.593 202.451 171.009 202.36 171.511 202.36C172.129 202.36 172.657 202.504 173.095 202.792C173.532 203.069 173.863 203.448 174.087 203.928C174.321 204.408 174.439 204.947 174.439 205.544V211H172.919V205.64C172.919 205.075 172.759 204.605 172.439 204.232C172.129 203.859 171.676 203.672 171.079 203.672C170.599 203.672 170.209 203.795 169.911 204.04C169.612 204.275 169.388 204.589 169.239 204.984C169.1 205.368 169.031 205.779 169.031 206.216V211H167.511ZM180.363 211.16C179.723 211.16 179.163 211.037 178.683 210.792C178.203 210.536 177.803 210.2 177.483 209.784C177.163 209.357 176.923 208.883 176.763 208.36C176.603 207.837 176.523 207.304 176.523 206.76C176.523 206.216 176.603 205.683 176.763 205.16C176.923 204.637 177.163 204.168 177.483 203.752C177.803 203.325 178.203 202.989 178.683 202.744C179.163 202.488 179.723 202.36 180.363 202.36C180.896 202.36 181.344 202.445 181.707 202.616C182.069 202.787 182.363 202.989 182.587 203.224C182.811 203.448 182.981 203.661 183.099 203.864H183.195V198.84H184.715V211H183.195V209.656H183.099C182.981 209.859 182.811 210.077 182.587 210.312C182.363 210.547 182.069 210.749 181.707 210.92C181.344 211.08 180.896 211.16 180.363 211.16ZM180.619 209.864C181.184 209.864 181.653 209.715 182.027 209.416C182.411 209.107 182.693 208.717 182.875 208.248C183.067 207.768 183.163 207.272 183.163 206.76C183.163 206.237 183.067 205.741 182.875 205.272C182.693 204.803 182.411 204.419 182.027 204.12C181.653 203.811 181.184 203.656 180.619 203.656C180.053 203.656 179.579 203.811 179.195 204.12C178.811 204.419 178.523 204.803 178.331 205.272C178.149 205.741 178.059 206.237 178.059 206.76C178.059 207.272 178.149 207.768 178.331 208.248C178.523 208.717 178.811 209.107 179.195 209.416C179.579 209.715 180.053 209.864 180.619 209.864ZM190.968 211V199.16H193.032L196.52 206.2L199.992 199.16H202.056V211H200.52V201.464L197.256 207.96H195.768L192.504 201.432V211H190.968ZM207.216 211.16C206.373 211.16 205.701 210.899 205.2 210.376C204.699 209.853 204.448 209.128 204.448 208.2V202.52H205.968V208.12C205.968 208.675 206.117 209.101 206.416 209.4C206.725 209.699 207.131 209.848 207.632 209.848C208.144 209.848 208.555 209.715 208.864 209.448C209.173 209.181 209.397 208.84 209.536 208.424C209.675 208.008 209.744 207.581 209.744 207.144V202.52H211.264V211H209.744V209.784H209.648C209.584 209.912 209.461 210.088 209.28 210.312C209.099 210.525 208.843 210.723 208.512 210.904C208.181 211.075 207.749 211.16 207.216 211.16ZM216.615 211.16C215.964 211.16 215.425 211.069 214.999 210.888C214.583 210.707 214.252 210.483 214.007 210.216C213.761 209.939 213.58 209.667 213.463 209.4C213.345 209.123 213.271 208.893 213.239 208.712C213.207 208.531 213.191 208.44 213.191 208.44H214.727C214.727 208.44 214.743 208.515 214.775 208.664C214.817 208.803 214.897 208.968 215.015 209.16C215.143 209.341 215.335 209.507 215.591 209.656C215.857 209.795 216.209 209.864 216.647 209.864C217.148 209.864 217.537 209.747 217.815 209.512C218.092 209.267 218.231 208.968 218.231 208.616C218.231 208.307 218.119 208.061 217.895 207.88C217.681 207.699 217.372 207.56 216.967 207.464L215.815 207.192C215.388 207.085 214.988 206.941 214.615 206.76C214.241 206.579 213.937 206.333 213.703 206.024C213.479 205.704 213.367 205.309 213.367 204.84C213.367 204.115 213.639 203.523 214.183 203.064C214.727 202.595 215.436 202.36 216.311 202.36C216.897 202.36 217.383 202.445 217.767 202.616C218.151 202.776 218.455 202.979 218.679 203.224C218.913 203.469 219.084 203.715 219.191 203.96C219.308 204.205 219.383 204.413 219.415 204.584C219.447 204.744 219.463 204.824 219.463 204.824H217.991C217.991 204.824 217.975 204.765 217.943 204.648C217.911 204.52 217.836 204.381 217.719 204.232C217.612 204.072 217.447 203.933 217.223 203.816C216.999 203.688 216.7 203.624 216.327 203.624C215.815 203.624 215.441 203.741 215.207 203.976C214.972 204.211 214.855 204.467 214.855 204.744C214.855 205.011 214.961 205.229 215.175 205.4C215.399 205.56 215.687 205.683 216.039 205.768L217.207 206.04C217.932 206.211 218.529 206.493 218.999 206.888C219.479 207.272 219.719 207.827 219.719 208.552C219.719 209.021 219.596 209.459 219.351 209.864C219.105 210.259 218.753 210.573 218.295 210.808C217.836 211.043 217.276 211.16 216.615 211.16ZM222.628 200.904C222.34 200.904 222.1 200.808 221.908 200.616C221.726 200.424 221.636 200.195 221.636 199.928C221.636 199.651 221.726 199.416 221.908 199.224C222.1 199.032 222.34 198.936 222.628 198.936C222.905 198.936 223.14 199.032 223.332 199.224C223.524 199.416 223.62 199.651 223.62 199.928C223.62 200.195 223.524 200.424 223.332 200.616C223.14 200.808 222.905 200.904 222.628 200.904ZM221.876 211V202.52H223.396V211H221.876ZM229.87 211.16C229.177 211.16 228.569 211.037 228.046 210.792C227.524 210.536 227.086 210.2 226.734 209.784C226.393 209.357 226.132 208.883 225.95 208.36C225.78 207.837 225.694 207.304 225.694 206.76C225.694 206.216 225.78 205.688 225.95 205.176C226.121 204.653 226.377 204.179 226.718 203.752C227.07 203.325 227.508 202.989 228.03 202.744C228.553 202.488 229.166 202.36 229.87 202.36C230.553 202.36 231.118 202.461 231.566 202.664C232.014 202.867 232.372 203.123 232.638 203.432C232.916 203.731 233.118 204.035 233.246 204.344C233.385 204.643 233.476 204.893 233.518 205.096C233.561 205.299 233.582 205.4 233.582 205.4H232.11C232.11 205.4 232.084 205.315 232.03 205.144C231.977 204.963 231.876 204.76 231.726 204.536C231.577 204.312 231.353 204.115 231.054 203.944C230.756 203.763 230.361 203.672 229.87 203.672C229.284 203.672 228.788 203.821 228.382 204.12C227.988 204.408 227.689 204.787 227.486 205.256C227.294 205.725 227.198 206.227 227.198 206.76C227.198 207.293 227.294 207.795 227.486 208.264C227.689 208.733 227.988 209.117 228.382 209.416C228.788 209.704 229.284 209.848 229.87 209.848C230.361 209.848 230.756 209.763 231.054 209.592C231.353 209.411 231.577 209.208 231.726 208.984C231.876 208.76 231.977 208.563 232.03 208.392C232.084 208.211 232.11 208.12 232.11 208.12H233.582C233.582 208.12 233.561 208.221 233.518 208.424C233.476 208.627 233.385 208.883 233.246 209.192C233.118 209.491 232.916 209.795 232.638 210.104C232.372 210.403 232.014 210.653 231.566 210.856C231.118 211.059 230.553 211.16 229.87 211.16ZM239.347 202.36C239.88 202.36 240.328 202.445 240.691 202.616C241.054 202.787 241.347 202.989 241.571 203.224C241.795 203.448 241.966 203.661 242.083 203.864H242.179V202.52H243.699V211H242.179V209.656H242.083C241.966 209.859 241.795 210.077 241.571 210.312C241.347 210.547 241.054 210.749 240.691 210.92C240.328 211.08 239.88 211.16 239.347 211.16C238.707 211.16 238.147 211.037 237.667 210.792C237.187 210.536 236.787 210.2 236.467 209.784C236.147 209.357 235.907 208.883 235.747 208.36C235.587 207.837 235.507 207.304 235.507 206.76C235.507 206.216 235.587 205.683 235.747 205.16C235.907 204.637 236.147 204.168 236.467 203.752C236.787 203.325 237.187 202.989 237.667 202.744C238.147 202.488 238.707 202.36 239.347 202.36ZM239.603 203.656C239.038 203.656 238.563 203.811 238.179 204.12C237.795 204.419 237.507 204.803 237.315 205.272C237.134 205.741 237.043 206.237 237.043 206.76C237.043 207.272 237.134 207.768 237.315 208.248C237.507 208.717 237.795 209.107 238.179 209.416C238.563 209.715 239.038 209.864 239.603 209.864C240.168 209.864 240.638 209.715 241.011 209.416C241.395 209.107 241.678 208.717 241.859 208.248C242.051 207.768 242.147 207.272 242.147 206.76C242.147 206.237 242.051 205.741 241.859 205.272C241.678 204.803 241.395 204.419 241.011 204.12C240.638 203.811 240.168 203.656 239.603 203.656ZM246.093 211L246.109 198.84H247.613V211H246.093ZM25.28 236V224.16H26.848V234.624H32.944V236H25.28ZM38.3198 236.16C37.6264 236.16 37.0238 236.037 36.5118 235.792C36.0104 235.536 35.5944 235.195 35.2638 234.768C34.9438 234.341 34.7038 233.872 34.5438 233.36C34.3838 232.837 34.3038 232.304 34.3038 231.76C34.3038 231.227 34.3784 230.699 34.5278 230.176C34.6878 229.653 34.9278 229.179 35.2478 228.752C35.5784 228.325 35.9891 227.989 36.4798 227.744C36.9811 227.488 37.5731 227.36 38.2558 227.36C38.9811 227.36 39.6211 227.525 40.1758 227.856C40.7304 228.187 41.1678 228.677 41.4878 229.328C41.8078 229.979 41.9678 230.795 41.9678 231.776V232.224H35.8398C35.8718 232.704 35.9838 233.147 36.1758 233.552C36.3784 233.947 36.6611 234.267 37.0238 234.512C37.3864 234.747 37.8184 234.864 38.3198 234.864C38.7571 234.864 39.1091 234.795 39.3758 234.656C39.6531 234.507 39.8718 234.336 40.0318 234.144C40.1918 233.952 40.2984 233.787 40.3518 233.648C40.4158 233.499 40.4478 233.424 40.4478 233.424H41.8718C41.8718 233.424 41.8451 233.52 41.7917 233.712C41.7384 233.893 41.6424 234.117 41.5038 234.384C41.3651 234.651 41.1624 234.923 40.8958 235.2C40.6291 235.467 40.2878 235.696 39.8718 235.888C39.4558 236.069 38.9384 236.16 38.3198 236.16ZM35.8558 231.04H40.4798C40.4584 230.485 40.3411 230.037 40.1278 229.696C39.9144 229.344 39.6424 229.083 39.3118 228.912C38.9811 228.741 38.6291 228.656 38.2558 228.656C37.5838 228.656 37.0344 228.875 36.6078 229.312C36.1811 229.739 35.9304 230.315 35.8558 231.04ZM48.0438 239.36C47.3398 239.36 46.7531 239.264 46.2838 239.072C45.8144 238.891 45.4358 238.656 45.1478 238.368C44.8704 238.091 44.6624 237.813 44.5238 237.536C44.3851 237.259 44.2944 237.024 44.2518 236.832C44.2091 236.651 44.1878 236.56 44.1878 236.56H45.7078C45.7078 236.56 45.7344 236.635 45.7878 236.784C45.8411 236.933 45.9424 237.104 46.0918 237.296C46.2518 237.488 46.4864 237.659 46.7958 237.808C47.1051 237.957 47.5211 238.032 48.0438 238.032C48.6624 238.032 49.1478 237.909 49.4998 237.664C49.8518 237.429 50.1024 237.12 50.2518 236.736C50.4118 236.352 50.4918 235.947 50.4918 235.52V234.544H50.4118C50.3051 234.725 50.1344 234.933 49.8998 235.168C49.6758 235.392 49.3771 235.589 49.0038 235.76C48.6304 235.92 48.1718 236 47.6278 236C46.9878 236 46.4278 235.877 45.9478 235.632C45.4678 235.387 45.0678 235.056 44.7478 234.64C44.4384 234.224 44.2038 233.76 44.0438 233.248C43.8838 232.736 43.8038 232.213 43.8038 231.68C43.8038 231.147 43.8838 230.624 44.0438 230.112C44.2038 229.6 44.4384 229.136 44.7478 228.72C45.0678 228.304 45.4678 227.973 45.9478 227.728C46.4278 227.483 46.9878 227.36 47.6278 227.36C48.1718 227.36 48.6304 227.445 49.0038 227.616C49.3771 227.776 49.6758 227.968 49.8998 228.192C50.1344 228.416 50.3051 228.624 50.4118 228.816H50.4918V227.52H52.0118V235.504C52.0118 236.688 51.6651 237.627 50.9718 238.32C50.2891 239.013 49.3131 239.36 48.0438 239.36ZM47.9158 234.704C48.4811 234.704 48.9504 234.56 49.3238 234.272C49.7078 233.973 49.9904 233.595 50.1718 233.136C50.3638 232.677 50.4598 232.192 50.4598 231.68C50.4598 231.168 50.3638 230.683 50.1718 230.224C49.9904 229.755 49.7078 229.376 49.3238 229.088C48.9504 228.8 48.4811 228.656 47.9158 228.656C47.3504 228.656 46.8758 228.8 46.4918 229.088C46.1078 229.376 45.8198 229.755 45.6278 230.224C45.4464 230.683 45.3558 231.168 45.3558 231.68C45.3558 232.192 45.4464 232.677 45.6278 233.136C45.8198 233.595 46.1078 233.973 46.4918 234.272C46.8758 234.56 47.3504 234.704 47.9158 234.704ZM57.7885 236.16C57.0952 236.16 56.4925 236.037 55.9805 235.792C55.4792 235.536 55.0632 235.195 54.7325 234.768C54.4125 234.341 54.1725 233.872 54.0125 233.36C53.8525 232.837 53.7725 232.304 53.7725 231.76C53.7725 231.227 53.8472 230.699 53.9965 230.176C54.1565 229.653 54.3965 229.179 54.7165 228.752C55.0472 228.325 55.4578 227.989 55.9485 227.744C56.4498 227.488 57.0418 227.36 57.7245 227.36C58.4498 227.36 59.0898 227.525 59.6445 227.856C60.1992 228.187 60.6365 228.677 60.9565 229.328C61.2765 229.979 61.4365 230.795 61.4365 231.776V232.224H55.3085C55.3405 232.704 55.4525 233.147 55.6445 233.552C55.8472 233.947 56.1298 234.267 56.4925 234.512C56.8552 234.747 57.2872 234.864 57.7885 234.864C58.2258 234.864 58.5778 234.795 58.8445 234.656C59.1218 234.507 59.3405 234.336 59.5005 234.144C59.6605 233.952 59.7672 233.787 59.8205 233.648C59.8845 233.499 59.9165 233.424 59.9165 233.424H61.3405C61.3405 233.424 61.3138 233.52 61.2605 233.712C61.2072 233.893 61.1112 234.117 60.9725 234.384C60.8338 234.651 60.6312 234.923 60.3645 235.2C60.0978 235.467 59.7565 235.696 59.3405 235.888C58.9245 236.069 58.4072 236.16 57.7885 236.16ZM55.3245 231.04H59.9485C59.9272 230.485 59.8098 230.037 59.5965 229.696C59.3832 229.344 59.1112 229.083 58.7805 228.912C58.4498 228.741 58.0978 228.656 57.7245 228.656C57.0525 228.656 56.5032 228.875 56.0765 229.312C55.6498 229.739 55.3992 230.315 55.3245 231.04ZM63.5106 236V227.52H65.0306V228.752H65.1266C65.2013 228.624 65.324 228.448 65.4946 228.224C65.676 228 65.932 227.803 66.2626 227.632C66.5933 227.451 67.0093 227.36 67.5106 227.36C68.1293 227.36 68.6573 227.504 69.0946 227.792C69.532 228.069 69.8626 228.448 70.0866 228.928C70.3213 229.408 70.4386 229.947 70.4386 230.544V236H68.9186V230.64C68.9186 230.075 68.7586 229.605 68.4386 229.232C68.1293 228.859 67.676 228.672 67.0786 228.672C66.5986 228.672 66.2093 228.795 65.9106 229.04C65.612 229.275 65.388 229.589 65.2386 229.984C65.1 230.368 65.0306 230.779 65.0306 231.216V236H63.5106ZM76.3625 236.16C75.7225 236.16 75.1625 236.037 74.6825 235.792C74.2025 235.536 73.8025 235.2 73.4825 234.784C73.1625 234.357 72.9225 233.883 72.7625 233.36C72.6025 232.837 72.5225 232.304 72.5225 231.76C72.5225 231.216 72.6025 230.683 72.7625 230.16C72.9225 229.637 73.1625 229.168 73.4825 228.752C73.8025 228.325 74.2025 227.989 74.6825 227.744C75.1625 227.488 75.7225 227.36 76.3625 227.36C76.8958 227.36 77.3438 227.445 77.7065 227.616C78.0692 227.787 78.3625 227.989 78.5865 228.224C78.8105 228.448 78.9812 228.661 79.0985 228.864H79.1945V223.84H80.7145V236H79.1945V234.656H79.0985C78.9812 234.859 78.8105 235.077 78.5865 235.312C78.3625 235.547 78.0692 235.749 77.7065 235.92C77.3438 236.08 76.8958 236.16 76.3625 236.16ZM76.6185 234.864C77.1838 234.864 77.6532 234.715 78.0265 234.416C78.4105 234.107 78.6932 233.717 78.8745 233.248C79.0665 232.768 79.1625 232.272 79.1625 231.76C79.1625 231.237 79.0665 230.741 78.8745 230.272C78.6932 229.803 78.4105 229.419 78.0265 229.12C77.6532 228.811 77.1838 228.656 76.6185 228.656C76.0532 228.656 75.5785 228.811 75.1945 229.12C74.8105 229.419 74.5225 229.803 74.3305 230.272C74.1492 230.741 74.0585 231.237 74.0585 231.76C74.0585 232.272 74.1492 232.768 74.3305 233.248C74.5225 233.717 74.8105 234.107 75.1945 234.416C75.5785 234.715 76.0532 234.864 76.6185 234.864ZM86.224 236.16C85.5733 236.16 85.0347 236.069 84.608 235.888C84.192 235.707 83.8613 235.483 83.616 235.216C83.3707 234.939 83.1893 234.667 83.072 234.4C82.9547 234.123 82.88 233.893 82.848 233.712C82.816 233.531 82.8 233.44 82.8 233.44H84.336C84.336 233.44 84.352 233.515 84.384 233.664C84.4267 233.803 84.5067 233.968 84.624 234.16C84.752 234.341 84.944 234.507 85.2 234.656C85.4667 234.795 85.8187 234.864 86.256 234.864C86.7573 234.864 87.1467 234.747 87.424 234.512C87.7013 234.267 87.84 233.968 87.84 233.616C87.84 233.307 87.728 233.061 87.504 232.88C87.2907 232.699 86.9813 232.56 86.576 232.464L85.424 232.192C84.9973 232.085 84.5973 231.941 84.224 231.76C83.8507 231.579 83.5467 231.333 83.312 231.024C83.088 230.704 82.976 230.309 82.976 229.84C82.976 229.115 83.248 228.523 83.792 228.064C84.336 227.595 85.0453 227.36 85.92 227.36C86.5067 227.36 86.992 227.445 87.376 227.616C87.76 227.776 88.064 227.979 88.288 228.224C88.5227 228.469 88.6933 228.715 88.8 228.96C88.9173 229.205 88.992 229.413 89.024 229.584C89.056 229.744 89.072 229.824 89.072 229.824H87.6C87.6 229.824 87.584 229.765 87.552 229.648C87.52 229.52 87.4453 229.381 87.328 229.232C87.2213 229.072 87.056 228.933 86.832 228.816C86.608 228.688 86.3093 228.624 85.936 228.624C85.424 228.624 85.0507 228.741 84.816 228.976C84.5813 229.211 84.464 229.467 84.464 229.744C84.464 230.011 84.5707 230.229 84.784 230.4C85.008 230.56 85.296 230.683 85.648 230.768L86.816 231.04C87.5413 231.211 88.1387 231.493 88.608 231.888C89.088 232.272 89.328 232.827 89.328 233.552C89.328 234.021 89.2053 234.459 88.96 234.864C88.7147 235.259 88.3627 235.573 87.904 235.808C87.4453 236.043 86.8853 236.16 86.224 236.16ZM92.413 236.16C92.1143 236.16 91.8637 236.059 91.661 235.856C91.469 235.643 91.373 235.397 91.373 235.12C91.373 234.832 91.469 234.587 91.661 234.384C91.8637 234.181 92.1143 234.08 92.413 234.08C92.7117 234.08 92.957 234.181 93.149 234.384C93.3517 234.587 93.453 234.832 93.453 235.12C93.453 235.408 93.3517 235.653 93.149 235.856C92.957 236.059 92.7117 236.16 92.413 236.16Z" fill="#786363"/>
<path opacity="0.24" d="M225.334 139.4C221.334 139.4 217.701 138.6 214.434 137C211.168 135.4 208.368 133.1 206.034 130.1C203.768 127.1 202.001 123.533 200.734 119.4C199.534 115.2 198.934 110.533 198.934 105.4C198.934 98.0667 200.068 91.8333 202.334 86.7C204.601 81.5 207.734 77.5333 211.734 74.8C215.734 72.0667 220.334 70.7 225.534 70.7C230.934 70.7 235.568 72.1667 239.434 75.1C243.368 77.9667 246.368 82 248.434 87.2C250.568 92.3333 251.634 98.3667 251.634 105.3C251.634 110.367 251.034 115 249.834 119.2C248.634 123.4 246.868 127 244.534 130C242.201 133 239.434 135.333 236.234 137C233.034 138.6 229.401 139.4 225.334 139.4ZM225.334 131.5C227.801 131.5 230.068 130.967 232.134 129.9C234.201 128.767 236.001 127.1 237.534 124.9C239.134 122.7 240.368 119.967 241.234 116.7C242.101 113.367 242.534 109.467 242.534 105C242.534 99.4667 241.801 94.7333 240.334 90.8C238.934 86.8667 236.934 83.8333 234.334 81.7C231.801 79.5667 228.834 78.5 225.434 78.5C222.368 78.5 219.501 79.4333 216.834 81.3C214.234 83.1 212.101 85.9667 210.434 89.9C208.834 93.7667 208.034 98.8 208.034 105C208.034 109.333 208.468 113.167 209.334 116.5C210.201 119.767 211.401 122.533 212.934 124.8C214.468 127 216.268 128.667 218.334 129.8C220.468 130.933 222.801 131.5 225.334 131.5ZM262.576 138V127.3L286.076 109.4C287.542 108.2 289.042 106.933 290.576 105.6C292.109 104.2 293.509 102.667 294.776 101C296.109 99.3333 297.176 97.5667 297.976 95.7C298.842 93.8333 299.276 91.8333 299.276 89.7C299.276 87.5 298.776 85.5667 297.776 83.9C296.776 82.2333 295.276 80.9667 293.276 80.1C291.342 79.1667 288.909 78.7 285.976 78.7C283.976 78.7 282.109 78.9667 280.376 79.5C278.642 80.0333 277.142 80.9667 275.876 82.3C274.609 83.6333 273.642 85.4 272.976 87.6C272.376 89.8 272.076 92.5333 272.076 95.8L263.276 94.3C263.142 89.5 263.909 85.3333 265.576 81.8C267.242 78.2 269.776 75.4333 273.176 73.5C276.642 71.5667 280.976 70.6 286.176 70.6C290.642 70.6 294.542 71.3333 297.876 72.8C301.209 74.2667 303.776 76.4 305.576 79.2C307.442 81.9333 308.376 85.2 308.376 89C308.376 92.1333 307.842 95.0333 306.776 97.7C305.709 100.3 304.342 102.7 302.676 104.9C301.009 107.033 299.176 108.967 297.176 110.7C295.242 112.367 293.342 113.867 291.476 115.2L272.576 129.6V130.5L309.976 130.1V138H262.576Z" fill="url(#paint1_linear_1_520)"/>
</g>
<rect x="0.5" y="0.5" width="330" height="266" rx="23.5" stroke="white"/>
<defs>
<filter id="filter0_f_1_520" x="-197.496" y="-149.486" width="628.975" height="628.975" filterUnits="userSpaceOnUse" color-interpolation-filters="sRGB">
<feFlood flood-opacity="0" result="BackgroundImageFix"/>
<feBlend mode="normal" in="SourceGraphic" in2="BackgroundImageFix" result="shape"/>
<feGaussianBlur stdDeviation="50" result="effect1_foregroundBlur_1_520"/>
</filter>
<linearGradient id="paint0_linear_1_520" x1="11.6178" y1="65.4352" x2="306.834" y2="166.796" gradientUnits="userSpaceOnUse">
<stop offset="0.0679999" stop-color="#B1A5A6" stop-opacity="0.48"/>
<stop offset="0.433" stop-color="#FFD208" stop-opacity="0.24"/>
<stop offset="0.723" stop-color="#E4111D" stop-opacity="0"/>
<stop offset="1" stop-color="#F2404A" stop-opacity="0.4"/>
</linearGradient>
<linearGradient id="paint1_linear_1_520" x1="192" y1="76" x2="290.798" y2="157.014" gradientUnits="userSpaceOnUse">
<stop stop-color="#0E0606"/>
<stop offset="1" stop-color="#0E0606" stop-opacity="0"/>
</linearGradient>
<clipPath id="clip0_1_520">
<rect width="331" height="267" rx="24" fill="white"/>
</clipPath>
</defs>
</svg>
