<svg width="313" height="257" viewBox="0 0 313 257" fill="none" xmlns="http://www.w3.org/2000/svg">
<g filter="url(#filter0_ddii_1_541)">
<circle cx="104.5" cy="104.5" r="104.5" transform="matrix(-1 0 0 1 229 24)" fill="#F0DDDD"/>
</g>
<g filter="url(#filter1_dii_1_541)">
<circle cx="32" cy="32" r="32" transform="matrix(-1 0 0 1 201 52)" fill="#F0DDDD"/>
</g>
<g filter="url(#filter2_i_1_541)">
<circle cx="6" cy="6" r="6" transform="matrix(-1 0 0 1 185 68)" fill="#FF0000"/>
</g>
<circle cx="8" cy="8" r="8" transform="matrix(-1 0 0 1 189 169.578)" fill="#C0B1B1"/>
<path d="M244.592 44.312C243.44 44.312 242.416 44.128 241.52 43.76C240.624 43.392 239.856 42.864 239.216 42.176C238.592 41.472 238.112 40.616 237.776 39.608C237.44 38.6 237.272 37.448 237.272 36.152C237.272 34.28 237.592 32.736 238.232 31.52C238.872 30.288 239.752 29.368 240.872 28.76C241.992 28.152 243.264 27.848 244.688 27.848C245.792 27.848 246.792 28.032 247.688 28.4C248.584 28.752 249.344 29.28 249.968 29.984C250.608 30.672 251.104 31.536 251.456 32.576C251.808 33.6 251.984 34.776 251.984 36.104C251.984 37.432 251.808 38.608 251.456 39.632C251.12 40.64 250.632 41.496 249.992 42.2C249.352 42.888 248.576 43.416 247.664 43.784C246.768 44.136 245.744 44.312 244.592 44.312ZM244.664 41.864C245.576 41.864 246.336 41.648 246.944 41.216C247.568 40.768 248.04 40.128 248.36 39.296C248.696 38.464 248.864 37.448 248.864 36.248C248.864 35.016 248.696 33.96 248.36 33.08C248.024 32.2 247.536 31.536 246.896 31.088C246.272 30.624 245.504 30.392 244.592 30.392C243.728 30.392 242.976 30.616 242.336 31.064C241.712 31.496 241.232 32.144 240.896 33.008C240.56 33.856 240.392 34.896 240.392 36.128C240.392 37.056 240.488 37.88 240.68 38.6C240.872 39.304 241.144 39.896 241.496 40.376C241.864 40.856 242.312 41.224 242.84 41.48C243.384 41.736 243.992 41.864 244.664 41.864ZM254.954 44V36.344V31.448H257.474L257.402 35.288H257.834C258.058 34.344 258.354 33.568 258.722 32.96C259.106 32.352 259.594 31.896 260.186 31.592C260.778 31.288 261.466 31.136 262.25 31.136C263.674 31.136 264.754 31.64 265.49 32.648C266.242 33.656 266.618 35.216 266.618 37.328V44H263.57V37.64C263.57 36.28 263.362 35.288 262.946 34.664C262.546 34.024 261.946 33.704 261.146 33.704C260.474 33.704 259.906 33.92 259.442 34.352C258.978 34.768 258.618 35.328 258.362 36.032C258.122 36.72 257.994 37.48 257.978 38.312V44H254.954ZM269.813 44V26.96H272.789V44H269.813ZM276.188 44V31.448H279.212V44H276.188ZM277.7 29.48C277.092 29.48 276.62 29.352 276.284 29.096C275.964 28.824 275.804 28.44 275.804 27.944C275.804 27.448 275.964 27.072 276.284 26.816C276.62 26.544 277.092 26.408 277.7 26.408C278.34 26.408 278.82 26.536 279.14 26.792C279.46 27.048 279.62 27.432 279.62 27.944C279.62 28.44 279.452 28.824 279.116 29.096C278.796 29.352 278.324 29.48 277.7 29.48ZM282.61 44V36.344V31.448H285.13L285.058 35.288H285.49C285.714 34.344 286.01 33.568 286.378 32.96C286.762 32.352 287.25 31.896 287.842 31.592C288.434 31.288 289.122 31.136 289.906 31.136C291.33 31.136 292.41 31.64 293.146 32.648C293.898 33.656 294.274 35.216 294.274 37.328V44H291.226V37.64C291.226 36.28 291.018 35.288 290.602 34.664C290.202 34.024 289.602 33.704 288.802 33.704C288.13 33.704 287.562 33.92 287.098 34.352C286.634 34.768 286.274 35.328 286.018 36.032C285.778 36.72 285.65 37.48 285.634 38.312V44H282.61ZM303.134 44.312C302.126 44.312 301.222 44.168 300.422 43.88C299.638 43.592 298.974 43.176 298.43 42.632C297.886 42.072 297.47 41.4 297.182 40.616C296.894 39.832 296.75 38.944 296.75 37.952C296.75 36.96 296.886 36.048 297.158 35.216C297.446 34.384 297.854 33.664 298.382 33.056C298.91 32.448 299.55 31.976 300.302 31.64C301.07 31.304 301.942 31.136 302.918 31.136C303.83 31.136 304.646 31.288 305.366 31.592C306.086 31.896 306.694 32.352 307.19 32.96C307.686 33.552 308.054 34.296 308.294 35.192C308.534 36.072 308.614 37.096 308.534 38.264L298.718 38.336V36.584L306.782 36.512L305.726 37.496C305.822 36.584 305.75 35.84 305.51 35.264C305.27 34.672 304.926 34.24 304.478 33.968C304.03 33.68 303.518 33.536 302.942 33.536C302.286 33.536 301.71 33.712 301.214 34.064C300.718 34.4 300.334 34.896 300.062 35.552C299.806 36.192 299.678 36.976 299.678 37.904C299.678 39.296 299.982 40.336 300.59 41.024C301.214 41.712 302.062 42.056 303.134 42.056C303.614 42.056 304.014 42 304.334 41.888C304.67 41.76 304.95 41.6 305.174 41.408C305.398 41.2 305.574 40.968 305.702 40.712C305.846 40.456 305.958 40.184 306.038 39.896L308.678 40.496C308.55 41.088 308.342 41.616 308.054 42.08C307.766 42.544 307.39 42.944 306.926 43.28C306.478 43.616 305.942 43.872 305.318 44.048C304.694 44.224 303.966 44.312 303.134 44.312Z" fill="#0E0606"/>
<rect x="236" y="56" width="4" height="36" transform="rotate(-90 236 56)" fill="#FF0000"/>
<path opacity="0.6" d="M244.592 221.312C243.44 221.312 242.416 221.128 241.52 220.76C240.624 220.392 239.856 219.864 239.216 219.176C238.592 218.472 238.112 217.616 237.776 216.608C237.44 215.6 237.272 214.448 237.272 213.152C237.272 211.28 237.592 209.736 238.232 208.52C238.872 207.288 239.752 206.368 240.872 205.76C241.992 205.152 243.264 204.848 244.688 204.848C245.792 204.848 246.792 205.032 247.688 205.4C248.584 205.752 249.344 206.28 249.968 206.984C250.608 207.672 251.104 208.536 251.456 209.576C251.808 210.6 251.984 211.776 251.984 213.104C251.984 214.432 251.808 215.608 251.456 216.632C251.12 217.64 250.632 218.496 249.992 219.2C249.352 219.888 248.576 220.416 247.664 220.784C246.768 221.136 245.744 221.312 244.592 221.312ZM244.664 218.864C245.576 218.864 246.336 218.648 246.944 218.216C247.568 217.768 248.04 217.128 248.36 216.296C248.696 215.464 248.864 214.448 248.864 213.248C248.864 212.016 248.696 210.96 248.36 210.08C248.024 209.2 247.536 208.536 246.896 208.088C246.272 207.624 245.504 207.392 244.592 207.392C243.728 207.392 242.976 207.616 242.336 208.064C241.712 208.496 241.232 209.144 240.896 210.008C240.56 210.856 240.392 211.896 240.392 213.128C240.392 214.056 240.488 214.88 240.68 215.6C240.872 216.304 241.144 216.896 241.496 217.376C241.864 217.856 242.312 218.224 242.84 218.48C243.384 218.736 243.992 218.864 244.664 218.864ZM255.914 221V212.696H253.826V210.416L257.114 210.584V210.152C256.618 210.008 256.202 209.8 255.866 209.528C255.53 209.24 255.282 208.904 255.122 208.52C254.978 208.136 254.906 207.72 254.906 207.272C254.906 206.584 255.074 205.992 255.41 205.496C255.746 205 256.218 204.616 256.826 204.344C257.434 204.056 258.154 203.912 258.986 203.912C259.674 203.912 260.298 204 260.858 204.176C261.434 204.352 261.898 204.568 262.25 204.824L262.01 207.608C261.658 207.32 261.25 207.096 260.786 206.936C260.322 206.76 259.874 206.672 259.442 206.672C258.946 206.672 258.538 206.816 258.218 207.104C257.898 207.376 257.738 207.824 257.738 208.448C257.738 208.848 257.81 209.176 257.954 209.432C258.098 209.672 258.282 209.864 258.506 210.008C258.746 210.136 258.978 210.232 259.202 210.296H262.13V212.696H258.866V221H255.914ZM265.641 221V212.696H263.553V210.416L266.841 210.584V210.152C266.345 210.008 265.929 209.8 265.593 209.528C265.257 209.24 265.009 208.904 264.849 208.52C264.705 208.136 264.633 207.72 264.633 207.272C264.633 206.584 264.801 205.992 265.137 205.496C265.473 205 265.945 204.616 266.553 204.344C267.161 204.056 267.881 203.912 268.713 203.912C269.401 203.912 270.025 204 270.585 204.176C271.161 204.352 271.625 204.568 271.977 204.824L271.737 207.608C271.385 207.32 270.977 207.096 270.513 206.936C270.049 206.76 269.601 206.672 269.169 206.672C268.673 206.672 268.265 206.816 267.945 207.104C267.625 207.376 267.465 207.824 267.465 208.448C267.465 208.848 267.537 209.176 267.681 209.432C267.825 209.672 268.009 209.864 268.233 210.008C268.473 210.136 268.705 210.232 268.929 210.296H271.857V212.696H268.593V221H265.641ZM274.009 221V203.96H276.985V221H274.009ZM280.384 221V208.448H283.408V221H280.384ZM281.896 206.48C281.288 206.48 280.816 206.352 280.48 206.096C280.16 205.824 280 205.44 280 204.944C280 204.448 280.16 204.072 280.48 203.816C280.816 203.544 281.288 203.408 281.896 203.408C282.536 203.408 283.016 203.536 283.336 203.792C283.656 204.048 283.816 204.432 283.816 204.944C283.816 205.44 283.648 205.824 283.312 206.096C282.992 206.352 282.52 206.48 281.896 206.48ZM286.806 221V213.344V208.448H289.326L289.254 212.288H289.686C289.91 211.344 290.206 210.568 290.574 209.96C290.958 209.352 291.446 208.896 292.038 208.592C292.63 208.288 293.318 208.136 294.102 208.136C295.526 208.136 296.606 208.64 297.342 209.648C298.094 210.656 298.47 212.216 298.47 214.328V221H295.422V214.64C295.422 213.28 295.214 212.288 294.798 211.664C294.398 211.024 293.798 210.704 292.998 210.704C292.326 210.704 291.758 210.92 291.294 211.352C290.83 211.768 290.47 212.328 290.214 213.032C289.974 213.72 289.846 214.48 289.83 215.312V221H286.806ZM307.329 221.312C306.321 221.312 305.417 221.168 304.617 220.88C303.833 220.592 303.169 220.176 302.625 219.632C302.081 219.072 301.665 218.4 301.377 217.616C301.089 216.832 300.945 215.944 300.945 214.952C300.945 213.96 301.081 213.048 301.353 212.216C301.641 211.384 302.049 210.664 302.577 210.056C303.105 209.448 303.745 208.976 304.497 208.64C305.265 208.304 306.137 208.136 307.113 208.136C308.025 208.136 308.841 208.288 309.561 208.592C310.281 208.896 310.889 209.352 311.385 209.96C311.881 210.552 312.249 211.296 312.489 212.192C312.729 213.072 312.809 214.096 312.729 215.264L302.913 215.336V213.584L310.977 213.512L309.921 214.496C310.017 213.584 309.945 212.84 309.705 212.264C309.465 211.672 309.121 211.24 308.673 210.968C308.225 210.68 307.713 210.536 307.137 210.536C306.481 210.536 305.905 210.712 305.409 211.064C304.913 211.4 304.529 211.896 304.257 212.552C304.001 213.192 303.873 213.976 303.873 214.904C303.873 216.296 304.177 217.336 304.785 218.024C305.409 218.712 306.257 219.056 307.329 219.056C307.809 219.056 308.209 219 308.529 218.888C308.865 218.76 309.145 218.6 309.369 218.408C309.593 218.2 309.769 217.968 309.897 217.712C310.041 217.456 310.153 217.184 310.233 216.896L312.873 217.496C312.745 218.088 312.537 218.616 312.249 219.08C311.961 219.544 311.585 219.944 311.121 220.28C310.673 220.616 310.137 220.872 309.513 221.048C308.889 221.224 308.161 221.312 307.329 221.312Z" fill="#0E0606"/>
<rect opacity="0.4" x="236" y="233" width="4" height="36" transform="rotate(-90 236 233)" fill="#FF0000"/>
<defs>
<filter id="filter0_ddii_1_541" x="0" y="0" width="253" height="257" filterUnits="userSpaceOnUse" color-interpolation-filters="sRGB">
<feFlood flood-opacity="0" result="BackgroundImageFix"/>
<feColorMatrix in="SourceAlpha" type="matrix" values="0 0 0 0 0 0 0 0 0 0 0 0 0 0 0 0 0 0 127 0" result="hardAlpha"/>
<feOffset dx="-4" dy="8"/>
<feGaussianBlur stdDeviation="8"/>
<feComposite in2="hardAlpha" operator="out"/>
<feColorMatrix type="matrix" values="0 0 0 0 0 0 0 0 0 0 0 0 0 0 0 0 0 0 0.16 0"/>
<feBlend mode="normal" in2="BackgroundImageFix" result="effect1_dropShadow_1_541"/>
<feColorMatrix in="SourceAlpha" type="matrix" values="0 0 0 0 0 0 0 0 0 0 0 0 0 0 0 0 0 0 127 0" result="hardAlpha"/>
<feOffset dx="4" dy="-4"/>
<feGaussianBlur stdDeviation="10"/>
<feComposite in2="hardAlpha" operator="out"/>
<feColorMatrix type="matrix" values="0 0 0 0 1 0 0 0 0 1 0 0 0 0 1 0 0 0 1 0"/>
<feBlend mode="normal" in2="effect1_dropShadow_1_541" result="effect2_dropShadow_1_541"/>
<feBlend mode="normal" in="SourceGraphic" in2="effect2_dropShadow_1_541" result="shape"/>
<feColorMatrix in="SourceAlpha" type="matrix" values="0 0 0 0 0 0 0 0 0 0 0 0 0 0 0 0 0 0 127 0" result="hardAlpha"/>
<feOffset dx="-4" dy="4"/>
<feGaussianBlur stdDeviation="10"/>
<feComposite in2="hardAlpha" operator="arithmetic" k2="-1" k3="1"/>
<feColorMatrix type="matrix" values="0 0 0 0 0.305365 0 0 0 0 0.0363021 0 0 0 0 0.0363021 0 0 0 0.1 0"/>
<feBlend mode="normal" in2="shape" result="effect3_innerShadow_1_541"/>
<feColorMatrix in="SourceAlpha" type="matrix" values="0 0 0 0 0 0 0 0 0 0 0 0 0 0 0 0 0 0 127 0" result="hardAlpha"/>
<feOffset dy="-4"/>
<feGaussianBlur stdDeviation="8"/>
<feComposite in2="hardAlpha" operator="arithmetic" k2="-1" k3="1"/>
<feColorMatrix type="matrix" values="0 0 0 0 1 0 0 0 0 1 0 0 0 0 1 0 0 0 1 0"/>
<feBlend mode="normal" in2="effect3_innerShadow_1_541" result="effect4_innerShadow_1_541"/>
</filter>
<filter id="filter1_dii_1_541" x="125" y="44" width="96" height="96" filterUnits="userSpaceOnUse" color-interpolation-filters="sRGB">
<feFlood flood-opacity="0" result="BackgroundImageFix"/>
<feColorMatrix in="SourceAlpha" type="matrix" values="0 0 0 0 0 0 0 0 0 0 0 0 0 0 0 0 0 0 127 0" result="hardAlpha"/>
<feOffset dx="4" dy="8"/>
<feGaussianBlur stdDeviation="8"/>
<feComposite in2="hardAlpha" operator="out"/>
<feColorMatrix type="matrix" values="0 0 0 0 0 0 0 0 0 0 0 0 0 0 0 0 0 0 0.08 0"/>
<feBlend mode="normal" in2="BackgroundImageFix" result="effect1_dropShadow_1_541"/>
<feBlend mode="normal" in="SourceGraphic" in2="effect1_dropShadow_1_541" result="shape"/>
<feColorMatrix in="SourceAlpha" type="matrix" values="0 0 0 0 0 0 0 0 0 0 0 0 0 0 0 0 0 0 127 0" result="hardAlpha"/>
<feOffset dx="4" dy="4"/>
<feGaussianBlur stdDeviation="10"/>
<feComposite in2="hardAlpha" operator="arithmetic" k2="-1" k3="1"/>
<feColorMatrix type="matrix" values="0 0 0 0 0.305365 0 0 0 0 0.0363021 0 0 0 0 0.0363021 0 0 0 0.1 0"/>
<feBlend mode="normal" in2="shape" result="effect2_innerShadow_1_541"/>
<feColorMatrix in="SourceAlpha" type="matrix" values="0 0 0 0 0 0 0 0 0 0 0 0 0 0 0 0 0 0 127 0" result="hardAlpha"/>
<feOffset dy="-4"/>
<feGaussianBlur stdDeviation="8"/>
<feComposite in2="hardAlpha" operator="arithmetic" k2="-1" k3="1"/>
<feColorMatrix type="matrix" values="0 0 0 0 1 0 0 0 0 1 0 0 0 0 1 0 0 0 1 0"/>
<feBlend mode="normal" in2="effect2_innerShadow_1_541" result="effect3_innerShadow_1_541"/>
</filter>
<filter id="filter2_i_1_541" x="173" y="68" width="14" height="14" filterUnits="userSpaceOnUse" color-interpolation-filters="sRGB">
<feFlood flood-opacity="0" result="BackgroundImageFix"/>
<feBlend mode="normal" in="SourceGraphic" in2="BackgroundImageFix" result="shape"/>
<feColorMatrix in="SourceAlpha" type="matrix" values="0 0 0 0 0 0 0 0 0 0 0 0 0 0 0 0 0 0 127 0" result="hardAlpha"/>
<feOffset dx="2" dy="2"/>
<feGaussianBlur stdDeviation="3"/>
<feComposite in2="hardAlpha" operator="arithmetic" k2="-1" k3="1"/>
<feColorMatrix type="matrix" values="0 0 0 0 0 0 0 0 0 0 0 0 0 0 0 0 0 0 0.16 0"/>
<feBlend mode="normal" in2="shape" result="effect1_innerShadow_1_541"/>
</filter>
</defs>
</svg>
