<svg width="331" height="267" viewBox="0 0 331 267" fill="none" xmlns="http://www.w3.org/2000/svg">
<g clip-path="url(#clip0_1_514)">
<g opacity="0.8" filter="url(#filter0_f_1_514)">
<rect width="310.044" height="310.044" transform="matrix(0.83814 -0.545456 -0.545456 -0.83814 71.6191 379.488)" fill="url(#paint0_linear_1_514)"/>
</g>
<rect x="0.5" y="0.5" width="330" height="266" rx="23.5" fill="white" fill-opacity="0.4"/>
<rect x="0.5" y="0.5" width="330" height="266" rx="23.5" stroke="#EDE5E5"/>
<path d="M27.768 39.368V36.944H31.44C32.72 36.944 33.672 36.696 34.296 36.2C34.936 35.688 35.256 34.856 35.256 33.704C35.256 32.664 34.96 31.88 34.368 31.352C33.776 30.824 32.872 30.56 31.656 30.56H27.768V28.16H31.752C32.76 28.16 33.664 28.28 34.464 28.52C35.28 28.76 35.976 29.112 36.552 29.576C37.128 30.04 37.568 30.624 37.872 31.328C38.176 32.032 38.328 32.848 38.328 33.776C38.328 34.992 38.048 36.016 37.488 36.848C36.944 37.68 36.136 38.312 35.064 38.744C33.992 39.16 32.656 39.368 31.056 39.368H27.768ZM25.776 44V28.16H28.8V44H25.776ZM46.8229 44.312C45.7989 44.312 44.8949 44.168 44.1109 43.88C43.3269 43.592 42.6629 43.168 42.1189 42.608C41.5749 42.048 41.1669 41.376 40.8949 40.592C40.6229 39.808 40.4869 38.928 40.4869 37.952C40.4869 36.976 40.6149 36.072 40.8709 35.24C41.1429 34.408 41.5429 33.688 42.0709 33.08C42.5989 32.456 43.2389 31.976 43.9909 31.64C44.7589 31.304 45.6309 31.136 46.6069 31.136C47.5189 31.136 48.3349 31.288 49.0549 31.592C49.7909 31.896 50.3989 32.352 50.8789 32.96C51.3749 33.568 51.7349 34.312 51.9589 35.192C52.1989 36.072 52.2789 37.088 52.1989 38.24L42.4309 38.312V36.56L50.3749 36.488L49.3909 37.472C49.4709 36.576 49.3989 35.84 49.1749 35.264C48.9509 34.688 48.6149 34.256 48.1669 33.968C47.7189 33.68 47.2069 33.536 46.6309 33.536C45.9749 33.536 45.3989 33.712 44.9029 34.064C44.4229 34.416 44.0469 34.912 43.7749 35.552C43.5189 36.192 43.3909 36.968 43.3909 37.88C43.3909 39.272 43.6949 40.312 44.3029 41C44.9109 41.688 45.7589 42.032 46.8469 42.032C47.3109 42.032 47.7109 41.976 48.0469 41.864C48.3829 41.736 48.6549 41.568 48.8629 41.36C49.0869 41.152 49.2629 40.92 49.3909 40.664C49.5349 40.392 49.6389 40.12 49.7029 39.848L52.3669 40.376C52.2389 40.968 52.0389 41.504 51.7669 41.984C51.4949 42.464 51.1269 42.88 50.6629 43.232C50.2149 43.584 49.6709 43.848 49.0309 44.024C48.4069 44.216 47.6709 44.312 46.8229 44.312ZM55.3024 44V37.688V31.448H57.8704L57.7984 35.888H58.2304C58.3584 34.832 58.5744 33.96 58.8784 33.272C59.1824 32.568 59.5984 32.04 60.1264 31.688C60.6704 31.336 61.3264 31.16 62.0944 31.16C62.2704 31.16 62.4544 31.176 62.6464 31.208C62.8384 31.224 63.0544 31.272 63.2944 31.352L63.1504 34.568C62.8944 34.456 62.6304 34.376 62.3584 34.328C62.0864 34.28 61.8384 34.256 61.6144 34.256C60.9904 34.256 60.4544 34.424 60.0064 34.76C59.5584 35.08 59.1984 35.544 58.9264 36.152C58.6544 36.744 58.4624 37.456 58.3504 38.288V44H55.3024ZM70.6399 44.312C69.7919 44.312 69.0239 44.224 68.3359 44.048C67.6639 43.888 67.0799 43.648 66.5839 43.328C66.1039 43.008 65.7199 42.616 65.4319 42.152C65.1599 41.688 64.9999 41.168 64.9519 40.592L67.3519 39.8C67.3999 40.232 67.5599 40.624 67.8319 40.976C68.1199 41.312 68.5119 41.576 69.0079 41.768C69.5199 41.944 70.1279 42.032 70.8319 42.032C71.6159 42.032 72.2239 41.912 72.6559 41.672C73.1039 41.416 73.3279 41.056 73.3279 40.592C73.3279 40.256 73.2079 39.992 72.9679 39.8C72.7279 39.592 72.3839 39.424 71.9359 39.296C71.4879 39.152 70.9439 39.016 70.3039 38.888C69.6959 38.76 69.0879 38.616 68.4799 38.456C67.8879 38.28 67.3359 38.056 66.8239 37.784C66.3279 37.496 65.9279 37.128 65.6239 36.68C65.3199 36.216 65.1679 35.64 65.1679 34.952C65.1679 34.184 65.3679 33.52 65.7679 32.96C66.1839 32.384 66.7839 31.936 67.5679 31.616C68.3519 31.296 69.2879 31.136 70.3759 31.136C71.4159 31.136 72.3119 31.288 73.0639 31.592C73.8319 31.88 74.4559 32.296 74.9359 32.84C75.4159 33.384 75.7039 34.048 75.7999 34.832L73.3039 35.552C73.2559 35.104 73.1039 34.72 72.8479 34.4C72.6079 34.08 72.2719 33.84 71.8399 33.68C71.4239 33.504 70.9279 33.416 70.3519 33.416C69.6159 33.416 69.0399 33.544 68.6239 33.8C68.2079 34.056 67.9999 34.408 67.9999 34.856C67.9999 35.192 68.1279 35.464 68.3839 35.672C68.6559 35.88 69.0239 36.048 69.4879 36.176C69.9519 36.304 70.4959 36.44 71.1199 36.584C71.7439 36.696 72.3519 36.84 72.9439 37.016C73.5519 37.176 74.0959 37.392 74.5759 37.664C75.0559 37.936 75.4399 38.296 75.7279 38.744C76.0159 39.176 76.1599 39.744 76.1599 40.448C76.1599 41.264 75.9359 41.968 75.4879 42.56C75.0559 43.136 74.4239 43.576 73.5919 43.88C72.7759 44.168 71.7919 44.312 70.6399 44.312ZM84.7768 44.312C83.5448 44.312 82.4568 44.064 81.5128 43.568C80.5688 43.056 79.8328 42.312 79.3048 41.336C78.7768 40.36 78.5128 39.144 78.5128 37.688C78.5128 36.216 78.7848 35 79.3288 34.04C79.8728 33.064 80.6168 32.336 81.5608 31.856C82.5048 31.376 83.5688 31.136 84.7528 31.136C85.9688 31.136 87.0488 31.384 87.9928 31.88C88.9368 32.376 89.6808 33.12 90.2248 34.112C90.7688 35.088 91.0408 36.304 91.0408 37.76C91.0408 39.232 90.7608 40.456 90.2008 41.432C89.6568 42.408 88.9128 43.136 87.9688 43.616C87.0248 44.08 85.9608 44.312 84.7768 44.312ZM84.8728 42.008C85.5288 42.008 86.0888 41.856 86.5528 41.552C87.0168 41.232 87.3688 40.76 87.6088 40.136C87.8648 39.512 87.9928 38.768 87.9928 37.904C87.9928 36.992 87.8648 36.216 87.6088 35.576C87.3528 34.92 86.9768 34.416 86.4808 34.064C85.9848 33.712 85.3848 33.536 84.6808 33.536C84.0248 33.536 83.4648 33.696 83.0008 34.016C82.5368 34.32 82.1768 34.784 81.9208 35.408C81.6808 36.016 81.5608 36.76 81.5608 37.64C81.5608 39.048 81.8488 40.128 82.4248 40.88C83.0168 41.632 83.8328 42.008 84.8728 42.008ZM94.0549 44V36.488V31.448H96.5989L96.5029 35.504H96.9349C97.1269 34.512 97.4069 33.696 97.7749 33.056C98.1589 32.416 98.6469 31.936 99.2389 31.616C99.8309 31.296 100.527 31.136 101.327 31.136C102.751 31.136 103.831 31.64 104.567 32.648C105.303 33.64 105.671 35.184 105.671 37.28V44H102.623V37.592C102.623 36.264 102.423 35.288 102.023 34.664C101.623 34.04 101.031 33.728 100.247 33.728C99.5749 33.728 99.0069 33.944 98.5429 34.376C98.0789 34.792 97.7189 35.36 97.4629 36.08C97.2229 36.8 97.0949 37.616 97.0789 38.528V44H94.0549ZM112.135 44.312C111.447 44.312 110.831 44.184 110.287 43.928C109.743 43.656 109.311 43.264 108.991 42.752C108.671 42.224 108.511 41.568 108.511 40.784C108.511 40.112 108.639 39.544 108.895 39.08C109.151 38.616 109.527 38.24 110.023 37.952C110.519 37.648 111.127 37.4 111.847 37.208C112.583 37 113.423 36.832 114.367 36.704C114.943 36.608 115.407 36.52 115.759 36.44C116.111 36.36 116.367 36.24 116.527 36.08C116.703 35.92 116.791 35.672 116.791 35.336C116.791 34.824 116.607 34.392 116.239 34.04C115.887 33.688 115.327 33.512 114.559 33.512C114.111 33.512 113.679 33.592 113.263 33.752C112.847 33.912 112.487 34.168 112.183 34.52C111.879 34.856 111.671 35.304 111.559 35.864L108.871 35.096C109.015 34.44 109.255 33.864 109.591 33.368C109.927 32.872 110.343 32.456 110.839 32.12C111.335 31.784 111.903 31.536 112.543 31.376C113.199 31.216 113.903 31.136 114.655 31.136C115.807 31.136 116.759 31.328 117.511 31.712C118.263 32.096 118.823 32.688 119.191 33.488C119.575 34.272 119.767 35.28 119.767 36.512V38.864C119.767 39.408 119.775 39.976 119.791 40.568C119.823 41.144 119.855 41.728 119.887 42.32C119.919 42.896 119.959 43.456 120.007 44H117.295C117.247 43.536 117.199 43.04 117.151 42.512C117.119 41.984 117.095 41.44 117.079 40.88H116.719C116.511 41.504 116.199 42.08 115.783 42.608C115.367 43.136 114.855 43.552 114.247 43.856C113.639 44.16 112.935 44.312 112.135 44.312ZM113.311 42.056C113.647 42.056 113.983 42 114.319 41.888C114.655 41.776 114.983 41.608 115.303 41.384C115.623 41.144 115.911 40.848 116.167 40.496C116.439 40.144 116.663 39.728 116.839 39.248L116.815 37.304L117.391 37.376C117.119 37.6 116.791 37.776 116.407 37.904C116.023 38.032 115.607 38.136 115.159 38.216C114.711 38.28 114.271 38.352 113.839 38.432C113.407 38.512 113.007 38.624 112.639 38.768C112.287 38.896 111.999 39.088 111.775 39.344C111.567 39.6 111.463 39.944 111.463 40.376C111.463 40.904 111.631 41.32 111.967 41.624C112.319 41.912 112.767 42.056 113.311 42.056ZM123.351 44V27.032H126.351V44H123.351ZM130.042 44V31.448H133.066V44H130.042ZM131.578 29.576C130.954 29.576 130.482 29.448 130.162 29.192C129.842 28.92 129.682 28.536 129.682 28.04C129.682 27.544 129.842 27.168 130.162 26.912C130.498 26.64 130.97 26.504 131.578 26.504C132.202 26.504 132.674 26.64 132.994 26.912C133.33 27.168 133.498 27.544 133.498 28.04C133.498 28.536 133.33 28.92 132.994 29.192C132.674 29.448 132.202 29.576 131.578 29.576ZM135.964 44V41.408L142.612 34.232V33.92H136.084V31.448H146.476V33.992L139.756 41.216V41.504H146.524V44H135.964ZM154.901 44.312C153.877 44.312 152.973 44.168 152.189 43.88C151.405 43.592 150.741 43.168 150.197 42.608C149.653 42.048 149.245 41.376 148.973 40.592C148.701 39.808 148.565 38.928 148.565 37.952C148.565 36.976 148.693 36.072 148.949 35.24C149.221 34.408 149.621 33.688 150.149 33.08C150.677 32.456 151.317 31.976 152.069 31.64C152.837 31.304 153.709 31.136 154.685 31.136C155.597 31.136 156.413 31.288 157.133 31.592C157.869 31.896 158.477 32.352 158.957 32.96C159.453 33.568 159.813 34.312 160.037 35.192C160.277 36.072 160.357 37.088 160.277 38.24L150.509 38.312V36.56L158.453 36.488L157.469 37.472C157.549 36.576 157.477 35.84 157.253 35.264C157.029 34.688 156.693 34.256 156.245 33.968C155.797 33.68 155.285 33.536 154.709 33.536C154.053 33.536 153.477 33.712 152.981 34.064C152.501 34.416 152.125 34.912 151.853 35.552C151.597 36.192 151.469 36.968 151.469 37.88C151.469 39.272 151.773 40.312 152.381 41C152.989 41.688 153.837 42.032 154.925 42.032C155.389 42.032 155.789 41.976 156.125 41.864C156.461 41.736 156.733 41.568 156.941 41.36C157.165 41.152 157.341 40.92 157.469 40.664C157.613 40.392 157.717 40.12 157.781 39.848L160.445 40.376C160.317 40.968 160.117 41.504 159.845 41.984C159.573 42.464 159.205 42.88 158.741 43.232C158.293 43.584 157.749 43.848 157.109 44.024C156.485 44.216 155.749 44.312 154.901 44.312ZM168.033 44.312C166.993 44.312 166.089 44.048 165.321 43.52C164.553 42.976 163.953 42.216 163.521 41.24C163.105 40.248 162.897 39.072 162.897 37.712C162.897 36.416 163.089 35.28 163.473 34.304C163.857 33.312 164.417 32.544 165.153 32C165.905 31.44 166.825 31.16 167.913 31.16C168.745 31.16 169.441 31.328 170.001 31.664C170.561 31.984 171.017 32.448 171.369 33.056C171.721 33.648 171.993 34.352 172.185 35.168H172.665C172.569 34.656 172.481 34.152 172.401 33.656C172.321 33.144 172.257 32.656 172.209 32.192C172.161 31.728 172.137 31.312 172.137 30.944V27.032H175.185V37.976V44H172.593L172.641 40.376H172.209C172.033 41.24 171.761 41.968 171.393 42.56C171.041 43.136 170.585 43.576 170.025 43.88C169.465 44.168 168.801 44.312 168.033 44.312ZM168.969 41.816C169.497 41.816 169.961 41.696 170.361 41.456C170.761 41.216 171.089 40.904 171.345 40.52C171.617 40.12 171.817 39.696 171.945 39.248C172.073 38.8 172.137 38.36 172.137 37.928V37.568C172.137 37.248 172.089 36.912 171.993 36.56C171.913 36.192 171.785 35.84 171.609 35.504C171.449 35.168 171.241 34.864 170.985 34.592C170.729 34.304 170.433 34.08 170.097 33.92C169.761 33.744 169.377 33.656 168.945 33.656C168.337 33.656 167.817 33.832 167.385 34.184C166.953 34.536 166.625 35.024 166.401 35.648C166.177 36.256 166.065 36.96 166.065 37.76C166.065 38.576 166.177 39.288 166.401 39.896C166.641 40.504 166.977 40.976 167.409 41.312C167.857 41.648 168.377 41.816 168.969 41.816ZM185.157 44V28.16H189.765L194.349 40.616H194.469L199.005 28.16H203.421V44H200.517L200.709 31.232H200.493L195.573 44H192.909L188.061 31.232H187.845L188.013 44H185.157ZM212.954 44.312C211.93 44.312 211.026 44.168 210.242 43.88C209.458 43.592 208.794 43.168 208.25 42.608C207.706 42.048 207.298 41.376 207.026 40.592C206.754 39.808 206.618 38.928 206.618 37.952C206.618 36.976 206.746 36.072 207.002 35.24C207.274 34.408 207.674 33.688 208.202 33.08C208.73 32.456 209.37 31.976 210.122 31.64C210.89 31.304 211.762 31.136 212.738 31.136C213.65 31.136 214.466 31.288 215.186 31.592C215.922 31.896 216.53 32.352 217.01 32.96C217.506 33.568 217.866 34.312 218.09 35.192C218.33 36.072 218.41 37.088 218.33 38.24L208.562 38.312V36.56L216.506 36.488L215.522 37.472C215.602 36.576 215.53 35.84 215.306 35.264C215.082 34.688 214.746 34.256 214.298 33.968C213.85 33.68 213.338 33.536 212.762 33.536C212.106 33.536 211.53 33.712 211.034 34.064C210.554 34.416 210.178 34.912 209.906 35.552C209.65 36.192 209.522 36.968 209.522 37.88C209.522 39.272 209.826 40.312 210.434 41C211.042 41.688 211.89 42.032 212.978 42.032C213.442 42.032 213.842 41.976 214.178 41.864C214.514 41.736 214.786 41.568 214.994 41.36C215.218 41.152 215.394 40.92 215.522 40.664C215.666 40.392 215.77 40.12 215.834 39.848L218.498 40.376C218.37 40.968 218.17 41.504 217.898 41.984C217.626 42.464 217.258 42.88 216.794 43.232C216.346 43.584 215.802 43.848 215.162 44.024C214.538 44.216 213.802 44.312 212.954 44.312ZM221.433 44V36.488V31.448H223.977L223.881 35.504H224.313C224.505 34.512 224.785 33.696 225.153 33.056C225.537 32.416 226.025 31.936 226.617 31.616C227.209 31.296 227.905 31.136 228.705 31.136C230.129 31.136 231.209 31.64 231.945 32.648C232.681 33.64 233.049 35.184 233.049 37.28V44H230.001V37.592C230.001 36.264 229.801 35.288 229.401 34.664C229.001 34.04 228.409 33.728 227.625 33.728C226.953 33.728 226.385 33.944 225.921 34.376C225.457 34.792 225.097 35.36 224.841 36.08C224.601 36.8 224.473 37.616 224.457 38.528V44H221.433ZM240.955 44.288C239.627 44.288 238.643 43.936 238.003 43.232C237.379 42.512 237.067 41.4 237.067 39.896V33.872H235.267L235.315 31.52H236.443C236.939 31.504 237.299 31.408 237.523 31.232C237.763 31.056 237.907 30.76 237.955 30.344L238.219 28.664H239.995V31.448H243.259V33.968H239.995V39.776C239.995 40.384 240.131 40.824 240.403 41.096C240.691 41.352 241.107 41.48 241.651 41.48C241.939 41.48 242.227 41.448 242.515 41.384C242.819 41.304 243.099 41.184 243.355 41.024V43.88C242.875 44.04 242.435 44.144 242.035 44.192C241.635 44.256 241.275 44.288 240.955 44.288ZM251.657 44.312C250.425 44.312 249.337 44.064 248.393 43.568C247.449 43.056 246.713 42.312 246.185 41.336C245.657 40.36 245.393 39.144 245.393 37.688C245.393 36.216 245.665 35 246.209 34.04C246.753 33.064 247.497 32.336 248.441 31.856C249.385 31.376 250.449 31.136 251.633 31.136C252.849 31.136 253.929 31.384 254.873 31.88C255.817 32.376 256.561 33.12 257.105 34.112C257.649 35.088 257.921 36.304 257.921 37.76C257.921 39.232 257.641 40.456 257.081 41.432C256.537 42.408 255.793 43.136 254.849 43.616C253.905 44.08 252.841 44.312 251.657 44.312ZM251.753 42.008C252.409 42.008 252.969 41.856 253.433 41.552C253.897 41.232 254.249 40.76 254.489 40.136C254.745 39.512 254.873 38.768 254.873 37.904C254.873 36.992 254.745 36.216 254.489 35.576C254.233 34.92 253.857 34.416 253.361 34.064C252.865 33.712 252.265 33.536 251.561 33.536C250.905 33.536 250.345 33.696 249.881 34.016C249.417 34.32 249.057 34.784 248.801 35.408C248.561 36.016 248.441 36.76 248.441 37.64C248.441 39.048 248.729 40.128 249.305 40.88C249.897 41.632 250.713 42.008 251.753 42.008ZM260.935 44V37.688V31.448H263.503L263.431 35.888H263.863C263.991 34.832 264.207 33.96 264.511 33.272C264.815 32.568 265.231 32.04 265.759 31.688C266.303 31.336 266.959 31.16 267.727 31.16C267.904 31.16 268.088 31.176 268.28 31.208C268.471 31.224 268.687 31.272 268.927 31.352L268.783 34.568C268.527 34.456 268.263 34.376 267.992 34.328C267.719 34.28 267.471 34.256 267.247 34.256C266.623 34.256 266.087 34.424 265.639 34.76C265.191 35.08 264.831 35.544 264.559 36.152C264.287 36.744 264.095 37.456 263.983 38.288V44H260.935ZM276.273 44.312C275.425 44.312 274.657 44.224 273.969 44.048C273.297 43.888 272.713 43.648 272.217 43.328C271.737 43.008 271.353 42.616 271.065 42.152C270.793 41.688 270.633 41.168 270.585 40.592L272.985 39.8C273.033 40.232 273.193 40.624 273.465 40.976C273.753 41.312 274.145 41.576 274.641 41.768C275.153 41.944 275.761 42.032 276.465 42.032C277.249 42.032 277.857 41.912 278.289 41.672C278.737 41.416 278.961 41.056 278.961 40.592C278.961 40.256 278.841 39.992 278.601 39.8C278.361 39.592 278.017 39.424 277.569 39.296C277.121 39.152 276.577 39.016 275.937 38.888C275.329 38.76 274.721 38.616 274.113 38.456C273.521 38.28 272.969 38.056 272.457 37.784C271.961 37.496 271.561 37.128 271.257 36.68C270.953 36.216 270.801 35.64 270.801 34.952C270.801 34.184 271.001 33.52 271.401 32.96C271.817 32.384 272.417 31.936 273.201 31.616C273.985 31.296 274.921 31.136 276.009 31.136C277.049 31.136 277.945 31.288 278.697 31.592C279.465 31.88 280.089 32.296 280.569 32.84C281.049 33.384 281.337 34.048 281.433 34.832L278.937 35.552C278.889 35.104 278.737 34.72 278.481 34.4C278.241 34.08 277.905 33.84 277.473 33.68C277.057 33.504 276.561 33.416 275.985 33.416C275.249 33.416 274.673 33.544 274.257 33.8C273.841 34.056 273.633 34.408 273.633 34.856C273.633 35.192 273.761 35.464 274.017 35.672C274.289 35.88 274.657 36.048 275.121 36.176C275.585 36.304 276.129 36.44 276.753 36.584C277.377 36.696 277.985 36.84 278.577 37.016C279.185 37.176 279.729 37.392 280.209 37.664C280.689 37.936 281.073 38.296 281.361 38.744C281.649 39.176 281.793 39.744 281.793 40.448C281.793 41.264 281.569 41.968 281.121 42.56C280.689 43.136 280.057 43.576 279.225 43.88C278.409 44.168 277.425 44.312 276.273 44.312Z" fill="#0E0606"/>
<path d="M30.56 186.16C29.6 186.16 28.7627 185.989 28.048 185.648C27.3333 185.307 26.7413 184.848 26.272 184.272C25.8027 183.685 25.4507 183.035 25.216 182.32C24.992 181.595 24.88 180.853 24.88 180.096C24.88 179.339 24.992 178.597 25.216 177.872C25.4507 177.147 25.8027 176.496 26.272 175.92C26.752 175.333 27.3493 174.869 28.064 174.528C28.7893 174.176 29.6373 174 30.608 174C31.3547 174 31.9947 174.096 32.528 174.288C33.072 174.48 33.5253 174.725 33.888 175.024C34.2507 175.323 34.544 175.643 34.768 175.984C34.992 176.315 35.1627 176.629 35.28 176.928C35.3973 177.227 35.472 177.472 35.504 177.664C35.5467 177.856 35.568 177.952 35.568 177.952H33.984C33.984 177.952 33.9627 177.867 33.92 177.696C33.8773 177.525 33.792 177.317 33.664 177.072C33.536 176.816 33.344 176.565 33.088 176.32C32.8427 176.064 32.5173 175.851 32.112 175.68C31.7173 175.509 31.2213 175.424 30.624 175.424C29.92 175.424 29.3067 175.557 28.784 175.824C28.2613 176.091 27.8293 176.448 27.488 176.896C27.1467 177.333 26.8907 177.829 26.72 178.384C26.5493 178.928 26.464 179.488 26.464 180.064C26.464 180.651 26.5493 181.227 26.72 181.792C26.8907 182.347 27.1467 182.848 27.488 183.296C27.84 183.733 28.272 184.085 28.784 184.352C29.296 184.608 29.888 184.736 30.56 184.736C31.6587 184.736 32.528 184.416 33.168 183.776C33.8187 183.125 34.1707 182.251 34.224 181.152H30.704V179.856H35.728V180.672C35.728 181.888 35.4933 182.901 35.024 183.712C34.5653 184.523 33.9467 185.136 33.168 185.552C32.3893 185.957 31.52 186.16 30.56 186.16ZM41.5073 186.16C40.8139 186.16 40.2113 186.037 39.6993 185.792C39.1979 185.536 38.7819 185.195 38.4513 184.768C38.1313 184.341 37.8913 183.872 37.7313 183.36C37.5713 182.837 37.4913 182.304 37.4913 181.76C37.4913 181.227 37.5659 180.699 37.7153 180.176C37.8753 179.653 38.1153 179.179 38.4353 178.752C38.7659 178.325 39.1766 177.989 39.6673 177.744C40.1686 177.488 40.7606 177.36 41.4433 177.36C42.1686 177.36 42.8086 177.525 43.3633 177.856C43.9179 178.187 44.3553 178.677 44.6753 179.328C44.9953 179.979 45.1553 180.795 45.1553 181.776V182.224H39.0273C39.0593 182.704 39.1713 183.147 39.3633 183.552C39.5659 183.947 39.8486 184.267 40.2113 184.512C40.5739 184.747 41.0059 184.864 41.5073 184.864C41.9446 184.864 42.2966 184.795 42.5633 184.656C42.8406 184.507 43.0593 184.336 43.2193 184.144C43.3793 183.952 43.4859 183.787 43.5393 183.648C43.6033 183.499 43.6353 183.424 43.6353 183.424H45.0593C45.0593 183.424 45.0326 183.52 44.9792 183.712C44.9259 183.893 44.8299 184.117 44.6913 184.384C44.5526 184.651 44.3499 184.923 44.0833 185.2C43.8166 185.467 43.4753 185.696 43.0593 185.888C42.6433 186.069 42.1259 186.16 41.5073 186.16ZM39.0433 181.04H43.6673C43.6459 180.485 43.5286 180.037 43.3153 179.696C43.1019 179.344 42.8299 179.083 42.4993 178.912C42.1686 178.741 41.8166 178.656 41.4433 178.656C40.7713 178.656 40.2219 178.875 39.7953 179.312C39.3686 179.739 39.1179 180.315 39.0433 181.04ZM50.6731 186.16C49.7985 186.16 49.1371 185.936 48.6891 185.488C48.2518 185.04 48.0331 184.411 48.0331 183.6V178.768H46.5131V177.52H48.0331V175.392H49.5531V177.52H51.6171V178.768H49.5531V183.6C49.5531 184.027 49.6705 184.341 49.9051 184.544C50.1398 184.736 50.4811 184.832 50.9291 184.832C51.1638 184.832 51.3878 184.816 51.6011 184.784C51.8145 184.752 51.9211 184.736 51.9211 184.736V186.032C51.9211 186.032 51.7985 186.053 51.5531 186.096C51.3078 186.139 51.0145 186.16 50.6731 186.16ZM57.7644 186V174.16H61.9884C62.895 174.16 63.647 174.347 64.2444 174.72C64.8524 175.093 65.3057 175.579 65.6044 176.176C65.9137 176.763 66.0684 177.376 66.0684 178.016C66.0684 178.667 65.9137 179.291 65.6044 179.888C65.3057 180.475 64.8524 180.96 64.2444 181.344C63.647 181.717 62.895 181.904 61.9884 181.904H59.3324V186H57.7644ZM61.9884 175.536H59.3324V180.528H61.9884C62.5537 180.528 63.023 180.405 63.3964 180.16C63.7697 179.915 64.047 179.605 64.2284 179.232C64.4204 178.848 64.5164 178.448 64.5164 178.032C64.5164 177.616 64.4204 177.216 64.2284 176.832C64.047 176.448 63.7697 176.139 63.3964 175.904C63.023 175.659 62.5537 175.536 61.9884 175.536ZM71.4448 186.16C70.7514 186.16 70.1488 186.037 69.6368 185.792C69.1354 185.536 68.7194 185.195 68.3888 184.768C68.0688 184.341 67.8288 183.872 67.6688 183.36C67.5088 182.837 67.4288 182.304 67.4288 181.76C67.4288 181.227 67.5034 180.699 67.6528 180.176C67.8128 179.653 68.0528 179.179 68.3728 178.752C68.7034 178.325 69.1141 177.989 69.6048 177.744C70.1061 177.488 70.6981 177.36 71.3808 177.36C72.1061 177.36 72.7461 177.525 73.3008 177.856C73.8554 178.187 74.2928 178.677 74.6128 179.328C74.9328 179.979 75.0928 180.795 75.0928 181.776V182.224H68.9648C68.9968 182.704 69.1088 183.147 69.3008 183.552C69.5034 183.947 69.7861 184.267 70.1488 184.512C70.5114 184.747 70.9434 184.864 71.4448 184.864C71.8821 184.864 72.2341 184.795 72.5008 184.656C72.7781 184.507 72.9968 184.336 73.1568 184.144C73.3168 183.952 73.4234 183.787 73.4768 183.648C73.5408 183.499 73.5728 183.424 73.5728 183.424H74.9968C74.9968 183.424 74.9701 183.52 74.9167 183.712C74.8634 183.893 74.7674 184.117 74.6288 184.384C74.4901 184.651 74.2874 184.923 74.0208 185.2C73.7541 185.467 73.4128 185.696 72.9968 185.888C72.5808 186.069 72.0634 186.16 71.4448 186.16ZM68.9808 181.04H73.6048C73.5834 180.485 73.4661 180.037 73.2528 179.696C73.0394 179.344 72.7674 179.083 72.4368 178.912C72.1061 178.741 71.7541 178.656 71.3808 178.656C70.7088 178.656 70.1594 178.875 69.7328 179.312C69.3061 179.739 69.0554 180.315 68.9808 181.04ZM77.1669 186V177.52H78.6869V178.576H78.7509C78.9322 178.256 79.1989 177.973 79.5509 177.728C79.9029 177.483 80.3989 177.36 81.0389 177.36C81.2202 177.36 81.3855 177.371 81.5349 177.392C81.6842 177.403 81.7589 177.408 81.7589 177.408V178.864C81.7589 178.864 81.6735 178.859 81.5029 178.848C81.3429 178.827 81.1722 178.816 80.9909 178.816C80.2549 178.816 79.6842 179.029 79.2789 179.456C78.8842 179.872 78.6869 180.555 78.6869 181.504V186H77.1669ZM86.5365 186.16C85.8858 186.16 85.3472 186.069 84.9205 185.888C84.5045 185.707 84.1738 185.483 83.9285 185.216C83.6832 184.939 83.5018 184.667 83.3845 184.4C83.2672 184.123 83.1925 183.893 83.1605 183.712C83.1285 183.531 83.1125 183.44 83.1125 183.44H84.6485C84.6485 183.44 84.6645 183.515 84.6965 183.664C84.7392 183.803 84.8192 183.968 84.9365 184.16C85.0645 184.341 85.2565 184.507 85.5125 184.656C85.7792 184.795 86.1312 184.864 86.5685 184.864C87.0698 184.864 87.4592 184.747 87.7365 184.512C88.0138 184.267 88.1525 183.968 88.1525 183.616C88.1525 183.307 88.0405 183.061 87.8165 182.88C87.6032 182.699 87.2938 182.56 86.8885 182.464L85.7365 182.192C85.3098 182.085 84.9098 181.941 84.5365 181.76C84.1632 181.579 83.8592 181.333 83.6245 181.024C83.4005 180.704 83.2885 180.309 83.2885 179.84C83.2885 179.115 83.5605 178.523 84.1045 178.064C84.6485 177.595 85.3578 177.36 86.2325 177.36C86.8192 177.36 87.3045 177.445 87.6885 177.616C88.0725 177.776 88.3765 177.979 88.6005 178.224C88.8352 178.469 89.0058 178.715 89.1125 178.96C89.2298 179.205 89.3045 179.413 89.3365 179.584C89.3685 179.744 89.3845 179.824 89.3845 179.824H87.9125C87.9125 179.824 87.8965 179.765 87.8645 179.648C87.8325 179.52 87.7578 179.381 87.6405 179.232C87.5338 179.072 87.3685 178.933 87.1445 178.816C86.9205 178.688 86.6218 178.624 86.2485 178.624C85.7365 178.624 85.3632 178.741 85.1285 178.976C84.8938 179.211 84.7765 179.467 84.7765 179.744C84.7765 180.011 84.8832 180.229 85.0965 180.4C85.3205 180.56 85.6085 180.683 85.9605 180.768L87.1285 181.04C87.8538 181.211 88.4512 181.493 88.9205 181.888C89.4005 182.272 89.6405 182.827 89.6405 183.552C89.6405 184.021 89.5178 184.459 89.2725 184.864C89.0272 185.259 88.6752 185.573 88.2165 185.808C87.7578 186.043 87.1978 186.16 86.5365 186.16ZM95.4173 186.16C94.5106 186.16 93.7479 185.952 93.1293 185.536C92.5106 185.109 92.0413 184.56 91.7213 183.888C91.4013 183.216 91.2413 182.507 91.2413 181.76C91.2413 181.003 91.4013 180.293 91.7213 179.632C92.0413 178.96 92.5106 178.416 93.1293 178C93.7479 177.573 94.5106 177.36 95.4173 177.36C96.3239 177.36 97.0866 177.573 97.7053 178C98.3239 178.416 98.7933 178.96 99.1133 179.632C99.4333 180.293 99.5933 181.003 99.5933 181.76C99.5933 182.507 99.4333 183.216 99.1133 183.888C98.7933 184.56 98.3239 185.109 97.7053 185.536C97.0866 185.952 96.3239 186.16 95.4173 186.16ZM95.4173 184.832C95.9933 184.832 96.4733 184.688 96.8573 184.4C97.2519 184.101 97.5453 183.717 97.7373 183.248C97.9399 182.779 98.0413 182.283 98.0413 181.76C98.0413 181.227 97.9399 180.731 97.7373 180.272C97.5453 179.803 97.2519 179.424 96.8573 179.136C96.4733 178.837 95.9933 178.688 95.4173 178.688C94.8519 178.688 94.3719 178.837 93.9773 179.136C93.5826 179.424 93.2839 179.803 93.0813 180.272C92.8893 180.731 92.7933 181.227 92.7933 181.76C92.7933 182.283 92.8893 182.779 93.0813 183.248C93.2839 183.717 93.5826 184.101 93.9773 184.4C94.3719 184.688 94.8519 184.832 95.4173 184.832ZM101.667 186V177.52H103.187V178.752H103.283C103.358 178.624 103.48 178.448 103.651 178.224C103.832 178 104.088 177.803 104.419 177.632C104.75 177.451 105.166 177.36 105.667 177.36C106.286 177.36 106.814 177.504 107.251 177.792C107.688 178.069 108.019 178.448 108.243 178.928C108.478 179.408 108.595 179.947 108.595 180.544V186H107.075V180.64C107.075 180.075 106.915 179.605 106.595 179.232C106.286 178.859 105.832 178.672 105.235 178.672C104.755 178.672 104.366 178.795 104.067 179.04C103.768 179.275 103.544 179.589 103.395 179.984C103.256 180.368 103.187 180.779 103.187 181.216V186H101.667ZM114.519 177.36C115.052 177.36 115.5 177.445 115.863 177.616C116.225 177.787 116.519 177.989 116.743 178.224C116.967 178.448 117.137 178.661 117.255 178.864H117.351V177.52H118.871V186H117.351V184.656H117.255C117.137 184.859 116.967 185.077 116.743 185.312C116.519 185.547 116.225 185.749 115.863 185.92C115.5 186.08 115.052 186.16 114.519 186.16C113.879 186.16 113.319 186.037 112.839 185.792C112.359 185.536 111.959 185.2 111.639 184.784C111.319 184.357 111.079 183.883 110.919 183.36C110.759 182.837 110.679 182.304 110.679 181.76C110.679 181.216 110.759 180.683 110.919 180.16C111.079 179.637 111.319 179.168 111.639 178.752C111.959 178.325 112.359 177.989 112.839 177.744C113.319 177.488 113.879 177.36 114.519 177.36ZM114.775 178.656C114.209 178.656 113.735 178.811 113.351 179.12C112.967 179.419 112.679 179.803 112.487 180.272C112.305 180.741 112.215 181.237 112.215 181.76C112.215 182.272 112.305 182.768 112.487 183.248C112.679 183.717 112.967 184.107 113.351 184.416C113.735 184.715 114.209 184.864 114.775 184.864C115.34 184.864 115.809 184.715 116.183 184.416C116.567 184.107 116.849 183.717 117.031 183.248C117.223 182.768 117.319 182.272 117.319 181.76C117.319 181.237 117.223 180.741 117.031 180.272C116.849 179.803 116.567 179.419 116.183 179.12C115.809 178.811 115.34 178.656 114.775 178.656ZM121.264 186L121.28 173.84H122.784V186H121.264ZM126.174 175.904C125.887 175.904 125.647 175.808 125.455 175.616C125.273 175.424 125.183 175.195 125.183 174.928C125.183 174.651 125.273 174.416 125.455 174.224C125.647 174.032 125.887 173.936 126.174 173.936C126.452 173.936 126.687 174.032 126.879 174.224C127.071 174.416 127.167 174.651 127.167 174.928C127.167 175.195 127.071 175.424 126.879 175.616C126.687 175.808 126.452 175.904 126.174 175.904ZM125.423 186V177.52H126.943V186H125.423ZM128.969 186V184.928L133.929 178.768H129.225V177.52H135.801V178.592L130.825 184.752H135.801V186H128.969ZM141.132 186.16C140.439 186.16 139.836 186.037 139.324 185.792C138.823 185.536 138.407 185.195 138.076 184.768C137.756 184.341 137.516 183.872 137.356 183.36C137.196 182.837 137.116 182.304 137.116 181.76C137.116 181.227 137.191 180.699 137.34 180.176C137.5 179.653 137.74 179.179 138.06 178.752C138.391 178.325 138.802 177.989 139.292 177.744C139.794 177.488 140.386 177.36 141.068 177.36C141.794 177.36 142.434 177.525 142.988 177.856C143.543 178.187 143.98 178.677 144.3 179.328C144.62 179.979 144.78 180.795 144.78 181.776V182.224H138.652C138.684 182.704 138.796 183.147 138.988 183.552C139.191 183.947 139.474 184.267 139.836 184.512C140.199 184.747 140.631 184.864 141.132 184.864C141.57 184.864 141.922 184.795 142.188 184.656C142.466 184.507 142.684 184.336 142.844 184.144C143.004 183.952 143.111 183.787 143.164 183.648C143.228 183.499 143.26 183.424 143.26 183.424H144.684C144.684 183.424 144.658 183.52 144.604 183.712C144.551 183.893 144.455 184.117 144.316 184.384C144.178 184.651 143.975 184.923 143.708 185.2C143.442 185.467 143.1 185.696 142.684 185.888C142.268 186.069 141.751 186.16 141.132 186.16ZM138.668 181.04H143.292C143.271 180.485 143.154 180.037 142.94 179.696C142.727 179.344 142.455 179.083 142.124 178.912C141.794 178.741 141.442 178.656 141.068 178.656C140.396 178.656 139.847 178.875 139.42 179.312C138.994 179.739 138.743 180.315 138.668 181.04ZM150.456 186.16C149.816 186.16 149.256 186.037 148.776 185.792C148.296 185.536 147.896 185.2 147.576 184.784C147.256 184.357 147.016 183.883 146.856 183.36C146.696 182.837 146.616 182.304 146.616 181.76C146.616 181.216 146.696 180.683 146.856 180.16C147.016 179.637 147.256 179.168 147.576 178.752C147.896 178.325 148.296 177.989 148.776 177.744C149.256 177.488 149.816 177.36 150.456 177.36C150.99 177.36 151.438 177.445 151.8 177.616C152.163 177.787 152.456 177.989 152.68 178.224C152.904 178.448 153.075 178.661 153.192 178.864H153.288V173.84H154.808V186H153.288V184.656H153.192C153.075 184.859 152.904 185.077 152.68 185.312C152.456 185.547 152.163 185.749 151.8 185.92C151.438 186.08 150.99 186.16 150.456 186.16ZM150.712 184.864C151.278 184.864 151.747 184.715 152.12 184.416C152.504 184.107 152.787 183.717 152.968 183.248C153.16 182.768 153.256 182.272 153.256 181.76C153.256 181.237 153.16 180.741 152.968 180.272C152.787 179.803 152.504 179.419 152.12 179.12C151.747 178.811 151.278 178.656 150.712 178.656C150.147 178.656 149.672 178.811 149.288 179.12C148.904 179.419 148.616 179.803 148.424 180.272C148.243 180.741 148.152 181.237 148.152 181.76C148.152 182.272 148.243 182.768 148.424 183.248C148.616 183.717 148.904 184.107 149.288 184.416C149.672 184.715 150.147 184.864 150.712 184.864ZM161.061 186V174.16H162.629V179.504L167.749 174.176H169.797L164.261 179.856L170.037 186H167.925L162.629 180.352V186H161.061ZM171.761 186V177.52H173.281V178.752H173.377C173.451 178.624 173.574 178.448 173.745 178.224C173.926 178 174.182 177.803 174.513 177.632C174.843 177.451 175.259 177.36 175.761 177.36C176.379 177.36 176.907 177.504 177.345 177.792C177.782 178.069 178.113 178.448 178.337 178.928C178.571 179.408 178.689 179.947 178.689 180.544V186H177.169V180.64C177.169 180.075 177.009 179.605 176.689 179.232C176.379 178.859 175.926 178.672 175.329 178.672C174.849 178.672 174.459 178.795 174.161 179.04C173.862 179.275 173.638 179.589 173.489 179.984C173.35 180.368 173.281 180.779 173.281 181.216V186H171.761ZM184.949 186.16C184.042 186.16 183.279 185.952 182.661 185.536C182.042 185.109 181.573 184.56 181.253 183.888C180.933 183.216 180.773 182.507 180.773 181.76C180.773 181.003 180.933 180.293 181.253 179.632C181.573 178.96 182.042 178.416 182.661 178C183.279 177.573 184.042 177.36 184.949 177.36C185.855 177.36 186.618 177.573 187.237 178C187.855 178.416 188.325 178.96 188.645 179.632C188.965 180.293 189.125 181.003 189.125 181.76C189.125 182.507 188.965 183.216 188.645 183.888C188.325 184.56 187.855 185.109 187.237 185.536C186.618 185.952 185.855 186.16 184.949 186.16ZM184.949 184.832C185.525 184.832 186.005 184.688 186.389 184.4C186.783 184.101 187.077 183.717 187.269 183.248C187.471 182.779 187.573 182.283 187.573 181.76C187.573 181.227 187.471 180.731 187.269 180.272C187.077 179.803 186.783 179.424 186.389 179.136C186.005 178.837 185.525 178.688 184.949 178.688C184.383 178.688 183.903 178.837 183.509 179.136C183.114 179.424 182.815 179.803 182.613 180.272C182.421 180.731 182.325 181.227 182.325 181.76C182.325 182.283 182.421 182.779 182.613 183.248C182.815 183.717 183.114 184.101 183.509 184.4C183.903 184.688 184.383 184.832 184.949 184.832ZM193.062 186L190.326 177.52H191.878L193.894 183.952L196.006 177.52H197.446L199.542 183.952L201.574 177.52H203.126L200.374 186H198.742L196.726 179.744L194.71 186H193.062ZM204.968 186L204.984 173.84H206.488V186H204.968ZM212.742 186.16C212.048 186.16 211.446 186.037 210.934 185.792C210.432 185.536 210.016 185.195 209.686 184.768C209.366 184.341 209.126 183.872 208.966 183.36C208.806 182.837 208.726 182.304 208.726 181.76C208.726 181.227 208.8 180.699 208.95 180.176C209.11 179.653 209.35 179.179 209.67 178.752C210 178.325 210.411 177.989 210.902 177.744C211.403 177.488 211.995 177.36 212.678 177.36C213.403 177.36 214.043 177.525 214.598 177.856C215.152 178.187 215.59 178.677 215.91 179.328C216.23 179.979 216.39 180.795 216.39 181.776V182.224H210.262C210.294 182.704 210.406 183.147 210.598 183.552C210.8 183.947 211.083 184.267 211.446 184.512C211.808 184.747 212.24 184.864 212.742 184.864C213.179 184.864 213.531 184.795 213.798 184.656C214.075 184.507 214.294 184.336 214.454 184.144C214.614 183.952 214.72 183.787 214.774 183.648C214.838 183.499 214.87 183.424 214.87 183.424H216.294C216.294 183.424 216.267 183.52 216.214 183.712C216.16 183.893 216.064 184.117 215.926 184.384C215.787 184.651 215.584 184.923 215.318 185.2C215.051 185.467 214.71 185.696 214.294 185.888C213.878 186.069 213.36 186.16 212.742 186.16ZM210.278 181.04H214.902C214.88 180.485 214.763 180.037 214.55 179.696C214.336 179.344 214.064 179.083 213.734 178.912C213.403 178.741 213.051 178.656 212.678 178.656C212.006 178.656 211.456 178.875 211.03 179.312C210.603 179.739 210.352 180.315 210.278 181.04ZM222.066 186.16C221.426 186.16 220.866 186.037 220.386 185.792C219.906 185.536 219.506 185.2 219.186 184.784C218.866 184.357 218.626 183.883 218.466 183.36C218.306 182.837 218.226 182.304 218.226 181.76C218.226 181.216 218.306 180.683 218.466 180.16C218.626 179.637 218.866 179.168 219.186 178.752C219.506 178.325 219.906 177.989 220.386 177.744C220.866 177.488 221.426 177.36 222.066 177.36C222.599 177.36 223.047 177.445 223.41 177.616C223.772 177.787 224.066 177.989 224.29 178.224C224.514 178.448 224.684 178.661 224.802 178.864H224.898V173.84H226.418V186H224.898V184.656H224.802C224.684 184.859 224.514 185.077 224.29 185.312C224.066 185.547 223.772 185.749 223.41 185.92C223.047 186.08 222.599 186.16 222.066 186.16ZM222.322 184.864C222.887 184.864 223.356 184.715 223.73 184.416C224.114 184.107 224.396 183.717 224.578 183.248C224.77 182.768 224.866 182.272 224.866 181.76C224.866 181.237 224.77 180.741 224.578 180.272C224.396 179.803 224.114 179.419 223.73 179.12C223.356 178.811 222.887 178.656 222.322 178.656C221.756 178.656 221.282 178.811 220.898 179.12C220.514 179.419 220.226 179.803 220.034 180.272C219.852 180.741 219.762 181.237 219.762 181.76C219.762 182.272 219.852 182.768 220.034 183.248C220.226 183.717 220.514 184.107 220.898 184.416C221.282 184.715 221.756 184.864 222.322 184.864ZM232.903 189.36C232.199 189.36 231.612 189.264 231.143 189.072C230.674 188.891 230.295 188.656 230.007 188.368C229.73 188.091 229.522 187.813 229.383 187.536C229.244 187.259 229.154 187.024 229.111 186.832C229.068 186.651 229.047 186.56 229.047 186.56H230.567C230.567 186.56 230.594 186.635 230.647 186.784C230.7 186.933 230.802 187.104 230.951 187.296C231.111 187.488 231.346 187.659 231.655 187.808C231.964 187.957 232.38 188.032 232.903 188.032C233.522 188.032 234.007 187.909 234.359 187.664C234.711 187.429 234.962 187.12 235.111 186.736C235.271 186.352 235.351 185.947 235.351 185.52V184.544H235.271C235.164 184.725 234.994 184.933 234.759 185.168C234.535 185.392 234.236 185.589 233.863 185.76C233.49 185.92 233.031 186 232.487 186C231.847 186 231.287 185.877 230.807 185.632C230.327 185.387 229.927 185.056 229.607 184.64C229.298 184.224 229.063 183.76 228.903 183.248C228.743 182.736 228.663 182.213 228.663 181.68C228.663 181.147 228.743 180.624 228.903 180.112C229.063 179.6 229.298 179.136 229.607 178.72C229.927 178.304 230.327 177.973 230.807 177.728C231.287 177.483 231.847 177.36 232.487 177.36C233.031 177.36 233.49 177.445 233.863 177.616C234.236 177.776 234.535 177.968 234.759 178.192C234.994 178.416 235.164 178.624 235.271 178.816H235.351V177.52H236.871V185.504C236.871 186.688 236.524 187.627 235.831 188.32C235.148 189.013 234.172 189.36 232.903 189.36ZM232.775 184.704C233.34 184.704 233.81 184.56 234.183 184.272C234.567 183.973 234.85 183.595 235.031 183.136C235.223 182.677 235.319 182.192 235.319 181.68C235.319 181.168 235.223 180.683 235.031 180.224C234.85 179.755 234.567 179.376 234.183 179.088C233.81 178.8 233.34 178.656 232.775 178.656C232.21 178.656 231.735 178.8 231.351 179.088C230.967 179.376 230.679 179.755 230.487 180.224C230.306 180.683 230.215 181.168 230.215 181.68C230.215 182.192 230.306 182.677 230.487 183.136C230.679 183.595 230.967 183.973 231.351 184.272C231.735 184.56 232.21 184.704 232.775 184.704ZM242.648 186.16C241.955 186.16 241.352 186.037 240.84 185.792C240.339 185.536 239.923 185.195 239.592 184.768C239.272 184.341 239.032 183.872 238.872 183.36C238.712 182.837 238.632 182.304 238.632 181.76C238.632 181.227 238.707 180.699 238.856 180.176C239.016 179.653 239.256 179.179 239.576 178.752C239.907 178.325 240.317 177.989 240.808 177.744C241.309 177.488 241.901 177.36 242.584 177.36C243.309 177.36 243.949 177.525 244.504 177.856C245.059 178.187 245.496 178.677 245.816 179.328C246.136 179.979 246.296 180.795 246.296 181.776V182.224H240.168C240.2 182.704 240.312 183.147 240.504 183.552C240.707 183.947 240.989 184.267 241.352 184.512C241.715 184.747 242.147 184.864 242.648 184.864C243.085 184.864 243.437 184.795 243.704 184.656C243.981 184.507 244.2 184.336 244.36 184.144C244.52 183.952 244.627 183.787 244.68 183.648C244.744 183.499 244.776 183.424 244.776 183.424H246.2C246.2 183.424 246.173 183.52 246.12 183.712C246.067 183.893 245.971 184.117 245.832 184.384C245.693 184.651 245.491 184.923 245.224 185.2C244.957 185.467 244.616 185.696 244.2 185.888C243.784 186.069 243.267 186.16 242.648 186.16ZM240.184 181.04H244.808C244.787 180.485 244.669 180.037 244.456 179.696C244.243 179.344 243.971 179.083 243.64 178.912C243.309 178.741 242.957 178.656 242.584 178.656C241.912 178.656 241.363 178.875 240.936 179.312C240.509 179.739 240.259 180.315 240.184 181.04ZM252.218 186V174.16H260.026V175.536H253.786V179.44H259.29V180.816H253.786V186H252.218ZM261.386 186V177.52H262.906V178.576H262.97C263.151 178.256 263.418 177.973 263.77 177.728C264.122 177.483 264.618 177.36 265.258 177.36C265.439 177.36 265.604 177.371 265.754 177.392C265.903 177.403 265.978 177.408 265.978 177.408V178.864C265.978 178.864 265.892 178.859 265.722 178.848C265.562 178.827 265.391 178.816 265.21 178.816C264.474 178.816 263.903 179.029 263.498 179.456C263.103 179.872 262.906 180.555 262.906 181.504V186H261.386ZM271.027 186.16C270.12 186.16 269.357 185.952 268.739 185.536C268.12 185.109 267.651 184.56 267.331 183.888C267.011 183.216 266.851 182.507 266.851 181.76C266.851 181.003 267.011 180.293 267.331 179.632C267.651 178.96 268.12 178.416 268.739 178C269.357 177.573 270.12 177.36 271.027 177.36C271.933 177.36 272.696 177.573 273.315 178C273.933 178.416 274.403 178.96 274.723 179.632C275.043 180.293 275.203 181.003 275.203 181.76C275.203 182.507 275.043 183.216 274.723 183.888C274.403 184.56 273.933 185.109 273.315 185.536C272.696 185.952 271.933 186.16 271.027 186.16ZM271.027 184.832C271.603 184.832 272.083 184.688 272.467 184.4C272.861 184.101 273.155 183.717 273.347 183.248C273.549 182.779 273.651 182.283 273.651 181.76C273.651 181.227 273.549 180.731 273.347 180.272C273.155 179.803 272.861 179.424 272.467 179.136C272.083 178.837 271.603 178.688 271.027 178.688C270.461 178.688 269.981 178.837 269.587 179.136C269.192 179.424 268.893 179.803 268.691 180.272C268.499 180.731 268.403 181.227 268.403 181.76C268.403 182.283 268.499 182.779 268.691 183.248C268.893 183.717 269.192 184.101 269.587 184.4C269.981 184.688 270.461 184.832 271.027 184.832ZM277.276 186V177.52H278.796V178.752H278.86C278.946 178.592 279.079 178.405 279.26 178.192C279.442 177.968 279.687 177.776 279.996 177.616C280.316 177.445 280.716 177.36 281.196 177.36C281.826 177.36 282.354 177.515 282.78 177.824C283.218 178.123 283.543 178.528 283.756 179.04H283.772C284.007 178.571 284.338 178.176 284.764 177.856C285.202 177.525 285.767 177.36 286.46 177.36C287.378 177.36 288.082 177.675 288.572 178.304C289.074 178.923 289.324 179.723 289.324 180.704V186H287.804V180.784C287.804 180.155 287.655 179.648 287.356 179.264C287.058 178.869 286.626 178.672 286.06 178.672C285.57 178.672 285.175 178.805 284.876 179.072C284.588 179.339 284.38 179.669 284.252 180.064C284.124 180.459 284.06 180.853 284.06 181.248V186H282.54V180.784C282.54 180.155 282.391 179.648 282.092 179.264C281.804 178.869 281.372 178.672 280.796 178.672C280.306 178.672 279.911 178.805 279.612 179.072C279.324 179.339 279.116 179.675 278.988 180.08C278.86 180.475 278.796 180.864 278.796 181.248V186H277.276ZM25.28 211V199.16H26.848V211H25.28ZM29.245 211V202.52H30.765V203.752H30.861C30.9357 203.624 31.0583 203.448 31.229 203.224C31.4103 203 31.6663 202.803 31.997 202.632C32.3277 202.451 32.7437 202.36 33.245 202.36C33.8637 202.36 34.3917 202.504 34.829 202.792C35.2663 203.069 35.597 203.448 35.821 203.928C36.0557 204.408 36.173 204.947 36.173 205.544V211H34.653V205.64C34.653 205.075 34.493 204.605 34.173 204.232C33.8637 203.859 33.4103 203.672 32.813 203.672C32.333 203.672 31.9437 203.795 31.645 204.04C31.3463 204.275 31.1223 204.589 30.973 204.984C30.8343 205.368 30.765 205.779 30.765 206.216V211H29.245ZM42.0969 211.16C41.4569 211.16 40.8969 211.037 40.4169 210.792C39.9369 210.536 39.5369 210.2 39.2169 209.784C38.8969 209.357 38.6569 208.883 38.4969 208.36C38.3369 207.837 38.2569 207.304 38.2569 206.76C38.2569 206.216 38.3369 205.683 38.4969 205.16C38.6569 204.637 38.8969 204.168 39.2169 203.752C39.5369 203.325 39.9369 202.989 40.4169 202.744C40.8969 202.488 41.4569 202.36 42.0969 202.36C42.6302 202.36 43.0782 202.445 43.4409 202.616C43.8035 202.787 44.0969 202.989 44.3209 203.224C44.5449 203.448 44.7155 203.661 44.8329 203.864H44.9289V198.84H46.4489V211H44.9289V209.656H44.8329C44.7155 209.859 44.5449 210.077 44.3209 210.312C44.0969 210.547 43.8035 210.749 43.4409 210.92C43.0782 211.08 42.6302 211.16 42.0969 211.16ZM42.3529 209.864C42.9182 209.864 43.3875 209.715 43.7609 209.416C44.1449 209.107 44.4275 208.717 44.6089 208.248C44.8009 207.768 44.8969 207.272 44.8969 206.76C44.8969 206.237 44.8009 205.741 44.6089 205.272C44.4275 204.803 44.1449 204.419 43.7609 204.12C43.3875 203.811 42.9182 203.656 42.3529 203.656C41.7875 203.656 41.3129 203.811 40.9289 204.12C40.5449 204.419 40.2569 204.803 40.0649 205.272C39.8835 205.741 39.7929 206.237 39.7929 206.76C39.7929 207.272 39.8835 207.768 40.0649 208.248C40.2569 208.717 40.5449 209.107 40.9289 209.416C41.3129 209.715 41.7875 209.864 42.3529 209.864ZM51.6224 211.16C50.7797 211.16 50.1077 210.899 49.6064 210.376C49.105 209.853 48.8544 209.128 48.8544 208.2V202.52H50.3744V208.12C50.3744 208.675 50.5237 209.101 50.8224 209.4C51.1317 209.699 51.537 209.848 52.0384 209.848C52.5504 209.848 52.961 209.715 53.2704 209.448C53.5797 209.181 53.8037 208.84 53.9424 208.424C54.081 208.008 54.1504 207.581 54.1504 207.144V202.52H55.6704V211H54.1504V209.784H54.0544C53.9904 209.912 53.8677 210.088 53.6864 210.312C53.505 210.525 53.249 210.723 52.9184 210.904C52.5877 211.075 52.1557 211.16 51.6224 211.16ZM61.0209 211.16C60.3702 211.16 59.8315 211.069 59.4049 210.888C58.9889 210.707 58.6582 210.483 58.4129 210.216C58.1675 209.939 57.9862 209.667 57.8689 209.4C57.7515 209.123 57.6769 208.893 57.6449 208.712C57.6129 208.531 57.5969 208.44 57.5969 208.44H59.1329C59.1329 208.44 59.1489 208.515 59.1809 208.664C59.2235 208.803 59.3035 208.968 59.4209 209.16C59.5489 209.341 59.7409 209.507 59.9969 209.656C60.2635 209.795 60.6155 209.864 61.0529 209.864C61.5542 209.864 61.9435 209.747 62.2209 209.512C62.4982 209.267 62.6369 208.968 62.6369 208.616C62.6369 208.307 62.5249 208.061 62.3009 207.88C62.0875 207.699 61.7782 207.56 61.3729 207.464L60.2209 207.192C59.7942 207.085 59.3942 206.941 59.0209 206.76C58.6475 206.579 58.3435 206.333 58.1089 206.024C57.8849 205.704 57.7729 205.309 57.7729 204.84C57.7729 204.115 58.0449 203.523 58.5889 203.064C59.1329 202.595 59.8422 202.36 60.7169 202.36C61.3035 202.36 61.7889 202.445 62.1729 202.616C62.5569 202.776 62.8609 202.979 63.0849 203.224C63.3195 203.469 63.4902 203.715 63.5969 203.96C63.7142 204.205 63.7889 204.413 63.8209 204.584C63.8529 204.744 63.8689 204.824 63.8689 204.824H62.3969C62.3969 204.824 62.3809 204.765 62.3489 204.648C62.3169 204.52 62.2422 204.381 62.1249 204.232C62.0182 204.072 61.8529 203.933 61.6289 203.816C61.4049 203.688 61.1062 203.624 60.7329 203.624C60.2209 203.624 59.8475 203.741 59.6129 203.976C59.3782 204.211 59.2609 204.467 59.2609 204.744C59.2609 205.011 59.3675 205.229 59.5809 205.4C59.8049 205.56 60.0929 205.683 60.4449 205.768L61.6129 206.04C62.3382 206.211 62.9355 206.493 63.4049 206.888C63.8849 207.272 64.1249 207.827 64.1249 208.552C64.1249 209.021 64.0022 209.459 63.7569 209.864C63.5115 210.259 63.1595 210.573 62.7009 210.808C62.2422 211.043 61.6822 211.16 61.0209 211.16ZM69.4856 211.16C68.611 211.16 67.9496 210.936 67.5016 210.488C67.0643 210.04 66.8456 209.411 66.8456 208.6V203.768H65.3256V202.52H66.8456V200.392H68.3656V202.52H70.4296V203.768H68.3656V208.6C68.3656 209.027 68.483 209.341 68.7176 209.544C68.9523 209.736 69.2936 209.832 69.7416 209.832C69.9763 209.832 70.2003 209.816 70.4136 209.784C70.627 209.752 70.7336 209.736 70.7336 209.736V211.032C70.7336 211.032 70.611 211.053 70.3656 211.096C70.1203 211.139 69.827 211.16 69.4856 211.16ZM72.7294 211V202.52H74.2494V203.576H74.3134C74.4947 203.256 74.7614 202.973 75.1134 202.728C75.4654 202.483 75.9614 202.36 76.6014 202.36C76.7827 202.36 76.948 202.371 77.0974 202.392C77.2467 202.403 77.3214 202.408 77.3214 202.408V203.864C77.3214 203.864 77.236 203.859 77.0654 203.848C76.9054 203.827 76.7347 203.816 76.5534 203.816C75.8174 203.816 75.2467 204.029 74.8414 204.456C74.4467 204.872 74.2494 205.555 74.2494 206.504V211H72.7294ZM79.315 214.12C79.0697 214.12 78.8617 214.109 78.691 214.088C78.5203 214.067 78.435 214.056 78.435 214.056V212.76C78.435 212.76 78.5203 212.765 78.691 212.776C78.8723 212.797 79.0643 212.808 79.267 212.808C79.8963 212.808 80.4083 212.675 80.803 212.408C81.2083 212.152 81.5497 211.725 81.827 211.128L78.547 202.52H80.131L82.579 209.144L85.043 202.52H86.643L83.363 211.016C82.947 212.083 82.4083 212.867 81.747 213.368C81.0963 213.869 80.2857 214.12 79.315 214.12ZM92.1706 211V199.16H99.6906V200.536H93.7386V204.28H98.9546V205.656H93.7386V209.624H99.7706V211H92.1706ZM101.469 211L104.237 206.776L101.453 202.52H103.101L105.277 205.88L107.469 202.52H109.117L106.285 206.776L109.101 211H107.453L105.277 207.656L103.117 211H101.469ZM111.03 214.136V202.52H112.55V203.864H112.646C112.774 203.661 112.945 203.443 113.158 203.208C113.382 202.973 113.675 202.776 114.038 202.616C114.401 202.445 114.849 202.36 115.382 202.36C116.022 202.36 116.582 202.488 117.062 202.744C117.542 202.989 117.942 203.325 118.262 203.752C118.582 204.168 118.822 204.637 118.982 205.16C119.142 205.683 119.222 206.216 119.222 206.76C119.222 207.304 119.142 207.837 118.982 208.36C118.822 208.883 118.582 209.357 118.262 209.784C117.942 210.2 117.542 210.536 117.062 210.792C116.582 211.037 116.022 211.16 115.382 211.16C114.849 211.16 114.401 211.075 114.038 210.904C113.675 210.733 113.382 210.531 113.158 210.296C112.945 210.061 112.774 209.848 112.646 209.656H112.55V214.136H111.03ZM112.582 206.76C112.582 207.272 112.673 207.768 112.854 208.248C113.046 208.717 113.329 209.107 113.702 209.416C114.086 209.715 114.561 209.864 115.126 209.864C115.702 209.864 116.177 209.715 116.55 209.416C116.934 209.107 117.217 208.717 117.398 208.248C117.59 207.768 117.686 207.272 117.686 206.76C117.686 206.237 117.59 205.741 117.398 205.272C117.217 204.803 116.934 204.419 116.55 204.12C116.177 203.811 115.702 203.656 115.126 203.656C114.561 203.656 114.086 203.811 113.702 204.12C113.329 204.419 113.046 204.803 112.854 205.272C112.673 205.741 112.582 206.237 112.582 206.76ZM125.085 211.16C124.392 211.16 123.789 211.037 123.277 210.792C122.776 210.536 122.36 210.195 122.029 209.768C121.709 209.341 121.469 208.872 121.309 208.36C121.149 207.837 121.069 207.304 121.069 206.76C121.069 206.227 121.144 205.699 121.293 205.176C121.453 204.653 121.693 204.179 122.013 203.752C122.344 203.325 122.755 202.989 123.245 202.744C123.747 202.488 124.339 202.36 125.021 202.36C125.747 202.36 126.387 202.525 126.941 202.856C127.496 203.187 127.933 203.677 128.253 204.328C128.573 204.979 128.733 205.795 128.733 206.776V207.224H122.605C122.637 207.704 122.749 208.147 122.941 208.552C123.144 208.947 123.427 209.267 123.789 209.512C124.152 209.747 124.584 209.864 125.085 209.864C125.523 209.864 125.875 209.795 126.141 209.656C126.419 209.507 126.637 209.336 126.797 209.144C126.957 208.952 127.064 208.787 127.117 208.648C127.181 208.499 127.213 208.424 127.213 208.424H128.637C128.637 208.424 128.611 208.52 128.557 208.712C128.504 208.893 128.408 209.117 128.269 209.384C128.131 209.651 127.928 209.923 127.661 210.2C127.395 210.467 127.053 210.696 126.637 210.888C126.221 211.069 125.704 211.16 125.085 211.16ZM122.621 206.04H127.245C127.224 205.485 127.107 205.037 126.893 204.696C126.68 204.344 126.408 204.083 126.077 203.912C125.747 203.741 125.395 203.656 125.021 203.656C124.349 203.656 123.8 203.875 123.373 204.312C122.947 204.739 122.696 205.315 122.621 206.04ZM130.808 211V202.52H132.328V203.576H132.392C132.573 203.256 132.84 202.973 133.192 202.728C133.544 202.483 134.04 202.36 134.68 202.36C134.861 202.36 135.026 202.371 135.176 202.392C135.325 202.403 135.4 202.408 135.4 202.408V203.864C135.4 203.864 135.314 203.859 135.144 203.848C134.984 203.827 134.813 203.816 134.632 203.816C133.896 203.816 133.325 204.029 132.92 204.456C132.525 204.872 132.328 205.555 132.328 206.504V211H130.808ZM140.673 211.16C139.798 211.16 139.137 210.936 138.689 210.488C138.252 210.04 138.033 209.411 138.033 208.6V203.768H136.513V202.52H138.033V200.392H139.553V202.52H141.617V203.768H139.553V208.6C139.553 209.027 139.67 209.341 139.905 209.544C140.14 209.736 140.481 209.832 140.929 209.832C141.164 209.832 141.388 209.816 141.601 209.784C141.814 209.752 141.921 209.736 141.921 209.736V211.032C141.921 211.032 141.798 211.053 141.553 211.096C141.308 211.139 141.014 211.16 140.673 211.16ZM147.021 211.16C146.37 211.16 145.832 211.069 145.405 210.888C144.989 210.707 144.658 210.483 144.413 210.216C144.168 209.939 143.986 209.667 143.869 209.4C143.752 209.123 143.677 208.893 143.645 208.712C143.613 208.531 143.597 208.44 143.597 208.44H145.133C145.133 208.44 145.149 208.515 145.181 208.664C145.224 208.803 145.304 208.968 145.421 209.16C145.549 209.341 145.741 209.507 145.997 209.656C146.264 209.795 146.616 209.864 147.053 209.864C147.554 209.864 147.944 209.747 148.221 209.512C148.498 209.267 148.637 208.968 148.637 208.616C148.637 208.307 148.525 208.061 148.301 207.88C148.088 207.699 147.778 207.56 147.373 207.464L146.221 207.192C145.794 207.085 145.394 206.941 145.021 206.76C144.648 206.579 144.344 206.333 144.109 206.024C143.885 205.704 143.773 205.309 143.773 204.84C143.773 204.115 144.045 203.523 144.589 203.064C145.133 202.595 145.842 202.36 146.717 202.36C147.304 202.36 147.789 202.445 148.173 202.616C148.557 202.776 148.861 202.979 149.085 203.224C149.32 203.469 149.49 203.715 149.597 203.96C149.714 204.205 149.789 204.413 149.821 204.584C149.853 204.744 149.869 204.824 149.869 204.824H148.397C148.397 204.824 148.381 204.765 148.349 204.648C148.317 204.52 148.242 204.381 148.125 204.232C148.018 204.072 147.853 203.933 147.629 203.816C147.405 203.688 147.106 203.624 146.733 203.624C146.221 203.624 145.848 203.741 145.613 203.976C145.378 204.211 145.261 204.467 145.261 204.744C145.261 205.011 145.368 205.229 145.581 205.4C145.805 205.56 146.093 205.683 146.445 205.768L147.613 206.04C148.338 206.211 148.936 206.493 149.405 206.888C149.885 207.272 150.125 207.827 150.125 208.552C150.125 209.021 150.002 209.459 149.757 209.864C149.512 210.259 149.16 210.573 148.701 210.808C148.242 211.043 147.682 211.16 147.021 211.16ZM155.329 211L159.505 199.16H161.473L165.665 211H164.001L163.009 208.168H157.985L156.993 211H155.329ZM158.465 206.76H162.529L160.497 200.952L158.465 206.76ZM167.511 211V202.52H169.031V203.752H169.127C169.201 203.624 169.324 203.448 169.495 203.224C169.676 203 169.932 202.803 170.263 202.632C170.593 202.451 171.009 202.36 171.511 202.36C172.129 202.36 172.657 202.504 173.095 202.792C173.532 203.069 173.863 203.448 174.087 203.928C174.321 204.408 174.439 204.947 174.439 205.544V211H172.919V205.64C172.919 205.075 172.759 204.605 172.439 204.232C172.129 203.859 171.676 203.672 171.079 203.672C170.599 203.672 170.209 203.795 169.911 204.04C169.612 204.275 169.388 204.589 169.239 204.984C169.1 205.368 169.031 205.779 169.031 206.216V211H167.511ZM180.363 211.16C179.723 211.16 179.163 211.037 178.683 210.792C178.203 210.536 177.803 210.2 177.483 209.784C177.163 209.357 176.923 208.883 176.763 208.36C176.603 207.837 176.523 207.304 176.523 206.76C176.523 206.216 176.603 205.683 176.763 205.16C176.923 204.637 177.163 204.168 177.483 203.752C177.803 203.325 178.203 202.989 178.683 202.744C179.163 202.488 179.723 202.36 180.363 202.36C180.896 202.36 181.344 202.445 181.707 202.616C182.069 202.787 182.363 202.989 182.587 203.224C182.811 203.448 182.981 203.661 183.099 203.864H183.195V198.84H184.715V211H183.195V209.656H183.099C182.981 209.859 182.811 210.077 182.587 210.312C182.363 210.547 182.069 210.749 181.707 210.92C181.344 211.08 180.896 211.16 180.363 211.16ZM180.619 209.864C181.184 209.864 181.653 209.715 182.027 209.416C182.411 209.107 182.693 208.717 182.875 208.248C183.067 207.768 183.163 207.272 183.163 206.76C183.163 206.237 183.067 205.741 182.875 205.272C182.693 204.803 182.411 204.419 182.027 204.12C181.653 203.811 181.184 203.656 180.619 203.656C180.053 203.656 179.579 203.811 179.195 204.12C178.811 204.419 178.523 204.803 178.331 205.272C178.149 205.741 178.059 206.237 178.059 206.76C178.059 207.272 178.149 207.768 178.331 208.248C178.523 208.717 178.811 209.107 179.195 209.416C179.579 209.715 180.053 209.864 180.619 209.864ZM190.968 211V199.16H193.032L196.52 206.2L199.992 199.16H202.056V211H200.52V201.464L197.256 207.96H195.768L192.504 201.432V211H190.968ZM207.216 211.16C206.373 211.16 205.701 210.899 205.2 210.376C204.699 209.853 204.448 209.128 204.448 208.2V202.52H205.968V208.12C205.968 208.675 206.117 209.101 206.416 209.4C206.725 209.699 207.131 209.848 207.632 209.848C208.144 209.848 208.555 209.715 208.864 209.448C209.173 209.181 209.397 208.84 209.536 208.424C209.675 208.008 209.744 207.581 209.744 207.144V202.52H211.264V211H209.744V209.784H209.648C209.584 209.912 209.461 210.088 209.28 210.312C209.099 210.525 208.843 210.723 208.512 210.904C208.181 211.075 207.749 211.16 207.216 211.16ZM216.615 211.16C215.964 211.16 215.425 211.069 214.999 210.888C214.583 210.707 214.252 210.483 214.007 210.216C213.761 209.939 213.58 209.667 213.463 209.4C213.345 209.123 213.271 208.893 213.239 208.712C213.207 208.531 213.191 208.44 213.191 208.44H214.727C214.727 208.44 214.743 208.515 214.775 208.664C214.817 208.803 214.897 208.968 215.015 209.16C215.143 209.341 215.335 209.507 215.591 209.656C215.857 209.795 216.209 209.864 216.647 209.864C217.148 209.864 217.537 209.747 217.815 209.512C218.092 209.267 218.231 208.968 218.231 208.616C218.231 208.307 218.119 208.061 217.895 207.88C217.681 207.699 217.372 207.56 216.967 207.464L215.815 207.192C215.388 207.085 214.988 206.941 214.615 206.76C214.241 206.579 213.937 206.333 213.703 206.024C213.479 205.704 213.367 205.309 213.367 204.84C213.367 204.115 213.639 203.523 214.183 203.064C214.727 202.595 215.436 202.36 216.311 202.36C216.897 202.36 217.383 202.445 217.767 202.616C218.151 202.776 218.455 202.979 218.679 203.224C218.913 203.469 219.084 203.715 219.191 203.96C219.308 204.205 219.383 204.413 219.415 204.584C219.447 204.744 219.463 204.824 219.463 204.824H217.991C217.991 204.824 217.975 204.765 217.943 204.648C217.911 204.52 217.836 204.381 217.719 204.232C217.612 204.072 217.447 203.933 217.223 203.816C216.999 203.688 216.7 203.624 216.327 203.624C215.815 203.624 215.441 203.741 215.207 203.976C214.972 204.211 214.855 204.467 214.855 204.744C214.855 205.011 214.961 205.229 215.175 205.4C215.399 205.56 215.687 205.683 216.039 205.768L217.207 206.04C217.932 206.211 218.529 206.493 218.999 206.888C219.479 207.272 219.719 207.827 219.719 208.552C219.719 209.021 219.596 209.459 219.351 209.864C219.105 210.259 218.753 210.573 218.295 210.808C217.836 211.043 217.276 211.16 216.615 211.16ZM222.628 200.904C222.34 200.904 222.1 200.808 221.908 200.616C221.726 200.424 221.636 200.195 221.636 199.928C221.636 199.651 221.726 199.416 221.908 199.224C222.1 199.032 222.34 198.936 222.628 198.936C222.905 198.936 223.14 199.032 223.332 199.224C223.524 199.416 223.62 199.651 223.62 199.928C223.62 200.195 223.524 200.424 223.332 200.616C223.14 200.808 222.905 200.904 222.628 200.904ZM221.876 211V202.52H223.396V211H221.876ZM229.87 211.16C229.177 211.16 228.569 211.037 228.046 210.792C227.524 210.536 227.086 210.2 226.734 209.784C226.393 209.357 226.132 208.883 225.95 208.36C225.78 207.837 225.694 207.304 225.694 206.76C225.694 206.216 225.78 205.688 225.95 205.176C226.121 204.653 226.377 204.179 226.718 203.752C227.07 203.325 227.508 202.989 228.03 202.744C228.553 202.488 229.166 202.36 229.87 202.36C230.553 202.36 231.118 202.461 231.566 202.664C232.014 202.867 232.372 203.123 232.638 203.432C232.916 203.731 233.118 204.035 233.246 204.344C233.385 204.643 233.476 204.893 233.518 205.096C233.561 205.299 233.582 205.4 233.582 205.4H232.11C232.11 205.4 232.084 205.315 232.03 205.144C231.977 204.963 231.876 204.76 231.726 204.536C231.577 204.312 231.353 204.115 231.054 203.944C230.756 203.763 230.361 203.672 229.87 203.672C229.284 203.672 228.788 203.821 228.382 204.12C227.988 204.408 227.689 204.787 227.486 205.256C227.294 205.725 227.198 206.227 227.198 206.76C227.198 207.293 227.294 207.795 227.486 208.264C227.689 208.733 227.988 209.117 228.382 209.416C228.788 209.704 229.284 209.848 229.87 209.848C230.361 209.848 230.756 209.763 231.054 209.592C231.353 209.411 231.577 209.208 231.726 208.984C231.876 208.76 231.977 208.563 232.03 208.392C232.084 208.211 232.11 208.12 232.11 208.12H233.582C233.582 208.12 233.561 208.221 233.518 208.424C233.476 208.627 233.385 208.883 233.246 209.192C233.118 209.491 232.916 209.795 232.638 210.104C232.372 210.403 232.014 210.653 231.566 210.856C231.118 211.059 230.553 211.16 229.87 211.16ZM239.347 202.36C239.88 202.36 240.328 202.445 240.691 202.616C241.054 202.787 241.347 202.989 241.571 203.224C241.795 203.448 241.966 203.661 242.083 203.864H242.179V202.52H243.699V211H242.179V209.656H242.083C241.966 209.859 241.795 210.077 241.571 210.312C241.347 210.547 241.054 210.749 240.691 210.92C240.328 211.08 239.88 211.16 239.347 211.16C238.707 211.16 238.147 211.037 237.667 210.792C237.187 210.536 236.787 210.2 236.467 209.784C236.147 209.357 235.907 208.883 235.747 208.36C235.587 207.837 235.507 207.304 235.507 206.76C235.507 206.216 235.587 205.683 235.747 205.16C235.907 204.637 236.147 204.168 236.467 203.752C236.787 203.325 237.187 202.989 237.667 202.744C238.147 202.488 238.707 202.36 239.347 202.36ZM239.603 203.656C239.038 203.656 238.563 203.811 238.179 204.12C237.795 204.419 237.507 204.803 237.315 205.272C237.134 205.741 237.043 206.237 237.043 206.76C237.043 207.272 237.134 207.768 237.315 208.248C237.507 208.717 237.795 209.107 238.179 209.416C238.563 209.715 239.038 209.864 239.603 209.864C240.168 209.864 240.638 209.715 241.011 209.416C241.395 209.107 241.678 208.717 241.859 208.248C242.051 207.768 242.147 207.272 242.147 206.76C242.147 206.237 242.051 205.741 241.859 205.272C241.678 204.803 241.395 204.419 241.011 204.12C240.638 203.811 240.168 203.656 239.603 203.656ZM246.093 211L246.109 198.84H247.613V211H246.093ZM25.28 236V224.16H26.848V234.624H32.944V236H25.28ZM38.3198 236.16C37.6264 236.16 37.0238 236.037 36.5118 235.792C36.0104 235.536 35.5944 235.195 35.2638 234.768C34.9438 234.341 34.7038 233.872 34.5438 233.36C34.3838 232.837 34.3038 232.304 34.3038 231.76C34.3038 231.227 34.3784 230.699 34.5278 230.176C34.6878 229.653 34.9278 229.179 35.2478 228.752C35.5784 228.325 35.9891 227.989 36.4798 227.744C36.9811 227.488 37.5731 227.36 38.2558 227.36C38.9811 227.36 39.6211 227.525 40.1758 227.856C40.7304 228.187 41.1678 228.677 41.4878 229.328C41.8078 229.979 41.9678 230.795 41.9678 231.776V232.224H35.8398C35.8718 232.704 35.9838 233.147 36.1758 233.552C36.3784 233.947 36.6611 234.267 37.0238 234.512C37.3864 234.747 37.8184 234.864 38.3198 234.864C38.7571 234.864 39.1091 234.795 39.3758 234.656C39.6531 234.507 39.8718 234.336 40.0318 234.144C40.1918 233.952 40.2984 233.787 40.3518 233.648C40.4158 233.499 40.4478 233.424 40.4478 233.424H41.8718C41.8718 233.424 41.8451 233.52 41.7917 233.712C41.7384 233.893 41.6424 234.117 41.5038 234.384C41.3651 234.651 41.1624 234.923 40.8958 235.2C40.6291 235.467 40.2878 235.696 39.8718 235.888C39.4558 236.069 38.9384 236.16 38.3198 236.16ZM35.8558 231.04H40.4798C40.4584 230.485 40.3411 230.037 40.1278 229.696C39.9144 229.344 39.6424 229.083 39.3118 228.912C38.9811 228.741 38.6291 228.656 38.2558 228.656C37.5838 228.656 37.0344 228.875 36.6078 229.312C36.1811 229.739 35.9304 230.315 35.8558 231.04ZM48.0438 239.36C47.3398 239.36 46.7531 239.264 46.2838 239.072C45.8144 238.891 45.4358 238.656 45.1478 238.368C44.8704 238.091 44.6624 237.813 44.5238 237.536C44.3851 237.259 44.2944 237.024 44.2518 236.832C44.2091 236.651 44.1878 236.56 44.1878 236.56H45.7078C45.7078 236.56 45.7344 236.635 45.7878 236.784C45.8411 236.933 45.9424 237.104 46.0918 237.296C46.2518 237.488 46.4864 237.659 46.7958 237.808C47.1051 237.957 47.5211 238.032 48.0438 238.032C48.6624 238.032 49.1478 237.909 49.4998 237.664C49.8518 237.429 50.1024 237.12 50.2518 236.736C50.4118 236.352 50.4918 235.947 50.4918 235.52V234.544H50.4118C50.3051 234.725 50.1344 234.933 49.8998 235.168C49.6758 235.392 49.3771 235.589 49.0038 235.76C48.6304 235.92 48.1718 236 47.6278 236C46.9878 236 46.4278 235.877 45.9478 235.632C45.4678 235.387 45.0678 235.056 44.7478 234.64C44.4384 234.224 44.2038 233.76 44.0438 233.248C43.8838 232.736 43.8038 232.213 43.8038 231.68C43.8038 231.147 43.8838 230.624 44.0438 230.112C44.2038 229.6 44.4384 229.136 44.7478 228.72C45.0678 228.304 45.4678 227.973 45.9478 227.728C46.4278 227.483 46.9878 227.36 47.6278 227.36C48.1718 227.36 48.6304 227.445 49.0038 227.616C49.3771 227.776 49.6758 227.968 49.8998 228.192C50.1344 228.416 50.3051 228.624 50.4118 228.816H50.4918V227.52H52.0118V235.504C52.0118 236.688 51.6651 237.627 50.9718 238.32C50.2891 239.013 49.3131 239.36 48.0438 239.36ZM47.9158 234.704C48.4811 234.704 48.9504 234.56 49.3238 234.272C49.7078 233.973 49.9904 233.595 50.1718 233.136C50.3638 232.677 50.4598 232.192 50.4598 231.68C50.4598 231.168 50.3638 230.683 50.1718 230.224C49.9904 229.755 49.7078 229.376 49.3238 229.088C48.9504 228.8 48.4811 228.656 47.9158 228.656C47.3504 228.656 46.8758 228.8 46.4918 229.088C46.1078 229.376 45.8198 229.755 45.6278 230.224C45.4464 230.683 45.3558 231.168 45.3558 231.68C45.3558 232.192 45.4464 232.677 45.6278 233.136C45.8198 233.595 46.1078 233.973 46.4918 234.272C46.8758 234.56 47.3504 234.704 47.9158 234.704ZM57.7885 236.16C57.0952 236.16 56.4925 236.037 55.9805 235.792C55.4792 235.536 55.0632 235.195 54.7325 234.768C54.4125 234.341 54.1725 233.872 54.0125 233.36C53.8525 232.837 53.7725 232.304 53.7725 231.76C53.7725 231.227 53.8472 230.699 53.9965 230.176C54.1565 229.653 54.3965 229.179 54.7165 228.752C55.0472 228.325 55.4578 227.989 55.9485 227.744C56.4498 227.488 57.0418 227.36 57.7245 227.36C58.4498 227.36 59.0898 227.525 59.6445 227.856C60.1992 228.187 60.6365 228.677 60.9565 229.328C61.2765 229.979 61.4365 230.795 61.4365 231.776V232.224H55.3085C55.3405 232.704 55.4525 233.147 55.6445 233.552C55.8472 233.947 56.1298 234.267 56.4925 234.512C56.8552 234.747 57.2872 234.864 57.7885 234.864C58.2258 234.864 58.5778 234.795 58.8445 234.656C59.1218 234.507 59.3405 234.336 59.5005 234.144C59.6605 233.952 59.7672 233.787 59.8205 233.648C59.8845 233.499 59.9165 233.424 59.9165 233.424H61.3405C61.3405 233.424 61.3138 233.52 61.2605 233.712C61.2072 233.893 61.1112 234.117 60.9725 234.384C60.8338 234.651 60.6312 234.923 60.3645 235.2C60.0978 235.467 59.7565 235.696 59.3405 235.888C58.9245 236.069 58.4072 236.16 57.7885 236.16ZM55.3245 231.04H59.9485C59.9272 230.485 59.8098 230.037 59.5965 229.696C59.3832 229.344 59.1112 229.083 58.7805 228.912C58.4498 228.741 58.0978 228.656 57.7245 228.656C57.0525 228.656 56.5032 228.875 56.0765 229.312C55.6498 229.739 55.3992 230.315 55.3245 231.04ZM63.5106 236V227.52H65.0306V228.752H65.1266C65.2013 228.624 65.324 228.448 65.4946 228.224C65.676 228 65.932 227.803 66.2626 227.632C66.5933 227.451 67.0093 227.36 67.5106 227.36C68.1293 227.36 68.6573 227.504 69.0946 227.792C69.532 228.069 69.8626 228.448 70.0866 228.928C70.3213 229.408 70.4386 229.947 70.4386 230.544V236H68.9186V230.64C68.9186 230.075 68.7586 229.605 68.4386 229.232C68.1293 228.859 67.676 228.672 67.0786 228.672C66.5986 228.672 66.2093 228.795 65.9106 229.04C65.612 229.275 65.388 229.589 65.2386 229.984C65.1 230.368 65.0306 230.779 65.0306 231.216V236H63.5106ZM76.3625 236.16C75.7225 236.16 75.1625 236.037 74.6825 235.792C74.2025 235.536 73.8025 235.2 73.4825 234.784C73.1625 234.357 72.9225 233.883 72.7625 233.36C72.6025 232.837 72.5225 232.304 72.5225 231.76C72.5225 231.216 72.6025 230.683 72.7625 230.16C72.9225 229.637 73.1625 229.168 73.4825 228.752C73.8025 228.325 74.2025 227.989 74.6825 227.744C75.1625 227.488 75.7225 227.36 76.3625 227.36C76.8958 227.36 77.3438 227.445 77.7065 227.616C78.0692 227.787 78.3625 227.989 78.5865 228.224C78.8105 228.448 78.9812 228.661 79.0985 228.864H79.1945V223.84H80.7145V236H79.1945V234.656H79.0985C78.9812 234.859 78.8105 235.077 78.5865 235.312C78.3625 235.547 78.0692 235.749 77.7065 235.92C77.3438 236.08 76.8958 236.16 76.3625 236.16ZM76.6185 234.864C77.1838 234.864 77.6532 234.715 78.0265 234.416C78.4105 234.107 78.6932 233.717 78.8745 233.248C79.0665 232.768 79.1625 232.272 79.1625 231.76C79.1625 231.237 79.0665 230.741 78.8745 230.272C78.6932 229.803 78.4105 229.419 78.0265 229.12C77.6532 228.811 77.1838 228.656 76.6185 228.656C76.0532 228.656 75.5785 228.811 75.1945 229.12C74.8105 229.419 74.5225 229.803 74.3305 230.272C74.1492 230.741 74.0585 231.237 74.0585 231.76C74.0585 232.272 74.1492 232.768 74.3305 233.248C74.5225 233.717 74.8105 234.107 75.1945 234.416C75.5785 234.715 76.0532 234.864 76.6185 234.864ZM86.224 236.16C85.5733 236.16 85.0347 236.069 84.608 235.888C84.192 235.707 83.8613 235.483 83.616 235.216C83.3707 234.939 83.1893 234.667 83.072 234.4C82.9547 234.123 82.88 233.893 82.848 233.712C82.816 233.531 82.8 233.44 82.8 233.44H84.336C84.336 233.44 84.352 233.515 84.384 233.664C84.4267 233.803 84.5067 233.968 84.624 234.16C84.752 234.341 84.944 234.507 85.2 234.656C85.4667 234.795 85.8187 234.864 86.256 234.864C86.7573 234.864 87.1467 234.747 87.424 234.512C87.7013 234.267 87.84 233.968 87.84 233.616C87.84 233.307 87.728 233.061 87.504 232.88C87.2907 232.699 86.9813 232.56 86.576 232.464L85.424 232.192C84.9973 232.085 84.5973 231.941 84.224 231.76C83.8507 231.579 83.5467 231.333 83.312 231.024C83.088 230.704 82.976 230.309 82.976 229.84C82.976 229.115 83.248 228.523 83.792 228.064C84.336 227.595 85.0453 227.36 85.92 227.36C86.5067 227.36 86.992 227.445 87.376 227.616C87.76 227.776 88.064 227.979 88.288 228.224C88.5227 228.469 88.6933 228.715 88.8 228.96C88.9173 229.205 88.992 229.413 89.024 229.584C89.056 229.744 89.072 229.824 89.072 229.824H87.6C87.6 229.824 87.584 229.765 87.552 229.648C87.52 229.52 87.4453 229.381 87.328 229.232C87.2213 229.072 87.056 228.933 86.832 228.816C86.608 228.688 86.3093 228.624 85.936 228.624C85.424 228.624 85.0507 228.741 84.816 228.976C84.5813 229.211 84.464 229.467 84.464 229.744C84.464 230.011 84.5707 230.229 84.784 230.4C85.008 230.56 85.296 230.683 85.648 230.768L86.816 231.04C87.5413 231.211 88.1387 231.493 88.608 231.888C89.088 232.272 89.328 232.827 89.328 233.552C89.328 234.021 89.2053 234.459 88.96 234.864C88.7147 235.259 88.3627 235.573 87.904 235.808C87.4453 236.043 86.8853 236.16 86.224 236.16ZM92.413 236.16C92.1143 236.16 91.8637 236.059 91.661 235.856C91.469 235.643 91.373 235.397 91.373 235.12C91.373 234.832 91.469 234.587 91.661 234.384C91.8637 234.181 92.1143 234.08 92.413 234.08C92.7117 234.08 92.957 234.181 93.149 234.384C93.3517 234.587 93.453 234.832 93.453 235.12C93.453 235.408 93.3517 235.653 93.149 235.856C92.957 236.059 92.7117 236.16 92.413 236.16Z" fill="#786363"/>
<path opacity="0.24" d="M252.092 139.4C248.092 139.4 244.459 138.6 241.192 137C237.926 135.4 235.126 133.1 232.792 130.1C230.526 127.1 228.759 123.533 227.492 119.4C226.292 115.2 225.692 110.533 225.692 105.4C225.692 98.0667 226.826 91.8333 229.092 86.7C231.359 81.5 234.492 77.5333 238.492 74.8C242.492 72.0667 247.092 70.7 252.292 70.7C257.692 70.7 262.326 72.1667 266.192 75.1C270.126 77.9667 273.126 82 275.192 87.2C277.326 92.3333 278.392 98.3667 278.392 105.3C278.392 110.367 277.792 115 276.592 119.2C275.392 123.4 273.626 127 271.292 130C268.959 133 266.192 135.333 262.992 137C259.792 138.6 256.159 139.4 252.092 139.4ZM252.092 131.5C254.559 131.5 256.826 130.967 258.892 129.9C260.959 128.767 262.759 127.1 264.292 124.9C265.892 122.7 267.126 119.967 267.992 116.7C268.859 113.367 269.292 109.467 269.292 105C269.292 99.4667 268.559 94.7333 267.092 90.8C265.692 86.8667 263.692 83.8333 261.092 81.7C258.559 79.5667 255.592 78.5 252.192 78.5C249.126 78.5 246.259 79.4333 243.592 81.3C240.992 83.1 238.859 85.9667 237.192 89.9C235.592 93.7667 234.792 98.8 234.792 105C234.792 109.333 235.226 113.167 236.092 116.5C236.959 119.767 238.159 122.533 239.692 124.8C241.226 127 243.026 128.667 245.092 129.8C247.226 130.933 249.559 131.5 252.092 131.5ZM297.234 138V87.4H287.734V79.3C290.734 79.3 293.234 78.8333 295.234 77.9C297.3 76.9667 298.634 75 299.234 72H306.434V138H297.234Z" fill="url(#paint1_linear_1_514)"/>
</g>
<rect x="0.5" y="0.5" width="330" height="266" rx="23.5" stroke="white"/>
<defs>
<filter id="filter0_f_1_514" x="-197.496" y="-149.486" width="628.975" height="628.975" filterUnits="userSpaceOnUse" color-interpolation-filters="sRGB">
<feFlood flood-opacity="0" result="BackgroundImageFix"/>
<feBlend mode="normal" in="SourceGraphic" in2="BackgroundImageFix" result="shape"/>
<feGaussianBlur stdDeviation="50" result="effect1_foregroundBlur_1_514"/>
</filter>
<linearGradient id="paint0_linear_1_514" x1="11.6178" y1="65.4352" x2="306.834" y2="166.796" gradientUnits="userSpaceOnUse">
<stop offset="0.0679999" stop-color="#B1A5A6" stop-opacity="0.48"/>
<stop offset="0.433" stop-color="#FFD208" stop-opacity="0.24"/>
<stop offset="0.723" stop-color="#E4111D" stop-opacity="0"/>
<stop offset="1" stop-color="#F2404A" stop-opacity="0.4"/>
</linearGradient>
<linearGradient id="paint1_linear_1_514" x1="219" y1="76" x2="310.487" y2="134.552" gradientUnits="userSpaceOnUse">
<stop stop-color="#0E0606"/>
<stop offset="1" stop-color="#0E0606" stop-opacity="0"/>
</linearGradient>
<clipPath id="clip0_1_514">
<rect width="331" height="267" rx="24" fill="white"/>
</clipPath>
</defs>
</svg>
