<svg width="1440" height="436" viewBox="0 0 1440 436" fill="none" xmlns="http://www.w3.org/2000/svg">
<g opacity="0.4">
<path d="M1492.04 419.667C1438.11 365.373 1439.17 268.063 1391.67 252.67C1373.85 247.503 1366.47 248.035 1352.19 232.337C1336.67 213.792 1328.84 193.571 1310.53 159.836C1289.6 122.904 1274.63 110.234 1235.19 126.361C1225.14 130.604 1221.35 132.497 1214.74 132.524C1180.13 126.813 1176.11 -12.3687 1161.14 2.04645C1147.99 43.787 1144.53 193.888 1130.79 199.208C1125.08 192.975 1125.75 188.697 1116.78 168.299C1078.84 95.2576 1061.92 352.68 1032.87 368.802C1022.79 368.781 1017.24 345.152 1013.96 333.629C995.148 261.921 995.83 247.411 974.6 239.116C953.242 231.375 952.432 230.463 935.444 232.249C921.402 233.722 911.191 234.113 897.679 229.81C857.022 215.052 830.53 159.842 797.458 164.797C790.332 166.515 788.165 168.22 778.812 172.98C751.935 185.65 743.428 168.591 722.599 208.082C713.617 226.28 683.678 300.009 657.601 297.571C640.835 293.397 632.217 272.72 617.987 277.561C593.735 292.644 584.06 394.861 566.703 390.518C555.14 378.536 550.464 334.157 536.548 279.28C531.57 261.727 529.972 256.2 516.75 229.185C486.18 167.844 490.797 211.881 457.158 135.857C453.19 127.475 452.07 125.015 447.835 120.94C431.001 115.474 429.426 202.562 415.204 203.765C405.074 193.796 403.697 167.149 391.896 161.633C376.412 163.425 369.794 222.408 352.298 263.24C336.912 293.247 329.878 265.193 312.792 246.559C296.732 231.499 253.514 218.687 238.062 216.755C221.76 215.69 218.374 224.675 200.768 227.82C186.323 229.614 176.234 225.85 161.171 225.624C120.771 226.607 96.6163 278.94 65.5814 215.316C49.8487 180.833 43.6067 156.306 28.2887 166.177C19.6631 173.892 18.1342 179.357 0.318848 205.52" stroke="#C02B8B" stroke-width="1.5" stroke-linecap="round" stroke-linejoin="round"/>
<path d="M1492.04 417.999C1448.96 366.542 1444.13 299.636 1410.46 277.18C1371.04 253.217 1334.04 254.62 1307.91 247.568C1262.63 234.256 1253.12 200.854 1202.83 127.151C1183.58 99.4995 1176.33 94.1531 1163.12 155.006C1153.27 205.088 1150.92 226.483 1142.56 259.202C1131.17 296.093 1130.44 273.712 1104.84 324.603C1084.13 366.863 1075.93 388.559 1063.17 403.878C1032.93 434.1 1024.99 335.495 1005.05 288.888C996.072 272.172 991.304 274.224 965.741 261.549C955.401 256.071 953.977 253.965 946.631 250.735C931.978 246.105 926.467 258.527 909.337 261.374C876.22 263.688 868.265 206.205 830.09 202.306C791.241 200.13 784.925 221.107 753.172 222.257C725.185 222.277 720.882 213.853 696.222 250.983C673.016 286.113 676.575 272.97 657.609 309.783C646.564 330.813 638.493 345.25 620.316 332.239C604.349 319.391 596.842 306.024 582.891 337.535C562.942 389.46 556.463 447.995 541.066 431.543C519.209 393.466 517.457 270.452 482.797 254.335C468.09 249.518 461.731 257.802 445.502 247.207C419.118 227.085 405.767 178.855 387.102 221.73C368.545 273.093 362.367 342.056 345.27 341.82C337.967 337.867 334.693 328.241 325.312 304.918C311.867 273.129 310.985 277.204 262.188 260.387C225.327 247.153 229.498 233.147 205.431 245.955C168.417 264.757 156.088 210.167 128.513 230.082C113.736 242.628 108.418 255.825 91.2202 245.977C75.5976 235.61 68.6356 224.446 53.8608 237.611C45.9448 246.02 43.3139 251.537 33.4135 265.573C19.7846 283.48 14.5445 279.386 0.318359 263.352" stroke="#9C35B2" stroke-width="1.5" stroke-linecap="round" stroke-linejoin="round"/>
<path d="M1492.04 359.659C1458.51 339.978 1456.05 353.996 1407.94 337.189C1396.18 332.714 1393.17 330.088 1387.01 321.946C1364.13 287.082 1372.27 277.82 1328.34 271.882C1317.66 270.537 1314.1 270.302 1305.86 269.009C1276.89 263.873 1267.07 250.544 1247.3 264.656C1232.21 277.284 1226.71 294.095 1210.01 303.097C1196.35 309.076 1189.39 304.543 1172.72 306.233C1163.86 307.491 1162.75 308.497 1154.07 310.138C1124.85 314.09 1120.85 274.493 1098.13 279.319C1084.57 284.638 1064.05 317.488 1056.31 329.698C1017.15 393.825 1004.02 476.054 976.927 406.975C958.162 353.389 953.809 300.282 937.316 279.985C927.236 270.679 916.431 271.374 895.369 261.94C864.754 247.314 844.704 221.578 816.105 227.013C799.09 231.345 793.278 240.395 778.812 226.629C762.166 208.617 756.316 190.705 741.518 234.471C722.852 292.73 723.286 267.727 704.225 284.837C669.899 321.798 657.157 447.432 622.647 417.103C589.94 382.374 575.604 288.207 538.737 273.748C511.992 265.378 478.167 297.475 388.243 257.527C367.989 248.697 365.994 250.827 347.618 244.1C331.56 237.894 317.667 229.753 301.098 222.693C255.531 204.193 245.173 223.183 203.411 213.334C158.579 202.535 154.654 216.073 122.066 266.685C89.6795 316.615 83.0872 355.351 63.1846 331.217C54.5572 318.644 52.2146 310.501 42.7114 294.083C31.2173 276.682 28.4849 281.621 0.318848 270.616" stroke="#24A9FA" stroke-width="1.5" stroke-linecap="round" stroke-linejoin="round"/>
</g>
</svg>
