<svg width="562" height="562" viewBox="0 0 562 562" fill="none" xmlns="http://www.w3.org/2000/svg">
<g opacity="0.08" clip-path="url('#clip0_1_3493')">
<path d="M562.003 468.337C562.003 520.064 520.063 562.003 468.337 562.003C416.606 562.003 374.671 520.063 374.671 468.337C374.671 416.606 416.606 374.671 468.337 374.671C520.064 374.671 562.003 416.606 562.003 468.337ZM444.921 245.875C444.921 291.141 408.228 327.834 362.961 327.834C317.693 327.834 281.001 291.141 281.001 245.874C281.001 200.612 317.693 163.914 362.961 163.914C408.228 163.914 444.921 200.613 444.921 245.875ZM281 421.5C281 499.096 218.095 562.003 140.497 562.003C62.9067 562.003 0 499.096 0 421.499C0 343.903 62.9067 281.001 140.497 281.001C218.095 281.001 281.001 343.903 281.001 421.499L281 421.5ZM234.174 117.087C234.174 181.751 181.751 234.174 117.087 234.174C52.4227 234.174 0 181.751 0 117.087C0 52.4227 52.4227 0 117.087 0C181.751 0 234.174 52.4227 234.174 117.087ZM562.003 70.25C562.003 109.048 530.547 140.497 491.747 140.497C452.949 140.497 421.499 109.048 421.499 70.2486C421.5 31.4506 452.949 0 491.75 0C530.548 0 562.004 31.4506 562.004 70.25H562.003ZM538.58 304.412C538.58 317.345 528.098 327.829 515.164 327.829C502.231 327.829 491.747 317.346 491.747 304.412C491.747 291.484 502.231 281.001 515.164 281.001C528.098 281.001 538.58 291.484 538.58 304.412ZM362.961 81.9592C362.961 101.362 347.237 117.087 327.834 117.087C308.437 117.087 292.712 101.362 292.712 81.9592C292.712 62.5637 308.436 46.8384 327.834 46.8384C347.235 46.8384 362.961 62.5623 362.961 81.9592Z" fill="#FF444E"></path>
</g>
<defs>
<clipPath id="clip0_1_3493">
<rect width="562" height="562" fill="white"></rect>
</clipPath>
</defs>
</svg>
