<svg width="48" height="48" viewBox="0 0 48 48" fill="none" xmlns="http://www.w3.org/2000/svg">
<rect width="48" height="48" rx="8" fill="#F5E11A"></rect>
<path d="M21.5003 15.6666C19.317 15.6666 17.542 17.4416 17.542 19.625C17.542 21.7666 19.217 23.5 21.4003 23.575C21.467 23.5666 21.5337 23.5666 21.5837 23.575C21.6003 23.575 21.6087 23.575 21.6253 23.575C21.6337 23.575 21.6337 23.575 21.642 23.575C23.7753 23.5 25.4503 21.7666 25.4587 19.625C25.4587 17.4416 23.6837 15.6666 21.5003 15.6666Z" fill="#0E0606"></path>
<path d="M25.7338 25.7917C23.4088 24.2417 19.6171 24.2417 17.2755 25.7917C16.2171 26.5 15.6338 27.4583 15.6338 28.4833C15.6338 29.5083 16.2171 30.4583 17.2671 31.1583C18.4338 31.9417 19.9671 32.3333 21.5005 32.3333C23.0338 32.3333 24.5671 31.9417 25.7338 31.1583C26.7838 30.45 27.3671 29.5 27.3671 28.4667C27.3588 27.4417 26.7838 26.4917 25.7338 25.7917Z" fill="#0E0606"></path>
<path d="M30.6588 20.1167C30.7921 21.7334 29.6421 23.15 28.0505 23.3417C28.0421 23.3417 28.0421 23.3417 28.0338 23.3417H28.0088C27.9588 23.3417 27.9088 23.3417 27.8671 23.3584C27.0588 23.4 26.3171 23.1417 25.7588 22.6667C26.6171 21.9 27.1088 20.75 27.0088 19.5C26.9505 18.825 26.7171 18.2084 26.3671 17.6834C26.6838 17.525 27.0505 17.425 27.4255 17.3917C29.0588 17.25 30.5171 18.4667 30.6588 20.1167Z" fill="#0E0606"></path>
<path d="M32.3249 27.825C32.2582 28.6334 31.7415 29.3334 30.8749 29.8084C30.0415 30.2667 28.9915 30.4834 27.9499 30.4584C28.5499 29.9167 28.8999 29.2417 28.9665 28.525C29.0499 27.4917 28.5582 26.5 27.5749 25.7084C27.0165 25.2667 26.3665 24.9167 25.6582 24.6584C27.4999 24.125 29.8165 24.4834 31.2415 25.6334C32.0082 26.25 32.3999 27.025 32.3249 27.825Z" fill="#0E0606"></path>
</svg>
