<svg width="48" height="48" viewBox="0 0 48 48" fill="none" xmlns="http://www.w3.org/2000/svg">
<rect width="48" height="48" rx="8" fill="#F5E11A"></rect>
<path d="M24.0003 15.6666C19.4087 15.6666 15.667 19.4083 15.667 24C15.667 28.5916 19.4087 32.3333 24.0003 32.3333C28.592 32.3333 32.3337 28.5916 32.3337 24C32.3337 19.4083 28.592 15.6666 24.0003 15.6666ZM27.6253 26.975C27.5087 27.175 27.3003 27.2833 27.0837 27.2833C26.9753 27.2833 26.867 27.2583 26.767 27.1916L24.1837 25.65C23.542 25.2666 23.067 24.425 23.067 23.6833V20.2666C23.067 19.925 23.3503 19.6416 23.692 19.6416C24.0337 19.6416 24.317 19.925 24.317 20.2666V23.6833C24.317 23.9833 24.567 24.425 24.8253 24.575L27.4087 26.1166C27.7087 26.2916 27.8087 26.675 27.6253 26.975Z" fill="#0E0606"></path>
</svg>
