<svg width="396" height="156" viewBox="0 0 396 156" fill="none" xmlns="http://www.w3.org/2000/svg">
<path d="M0 64.9999C0 57.8202 5.8203 51.9999 13 51.9999C20.1797 51.9999 26 57.8202 26 64.9999V77.9999H0V64.9999Z" fill="#FF444E"></path>
<path d="M370 78H396V91C396 98.1797 390.18 104 383 104C375.82 104 370 98.1797 370 91V78Z" fill="#FF444E"></path>
<path d="M148 13C148 5.82031 153.82 0 161 0C168.18 0 174 5.8203 174 13V78.0001H148V13Z" fill="#FF444E"></path>
<path d="M74 78H100V143C100 150.18 94.1797 156 87 156C79.8203 156 74 150.18 74 143V78Z" fill="#FF444E"></path>
<path d="M222 78H248V117C248 124.18 242.18 130 235 130C227.82 130 222 124.18 222 117V78Z" fill="#FF444E"></path>
<path d="M296 39C296 31.8203 301.82 26 309 26C316.18 26 322 31.8203 322 39V78H296V39Z" fill="#FF444E"></path>
</svg>
