<svg width="24" height="24" viewBox="0 0 24 24" fill="none" xmlns="http://www.w3.org/2000/svg">
<path d="M0.981289 0.167625C0.758036 -0.0558751 0.395725 -0.0558751 0.172505 0.167625C-0.0509592 0.390913 -0.0509592 0.753283 0.172505 0.976538L5.10614 5.9101C3.06543 7.49352 1.35702 9.46394 0.078776 11.7084C-0.0262587 11.8885 -0.0262587 12.1112 0.078776 12.2913C2.68164 16.6877 5.99864 19.4577 9.67651 20.3058C10.4394 20.4819 11.2199 20.5708 12.003 20.5708C14.1158 20.541 16.1767 19.9105 17.9446 18.7527L23.0224 23.8323V23.8325C23.2459 24.0558 23.608 24.0558 23.8314 23.8325C24.0549 23.609 24.0549 23.2469 23.8314 23.0234L0.981289 0.167625ZM9.62268 10.4272L13.5761 14.3813H13.5763C12.8385 14.863 11.92 14.9772 11.087 14.691C10.2537 14.4047 9.59933 13.7502 9.31313 12.917C9.02716 12.0836 9.14134 11.1649 9.62292 10.4273L9.62268 10.4272ZM9.93693 19.1914C6.65303 18.4348 3.65238 15.9504 1.24274 12H1.24295C2.44086 9.9515 4.02893 8.158 5.91739 6.72129L8.81261 9.61719C8.03251 10.6475 7.8014 11.9923 8.19237 13.224C8.58359 14.4559 9.54846 15.4209 10.7799 15.812C12.0114 16.2033 13.3563 15.9719 14.3864 15.1917L17.1196 17.9253H17.1194C14.9858 19.2778 12.4044 19.7329 9.93677 19.1915L9.93693 19.1914ZM12.4199 9.18549L11.3058 8.07117C11.5354 8.02481 11.7688 8.00121 12.003 8.00036C13.0635 8.00036 14.0807 8.42162 14.8308 9.17189C15.5807 9.9219 16.0021 10.9393 16.0021 12.0002C16.0013 12.2343 15.9775 12.4678 15.9311 12.6973L14.817 11.5829H14.8172C14.7275 10.979 14.446 10.42 14.0143 9.98826C13.5827 9.55657 13.0237 9.27498 12.4199 9.18549ZM23.9211 11.7089V11.7086C24.0263 11.8888 24.0263 12.1114 23.9211 12.2915C22.9152 14.0236 21.6688 15.6043 20.2191 16.986L19.409 16.1746V16.1748C20.7116 14.9424 21.8399 13.5379 22.7625 12.0002C19.8385 7.20716 16.0278 4.57192 12.0026 4.57192C10.806 4.58405 9.62254 4.82498 8.51651 5.28154L7.63093 4.39581C9.00383 3.76954 10.4934 3.43991 12.0026 3.42908C16.5295 3.42908 20.7615 6.36945 23.9207 11.7087L23.9211 11.7089Z" fill="black"/>
</svg>
