<svg width="24" height="24" viewBox="0 0 24 24" fill="none" xmlns="http://www.w3.org/2000/svg">
<path d="M7.71289 10.5715V9.14289C7.71289 6.77861 8.42718 4.85718 11.9986 4.85718C15.57 4.85718 16.2843 6.77861 16.2843 9.14289V10.5715" stroke="#FF444E" stroke-width="1.5" stroke-linecap="round" stroke-linejoin="round"/>
<path d="M11.9986 16.6429C12.9848 16.6429 13.7843 15.8434 13.7843 14.8572C13.7843 13.871 12.9848 13.0715 11.9986 13.0715C11.0124 13.0715 10.2129 13.871 10.2129 14.8572C10.2129 15.8434 11.0124 16.6429 11.9986 16.6429Z" stroke="#FF444E" stroke-width="1.5" stroke-linecap="round" stroke-linejoin="round"/>
<path d="M15.5698 19.1429H8.4269C5.56975 19.1429 4.85547 18.4286 4.85547 15.5715V14.1429C4.85547 11.2858 5.56975 10.5715 8.4269 10.5715H15.5698C18.4269 10.5715 19.1412 11.2858 19.1412 14.1429V15.5715C19.1412 18.4286 18.4269 19.1429 15.5698 19.1429Z" stroke="#FF444E" stroke-width="1.5" stroke-linecap="round" stroke-linejoin="round"/>
</svg>
