<svg width="20" height="20" viewBox="0 0 20 20" fill="none" xmlns="http://www.w3.org/2000/svg">
<path d="M10.991 5H5.65768C5.44102 5 5.23268 5.00833 5.03268 5.03333C2.79102 5.225 1.66602 6.55 1.66602 8.99167V12.325C1.66602 15.6583 2.99935 16.3167 5.65768 16.3167H5.99102C6.17435 16.3167 6.41602 16.4417 6.52435 16.5833L7.52435 17.9167C7.96602 18.5083 8.68268 18.5083 9.12435 17.9167L10.1243 16.5833C10.2493 16.4167 10.4493 16.3167 10.6577 16.3167H10.991C13.4327 16.3167 14.7577 15.2 14.9493 12.95C14.9743 12.75 14.9827 12.5417 14.9827 12.325V8.99167C14.9827 6.33333 13.6493 5 10.991 5ZM5.41602 11.6667C4.94935 11.6667 4.58268 11.2917 4.58268 10.8333C4.58268 10.375 4.95768 10 5.41602 10C5.87435 10 6.24935 10.375 6.24935 10.8333C6.24935 11.2917 5.87435 11.6667 5.41602 11.6667ZM8.32435 11.6667C7.85768 11.6667 7.49102 11.2917 7.49102 10.8333C7.49102 10.375 7.86602 10 8.32435 10C8.78268 10 9.15768 10.375 9.15768 10.8333C9.15768 11.2917 8.79102 11.6667 8.32435 11.6667ZM11.241 11.6667C10.7743 11.6667 10.4077 11.2917 10.4077 10.8333C10.4077 10.375 10.7827 10 11.241 10C11.6993 10 12.0743 10.375 12.0743 10.8333C12.0743 11.2917 11.6993 11.6667 11.241 11.6667Z" fill="#0E0606"/>
<path d="M18.3162 5.65829V8.99163C18.3162 10.6583 17.7996 11.7916 16.7662 12.4166C16.5162 12.5666 16.2246 12.3666 16.2246 12.075L16.2329 8.99163C16.2329 5.65829 14.3246 3.74996 10.9912 3.74996L5.91622 3.75829C5.62455 3.75829 5.42455 3.46663 5.57455 3.21663C6.19955 2.18329 7.33289 1.66663 8.99122 1.66663H14.3246C16.9829 1.66663 18.3162 2.99996 18.3162 5.65829Z" fill="#0E0606"/>
</svg>
