<svg width="24" height="24" viewBox="0 0 24 24" fill="none" xmlns="http://www.w3.org/2000/svg">
<path d="M11.9998 18.8877C9.46839 18.8877 6.88717 17.7038 4.4867 15.7651C2.74628 14.3594 1.17578 12.562 1.17578 11.9999C1.17578 11.4377 2.74628 9.64018 4.4867 8.23449C6.88703 6.29597 9.46858 5.11182 11.9998 5.11182C14.5311 5.11182 17.1125 6.29597 19.513 8.23449C21.2534 9.64018 22.8239 11.4377 22.8239 11.9999C22.8239 12.562 21.2534 14.3594 19.513 15.7651C17.1126 17.7038 14.5311 18.8877 11.9998 18.8877ZM11.9998 17.9037C14.2683 17.9037 16.6533 16.8097 18.8947 14.9995C19.7372 14.3191 20.5073 13.5742 21.1112 12.883C21.3596 12.5986 21.5653 12.3391 21.7064 12.1356C21.7841 12.0235 21.8397 11.9182 21.8397 11.9999C21.8397 12.0814 21.7841 11.9761 21.7064 11.864C21.5652 11.6606 21.3596 11.4011 21.1112 11.1166C20.5073 10.4256 19.7372 9.68049 18.8947 9.0001C16.6533 7.18993 14.2683 6.09587 11.9998 6.09587C9.73131 6.09587 7.34641 7.18993 5.10498 9.0001C4.2625 9.68054 3.4922 10.4256 2.88831 11.1166C2.63984 11.4011 2.43421 11.6606 2.29323 11.864C2.21541 11.9761 2.15975 12.0814 2.15975 11.9999C2.15975 11.9182 2.21541 12.0235 2.29323 12.1356C2.43422 12.3392 2.63985 12.5986 2.88831 12.883C3.4922 13.5742 4.2625 14.3191 5.10498 14.9995C7.34636 16.8097 9.73131 17.9037 11.9998 17.9037ZM11.9998 15.9357C9.826 15.9357 8.06378 14.1735 8.06378 11.9999C8.06378 9.82603 9.826 8.06382 11.9998 8.06382C14.1735 8.06382 15.9357 9.82603 15.9357 11.9999C15.9357 14.1735 14.1735 15.9357 11.9998 15.9357ZM11.9998 14.9519C13.6302 14.9519 14.9519 13.6303 14.9519 11.9999C14.9519 10.3695 13.6302 9.04782 11.9998 9.04782C10.3694 9.04782 9.04778 10.3695 9.04778 11.9999C9.04778 13.6303 10.3694 14.9519 11.9998 14.9519Z" fill="black"/>
</svg>
