<svg width="20" height="20" viewBox="0 0 20 20" fill="none" xmlns="http://www.w3.org/2000/svg">
<path d="M14.166 2.91663H5.83268C3.33268 2.91663 1.66602 4.16663 1.66602 7.08329V12.9166C1.66602 15.8333 3.33268 17.0833 5.83268 17.0833H14.166C16.666 17.0833 18.3327 15.8333 18.3327 12.9166V7.08329C18.3327 4.16663 16.666 2.91663 14.166 2.91663ZM14.5577 7.99163L11.9493 10.075C11.3993 10.5166 10.6993 10.7333 9.99935 10.7333C9.29935 10.7333 8.59102 10.5166 8.04935 10.075L5.44102 7.99163C5.17435 7.77496 5.13268 7.37496 5.34102 7.10829C5.55768 6.84163 5.94935 6.79163 6.21602 7.00829L8.82435 9.09163C9.45768 9.59996 10.5327 9.59996 11.166 9.09163L13.7743 7.00829C14.041 6.79163 14.441 6.83329 14.6493 7.10829C14.866 7.37496 14.8243 7.77496 14.5577 7.99163Z" fill="#0E0606"/>
</svg>
