<svg width="384" height="384" viewBox="0 0 384 384" fill="none" xmlns="http://www.w3.org/2000/svg">
<rect width="384" height="384" rx="24" fill="white" fill-opacity="0.16"/>
<rect x="0.5" y="0.5" width="383" height="383" rx="23.5" stroke="white" stroke-opacity="0.4"/>
<rect x="24" y="24" width="74" height="4" fill="#F5E11A"/>
<path d="M32.592 72.312C31.44 72.312 30.416 72.128 29.52 71.76C28.624 71.392 27.856 70.864 27.216 70.176C26.592 69.472 26.112 68.616 25.776 67.608C25.44 66.6 25.272 65.448 25.272 64.152C25.272 62.28 25.592 60.736 26.232 59.52C26.872 58.288 27.752 57.368 28.872 56.76C29.992 56.152 31.264 55.848 32.688 55.848C33.792 55.848 34.792 56.032 35.688 56.4C36.584 56.752 37.344 57.28 37.968 57.984C38.608 58.672 39.104 59.536 39.456 60.576C39.808 61.6 39.984 62.776 39.984 64.104C39.984 65.432 39.808 66.608 39.456 67.632C39.12 68.64 38.632 69.496 37.992 70.2C37.352 70.888 36.576 71.416 35.664 71.784C34.768 72.136 33.744 72.312 32.592 72.312ZM32.664 69.864C33.576 69.864 34.336 69.648 34.944 69.216C35.568 68.768 36.04 68.128 36.36 67.296C36.696 66.464 36.864 65.448 36.864 64.248C36.864 63.016 36.696 61.96 36.36 61.08C36.024 60.2 35.536 59.536 34.896 59.088C34.272 58.624 33.504 58.392 32.592 58.392C31.728 58.392 30.976 58.616 30.336 59.064C29.712 59.496 29.232 60.144 28.896 61.008C28.56 61.856 28.392 62.896 28.392 64.128C28.392 65.056 28.488 65.88 28.68 66.6C28.872 67.304 29.144 67.896 29.496 68.376C29.864 68.856 30.312 69.224 30.84 69.48C31.384 69.736 31.992 69.864 32.664 69.864ZM47.1294 72.312C45.6894 72.312 44.6014 71.824 43.8654 70.848C43.1454 69.856 42.7854 68.36 42.7854 66.36V59.448H45.8334V66.024C45.8334 67.288 46.0254 68.232 46.4094 68.856C46.7934 69.48 47.3854 69.792 48.1854 69.792C48.6494 69.792 49.0574 69.68 49.4094 69.456C49.7614 69.216 50.0654 68.888 50.3214 68.472C50.5774 68.04 50.7774 67.544 50.9214 66.984C51.0814 66.424 51.1774 65.808 51.2094 65.136V59.448H54.2334V66.84V72H51.7374L51.7854 68.04H51.3534C51.1454 69.048 50.8494 69.864 50.4654 70.488C50.0974 71.112 49.6414 71.576 49.0974 71.88C48.5534 72.168 47.8974 72.312 47.1294 72.312ZM57.6493 72V65.712V59.448H60.1933L60.1453 63.768H60.5773C60.7213 62.744 60.9453 61.896 61.2493 61.224C61.5533 60.536 61.9773 60.024 62.5213 59.688C63.0653 59.336 63.7373 59.16 64.5373 59.16C64.6973 59.16 64.8653 59.168 65.0413 59.184C65.2333 59.2 65.4413 59.24 65.6653 59.304L65.5453 62.496C65.2893 62.4 65.0253 62.336 64.7533 62.304C64.4973 62.256 64.2573 62.232 64.0333 62.232C63.4093 62.232 62.8653 62.392 62.4013 62.712C61.9533 63.032 61.5853 63.488 61.2973 64.08C61.0253 64.656 60.8173 65.344 60.6733 66.144V72H57.6493ZM77.6211 72L72.3171 56.16H75.6291L79.6371 69.408H79.9251L83.9571 56.16H87.2211L81.8931 72H77.6211ZM89.454 72V59.448H92.478V72H89.454ZM90.966 57.48C90.358 57.48 89.886 57.352 89.55 57.096C89.23 56.824 89.07 56.44 89.07 55.944C89.07 55.448 89.23 55.072 89.55 54.816C89.886 54.544 90.358 54.408 90.966 54.408C91.606 54.408 92.086 54.536 92.406 54.792C92.726 55.048 92.886 55.432 92.886 55.944C92.886 56.44 92.718 56.824 92.382 57.096C92.062 57.352 91.59 57.48 90.966 57.48ZM100.748 72.312C99.8999 72.312 99.1319 72.224 98.4439 72.048C97.7719 71.888 97.1959 71.656 96.7159 71.352C96.2359 71.032 95.8519 70.656 95.5639 70.224C95.2759 69.776 95.0999 69.28 95.0359 68.736L97.4119 67.848C97.4439 68.264 97.6039 68.64 97.8919 68.976C98.1799 69.296 98.5799 69.552 99.0919 69.744C99.6039 69.936 100.22 70.032 100.94 70.032C101.74 70.032 102.356 69.912 102.788 69.672C103.236 69.416 103.46 69.056 103.46 68.592C103.46 68.256 103.34 67.992 103.1 67.8C102.86 67.592 102.508 67.424 102.044 67.296C101.596 67.152 101.052 67.016 100.412 66.888C99.8199 66.76 99.2199 66.616 98.6119 66.456C98.0199 66.28 97.4679 66.056 96.9559 65.784C96.4599 65.496 96.0519 65.128 95.7319 64.68C95.4279 64.216 95.2759 63.632 95.2759 62.928C95.2759 62.16 95.4759 61.496 95.8759 60.936C96.2919 60.376 96.8839 59.936 97.6519 59.616C98.4359 59.296 99.3799 59.136 100.484 59.136C101.524 59.136 102.42 59.28 103.172 59.568C103.94 59.856 104.564 60.272 105.044 60.816C105.524 61.344 105.828 61.976 105.956 62.712L103.46 63.504C103.412 63.056 103.26 62.68 103.004 62.376C102.748 62.056 102.404 61.816 101.972 61.656C101.54 61.496 101.036 61.416 100.46 61.416C99.7239 61.416 99.1479 61.544 98.7319 61.8C98.3159 62.056 98.1079 62.4 98.1079 62.832C98.1079 63.184 98.2359 63.464 98.4919 63.672C98.7639 63.88 99.1319 64.048 99.5959 64.176C100.076 64.304 100.62 64.432 101.228 64.56C101.868 64.688 102.484 64.84 103.076 65.016C103.684 65.176 104.228 65.392 104.708 65.664C105.188 65.936 105.572 66.296 105.86 66.744C106.148 67.176 106.292 67.736 106.292 68.424C106.292 69.256 106.068 69.968 105.62 70.56C105.172 71.136 104.532 71.576 103.7 71.88C102.884 72.168 101.9 72.312 100.748 72.312ZM108.837 72V59.448H111.861V72H108.837ZM110.349 57.48C109.741 57.48 109.269 57.352 108.933 57.096C108.613 56.824 108.453 56.44 108.453 55.944C108.453 55.448 108.613 55.072 108.933 54.816C109.269 54.544 109.741 54.408 110.349 54.408C110.989 54.408 111.469 54.536 111.789 54.792C112.109 55.048 112.269 55.432 112.269 55.944C112.269 56.44 112.101 56.824 111.765 57.096C111.445 57.352 110.973 57.48 110.349 57.48ZM120.827 72.312C119.595 72.312 118.507 72.064 117.563 71.568C116.619 71.056 115.875 70.312 115.331 69.336C114.803 68.344 114.539 67.128 114.539 65.688C114.539 64.216 114.811 63 115.355 62.04C115.915 61.064 116.667 60.336 117.611 59.856C118.555 59.376 119.619 59.136 120.803 59.136C122.035 59.136 123.123 59.384 124.067 59.88C125.011 60.376 125.755 61.12 126.299 62.112C126.843 63.088 127.115 64.304 127.115 65.76C127.115 67.232 126.843 68.456 126.299 69.432C125.755 70.408 125.003 71.136 124.043 71.616C123.099 72.08 122.027 72.312 120.827 72.312ZM120.947 70.008C121.619 70.008 122.187 69.856 122.651 69.552C123.115 69.232 123.467 68.76 123.707 68.136C123.963 67.512 124.091 66.768 124.091 65.904C124.091 64.992 123.955 64.216 123.683 63.576C123.427 62.92 123.051 62.416 122.555 62.064C122.075 61.712 121.467 61.536 120.731 61.536C120.091 61.536 119.531 61.696 119.051 62.016C118.571 62.32 118.203 62.776 117.947 63.384C117.707 63.992 117.587 64.744 117.587 65.64C117.587 67.048 117.883 68.128 118.475 68.88C119.083 69.632 119.907 70.008 120.947 70.008ZM129.837 72V64.344V59.448H132.357L132.285 63.288H132.717C132.941 62.344 133.237 61.568 133.605 60.96C133.989 60.352 134.477 59.896 135.069 59.592C135.661 59.288 136.349 59.136 137.133 59.136C138.557 59.136 139.637 59.64 140.373 60.648C141.125 61.656 141.501 63.216 141.501 65.328V72H138.453V65.64C138.453 64.28 138.245 63.288 137.829 62.664C137.429 62.024 136.829 61.704 136.029 61.704C135.357 61.704 134.789 61.92 134.325 62.352C133.861 62.768 133.501 63.328 133.245 64.032C133.005 64.72 132.877 65.48 132.861 66.312V72H129.837Z" fill="white"/>
<path d="M27.792 118L24.64 106.16H26.256L28.704 115.696L31.28 106.16H32.816L35.392 115.664L37.824 106.16H39.44L36.288 118H34.496L32.048 108.896L29.584 118H27.792ZM44.3354 118.16C43.642 118.16 43.0394 118.037 42.5274 117.792C42.026 117.536 41.61 117.195 41.2794 116.768C40.9594 116.341 40.7194 115.872 40.5594 115.36C40.3994 114.837 40.3194 114.304 40.3194 113.76C40.3194 113.227 40.394 112.699 40.5434 112.176C40.7034 111.653 40.9434 111.179 41.2634 110.752C41.594 110.325 42.0047 109.989 42.4954 109.744C42.9967 109.488 43.5887 109.36 44.2714 109.36C44.9967 109.36 45.6367 109.525 46.1914 109.856C46.746 110.187 47.1834 110.677 47.5034 111.328C47.8234 111.979 47.9834 112.795 47.9834 113.776V114.224H41.8554C41.8874 114.704 41.9994 115.147 42.1914 115.552C42.394 115.947 42.6767 116.267 43.0394 116.512C43.402 116.747 43.834 116.864 44.3354 116.864C44.7727 116.864 45.1247 116.795 45.3914 116.656C45.6687 116.507 45.8874 116.336 46.0474 116.144C46.2074 115.952 46.314 115.787 46.3674 115.648C46.4314 115.499 46.4634 115.424 46.4634 115.424H47.8874C47.8874 115.424 47.8607 115.52 47.8074 115.712C47.754 115.893 47.658 116.117 47.5194 116.384C47.3807 116.651 47.178 116.923 46.9114 117.2C46.6447 117.467 46.3034 117.696 45.8874 117.888C45.4714 118.069 44.954 118.16 44.3354 118.16ZM41.8714 113.04H46.4954C46.474 112.485 46.3567 112.037 46.1434 111.696C45.93 111.344 45.658 111.083 45.3274 110.912C44.9967 110.741 44.6447 110.656 44.2714 110.656C43.5994 110.656 43.05 110.875 42.6234 111.312C42.1967 111.739 41.946 112.315 41.8714 113.04ZM53.905 118V105.84H55.425V110.752H55.521C55.5957 110.624 55.7183 110.448 55.889 110.224C56.0703 110 56.3263 109.803 56.657 109.632C56.9877 109.451 57.4037 109.36 57.905 109.36C58.5237 109.36 59.0517 109.504 59.489 109.792C59.9263 110.069 60.257 110.448 60.481 110.928C60.7157 111.408 60.833 111.947 60.833 112.544V118H59.313V112.64C59.313 112.075 59.153 111.605 58.833 111.232C58.5237 110.859 58.0703 110.672 57.473 110.672C56.993 110.672 56.6037 110.795 56.305 111.04C56.0063 111.275 55.7823 111.589 55.633 111.984C55.4943 112.368 55.425 112.779 55.425 113.216V118H53.905ZM66.9291 118.16C66.2358 118.16 65.6331 118.037 65.1211 117.792C64.6198 117.536 64.2038 117.195 63.8731 116.768C63.5531 116.341 63.3131 115.872 63.1531 115.36C62.9931 114.837 62.9131 114.304 62.9131 113.76C62.9131 113.227 62.9878 112.699 63.1371 112.176C63.2971 111.653 63.5371 111.179 63.8571 110.752C64.1878 110.325 64.5985 109.989 65.0891 109.744C65.5905 109.488 66.1825 109.36 66.8651 109.36C67.5905 109.36 68.2305 109.525 68.7851 109.856C69.3398 110.187 69.7771 110.677 70.0971 111.328C70.4171 111.979 70.5771 112.795 70.5771 113.776V114.224H64.4491C64.4811 114.704 64.5931 115.147 64.7851 115.552C64.9878 115.947 65.2705 116.267 65.6331 116.512C65.9958 116.747 66.4278 116.864 66.9291 116.864C67.3665 116.864 67.7185 116.795 67.9851 116.656C68.2625 116.507 68.4811 116.336 68.6411 116.144C68.8011 115.952 68.9078 115.787 68.9611 115.648C69.0251 115.499 69.0571 115.424 69.0571 115.424H70.4811C70.4811 115.424 70.4545 115.52 70.4011 115.712C70.3478 115.893 70.2518 116.117 70.1131 116.384C69.9745 116.651 69.7718 116.923 69.5051 117.2C69.2385 117.467 68.8971 117.696 68.4811 117.888C68.0651 118.069 67.5478 118.16 66.9291 118.16ZM64.4651 113.04H69.0891C69.0678 112.485 68.9505 112.037 68.7371 111.696C68.5238 111.344 68.2518 111.083 67.9211 110.912C67.5905 110.741 67.2385 110.656 66.8651 110.656C66.1931 110.656 65.6438 110.875 65.2171 111.312C64.7905 111.739 64.5398 112.315 64.4651 113.04ZM72.8113 118L72.8273 105.84H74.3313V118H72.8113ZM76.8894 121.136V109.52H78.4094V110.864H78.5054C78.6334 110.661 78.804 110.443 79.0174 110.208C79.2414 109.973 79.5347 109.776 79.8974 109.616C80.26 109.445 80.708 109.36 81.2414 109.36C81.8814 109.36 82.4414 109.488 82.9214 109.744C83.4014 109.989 83.8014 110.325 84.1214 110.752C84.4414 111.168 84.6814 111.637 84.8414 112.16C85.0014 112.683 85.0814 113.216 85.0814 113.76C85.0814 114.304 85.0014 114.837 84.8414 115.36C84.6814 115.883 84.4414 116.357 84.1214 116.784C83.8014 117.2 83.4014 117.536 82.9214 117.792C82.4414 118.037 81.8814 118.16 81.2414 118.16C80.708 118.16 80.26 118.075 79.8974 117.904C79.5347 117.733 79.2414 117.531 79.0174 117.296C78.804 117.061 78.6334 116.848 78.5054 116.656H78.4094V121.136H76.8894ZM78.4414 113.76C78.4414 114.272 78.532 114.768 78.7134 115.248C78.9054 115.717 79.188 116.107 79.5614 116.416C79.9454 116.715 80.42 116.864 80.9854 116.864C81.5614 116.864 82.036 116.715 82.4094 116.416C82.7934 116.107 83.076 115.717 83.2574 115.248C83.4494 114.768 83.5454 114.272 83.5454 113.76C83.5454 113.237 83.4494 112.741 83.2574 112.272C83.076 111.803 82.7934 111.419 82.4094 111.12C82.036 110.811 81.5614 110.656 80.9854 110.656C80.42 110.656 79.9454 110.811 79.5614 111.12C79.188 111.419 78.9054 111.803 78.7134 112.272C78.532 112.741 78.4414 113.237 78.4414 113.76ZM94.4544 118.16C93.5797 118.16 92.9184 117.936 92.4704 117.488C92.033 117.04 91.8144 116.411 91.8144 115.6V110.768H90.2944V109.52H91.8144V107.392H93.3344V109.52H95.3984V110.768H93.3344V115.6C93.3344 116.027 93.4517 116.341 93.6864 116.544C93.921 116.736 94.2624 116.832 94.7104 116.832C94.945 116.832 95.169 116.816 95.3824 116.784C95.5957 116.752 95.7024 116.736 95.7024 116.736V118.032C95.7024 118.032 95.5797 118.053 95.3344 118.096C95.089 118.139 94.7957 118.16 94.4544 118.16ZM100.466 118.16C99.6235 118.16 98.9515 117.899 98.4501 117.376C97.9488 116.853 97.6981 116.128 97.6981 115.2V109.52H99.2181V115.12C99.2181 115.675 99.3675 116.101 99.6661 116.4C99.9755 116.699 100.381 116.848 100.882 116.848C101.394 116.848 101.805 116.715 102.114 116.448C102.423 116.181 102.647 115.84 102.786 115.424C102.925 115.008 102.994 114.581 102.994 114.144V109.52H104.514V118H102.994V116.784H102.898C102.834 116.912 102.711 117.088 102.53 117.312C102.349 117.525 102.093 117.723 101.762 117.904C101.431 118.075 100.999 118.16 100.466 118.16ZM106.761 118V109.52H108.281V110.576H108.345C108.526 110.256 108.793 109.973 109.145 109.728C109.497 109.483 109.993 109.36 110.633 109.36C110.814 109.36 110.979 109.371 111.129 109.392C111.278 109.403 111.353 109.408 111.353 109.408V110.864C111.353 110.864 111.267 110.859 111.097 110.848C110.937 110.827 110.766 110.816 110.585 110.816C109.849 110.816 109.278 111.029 108.873 111.456C108.478 111.872 108.281 112.555 108.281 113.504V118H106.761ZM113.026 118V109.52H114.546V110.752H114.642C114.717 110.624 114.84 110.448 115.01 110.224C115.192 110 115.448 109.803 115.778 109.632C116.109 109.451 116.525 109.36 117.026 109.36C117.645 109.36 118.173 109.504 118.61 109.792C119.048 110.069 119.378 110.448 119.602 110.928C119.837 111.408 119.954 111.947 119.954 112.544V118H118.434V112.64C118.434 112.075 118.274 111.605 117.954 111.232C117.645 110.859 117.192 110.672 116.594 110.672C116.114 110.672 115.725 110.795 115.426 111.04C115.128 111.275 114.904 111.589 114.754 111.984C114.616 112.368 114.546 112.779 114.546 113.216V118H113.026ZM128.99 118.16C128.339 118.16 127.8 118.069 127.374 117.888C126.958 117.707 126.627 117.483 126.382 117.216C126.136 116.939 125.955 116.667 125.838 116.4C125.72 116.123 125.646 115.893 125.614 115.712C125.582 115.531 125.566 115.44 125.566 115.44H127.102C127.102 115.44 127.118 115.515 127.15 115.664C127.192 115.803 127.272 115.968 127.39 116.16C127.518 116.341 127.71 116.507 127.966 116.656C128.232 116.795 128.584 116.864 129.022 116.864C129.523 116.864 129.912 116.747 130.19 116.512C130.467 116.267 130.606 115.968 130.606 115.616C130.606 115.307 130.494 115.061 130.27 114.88C130.056 114.699 129.747 114.56 129.342 114.464L128.19 114.192C127.763 114.085 127.363 113.941 126.99 113.76C126.616 113.579 126.312 113.333 126.078 113.024C125.854 112.704 125.742 112.309 125.742 111.84C125.742 111.115 126.014 110.523 126.558 110.064C127.102 109.595 127.811 109.36 128.686 109.36C129.272 109.36 129.758 109.445 130.142 109.616C130.526 109.776 130.83 109.979 131.054 110.224C131.288 110.469 131.459 110.715 131.566 110.96C131.683 111.205 131.758 111.413 131.79 111.584C131.822 111.744 131.838 111.824 131.838 111.824H130.366C130.366 111.824 130.35 111.765 130.318 111.648C130.286 111.52 130.211 111.381 130.094 111.232C129.987 111.072 129.822 110.933 129.598 110.816C129.374 110.688 129.075 110.624 128.702 110.624C128.19 110.624 127.816 110.741 127.582 110.976C127.347 111.211 127.23 111.467 127.23 111.744C127.23 112.011 127.336 112.229 127.55 112.4C127.774 112.56 128.062 112.683 128.414 112.768L129.582 113.04C130.307 113.211 130.904 113.493 131.374 113.888C131.854 114.272 132.094 114.827 132.094 115.552C132.094 116.021 131.971 116.459 131.726 116.864C131.48 117.259 131.128 117.573 130.67 117.808C130.211 118.043 129.651 118.16 128.99 118.16ZM137.454 118.16C136.58 118.16 135.918 117.936 135.47 117.488C135.033 117.04 134.814 116.411 134.814 115.6V110.768H133.294V109.52H134.814V107.392H136.334V109.52H138.398V110.768H136.334V115.6C136.334 116.027 136.452 116.341 136.686 116.544C136.921 116.736 137.262 116.832 137.71 116.832C137.945 116.832 138.169 116.816 138.382 116.784C138.596 116.752 138.702 116.736 138.702 116.736V118.032C138.702 118.032 138.58 118.053 138.334 118.096C138.089 118.139 137.796 118.16 137.454 118.16ZM144.402 118.16C143.495 118.16 142.732 117.952 142.114 117.536C141.495 117.109 141.026 116.56 140.706 115.888C140.386 115.216 140.226 114.507 140.226 113.76C140.226 113.003 140.386 112.293 140.706 111.632C141.026 110.96 141.495 110.416 142.114 110C142.732 109.573 143.495 109.36 144.402 109.36C145.308 109.36 146.071 109.573 146.69 110C147.308 110.416 147.778 110.96 148.098 111.632C148.418 112.293 148.578 113.003 148.578 113.76C148.578 114.507 148.418 115.216 148.098 115.888C147.778 116.56 147.308 117.109 146.69 117.536C146.071 117.952 145.308 118.16 144.402 118.16ZM144.402 116.832C144.978 116.832 145.458 116.688 145.842 116.4C146.236 116.101 146.53 115.717 146.722 115.248C146.924 114.779 147.026 114.283 147.026 113.76C147.026 113.227 146.924 112.731 146.722 112.272C146.53 111.803 146.236 111.424 145.842 111.136C145.458 110.837 144.978 110.688 144.402 110.688C143.836 110.688 143.356 110.837 142.962 111.136C142.567 111.424 142.268 111.803 142.066 112.272C141.874 112.731 141.778 113.227 141.778 113.76C141.778 114.283 141.874 114.779 142.066 115.248C142.268 115.717 142.567 116.101 142.962 116.4C143.356 116.688 143.836 116.832 144.402 116.832ZM150.651 118V109.52H152.171V110.576H152.235C152.417 110.256 152.683 109.973 153.035 109.728C153.387 109.483 153.883 109.36 154.523 109.36C154.705 109.36 154.87 109.371 155.019 109.392C155.169 109.403 155.243 109.408 155.243 109.408V110.864C155.243 110.864 155.158 110.859 154.987 110.848C154.827 110.827 154.657 110.816 154.475 110.816C153.739 110.816 153.169 111.029 152.763 111.456C152.369 111.872 152.171 112.555 152.171 113.504V118H150.651ZM158.221 107.904C157.933 107.904 157.693 107.808 157.501 107.616C157.32 107.424 157.229 107.195 157.229 106.928C157.229 106.651 157.32 106.416 157.501 106.224C157.693 106.032 157.933 105.936 158.221 105.936C158.499 105.936 158.733 106.032 158.925 106.224C159.117 106.416 159.213 106.651 159.213 106.928C159.213 107.195 159.117 107.424 158.925 107.616C158.733 107.808 158.499 107.904 158.221 107.904ZM157.469 118V109.52H158.989V118H157.469ZM165.304 118.16C164.611 118.16 164.008 118.037 163.496 117.792C162.995 117.536 162.579 117.195 162.248 116.768C161.928 116.341 161.688 115.872 161.528 115.36C161.368 114.837 161.288 114.304 161.288 113.76C161.288 113.227 161.363 112.699 161.512 112.176C161.672 111.653 161.912 111.179 162.232 110.752C162.563 110.325 162.973 109.989 163.464 109.744C163.965 109.488 164.557 109.36 165.24 109.36C165.965 109.36 166.605 109.525 167.16 109.856C167.715 110.187 168.152 110.677 168.472 111.328C168.792 111.979 168.952 112.795 168.952 113.776V114.224H162.824C162.856 114.704 162.968 115.147 163.16 115.552C163.363 115.947 163.645 116.267 164.008 116.512C164.371 116.747 164.803 116.864 165.304 116.864C165.741 116.864 166.093 116.795 166.36 116.656C166.637 116.507 166.856 116.336 167.016 116.144C167.176 115.952 167.283 115.787 167.336 115.648C167.4 115.499 167.432 115.424 167.432 115.424H168.856C168.856 115.424 168.829 115.52 168.776 115.712C168.723 115.893 168.627 116.117 168.488 116.384C168.349 116.651 168.147 116.923 167.88 117.2C167.613 117.467 167.272 117.696 166.856 117.888C166.44 118.069 165.923 118.16 165.304 118.16ZM162.84 113.04H167.464C167.443 112.485 167.325 112.037 167.112 111.696C166.899 111.344 166.627 111.083 166.296 110.912C165.965 110.741 165.613 110.656 165.24 110.656C164.568 110.656 164.019 110.875 163.592 111.312C163.165 111.739 162.915 112.315 162.84 113.04ZM174.13 118.16C173.48 118.16 172.941 118.069 172.514 117.888C172.098 117.707 171.768 117.483 171.522 117.216C171.277 116.939 171.096 116.667 170.978 116.4C170.861 116.123 170.786 115.893 170.754 115.712C170.722 115.531 170.706 115.44 170.706 115.44H172.242C172.242 115.44 172.258 115.515 172.29 115.664C172.333 115.803 172.413 115.968 172.53 116.16C172.658 116.341 172.85 116.507 173.106 116.656C173.373 116.795 173.725 116.864 174.162 116.864C174.664 116.864 175.053 116.747 175.33 116.512C175.608 116.267 175.746 115.968 175.746 115.616C175.746 115.307 175.634 115.061 175.41 114.88C175.197 114.699 174.888 114.56 174.482 114.464L173.33 114.192C172.904 114.085 172.504 113.941 172.13 113.76C171.757 113.579 171.453 113.333 171.218 113.024C170.994 112.704 170.882 112.309 170.882 111.84C170.882 111.115 171.154 110.523 171.698 110.064C172.242 109.595 172.952 109.36 173.826 109.36C174.413 109.36 174.898 109.445 175.282 109.616C175.666 109.776 175.97 109.979 176.194 110.224C176.429 110.469 176.6 110.715 176.706 110.96C176.824 111.205 176.898 111.413 176.93 111.584C176.962 111.744 176.978 111.824 176.978 111.824H175.506C175.506 111.824 175.49 111.765 175.458 111.648C175.426 111.52 175.352 111.381 175.234 111.232C175.128 111.072 174.962 110.933 174.738 110.816C174.514 110.688 174.216 110.624 173.842 110.624C173.33 110.624 172.957 110.741 172.722 110.976C172.488 111.211 172.37 111.467 172.37 111.744C172.37 112.011 172.477 112.229 172.69 112.4C172.914 112.56 173.202 112.683 173.554 112.768L174.722 113.04C175.448 113.211 176.045 113.493 176.514 113.888C176.994 114.272 177.234 114.827 177.234 115.552C177.234 116.021 177.112 116.459 176.866 116.864C176.621 117.259 176.269 117.573 175.81 117.808C175.352 118.043 174.792 118.16 174.13 118.16ZM183.831 107.904C183.543 107.904 183.303 107.808 183.111 107.616C182.929 107.424 182.839 107.195 182.839 106.928C182.839 106.651 182.929 106.416 183.111 106.224C183.303 106.032 183.543 105.936 183.831 105.936C184.108 105.936 184.343 106.032 184.535 106.224C184.727 106.416 184.823 106.651 184.823 106.928C184.823 107.195 184.727 107.424 184.535 107.616C184.343 107.808 184.108 107.904 183.831 107.904ZM183.079 118V109.52H184.599V118H183.079ZM187.058 118V109.52H188.578V110.752H188.674C188.748 110.624 188.871 110.448 189.042 110.224C189.223 110 189.479 109.803 189.81 109.632C190.14 109.451 190.556 109.36 191.058 109.36C191.676 109.36 192.204 109.504 192.642 109.792C193.079 110.069 193.41 110.448 193.634 110.928C193.868 111.408 193.986 111.947 193.986 112.544V118H192.466V112.64C192.466 112.075 192.306 111.605 191.986 111.232C191.676 110.859 191.223 110.672 190.626 110.672C190.146 110.672 189.756 110.795 189.458 111.04C189.159 111.275 188.935 111.589 188.786 111.984C188.647 112.368 188.578 112.779 188.578 113.216V118H187.058ZM199.517 118.16C198.642 118.16 197.981 117.936 197.533 117.488C197.096 117.04 196.877 116.411 196.877 115.6V110.768H195.357V109.52H196.877V107.392H198.397V109.52H200.461V110.768H198.397V115.6C198.397 116.027 198.514 116.341 198.749 116.544C198.984 116.736 199.325 116.832 199.773 116.832C200.008 116.832 200.232 116.816 200.445 116.784C200.658 116.752 200.765 116.736 200.765 116.736V118.032C200.765 118.032 200.642 118.053 200.397 118.096C200.152 118.139 199.858 118.16 199.517 118.16ZM206.464 118.16C205.557 118.16 204.795 117.952 204.176 117.536C203.557 117.109 203.088 116.56 202.768 115.888C202.448 115.216 202.288 114.507 202.288 113.76C202.288 113.003 202.448 112.293 202.768 111.632C203.088 110.96 203.557 110.416 204.176 110C204.795 109.573 205.557 109.36 206.464 109.36C207.371 109.36 208.133 109.573 208.752 110C209.371 110.416 209.84 110.96 210.16 111.632C210.48 112.293 210.64 113.003 210.64 113.76C210.64 114.507 210.48 115.216 210.16 115.888C209.84 116.56 209.371 117.109 208.752 117.536C208.133 117.952 207.371 118.16 206.464 118.16ZM206.464 116.832C207.04 116.832 207.52 116.688 207.904 116.4C208.299 116.101 208.592 115.717 208.784 115.248C208.987 114.779 209.088 114.283 209.088 113.76C209.088 113.227 208.987 112.731 208.784 112.272C208.592 111.803 208.299 111.424 207.904 111.136C207.52 110.837 207.04 110.688 206.464 110.688C205.899 110.688 205.419 110.837 205.024 111.136C204.629 111.424 204.331 111.803 204.128 112.272C203.936 112.731 203.84 113.227 203.84 113.76C203.84 114.283 203.936 114.779 204.128 115.248C204.331 115.717 204.629 116.101 205.024 116.4C205.419 116.688 205.899 116.832 206.464 116.832ZM219.505 118.16C218.855 118.16 218.316 118.069 217.889 117.888C217.473 117.707 217.143 117.483 216.897 117.216C216.652 116.939 216.471 116.667 216.353 116.4C216.236 116.123 216.161 115.893 216.129 115.712C216.097 115.531 216.081 115.44 216.081 115.44H217.617C217.617 115.44 217.633 115.515 217.665 115.664C217.708 115.803 217.788 115.968 217.905 116.16C218.033 116.341 218.225 116.507 218.481 116.656C218.748 116.795 219.1 116.864 219.537 116.864C220.039 116.864 220.428 116.747 220.705 116.512C220.983 116.267 221.121 115.968 221.121 115.616C221.121 115.307 221.009 115.061 220.785 114.88C220.572 114.699 220.263 114.56 219.857 114.464L218.705 114.192C218.279 114.085 217.879 113.941 217.505 113.76C217.132 113.579 216.828 113.333 216.593 113.024C216.369 112.704 216.257 112.309 216.257 111.84C216.257 111.115 216.529 110.523 217.073 110.064C217.617 109.595 218.327 109.36 219.201 109.36C219.788 109.36 220.273 109.445 220.657 109.616C221.041 109.776 221.345 109.979 221.569 110.224C221.804 110.469 221.975 110.715 222.081 110.96C222.199 111.205 222.273 111.413 222.305 111.584C222.337 111.744 222.353 111.824 222.353 111.824H220.881C220.881 111.824 220.865 111.765 220.833 111.648C220.801 111.52 220.727 111.381 220.609 111.232C220.503 111.072 220.337 110.933 220.113 110.816C219.889 110.688 219.591 110.624 219.217 110.624C218.705 110.624 218.332 110.741 218.097 110.976C217.863 111.211 217.745 111.467 217.745 111.744C217.745 112.011 217.852 112.229 218.065 112.4C218.289 112.56 218.577 112.683 218.929 112.768L220.097 113.04C220.823 113.211 221.42 113.493 221.889 113.888C222.369 114.272 222.609 114.827 222.609 115.552C222.609 116.021 222.487 116.459 222.241 116.864C221.996 117.259 221.644 117.573 221.185 117.808C220.727 118.043 220.167 118.16 219.505 118.16ZM228.386 118.16C227.479 118.16 226.717 117.952 226.098 117.536C225.479 117.109 225.01 116.56 224.69 115.888C224.37 115.216 224.21 114.507 224.21 113.76C224.21 113.003 224.37 112.293 224.69 111.632C225.01 110.96 225.479 110.416 226.098 110C226.717 109.573 227.479 109.36 228.386 109.36C229.293 109.36 230.055 109.573 230.674 110C231.293 110.416 231.762 110.96 232.082 111.632C232.402 112.293 232.562 113.003 232.562 113.76C232.562 114.507 232.402 115.216 232.082 115.888C231.762 116.56 231.293 117.109 230.674 117.536C230.055 117.952 229.293 118.16 228.386 118.16ZM228.386 116.832C228.962 116.832 229.442 116.688 229.826 116.4C230.221 116.101 230.514 115.717 230.706 115.248C230.909 114.779 231.01 114.283 231.01 113.76C231.01 113.227 230.909 112.731 230.706 112.272C230.514 111.803 230.221 111.424 229.826 111.136C229.442 110.837 228.962 110.688 228.386 110.688C227.821 110.688 227.341 110.837 226.946 111.136C226.551 111.424 226.253 111.803 226.05 112.272C225.858 112.731 225.762 113.227 225.762 113.76C225.762 114.283 225.858 114.779 226.05 115.248C226.253 115.717 226.551 116.101 226.946 116.4C227.341 116.688 227.821 116.832 228.386 116.832ZM237.404 118.16C236.561 118.16 235.889 117.899 235.388 117.376C234.886 116.853 234.636 116.128 234.636 115.2V109.52H236.156V115.12C236.156 115.675 236.305 116.101 236.604 116.4C236.913 116.699 237.318 116.848 237.82 116.848C238.332 116.848 238.742 116.715 239.052 116.448C239.361 116.181 239.585 115.84 239.724 115.424C239.862 115.008 239.932 114.581 239.932 114.144V109.52H241.452V118H239.932V116.784H239.836C239.772 116.912 239.649 117.088 239.468 117.312C239.286 117.525 239.03 117.723 238.7 117.904C238.369 118.075 237.937 118.16 237.404 118.16ZM243.698 118V109.52H245.218V110.752H245.314C245.389 110.624 245.511 110.448 245.682 110.224C245.863 110 246.119 109.803 246.45 109.632C246.781 109.451 247.197 109.36 247.698 109.36C248.317 109.36 248.845 109.504 249.282 109.792C249.719 110.069 250.05 110.448 250.274 110.928C250.509 111.408 250.626 111.947 250.626 112.544V118H249.106V112.64C249.106 112.075 248.946 111.605 248.626 111.232C248.317 110.859 247.863 110.672 247.266 110.672C246.786 110.672 246.397 110.795 246.098 111.04C245.799 111.275 245.575 111.589 245.426 111.984C245.287 112.368 245.218 112.779 245.218 113.216V118H243.698ZM256.55 118.16C255.91 118.16 255.35 118.037 254.87 117.792C254.39 117.536 253.99 117.2 253.67 116.784C253.35 116.357 253.11 115.883 252.95 115.36C252.79 114.837 252.71 114.304 252.71 113.76C252.71 113.216 252.79 112.683 252.95 112.16C253.11 111.637 253.35 111.168 253.67 110.752C253.99 110.325 254.39 109.989 254.87 109.744C255.35 109.488 255.91 109.36 256.55 109.36C257.083 109.36 257.531 109.445 257.894 109.616C258.257 109.787 258.55 109.989 258.774 110.224C258.998 110.448 259.169 110.661 259.286 110.864H259.382V105.84H260.902V118H259.382V116.656H259.286C259.169 116.859 258.998 117.077 258.774 117.312C258.55 117.547 258.257 117.749 257.894 117.92C257.531 118.08 257.083 118.16 256.55 118.16ZM256.806 116.864C257.371 116.864 257.841 116.715 258.214 116.416C258.598 116.107 258.881 115.717 259.062 115.248C259.254 114.768 259.35 114.272 259.35 113.76C259.35 113.237 259.254 112.741 259.062 112.272C258.881 111.803 258.598 111.419 258.214 111.12C257.841 110.811 257.371 110.656 256.806 110.656C256.241 110.656 255.766 110.811 255.382 111.12C254.998 111.419 254.71 111.803 254.518 112.272C254.337 112.741 254.246 113.237 254.246 113.76C254.246 114.272 254.337 114.768 254.518 115.248C254.71 115.717 254.998 116.107 255.382 116.416C255.766 116.715 256.241 116.864 256.806 116.864ZM263.436 119.968L264.588 118.112C264.332 118.091 264.113 117.984 263.932 117.792C263.761 117.6 263.676 117.365 263.676 117.088C263.676 116.779 263.782 116.533 263.996 116.352C264.209 116.171 264.449 116.08 264.716 116.08C265.014 116.08 265.265 116.171 265.468 116.352C265.681 116.533 265.788 116.789 265.788 117.12C265.788 117.419 265.67 117.76 265.436 118.144C265.212 118.528 264.849 119.083 264.348 119.808L264.236 119.968H263.436ZM272.831 118V110.768H271.439V109.52H272.831V108.48C272.831 108.032 272.911 107.595 273.071 107.168C273.231 106.731 273.497 106.373 273.871 106.096C274.244 105.819 274.751 105.68 275.391 105.68C275.7 105.68 275.945 105.707 276.127 105.76C276.319 105.803 276.415 105.824 276.415 105.824V107.024C276.415 107.024 276.329 107.008 276.159 106.976C275.999 106.933 275.812 106.912 275.599 106.912C275.108 106.912 274.777 107.061 274.607 107.36C274.436 107.659 274.351 108.032 274.351 108.48V109.52H276.319V110.768H274.351V118H272.831ZM281.542 118.16C280.636 118.16 279.873 117.952 279.254 117.536C278.636 117.109 278.166 116.56 277.846 115.888C277.526 115.216 277.366 114.507 277.366 113.76C277.366 113.003 277.526 112.293 277.846 111.632C278.166 110.96 278.636 110.416 279.254 110C279.873 109.573 280.636 109.36 281.542 109.36C282.449 109.36 283.212 109.573 283.83 110C284.449 110.416 284.918 110.96 285.238 111.632C285.558 112.293 285.718 113.003 285.718 113.76C285.718 114.507 285.558 115.216 285.238 115.888C284.918 116.56 284.449 117.109 283.83 117.536C283.212 117.952 282.449 118.16 281.542 118.16ZM281.542 116.832C282.118 116.832 282.598 116.688 282.982 116.4C283.377 116.101 283.67 115.717 283.862 115.248C284.065 114.779 284.166 114.283 284.166 113.76C284.166 113.227 284.065 112.731 283.862 112.272C283.67 111.803 283.377 111.424 282.982 111.136C282.598 110.837 282.118 110.688 281.542 110.688C280.977 110.688 280.497 110.837 280.102 111.136C279.708 111.424 279.409 111.803 279.206 112.272C279.014 112.731 278.918 113.227 278.918 113.76C278.918 114.283 279.014 114.779 279.206 115.248C279.409 115.717 279.708 116.101 280.102 116.4C280.497 116.688 280.977 116.832 281.542 116.832ZM290.896 118.16C290.245 118.16 289.707 118.069 289.28 117.888C288.864 117.707 288.533 117.483 288.288 117.216C288.043 116.939 287.861 116.667 287.744 116.4C287.627 116.123 287.552 115.893 287.52 115.712C287.488 115.531 287.472 115.44 287.472 115.44H289.008C289.008 115.44 289.024 115.515 289.056 115.664C289.099 115.803 289.179 115.968 289.296 116.16C289.424 116.341 289.616 116.507 289.872 116.656C290.139 116.795 290.491 116.864 290.928 116.864C291.429 116.864 291.819 116.747 292.096 116.512C292.373 116.267 292.512 115.968 292.512 115.616C292.512 115.307 292.4 115.061 292.176 114.88C291.963 114.699 291.653 114.56 291.248 114.464L290.096 114.192C289.669 114.085 289.269 113.941 288.896 113.76C288.523 113.579 288.219 113.333 287.984 113.024C287.76 112.704 287.648 112.309 287.648 111.84C287.648 111.115 287.92 110.523 288.464 110.064C289.008 109.595 289.717 109.36 290.592 109.36C291.179 109.36 291.664 109.445 292.048 109.616C292.432 109.776 292.736 109.979 292.96 110.224C293.195 110.469 293.365 110.715 293.472 110.96C293.589 111.205 293.664 111.413 293.696 111.584C293.728 111.744 293.744 111.824 293.744 111.824H292.272C292.272 111.824 292.256 111.765 292.224 111.648C292.192 111.52 292.117 111.381 292 111.232C291.893 111.072 291.728 110.933 291.504 110.816C291.28 110.688 290.981 110.624 290.608 110.624C290.096 110.624 289.723 110.741 289.488 110.976C289.253 111.211 289.136 111.467 289.136 111.744C289.136 112.011 289.243 112.229 289.456 112.4C289.68 112.56 289.968 112.683 290.32 112.768L291.488 113.04C292.213 113.211 292.811 113.493 293.28 113.888C293.76 114.272 294 114.827 294 115.552C294 116.021 293.877 116.459 293.632 116.864C293.387 117.259 293.035 117.573 292.576 117.808C292.117 118.043 291.557 118.16 290.896 118.16ZM299.361 118.16C298.486 118.16 297.825 117.936 297.377 117.488C296.939 117.04 296.721 116.411 296.721 115.6V110.768H295.201V109.52H296.721V107.392H298.241V109.52H300.305V110.768H298.241V115.6C298.241 116.027 298.358 116.341 298.593 116.544C298.827 116.736 299.169 116.832 299.617 116.832C299.851 116.832 300.075 116.816 300.289 116.784C300.502 116.752 300.609 116.736 300.609 116.736V118.032C300.609 118.032 300.486 118.053 300.241 118.096C299.995 118.139 299.702 118.16 299.361 118.16ZM306.148 118.16C305.455 118.16 304.852 118.037 304.34 117.792C303.839 117.536 303.423 117.195 303.092 116.768C302.772 116.341 302.532 115.872 302.372 115.36C302.212 114.837 302.132 114.304 302.132 113.76C302.132 113.227 302.207 112.699 302.356 112.176C302.516 111.653 302.756 111.179 303.076 110.752C303.407 110.325 303.817 109.989 304.308 109.744C304.809 109.488 305.401 109.36 306.084 109.36C306.809 109.36 307.449 109.525 308.004 109.856C308.559 110.187 308.996 110.677 309.316 111.328C309.636 111.979 309.796 112.795 309.796 113.776V114.224H303.668C303.7 114.704 303.812 115.147 304.004 115.552C304.207 115.947 304.489 116.267 304.852 116.512C305.215 116.747 305.647 116.864 306.148 116.864C306.585 116.864 306.937 116.795 307.204 116.656C307.481 116.507 307.7 116.336 307.86 116.144C308.02 115.952 308.127 115.787 308.18 115.648C308.244 115.499 308.276 115.424 308.276 115.424H309.7C309.7 115.424 309.673 115.52 309.62 115.712C309.567 115.893 309.471 116.117 309.332 116.384C309.193 116.651 308.991 116.923 308.724 117.2C308.457 117.467 308.116 117.696 307.7 117.888C307.284 118.069 306.767 118.16 306.148 118.16ZM303.684 113.04H308.308C308.287 112.485 308.169 112.037 307.956 111.696C307.743 111.344 307.471 111.083 307.14 110.912C306.809 110.741 306.457 110.656 306.084 110.656C305.412 110.656 304.863 110.875 304.436 111.312C304.009 111.739 303.759 112.315 303.684 113.04ZM311.87 118V109.52H313.39V110.576H313.454C313.635 110.256 313.902 109.973 314.254 109.728C314.606 109.483 315.102 109.36 315.742 109.36C315.923 109.36 316.089 109.371 316.238 109.392C316.387 109.403 316.462 109.408 316.462 109.408V110.864C316.462 110.864 316.377 110.859 316.206 110.848C316.046 110.827 315.875 110.816 315.694 110.816C314.958 110.816 314.387 111.029 313.982 111.456C313.587 111.872 313.39 112.555 313.39 113.504V118H311.87ZM319.44 107.904C319.152 107.904 318.912 107.808 318.72 107.616C318.539 107.424 318.448 107.195 318.448 106.928C318.448 106.651 318.539 106.416 318.72 106.224C318.912 106.032 319.152 105.936 319.44 105.936C319.717 105.936 319.952 106.032 320.144 106.224C320.336 106.416 320.432 106.651 320.432 106.928C320.432 107.195 320.336 107.424 320.144 107.616C319.952 107.808 319.717 107.904 319.44 107.904ZM318.688 118V109.52H320.208V118H318.688ZM322.667 118V109.52H324.187V110.752H324.283C324.358 110.624 324.48 110.448 324.651 110.224C324.832 110 325.088 109.803 325.419 109.632C325.75 109.451 326.166 109.36 326.667 109.36C327.286 109.36 327.814 109.504 328.251 109.792C328.688 110.069 329.019 110.448 329.243 110.928C329.478 111.408 329.595 111.947 329.595 112.544V118H328.075V112.64C328.075 112.075 327.915 111.605 327.595 111.232C327.286 110.859 326.832 110.672 326.235 110.672C325.755 110.672 325.366 110.795 325.067 111.04C324.768 111.275 324.544 111.589 324.395 111.984C324.256 112.368 324.187 112.779 324.187 113.216V118H322.667ZM335.919 121.36C335.215 121.36 334.628 121.264 334.159 121.072C333.689 120.891 333.311 120.656 333.023 120.368C332.745 120.091 332.537 119.813 332.399 119.536C332.26 119.259 332.169 119.024 332.127 118.832C332.084 118.651 332.063 118.56 332.063 118.56H333.583C333.583 118.56 333.609 118.635 333.663 118.784C333.716 118.933 333.817 119.104 333.967 119.296C334.127 119.488 334.361 119.659 334.671 119.808C334.98 119.957 335.396 120.032 335.919 120.032C336.537 120.032 337.023 119.909 337.375 119.664C337.727 119.429 337.977 119.12 338.127 118.736C338.287 118.352 338.367 117.947 338.367 117.52V116.544H338.287C338.18 116.725 338.009 116.933 337.775 117.168C337.551 117.392 337.252 117.589 336.879 117.76C336.505 117.92 336.047 118 335.503 118C334.863 118 334.303 117.877 333.823 117.632C333.343 117.387 332.943 117.056 332.623 116.64C332.313 116.224 332.079 115.76 331.919 115.248C331.759 114.736 331.679 114.213 331.679 113.68C331.679 113.147 331.759 112.624 331.919 112.112C332.079 111.6 332.313 111.136 332.623 110.72C332.943 110.304 333.343 109.973 333.823 109.728C334.303 109.483 334.863 109.36 335.503 109.36C336.047 109.36 336.505 109.445 336.879 109.616C337.252 109.776 337.551 109.968 337.775 110.192C338.009 110.416 338.18 110.624 338.287 110.816H338.367V109.52H339.887V117.504C339.887 118.688 339.54 119.627 338.847 120.32C338.164 121.013 337.188 121.36 335.919 121.36ZM335.791 116.704C336.356 116.704 336.825 116.56 337.199 116.272C337.583 115.973 337.865 115.595 338.047 115.136C338.239 114.677 338.335 114.192 338.335 113.68C338.335 113.168 338.239 112.683 338.047 112.224C337.865 111.755 337.583 111.376 337.199 111.088C336.825 110.8 336.356 110.656 335.791 110.656C335.225 110.656 334.751 110.8 334.367 111.088C333.983 111.376 333.695 111.755 333.503 112.224C333.321 112.683 333.231 113.168 333.231 113.68C333.231 114.192 333.321 114.677 333.503 115.136C333.695 115.595 333.983 115.973 334.367 116.272C334.751 116.56 335.225 116.704 335.791 116.704ZM349.488 109.36C350.021 109.36 350.469 109.445 350.832 109.616C351.194 109.787 351.488 109.989 351.712 110.224C351.936 110.448 352.106 110.661 352.224 110.864H352.32V109.52H353.84V118H352.32V116.656H352.224C352.106 116.859 351.936 117.077 351.712 117.312C351.488 117.547 351.194 117.749 350.832 117.92C350.469 118.08 350.021 118.16 349.488 118.16C348.848 118.16 348.288 118.037 347.808 117.792C347.328 117.536 346.928 117.2 346.608 116.784C346.288 116.357 346.048 115.883 345.888 115.36C345.728 114.837 345.648 114.304 345.648 113.76C345.648 113.216 345.728 112.683 345.888 112.16C346.048 111.637 346.288 111.168 346.608 110.752C346.928 110.325 347.328 109.989 347.808 109.744C348.288 109.488 348.848 109.36 349.488 109.36ZM349.744 110.656C349.178 110.656 348.704 110.811 348.32 111.12C347.936 111.419 347.648 111.803 347.456 112.272C347.274 112.741 347.184 113.237 347.184 113.76C347.184 114.272 347.274 114.768 347.456 115.248C347.648 115.717 347.936 116.107 348.32 116.416C348.704 116.715 349.178 116.864 349.744 116.864C350.309 116.864 350.778 116.715 351.152 116.416C351.536 116.107 351.818 115.717 352 115.248C352.192 114.768 352.288 114.272 352.288 113.76C352.288 113.237 352.192 112.741 352 112.272C351.818 111.803 351.536 111.419 351.152 111.12C350.778 110.811 350.309 110.656 349.744 110.656ZM28.8 142.16C28.16 142.16 27.6 142.037 27.12 141.792C26.64 141.536 26.24 141.2 25.92 140.784C25.6 140.357 25.36 139.883 25.2 139.36C25.04 138.837 24.96 138.304 24.96 137.76C24.96 137.216 25.04 136.683 25.2 136.16C25.36 135.637 25.6 135.168 25.92 134.752C26.24 134.325 26.64 133.989 27.12 133.744C27.6 133.488 28.16 133.36 28.8 133.36C29.3333 133.36 29.7813 133.445 30.144 133.616C30.5067 133.787 30.8 133.989 31.024 134.224C31.248 134.448 31.4187 134.661 31.536 134.864H31.632V129.84H33.152V142H31.632V140.656H31.536C31.4187 140.859 31.248 141.077 31.024 141.312C30.8 141.547 30.5067 141.749 30.144 141.92C29.7813 142.08 29.3333 142.16 28.8 142.16ZM29.056 140.864C29.6213 140.864 30.0907 140.715 30.464 140.416C30.848 140.107 31.1307 139.717 31.312 139.248C31.504 138.768 31.6 138.272 31.6 137.76C31.6 137.237 31.504 136.741 31.312 136.272C31.1307 135.803 30.848 135.419 30.464 135.12C30.0907 134.811 29.6213 134.656 29.056 134.656C28.4907 134.656 28.016 134.811 27.632 135.12C27.248 135.419 26.96 135.803 26.768 136.272C26.5867 136.741 26.496 137.237 26.496 137.76C26.496 138.272 26.5867 138.768 26.768 139.248C26.96 139.717 27.248 140.107 27.632 140.416C28.016 140.715 28.4907 140.864 29.056 140.864ZM36.5495 131.904C36.2615 131.904 36.0215 131.808 35.8295 131.616C35.6482 131.424 35.5575 131.195 35.5575 130.928C35.5575 130.651 35.6482 130.416 35.8295 130.224C36.0215 130.032 36.2615 129.936 36.5495 129.936C36.8268 129.936 37.0615 130.032 37.2535 130.224C37.4455 130.416 37.5415 130.651 37.5415 130.928C37.5415 131.195 37.4455 131.424 37.2535 131.616C37.0615 131.808 36.8268 131.904 36.5495 131.904ZM35.7975 142V133.52H37.3175V142H35.7975ZM42.4483 142L39.2163 133.52H40.8003L43.2803 140.144L45.7123 133.52H47.3123L44.0643 142H42.4483ZM52.5385 142.16C51.8452 142.16 51.2425 142.037 50.7305 141.792C50.2292 141.536 49.8132 141.195 49.4825 140.768C49.1625 140.341 48.9225 139.872 48.7625 139.36C48.6025 138.837 48.5225 138.304 48.5225 137.76C48.5225 137.227 48.5972 136.699 48.7465 136.176C48.9065 135.653 49.1465 135.179 49.4665 134.752C49.7972 134.325 50.2078 133.989 50.6985 133.744C51.1998 133.488 51.7918 133.36 52.4745 133.36C53.1998 133.36 53.8398 133.525 54.3945 133.856C54.9492 134.187 55.3865 134.677 55.7065 135.328C56.0265 135.979 56.1865 136.795 56.1865 137.776V138.224H50.0585C50.0905 138.704 50.2025 139.147 50.3945 139.552C50.5972 139.947 50.8798 140.267 51.2425 140.512C51.6052 140.747 52.0372 140.864 52.5385 140.864C52.9758 140.864 53.3278 140.795 53.5945 140.656C53.8718 140.507 54.0905 140.336 54.2505 140.144C54.4105 139.952 54.5172 139.787 54.5705 139.648C54.6345 139.499 54.6665 139.424 54.6665 139.424H56.0905C56.0905 139.424 56.0638 139.52 56.0105 139.712C55.9572 139.893 55.8612 140.117 55.7225 140.384C55.5838 140.651 55.3812 140.923 55.1145 141.2C54.8478 141.467 54.5065 141.696 54.0905 141.888C53.6745 142.069 53.1572 142.16 52.5385 142.16ZM50.0745 137.04H54.6985C54.6772 136.485 54.5598 136.037 54.3465 135.696C54.1332 135.344 53.8612 135.083 53.5305 134.912C53.1998 134.741 52.8478 134.656 52.4745 134.656C51.8025 134.656 51.2532 134.875 50.8265 135.312C50.3998 135.739 50.1492 136.315 50.0745 137.04ZM58.2606 142V133.52H59.7806V134.576H59.8446C60.026 134.256 60.2926 133.973 60.6446 133.728C60.9966 133.483 61.4926 133.36 62.1326 133.36C62.314 133.36 62.4793 133.371 62.6286 133.392C62.778 133.403 62.8526 133.408 62.8526 133.408V134.864C62.8526 134.864 62.7673 134.859 62.5966 134.848C62.4366 134.827 62.266 134.816 62.0846 134.816C61.3486 134.816 60.778 135.029 60.3726 135.456C59.978 135.872 59.7806 136.555 59.7806 137.504V142H58.2606ZM67.6302 142.16C66.9796 142.16 66.4409 142.069 66.0143 141.888C65.5983 141.707 65.2676 141.483 65.0223 141.216C64.7769 140.939 64.5956 140.667 64.4783 140.4C64.3609 140.123 64.2863 139.893 64.2543 139.712C64.2223 139.531 64.2063 139.44 64.2063 139.44H65.7423C65.7423 139.44 65.7583 139.515 65.7903 139.664C65.8329 139.803 65.9129 139.968 66.0303 140.16C66.1583 140.341 66.3503 140.507 66.6063 140.656C66.8729 140.795 67.2249 140.864 67.6623 140.864C68.1636 140.864 68.5529 140.747 68.8303 140.512C69.1076 140.267 69.2463 139.968 69.2463 139.616C69.2463 139.307 69.1343 139.061 68.9103 138.88C68.6969 138.699 68.3876 138.56 67.9823 138.464L66.8303 138.192C66.4036 138.085 66.0036 137.941 65.6303 137.76C65.2569 137.579 64.9529 137.333 64.7183 137.024C64.4943 136.704 64.3823 136.309 64.3823 135.84C64.3823 135.115 64.6543 134.523 65.1983 134.064C65.7423 133.595 66.4516 133.36 67.3263 133.36C67.9129 133.36 68.3983 133.445 68.7823 133.616C69.1663 133.776 69.4703 133.979 69.6943 134.224C69.9289 134.469 70.0996 134.715 70.2063 134.96C70.3236 135.205 70.3983 135.413 70.4303 135.584C70.4623 135.744 70.4783 135.824 70.4783 135.824H69.0063C69.0063 135.824 68.9903 135.765 68.9583 135.648C68.9263 135.52 68.8516 135.381 68.7343 135.232C68.6276 135.072 68.4623 134.933 68.2383 134.816C68.0143 134.688 67.7156 134.624 67.3423 134.624C66.8303 134.624 66.4569 134.741 66.2223 134.976C65.9876 135.211 65.8703 135.467 65.8703 135.744C65.8703 136.011 65.9769 136.229 66.1903 136.4C66.4143 136.56 66.7023 136.683 67.0543 136.768L68.2223 137.04C68.9476 137.211 69.5449 137.493 70.0143 137.888C70.4943 138.272 70.7343 138.827 70.7343 139.552C70.7343 140.021 70.6116 140.459 70.3663 140.864C70.1209 141.259 69.7689 141.573 69.3103 141.808C68.8516 142.043 68.2916 142.16 67.6302 142.16ZM76.351 142.16C75.6577 142.16 75.055 142.037 74.543 141.792C74.0417 141.536 73.6257 141.195 73.295 140.768C72.975 140.341 72.735 139.872 72.575 139.36C72.415 138.837 72.335 138.304 72.335 137.76C72.335 137.227 72.4097 136.699 72.559 136.176C72.719 135.653 72.959 135.179 73.279 134.752C73.6097 134.325 74.0203 133.989 74.511 133.744C75.0123 133.488 75.6043 133.36 76.287 133.36C77.0123 133.36 77.6523 133.525 78.207 133.856C78.7617 134.187 79.199 134.677 79.519 135.328C79.839 135.979 79.999 136.795 79.999 137.776V138.224H73.871C73.903 138.704 74.015 139.147 74.207 139.552C74.4097 139.947 74.6923 140.267 75.055 140.512C75.4177 140.747 75.8497 140.864 76.351 140.864C76.7883 140.864 77.1403 140.795 77.407 140.656C77.6843 140.507 77.903 140.336 78.063 140.144C78.223 139.952 78.3297 139.787 78.383 139.648C78.447 139.499 78.479 139.424 78.479 139.424H79.903C79.903 139.424 79.8763 139.52 79.823 139.712C79.7697 139.893 79.6737 140.117 79.535 140.384C79.3963 140.651 79.1937 140.923 78.927 141.2C78.6603 141.467 78.319 141.696 77.903 141.888C77.487 142.069 76.9697 142.16 76.351 142.16ZM73.887 137.04H78.511C78.4897 136.485 78.3723 136.037 78.159 135.696C77.9457 135.344 77.6737 135.083 77.343 134.912C77.0123 134.741 76.6603 134.656 76.287 134.656C75.615 134.656 75.0657 134.875 74.639 135.312C74.2123 135.739 73.9617 136.315 73.887 137.04ZM82.2011 143.968L83.3531 142.112C83.0971 142.091 82.8785 141.984 82.6971 141.792C82.5265 141.6 82.4411 141.365 82.4411 141.088C82.4411 140.779 82.5478 140.533 82.7611 140.352C82.9745 140.171 83.2145 140.08 83.4811 140.08C83.7798 140.08 84.0305 140.171 84.2331 140.352C84.4465 140.533 84.5531 140.789 84.5531 141.12C84.5531 141.419 84.4358 141.76 84.2011 142.144C83.9771 142.528 83.6145 143.083 83.1131 143.808L83.0011 143.968H82.2011ZM91.5964 131.904C91.3084 131.904 91.0684 131.808 90.8764 131.616C90.695 131.424 90.6044 131.195 90.6044 130.928C90.6044 130.651 90.695 130.416 90.8764 130.224C91.0684 130.032 91.3084 129.936 91.5964 129.936C91.8737 129.936 92.1084 130.032 92.3004 130.224C92.4924 130.416 92.5884 130.651 92.5884 130.928C92.5884 131.195 92.4924 131.424 92.3004 131.616C92.1084 131.808 91.8737 131.904 91.5964 131.904ZM90.8444 142V133.52H92.3644V142H90.8444ZM94.8231 142V133.52H96.3431V134.752H96.4391C96.5138 134.624 96.6365 134.448 96.8071 134.224C96.9885 134 97.2445 133.803 97.5751 133.632C97.9058 133.451 98.3218 133.36 98.8231 133.36C99.4418 133.36 99.9698 133.504 100.407 133.792C100.844 134.069 101.175 134.448 101.399 134.928C101.634 135.408 101.751 135.947 101.751 136.544V142H100.231V136.64C100.231 136.075 100.071 135.605 99.7511 135.232C99.4418 134.859 98.9885 134.672 98.3911 134.672C97.9111 134.672 97.5218 134.795 97.2231 135.04C96.9245 135.275 96.7005 135.589 96.5511 135.984C96.4125 136.368 96.3431 136.779 96.3431 137.216V142H94.8231ZM108.011 142.16C107.318 142.16 106.71 142.037 106.187 141.792C105.664 141.536 105.227 141.2 104.875 140.784C104.534 140.357 104.272 139.883 104.091 139.36C103.92 138.837 103.835 138.304 103.835 137.76C103.835 137.216 103.92 136.688 104.091 136.176C104.262 135.653 104.518 135.179 104.859 134.752C105.211 134.325 105.648 133.989 106.171 133.744C106.694 133.488 107.307 133.36 108.011 133.36C108.694 133.36 109.259 133.461 109.707 133.664C110.155 133.867 110.512 134.123 110.779 134.432C111.056 134.731 111.259 135.035 111.387 135.344C111.526 135.643 111.616 135.893 111.659 136.096C111.702 136.299 111.723 136.4 111.723 136.4H110.251C110.251 136.4 110.224 136.315 110.171 136.144C110.118 135.963 110.016 135.76 109.867 135.536C109.718 135.312 109.494 135.115 109.195 134.944C108.896 134.763 108.502 134.672 108.011 134.672C107.424 134.672 106.928 134.821 106.523 135.12C106.128 135.408 105.83 135.787 105.627 136.256C105.435 136.725 105.339 137.227 105.339 137.76C105.339 138.293 105.435 138.795 105.627 139.264C105.83 139.733 106.128 140.117 106.523 140.416C106.928 140.704 107.424 140.848 108.011 140.848C108.502 140.848 108.896 140.763 109.195 140.592C109.494 140.411 109.718 140.208 109.867 139.984C110.016 139.76 110.118 139.563 110.171 139.392C110.224 139.211 110.251 139.12 110.251 139.12H111.723C111.723 139.12 111.702 139.221 111.659 139.424C111.616 139.627 111.526 139.883 111.387 140.192C111.259 140.491 111.056 140.795 110.779 141.104C110.512 141.403 110.155 141.653 109.707 141.856C109.259 142.059 108.694 142.16 108.011 142.16ZM113.968 142L113.984 129.84H115.488V142H113.968ZM120.654 142.16C119.811 142.16 119.139 141.899 118.638 141.376C118.136 140.853 117.886 140.128 117.886 139.2V133.52H119.406V139.12C119.406 139.675 119.555 140.101 119.854 140.4C120.163 140.699 120.568 140.848 121.07 140.848C121.582 140.848 121.992 140.715 122.302 140.448C122.611 140.181 122.835 139.84 122.974 139.424C123.112 139.008 123.182 138.581 123.182 138.144V133.52H124.702V142H123.182V140.784H123.086C123.022 140.912 122.899 141.088 122.718 141.312C122.536 141.525 122.28 141.723 121.95 141.904C121.619 142.075 121.187 142.16 120.654 142.16ZM130.052 142.16C129.401 142.16 128.863 142.069 128.436 141.888C128.02 141.707 127.689 141.483 127.444 141.216C127.199 140.939 127.017 140.667 126.9 140.4C126.783 140.123 126.708 139.893 126.676 139.712C126.644 139.531 126.628 139.44 126.628 139.44H128.164C128.164 139.44 128.18 139.515 128.212 139.664C128.255 139.803 128.335 139.968 128.452 140.16C128.58 140.341 128.772 140.507 129.028 140.656C129.295 140.795 129.647 140.864 130.084 140.864C130.585 140.864 130.975 140.747 131.252 140.512C131.529 140.267 131.668 139.968 131.668 139.616C131.668 139.307 131.556 139.061 131.332 138.88C131.119 138.699 130.809 138.56 130.404 138.464L129.252 138.192C128.825 138.085 128.425 137.941 128.052 137.76C127.679 137.579 127.375 137.333 127.14 137.024C126.916 136.704 126.804 136.309 126.804 135.84C126.804 135.115 127.076 134.523 127.62 134.064C128.164 133.595 128.873 133.36 129.748 133.36C130.335 133.36 130.82 133.445 131.204 133.616C131.588 133.776 131.892 133.979 132.116 134.224C132.351 134.469 132.521 134.715 132.628 134.96C132.745 135.205 132.82 135.413 132.852 135.584C132.884 135.744 132.9 135.824 132.9 135.824H131.428C131.428 135.824 131.412 135.765 131.38 135.648C131.348 135.52 131.273 135.381 131.156 135.232C131.049 135.072 130.884 134.933 130.66 134.816C130.436 134.688 130.137 134.624 129.764 134.624C129.252 134.624 128.879 134.741 128.644 134.976C128.409 135.211 128.292 135.467 128.292 135.744C128.292 136.011 128.399 136.229 128.612 136.4C128.836 136.56 129.124 136.683 129.476 136.768L130.644 137.04C131.369 137.211 131.967 137.493 132.436 137.888C132.916 138.272 133.156 138.827 133.156 139.552C133.156 140.021 133.033 140.459 132.788 140.864C132.543 141.259 132.191 141.573 131.732 141.808C131.273 142.043 130.713 142.16 130.052 142.16ZM136.065 131.904C135.777 131.904 135.537 131.808 135.345 131.616C135.164 131.424 135.073 131.195 135.073 130.928C135.073 130.651 135.164 130.416 135.345 130.224C135.537 130.032 135.777 129.936 136.065 129.936C136.342 129.936 136.577 130.032 136.769 130.224C136.961 130.416 137.057 130.651 137.057 130.928C137.057 131.195 136.961 131.424 136.769 131.616C136.577 131.808 136.342 131.904 136.065 131.904ZM135.313 142V133.52H136.833V142H135.313ZM141.964 142L138.732 133.52H140.316L142.796 140.144L145.228 133.52H146.828L143.58 142H141.964ZM152.054 142.16C151.361 142.16 150.758 142.037 150.246 141.792C149.745 141.536 149.329 141.195 148.998 140.768C148.678 140.341 148.438 139.872 148.278 139.36C148.118 138.837 148.038 138.304 148.038 137.76C148.038 137.227 148.113 136.699 148.262 136.176C148.422 135.653 148.662 135.179 148.982 134.752C149.313 134.325 149.723 133.989 150.214 133.744C150.715 133.488 151.307 133.36 151.99 133.36C152.715 133.36 153.355 133.525 153.91 133.856C154.465 134.187 154.902 134.677 155.222 135.328C155.542 135.979 155.702 136.795 155.702 137.776V138.224H149.574C149.606 138.704 149.718 139.147 149.91 139.552C150.113 139.947 150.395 140.267 150.758 140.512C151.121 140.747 151.553 140.864 152.054 140.864C152.491 140.864 152.843 140.795 153.11 140.656C153.387 140.507 153.606 140.336 153.766 140.144C153.926 139.952 154.033 139.787 154.086 139.648C154.15 139.499 154.182 139.424 154.182 139.424H155.606C155.606 139.424 155.579 139.52 155.526 139.712C155.473 139.893 155.377 140.117 155.238 140.384C155.099 140.651 154.897 140.923 154.63 141.2C154.363 141.467 154.022 141.696 153.606 141.888C153.19 142.069 152.673 142.16 152.054 142.16ZM149.59 137.04H154.214C154.193 136.485 154.075 136.037 153.862 135.696C153.649 135.344 153.377 135.083 153.046 134.912C152.715 134.741 152.363 134.656 151.99 134.656C151.318 134.656 150.769 134.875 150.342 135.312C149.915 135.739 149.665 136.315 149.59 137.04ZM165.48 142.16C164.786 142.16 164.178 142.037 163.656 141.792C163.133 141.536 162.696 141.2 162.344 140.784C162.002 140.357 161.741 139.883 161.56 139.36C161.389 138.837 161.304 138.304 161.304 137.76C161.304 137.216 161.389 136.688 161.56 136.176C161.73 135.653 161.986 135.179 162.328 134.752C162.68 134.325 163.117 133.989 163.64 133.744C164.162 133.488 164.776 133.36 165.48 133.36C166.162 133.36 166.728 133.461 167.176 133.664C167.624 133.867 167.981 134.123 168.248 134.432C168.525 134.731 168.728 135.035 168.856 135.344C168.994 135.643 169.085 135.893 169.128 136.096C169.17 136.299 169.192 136.4 169.192 136.4H167.72C167.72 136.4 167.693 136.315 167.64 136.144C167.586 135.963 167.485 135.76 167.336 135.536C167.186 135.312 166.962 135.115 166.664 134.944C166.365 134.763 165.97 134.672 165.48 134.672C164.893 134.672 164.397 134.821 163.992 135.12C163.597 135.408 163.298 135.787 163.096 136.256C162.904 136.725 162.808 137.227 162.808 137.76C162.808 138.293 162.904 138.795 163.096 139.264C163.298 139.733 163.597 140.117 163.992 140.416C164.397 140.704 164.893 140.848 165.48 140.848C165.97 140.848 166.365 140.763 166.664 140.592C166.962 140.411 167.186 140.208 167.336 139.984C167.485 139.76 167.586 139.563 167.64 139.392C167.693 139.211 167.72 139.12 167.72 139.12H169.192C169.192 139.12 169.17 139.221 169.128 139.424C169.085 139.627 168.994 139.883 168.856 140.192C168.728 140.491 168.525 140.795 168.248 141.104C167.981 141.403 167.624 141.653 167.176 141.856C166.728 142.059 166.162 142.16 165.48 142.16ZM175.292 142.16C174.386 142.16 173.623 141.952 173.004 141.536C172.386 141.109 171.916 140.56 171.596 139.888C171.276 139.216 171.116 138.507 171.116 137.76C171.116 137.003 171.276 136.293 171.596 135.632C171.916 134.96 172.386 134.416 173.004 134C173.623 133.573 174.386 133.36 175.292 133.36C176.199 133.36 176.962 133.573 177.58 134C178.199 134.416 178.668 134.96 178.988 135.632C179.308 136.293 179.468 137.003 179.468 137.76C179.468 138.507 179.308 139.216 178.988 139.888C178.668 140.56 178.199 141.109 177.58 141.536C176.962 141.952 176.199 142.16 175.292 142.16ZM175.292 140.832C175.868 140.832 176.348 140.688 176.732 140.4C177.127 140.101 177.42 139.717 177.612 139.248C177.815 138.779 177.916 138.283 177.916 137.76C177.916 137.227 177.815 136.731 177.612 136.272C177.42 135.803 177.127 135.424 176.732 135.136C176.348 134.837 175.868 134.688 175.292 134.688C174.727 134.688 174.247 134.837 173.852 135.136C173.458 135.424 173.159 135.803 172.956 136.272C172.764 136.731 172.668 137.227 172.668 137.76C172.668 138.283 172.764 138.779 172.956 139.248C173.159 139.717 173.458 140.101 173.852 140.4C174.247 140.688 174.727 140.832 175.292 140.832ZM181.542 142V133.52H183.062V134.752H183.126C183.211 134.592 183.345 134.405 183.526 134.192C183.707 133.968 183.953 133.776 184.262 133.616C184.582 133.445 184.982 133.36 185.462 133.36C186.091 133.36 186.619 133.515 187.046 133.824C187.483 134.123 187.809 134.528 188.022 135.04H188.038C188.273 134.571 188.603 134.176 189.03 133.856C189.467 133.525 190.033 133.36 190.726 133.36C191.643 133.36 192.347 133.675 192.838 134.304C193.339 134.923 193.59 135.723 193.59 136.704V142H192.07V136.784C192.07 136.155 191.921 135.648 191.622 135.264C191.323 134.869 190.891 134.672 190.326 134.672C189.835 134.672 189.441 134.805 189.142 135.072C188.854 135.339 188.646 135.669 188.518 136.064C188.39 136.459 188.326 136.853 188.326 137.248V142H186.806V136.784C186.806 136.155 186.657 135.648 186.358 135.264C186.07 134.869 185.638 134.672 185.062 134.672C184.571 134.672 184.177 134.805 183.878 135.072C183.59 135.339 183.382 135.675 183.254 136.08C183.126 136.475 183.062 136.864 183.062 137.248V142H181.542ZM195.823 142V133.52H197.343V134.752H197.407C197.492 134.592 197.626 134.405 197.807 134.192C197.988 133.968 198.234 133.776 198.543 133.616C198.863 133.445 199.263 133.36 199.743 133.36C200.372 133.36 200.9 133.515 201.327 133.824C201.764 134.123 202.09 134.528 202.303 135.04H202.319C202.554 134.571 202.884 134.176 203.311 133.856C203.748 133.525 204.314 133.36 205.007 133.36C205.924 133.36 206.628 133.675 207.119 134.304C207.62 134.923 207.871 135.723 207.871 136.704V142H206.351V136.784C206.351 136.155 206.202 135.648 205.903 135.264C205.604 134.869 205.172 134.672 204.607 134.672C204.116 134.672 203.722 134.805 203.423 135.072C203.135 135.339 202.927 135.669 202.799 136.064C202.671 136.459 202.607 136.853 202.607 137.248V142H201.087V136.784C201.087 136.155 200.938 135.648 200.639 135.264C200.351 134.869 199.919 134.672 199.343 134.672C198.852 134.672 198.458 134.805 198.159 135.072C197.871 135.339 197.663 135.675 197.535 136.08C197.407 136.475 197.343 136.864 197.343 137.248V142H195.823ZM212.872 142.16C212.03 142.16 211.358 141.899 210.856 141.376C210.355 140.853 210.104 140.128 210.104 139.2V133.52H211.624V139.12C211.624 139.675 211.774 140.101 212.072 140.4C212.382 140.699 212.787 140.848 213.288 140.848C213.8 140.848 214.211 140.715 214.52 140.448C214.83 140.181 215.054 139.84 215.192 139.424C215.331 139.008 215.4 138.581 215.4 138.144V133.52H216.92V142H215.4V140.784H215.304C215.24 140.912 215.118 141.088 214.936 141.312C214.755 141.525 214.499 141.723 214.168 141.904C213.838 142.075 213.406 142.16 212.872 142.16ZM219.167 142V133.52H220.687V134.752H220.783C220.858 134.624 220.98 134.448 221.151 134.224C221.332 134 221.588 133.803 221.919 133.632C222.25 133.451 222.666 133.36 223.167 133.36C223.786 133.36 224.314 133.504 224.751 133.792C225.188 134.069 225.519 134.448 225.743 134.928C225.978 135.408 226.095 135.947 226.095 136.544V142H224.575V136.64C224.575 136.075 224.415 135.605 224.095 135.232C223.786 134.859 223.332 134.672 222.735 134.672C222.255 134.672 221.866 134.795 221.567 135.04C221.268 135.275 221.044 135.589 220.895 135.984C220.756 136.368 220.687 136.779 220.687 137.216V142H219.167ZM229.331 131.904C229.043 131.904 228.803 131.808 228.611 131.616C228.429 131.424 228.339 131.195 228.339 130.928C228.339 130.651 228.429 130.416 228.611 130.224C228.803 130.032 229.043 129.936 229.331 129.936C229.608 129.936 229.843 130.032 230.035 130.224C230.227 130.416 230.323 130.651 230.323 130.928C230.323 131.195 230.227 131.424 230.035 131.616C229.843 131.808 229.608 131.904 229.331 131.904ZM228.579 142V133.52H230.099V142H228.579ZM236.158 142.16C235.283 142.16 234.622 141.936 234.174 141.488C233.736 141.04 233.518 140.411 233.518 139.6V134.768H231.998V133.52H233.518V131.392H235.038V133.52H237.102V134.768H235.038V139.6C235.038 140.027 235.155 140.341 235.39 140.544C235.624 140.736 235.966 140.832 236.414 140.832C236.648 140.832 236.872 140.816 237.086 140.784C237.299 140.752 237.406 140.736 237.406 140.736V142.032C237.406 142.032 237.283 142.053 237.038 142.096C236.792 142.139 236.499 142.16 236.158 142.16ZM239.565 145.12C239.32 145.12 239.112 145.109 238.941 145.088C238.77 145.067 238.685 145.056 238.685 145.056V143.76C238.685 143.76 238.77 143.765 238.941 143.776C239.122 143.797 239.314 143.808 239.517 143.808C240.146 143.808 240.658 143.675 241.053 143.408C241.458 143.152 241.8 142.725 242.077 142.128L238.797 133.52H240.381L242.829 140.144L245.293 133.52H246.893L243.613 142.016C243.197 143.083 242.658 143.867 241.997 144.368C241.346 144.869 240.536 145.12 239.565 145.12ZM254.437 142L251.701 133.52H253.253L255.269 139.952L257.381 133.52H258.821L260.917 139.952L262.949 133.52H264.501L261.749 142H260.117L258.101 135.744L256.085 142H254.437ZM266.343 142V129.84H267.863V134.752H267.959C268.033 134.624 268.156 134.448 268.327 134.224C268.508 134 268.764 133.803 269.095 133.632C269.425 133.451 269.841 133.36 270.343 133.36C270.961 133.36 271.489 133.504 271.927 133.792C272.364 134.069 272.695 134.448 272.919 134.928C273.153 135.408 273.271 135.947 273.271 136.544V142H271.751V136.64C271.751 136.075 271.591 135.605 271.271 135.232C270.961 134.859 270.508 134.672 269.911 134.672C269.431 134.672 269.041 134.795 268.743 135.04C268.444 135.275 268.22 135.589 268.071 135.984C267.932 136.368 267.863 136.779 267.863 137.216V142H266.343ZM279.367 142.16C278.673 142.16 278.071 142.037 277.559 141.792C277.057 141.536 276.641 141.195 276.311 140.768C275.991 140.341 275.751 139.872 275.591 139.36C275.431 138.837 275.351 138.304 275.351 137.76C275.351 137.227 275.425 136.699 275.575 136.176C275.735 135.653 275.975 135.179 276.295 134.752C276.625 134.325 277.036 133.989 277.527 133.744C278.028 133.488 278.62 133.36 279.303 133.36C280.028 133.36 280.668 133.525 281.223 133.856C281.777 134.187 282.215 134.677 282.535 135.328C282.855 135.979 283.015 136.795 283.015 137.776V138.224H276.887C276.919 138.704 277.031 139.147 277.223 139.552C277.425 139.947 277.708 140.267 278.071 140.512C278.433 140.747 278.865 140.864 279.367 140.864C279.804 140.864 280.156 140.795 280.423 140.656C280.7 140.507 280.919 140.336 281.079 140.144C281.239 139.952 281.345 139.787 281.399 139.648C281.463 139.499 281.495 139.424 281.495 139.424H282.919C282.919 139.424 282.892 139.52 282.839 139.712C282.785 139.893 282.689 140.117 282.551 140.384C282.412 140.651 282.209 140.923 281.943 141.2C281.676 141.467 281.335 141.696 280.919 141.888C280.503 142.069 279.985 142.16 279.367 142.16ZM276.903 137.04H281.527C281.505 136.485 281.388 136.037 281.175 135.696C280.961 135.344 280.689 135.083 280.359 134.912C280.028 134.741 279.676 134.656 279.303 134.656C278.631 134.656 278.081 134.875 277.655 135.312C277.228 135.739 276.977 136.315 276.903 137.04ZM285.089 142V133.52H286.609V134.576H286.673C286.854 134.256 287.121 133.973 287.473 133.728C287.825 133.483 288.321 133.36 288.961 133.36C289.142 133.36 289.307 133.371 289.457 133.392C289.606 133.403 289.681 133.408 289.681 133.408V134.864C289.681 134.864 289.595 134.859 289.425 134.848C289.265 134.827 289.094 134.816 288.913 134.816C288.177 134.816 287.606 135.029 287.201 135.456C286.806 135.872 286.609 136.555 286.609 137.504V142H285.089ZM294.57 142.16C293.876 142.16 293.274 142.037 292.762 141.792C292.26 141.536 291.844 141.195 291.514 140.768C291.194 140.341 290.954 139.872 290.794 139.36C290.634 138.837 290.554 138.304 290.554 137.76C290.554 137.227 290.628 136.699 290.778 136.176C290.938 135.653 291.178 135.179 291.498 134.752C291.828 134.325 292.239 133.989 292.73 133.744C293.231 133.488 293.823 133.36 294.506 133.36C295.231 133.36 295.871 133.525 296.426 133.856C296.98 134.187 297.418 134.677 297.738 135.328C298.058 135.979 298.218 136.795 298.218 137.776V138.224H292.09C292.122 138.704 292.234 139.147 292.426 139.552C292.628 139.947 292.911 140.267 293.274 140.512C293.636 140.747 294.068 140.864 294.57 140.864C295.007 140.864 295.359 140.795 295.626 140.656C295.903 140.507 296.122 140.336 296.282 140.144C296.442 139.952 296.548 139.787 296.602 139.648C296.666 139.499 296.698 139.424 296.698 139.424H298.122C298.122 139.424 298.095 139.52 298.042 139.712C297.988 139.893 297.892 140.117 297.754 140.384C297.615 140.651 297.412 140.923 297.146 141.2C296.879 141.467 296.538 141.696 296.122 141.888C295.706 142.069 295.188 142.16 294.57 142.16ZM292.106 137.04H296.73C296.708 136.485 296.591 136.037 296.378 135.696C296.164 135.344 295.892 135.083 295.562 134.912C295.231 134.741 294.879 134.656 294.506 134.656C293.834 134.656 293.284 134.875 292.858 135.312C292.431 135.739 292.18 136.315 292.106 137.04ZM29.136 166.16C28.4427 166.16 27.8347 166.037 27.312 165.792C26.7893 165.536 26.352 165.2 26 164.784C25.6587 164.357 25.3973 163.883 25.216 163.36C25.0453 162.837 24.96 162.304 24.96 161.76C24.96 161.216 25.0453 160.688 25.216 160.176C25.3867 159.653 25.6427 159.179 25.984 158.752C26.336 158.325 26.7733 157.989 27.296 157.744C27.8187 157.488 28.432 157.36 29.136 157.36C29.8187 157.36 30.384 157.461 30.832 157.664C31.28 157.867 31.6373 158.123 31.904 158.432C32.1813 158.731 32.384 159.035 32.512 159.344C32.6507 159.643 32.7413 159.893 32.784 160.096C32.8267 160.299 32.848 160.4 32.848 160.4H31.376C31.376 160.4 31.3493 160.315 31.296 160.144C31.2427 159.963 31.1413 159.76 30.992 159.536C30.8427 159.312 30.6187 159.115 30.32 158.944C30.0213 158.763 29.6267 158.672 29.136 158.672C28.5493 158.672 28.0533 158.821 27.648 159.12C27.2533 159.408 26.9547 159.787 26.752 160.256C26.56 160.725 26.464 161.227 26.464 161.76C26.464 162.293 26.56 162.795 26.752 163.264C26.9547 163.733 27.2533 164.117 27.648 164.416C28.0533 164.704 28.5493 164.848 29.136 164.848C29.6267 164.848 30.0213 164.763 30.32 164.592C30.6187 164.411 30.8427 164.208 30.992 163.984C31.1413 163.76 31.2427 163.563 31.296 163.392C31.3493 163.211 31.376 163.12 31.376 163.12H32.848C32.848 163.12 32.8267 163.221 32.784 163.424C32.7413 163.627 32.6507 163.883 32.512 164.192C32.384 164.491 32.1813 164.795 31.904 165.104C31.6373 165.403 31.28 165.653 30.832 165.856C30.384 166.059 29.8187 166.16 29.136 166.16ZM34.9325 166V157.52H36.4525V158.576H36.5165C36.6978 158.256 36.9645 157.973 37.3165 157.728C37.6685 157.483 38.1645 157.36 38.8045 157.36C38.9858 157.36 39.1512 157.371 39.3005 157.392C39.4498 157.403 39.5245 157.408 39.5245 157.408V158.864C39.5245 158.864 39.4392 158.859 39.2685 158.848C39.1085 158.827 38.9378 158.816 38.7565 158.816C38.0205 158.816 37.4498 159.029 37.0445 159.456C36.6498 159.872 36.4525 160.555 36.4525 161.504V166H34.9325ZM44.4135 166.16C43.7202 166.16 43.1175 166.037 42.6055 165.792C42.1042 165.536 41.6882 165.195 41.3575 164.768C41.0375 164.341 40.7975 163.872 40.6375 163.36C40.4775 162.837 40.3975 162.304 40.3975 161.76C40.3975 161.227 40.4722 160.699 40.6215 160.176C40.7815 159.653 41.0215 159.179 41.3415 158.752C41.6722 158.325 42.0828 157.989 42.5735 157.744C43.0748 157.488 43.6668 157.36 44.3495 157.36C45.0748 157.36 45.7148 157.525 46.2695 157.856C46.8242 158.187 47.2615 158.677 47.5815 159.328C47.9015 159.979 48.0615 160.795 48.0615 161.776V162.224H41.9335C41.9655 162.704 42.0775 163.147 42.2695 163.552C42.4722 163.947 42.7548 164.267 43.1175 164.512C43.4802 164.747 43.9122 164.864 44.4135 164.864C44.8508 164.864 45.2028 164.795 45.4695 164.656C45.7468 164.507 45.9655 164.336 46.1255 164.144C46.2855 163.952 46.3922 163.787 46.4455 163.648C46.5095 163.499 46.5415 163.424 46.5415 163.424H47.9655C47.9655 163.424 47.9388 163.52 47.8855 163.712C47.8322 163.893 47.7362 164.117 47.5975 164.384C47.4588 164.651 47.2562 164.923 46.9895 165.2C46.7228 165.467 46.3815 165.696 45.9655 165.888C45.5495 166.069 45.0322 166.16 44.4135 166.16ZM41.9495 161.04H46.5735C46.5522 160.485 46.4348 160.037 46.2215 159.696C46.0082 159.344 45.7362 159.083 45.4055 158.912C45.0748 158.741 44.7228 158.656 44.3495 158.656C43.6775 158.656 43.1282 158.875 42.7015 159.312C42.2748 159.739 42.0242 160.315 41.9495 161.04ZM53.7375 157.36C54.2708 157.36 54.7188 157.445 55.0815 157.616C55.4442 157.787 55.7375 157.989 55.9615 158.224C56.1855 158.448 56.3562 158.661 56.4735 158.864H56.5695V157.52H58.0895V166H56.5695V164.656H56.4735C56.3562 164.859 56.1855 165.077 55.9615 165.312C55.7375 165.547 55.4442 165.749 55.0815 165.92C54.7188 166.08 54.2708 166.16 53.7375 166.16C53.0975 166.16 52.5375 166.037 52.0575 165.792C51.5775 165.536 51.1775 165.2 50.8575 164.784C50.5375 164.357 50.2975 163.883 50.1375 163.36C49.9775 162.837 49.8975 162.304 49.8975 161.76C49.8975 161.216 49.9775 160.683 50.1375 160.16C50.2975 159.637 50.5375 159.168 50.8575 158.752C51.1775 158.325 51.5775 157.989 52.0575 157.744C52.5375 157.488 53.0975 157.36 53.7375 157.36ZM53.9935 158.656C53.4282 158.656 52.9535 158.811 52.5695 159.12C52.1855 159.419 51.8975 159.803 51.7055 160.272C51.5242 160.741 51.4335 161.237 51.4335 161.76C51.4335 162.272 51.5242 162.768 51.7055 163.248C51.8975 163.717 52.1855 164.107 52.5695 164.416C52.9535 164.715 53.4282 164.864 53.9935 164.864C54.5588 164.864 55.0282 164.715 55.4015 164.416C55.7855 164.107 56.0682 163.717 56.2495 163.248C56.4415 162.768 56.5375 162.272 56.5375 161.76C56.5375 161.237 56.4415 160.741 56.2495 160.272C56.0682 159.803 55.7855 159.419 55.4015 159.12C55.0282 158.811 54.5588 158.656 53.9935 158.656ZM63.6106 166.16C62.736 166.16 62.0746 165.936 61.6266 165.488C61.1893 165.04 60.9706 164.411 60.9706 163.6V158.768H59.4506V157.52H60.9706V155.392H62.4906V157.52H64.5546V158.768H62.4906V163.6C62.4906 164.027 62.608 164.341 62.8426 164.544C63.0773 164.736 63.4186 164.832 63.8666 164.832C64.1013 164.832 64.3253 164.816 64.5386 164.784C64.752 164.752 64.8586 164.736 64.8586 164.736V166.032C64.8586 166.032 64.736 166.053 64.4906 166.096C64.2453 166.139 63.952 166.16 63.6106 166.16ZM67.8464 155.904C67.5584 155.904 67.3184 155.808 67.1264 155.616C66.945 155.424 66.8544 155.195 66.8544 154.928C66.8544 154.651 66.945 154.416 67.1264 154.224C67.3184 154.032 67.5584 153.936 67.8464 153.936C68.1237 153.936 68.3584 154.032 68.5504 154.224C68.7424 154.416 68.8384 154.651 68.8384 154.928C68.8384 155.195 68.7424 155.424 68.5504 155.616C68.3584 155.808 68.1237 155.904 67.8464 155.904ZM67.0944 166V157.52H68.6144V166H67.0944ZM73.7451 166L70.5131 157.52H72.0971L74.5771 164.144L77.0091 157.52H78.6091L75.3611 166H73.7451ZM81.2839 155.904C80.9959 155.904 80.7559 155.808 80.5639 155.616C80.3825 155.424 80.2919 155.195 80.2919 154.928C80.2919 154.651 80.3825 154.416 80.5639 154.224C80.7559 154.032 80.9959 153.936 81.2839 153.936C81.5612 153.936 81.7959 154.032 81.9879 154.224C82.1799 154.416 82.2759 154.651 82.2759 154.928C82.2759 155.195 82.1799 155.424 81.9879 155.616C81.7959 155.808 81.5612 155.904 81.2839 155.904ZM80.5319 166V157.52H82.0519V166H80.5319ZM88.1106 166.16C87.236 166.16 86.5746 165.936 86.1266 165.488C85.6893 165.04 85.4706 164.411 85.4706 163.6V158.768H83.9506V157.52H85.4706V155.392H86.9906V157.52H89.0546V158.768H86.9906V163.6C86.9906 164.027 87.108 164.341 87.3426 164.544C87.5773 164.736 87.9186 164.832 88.3666 164.832C88.6013 164.832 88.8253 164.816 89.0386 164.784C89.252 164.752 89.3586 164.736 89.3586 164.736V166.032C89.3586 166.032 89.236 166.053 88.9906 166.096C88.7453 166.139 88.452 166.16 88.1106 166.16ZM91.5181 169.12C91.2728 169.12 91.0648 169.109 90.8941 169.088C90.7235 169.067 90.6381 169.056 90.6381 169.056V167.76C90.6381 167.76 90.7235 167.765 90.8941 167.776C91.0755 167.797 91.2675 167.808 91.4701 167.808C92.0995 167.808 92.6115 167.675 93.0061 167.408C93.4115 167.152 93.7528 166.725 94.0301 166.128L90.7501 157.52H92.3341L94.7821 164.144L97.2461 157.52H98.8461L95.5661 166.016C95.1501 167.083 94.6115 167.867 93.9501 168.368C93.2995 168.869 92.4888 169.12 91.5181 169.12ZM100.654 167.968L101.806 166.112C101.55 166.091 101.332 165.984 101.15 165.792C100.98 165.6 100.894 165.365 100.894 165.088C100.894 164.779 101.001 164.533 101.214 164.352C101.428 164.171 101.668 164.08 101.934 164.08C102.233 164.08 102.484 164.171 102.686 164.352C102.9 164.533 103.006 164.789 103.006 165.12C103.006 165.419 102.889 165.76 102.654 166.144C102.43 166.528 102.068 167.083 101.566 167.808L101.454 167.968H100.654ZM113.074 166.16C112.38 166.16 111.772 166.037 111.25 165.792C110.727 165.536 110.29 165.2 109.938 164.784C109.596 164.357 109.335 163.883 109.154 163.36C108.983 162.837 108.898 162.304 108.898 161.76C108.898 161.216 108.983 160.688 109.154 160.176C109.324 159.653 109.58 159.179 109.922 158.752C110.274 158.325 110.711 157.989 111.234 157.744C111.756 157.488 112.37 157.36 113.074 157.36C113.756 157.36 114.322 157.461 114.77 157.664C115.218 157.867 115.575 158.123 115.842 158.432C116.119 158.731 116.322 159.035 116.45 159.344C116.588 159.643 116.679 159.893 116.722 160.096C116.764 160.299 116.786 160.4 116.786 160.4H115.314C115.314 160.4 115.287 160.315 115.234 160.144C115.18 159.963 115.079 159.76 114.93 159.536C114.78 159.312 114.556 159.115 114.258 158.944C113.959 158.763 113.564 158.672 113.074 158.672C112.487 158.672 111.991 158.821 111.586 159.12C111.191 159.408 110.892 159.787 110.69 160.256C110.498 160.725 110.402 161.227 110.402 161.76C110.402 162.293 110.498 162.795 110.69 163.264C110.892 163.733 111.191 164.117 111.586 164.416C111.991 164.704 112.487 164.848 113.074 164.848C113.564 164.848 113.959 164.763 114.258 164.592C114.556 164.411 114.78 164.208 114.93 163.984C115.079 163.76 115.18 163.563 115.234 163.392C115.287 163.211 115.314 163.12 115.314 163.12H116.786C116.786 163.12 116.764 163.221 116.722 163.424C116.679 163.627 116.588 163.883 116.45 164.192C116.322 164.491 116.119 164.795 115.842 165.104C115.575 165.403 115.218 165.653 114.77 165.856C114.322 166.059 113.756 166.16 113.074 166.16ZM122.886 166.16C121.979 166.16 121.217 165.952 120.598 165.536C119.979 165.109 119.51 164.56 119.19 163.888C118.87 163.216 118.71 162.507 118.71 161.76C118.71 161.003 118.87 160.293 119.19 159.632C119.51 158.96 119.979 158.416 120.598 158C121.217 157.573 121.979 157.36 122.886 157.36C123.793 157.36 124.555 157.573 125.174 158C125.793 158.416 126.262 158.96 126.582 159.632C126.902 160.293 127.062 161.003 127.062 161.76C127.062 162.507 126.902 163.216 126.582 163.888C126.262 164.56 125.793 165.109 125.174 165.536C124.555 165.952 123.793 166.16 122.886 166.16ZM122.886 164.832C123.462 164.832 123.942 164.688 124.326 164.4C124.721 164.101 125.014 163.717 125.206 163.248C125.409 162.779 125.51 162.283 125.51 161.76C125.51 161.227 125.409 160.731 125.206 160.272C125.014 159.803 124.721 159.424 124.326 159.136C123.942 158.837 123.462 158.688 122.886 158.688C122.321 158.688 121.841 158.837 121.446 159.136C121.051 159.424 120.753 159.803 120.55 160.272C120.358 160.731 120.262 161.227 120.262 161.76C120.262 162.283 120.358 162.779 120.55 163.248C120.753 163.717 121.051 164.101 121.446 164.4C121.841 164.688 122.321 164.832 122.886 164.832ZM129.296 166L129.312 153.84H130.816V166H129.296ZM133.374 166L133.39 153.84H134.894V166H133.374ZM140.972 157.36C141.505 157.36 141.953 157.445 142.316 157.616C142.679 157.787 142.972 157.989 143.196 158.224C143.42 158.448 143.591 158.661 143.708 158.864H143.804V157.52H145.324V166H143.804V164.656H143.708C143.591 164.859 143.42 165.077 143.196 165.312C142.972 165.547 142.679 165.749 142.316 165.92C141.953 166.08 141.505 166.16 140.972 166.16C140.332 166.16 139.772 166.037 139.292 165.792C138.812 165.536 138.412 165.2 138.092 164.784C137.772 164.357 137.532 163.883 137.372 163.36C137.212 162.837 137.132 162.304 137.132 161.76C137.132 161.216 137.212 160.683 137.372 160.16C137.532 159.637 137.772 159.168 138.092 158.752C138.412 158.325 138.812 157.989 139.292 157.744C139.772 157.488 140.332 157.36 140.972 157.36ZM141.228 158.656C140.663 158.656 140.188 158.811 139.804 159.12C139.42 159.419 139.132 159.803 138.94 160.272C138.759 160.741 138.668 161.237 138.668 161.76C138.668 162.272 138.759 162.768 138.94 163.248C139.132 163.717 139.42 164.107 139.804 164.416C140.188 164.715 140.663 164.864 141.228 164.864C141.793 164.864 142.263 164.715 142.636 164.416C143.02 164.107 143.303 163.717 143.484 163.248C143.676 162.768 143.772 162.272 143.772 161.76C143.772 161.237 143.676 160.741 143.484 160.272C143.303 159.803 143.02 159.419 142.636 159.12C142.263 158.811 141.793 158.656 141.228 158.656ZM152.07 166.16C151.536 166.16 151.088 166.075 150.726 165.904C150.363 165.733 150.07 165.531 149.846 165.296C149.632 165.061 149.462 164.848 149.334 164.656H149.238V166H147.718V153.84H149.238V158.864H149.334C149.462 158.661 149.632 158.443 149.846 158.208C150.07 157.973 150.363 157.776 150.726 157.616C151.088 157.445 151.536 157.36 152.07 157.36C152.71 157.36 153.27 157.488 153.75 157.744C154.23 157.989 154.63 158.325 154.95 158.752C155.27 159.168 155.51 159.637 155.67 160.16C155.83 160.683 155.91 161.216 155.91 161.76C155.91 162.304 155.83 162.837 155.67 163.36C155.51 163.883 155.27 164.357 154.95 164.784C154.63 165.2 154.23 165.536 153.75 165.792C153.27 166.037 152.71 166.16 152.07 166.16ZM151.814 164.864C152.39 164.864 152.864 164.715 153.238 164.416C153.622 164.107 153.904 163.717 154.086 163.248C154.278 162.768 154.374 162.272 154.374 161.76C154.374 161.237 154.278 160.741 154.086 160.272C153.904 159.803 153.622 159.419 153.238 159.12C152.864 158.811 152.39 158.656 151.814 158.656C151.248 158.656 150.774 158.811 150.39 159.12C150.016 159.419 149.734 159.803 149.542 160.272C149.36 160.741 149.27 161.237 149.27 161.76C149.27 162.272 149.36 162.768 149.542 163.248C149.734 163.717 150.016 164.107 150.39 164.416C150.774 164.715 151.248 164.864 151.814 164.864ZM161.933 166.16C161.026 166.16 160.264 165.952 159.645 165.536C159.026 165.109 158.557 164.56 158.237 163.888C157.917 163.216 157.757 162.507 157.757 161.76C157.757 161.003 157.917 160.293 158.237 159.632C158.557 158.96 159.026 158.416 159.645 158C160.264 157.573 161.026 157.36 161.933 157.36C162.84 157.36 163.602 157.573 164.221 158C164.84 158.416 165.309 158.96 165.629 159.632C165.949 160.293 166.109 161.003 166.109 161.76C166.109 162.507 165.949 163.216 165.629 163.888C165.309 164.56 164.84 165.109 164.221 165.536C163.602 165.952 162.84 166.16 161.933 166.16ZM161.933 164.832C162.509 164.832 162.989 164.688 163.373 164.4C163.768 164.101 164.061 163.717 164.253 163.248C164.456 162.779 164.557 162.283 164.557 161.76C164.557 161.227 164.456 160.731 164.253 160.272C164.061 159.803 163.768 159.424 163.373 159.136C162.989 158.837 162.509 158.688 161.933 158.688C161.368 158.688 160.888 158.837 160.493 159.136C160.098 159.424 159.8 159.803 159.597 160.272C159.405 160.731 159.309 161.227 159.309 161.76C159.309 162.283 159.405 162.779 159.597 163.248C159.8 163.717 160.098 164.101 160.493 164.4C160.888 164.688 161.368 164.832 161.933 164.832ZM168.183 166V157.52H169.703V158.576H169.767C169.948 158.256 170.215 157.973 170.567 157.728C170.919 157.483 171.415 157.36 172.055 157.36C172.236 157.36 172.401 157.371 172.551 157.392C172.7 157.403 172.775 157.408 172.775 157.408V158.864C172.775 158.864 172.689 158.859 172.519 158.848C172.359 158.827 172.188 158.816 172.007 158.816C171.271 158.816 170.7 159.029 170.295 159.456C169.9 159.872 169.703 160.555 169.703 161.504V166H168.183ZM177.488 157.36C178.021 157.36 178.469 157.445 178.832 157.616C179.194 157.787 179.488 157.989 179.712 158.224C179.936 158.448 180.106 158.661 180.224 158.864H180.32V157.52H181.84V166H180.32V164.656H180.224C180.106 164.859 179.936 165.077 179.712 165.312C179.488 165.547 179.194 165.749 178.832 165.92C178.469 166.08 178.021 166.16 177.488 166.16C176.848 166.16 176.288 166.037 175.808 165.792C175.328 165.536 174.928 165.2 174.608 164.784C174.288 164.357 174.048 163.883 173.888 163.36C173.728 162.837 173.648 162.304 173.648 161.76C173.648 161.216 173.728 160.683 173.888 160.16C174.048 159.637 174.288 159.168 174.608 158.752C174.928 158.325 175.328 157.989 175.808 157.744C176.288 157.488 176.848 157.36 177.488 157.36ZM177.744 158.656C177.178 158.656 176.704 158.811 176.32 159.12C175.936 159.419 175.648 159.803 175.456 160.272C175.274 160.741 175.184 161.237 175.184 161.76C175.184 162.272 175.274 162.768 175.456 163.248C175.648 163.717 175.936 164.107 176.32 164.416C176.704 164.715 177.178 164.864 177.744 164.864C178.309 164.864 178.778 164.715 179.152 164.416C179.536 164.107 179.818 163.717 180 163.248C180.192 162.768 180.288 162.272 180.288 161.76C180.288 161.237 180.192 160.741 180 160.272C179.818 159.803 179.536 159.419 179.152 159.12C178.778 158.811 178.309 158.656 177.744 158.656ZM187.361 166.16C186.486 166.16 185.825 165.936 185.377 165.488C184.939 165.04 184.721 164.411 184.721 163.6V158.768H183.201V157.52H184.721V155.392H186.241V157.52H188.305V158.768H186.241V163.6C186.241 164.027 186.358 164.341 186.593 164.544C186.827 164.736 187.169 164.832 187.617 164.832C187.851 164.832 188.075 164.816 188.289 164.784C188.502 164.752 188.609 164.736 188.609 164.736V166.032C188.609 166.032 188.486 166.053 188.241 166.096C187.995 166.139 187.702 166.16 187.361 166.16ZM191.596 155.904C191.308 155.904 191.068 155.808 190.876 155.616C190.695 155.424 190.604 155.195 190.604 154.928C190.604 154.651 190.695 154.416 190.876 154.224C191.068 154.032 191.308 153.936 191.596 153.936C191.874 153.936 192.108 154.032 192.3 154.224C192.492 154.416 192.588 154.651 192.588 154.928C192.588 155.195 192.492 155.424 192.3 155.616C192.108 155.808 191.874 155.904 191.596 155.904ZM190.844 166V157.52H192.364V166H190.844ZM198.839 166.16C197.932 166.16 197.17 165.952 196.551 165.536C195.932 165.109 195.463 164.56 195.143 163.888C194.823 163.216 194.663 162.507 194.663 161.76C194.663 161.003 194.823 160.293 195.143 159.632C195.463 158.96 195.932 158.416 196.551 158C197.17 157.573 197.932 157.36 198.839 157.36C199.746 157.36 200.508 157.573 201.127 158C201.746 158.416 202.215 158.96 202.535 159.632C202.855 160.293 203.015 161.003 203.015 161.76C203.015 162.507 202.855 163.216 202.535 163.888C202.215 164.56 201.746 165.109 201.127 165.536C200.508 165.952 199.746 166.16 198.839 166.16ZM198.839 164.832C199.415 164.832 199.895 164.688 200.279 164.4C200.674 164.101 200.967 163.717 201.159 163.248C201.362 162.779 201.463 162.283 201.463 161.76C201.463 161.227 201.362 160.731 201.159 160.272C200.967 159.803 200.674 159.424 200.279 159.136C199.895 158.837 199.415 158.688 198.839 158.688C198.274 158.688 197.794 158.837 197.399 159.136C197.004 159.424 196.706 159.803 196.503 160.272C196.311 160.731 196.215 161.227 196.215 161.76C196.215 162.283 196.311 162.779 196.503 163.248C196.706 163.717 197.004 164.101 197.399 164.4C197.794 164.688 198.274 164.832 198.839 164.832ZM205.089 166V157.52H206.609V158.752H206.705C206.779 158.624 206.902 158.448 207.073 158.224C207.254 158 207.51 157.803 207.841 157.632C208.171 157.451 208.587 157.36 209.089 157.36C209.707 157.36 210.235 157.504 210.673 157.792C211.11 158.069 211.441 158.448 211.665 158.928C211.899 159.408 212.017 159.947 212.017 160.544V166H210.497V160.64C210.497 160.075 210.337 159.605 210.017 159.232C209.707 158.859 209.254 158.672 208.657 158.672C208.177 158.672 207.787 158.795 207.489 159.04C207.19 159.275 206.966 159.589 206.817 159.984C206.678 160.368 206.609 160.779 206.609 161.216V166H205.089ZM214.389 167.968L215.541 166.112C215.285 166.091 215.066 165.984 214.885 165.792C214.714 165.6 214.629 165.365 214.629 165.088C214.629 164.779 214.735 164.533 214.949 164.352C215.162 164.171 215.402 164.08 215.669 164.08C215.967 164.08 216.218 164.171 216.421 164.352C216.634 164.533 216.741 164.789 216.741 165.12C216.741 165.419 216.623 165.76 216.389 166.144C216.165 166.528 215.802 167.083 215.301 167.808L215.189 167.968H214.389ZM226.472 157.36C227.005 157.36 227.453 157.445 227.816 157.616C228.179 157.787 228.472 157.989 228.696 158.224C228.92 158.448 229.091 158.661 229.208 158.864H229.304V157.52H230.824V166H229.304V164.656H229.208C229.091 164.859 228.92 165.077 228.696 165.312C228.472 165.547 228.179 165.749 227.816 165.92C227.453 166.08 227.005 166.16 226.472 166.16C225.832 166.16 225.272 166.037 224.792 165.792C224.312 165.536 223.912 165.2 223.592 164.784C223.272 164.357 223.032 163.883 222.872 163.36C222.712 162.837 222.632 162.304 222.632 161.76C222.632 161.216 222.712 160.683 222.872 160.16C223.032 159.637 223.272 159.168 223.592 158.752C223.912 158.325 224.312 157.989 224.792 157.744C225.272 157.488 225.832 157.36 226.472 157.36ZM226.728 158.656C226.163 158.656 225.688 158.811 225.304 159.12C224.92 159.419 224.632 159.803 224.44 160.272C224.259 160.741 224.168 161.237 224.168 161.76C224.168 162.272 224.259 162.768 224.44 163.248C224.632 163.717 224.92 164.107 225.304 164.416C225.688 164.715 226.163 164.864 226.728 164.864C227.293 164.864 227.763 164.715 228.136 164.416C228.52 164.107 228.803 163.717 228.984 163.248C229.176 162.768 229.272 162.272 229.272 161.76C229.272 161.237 229.176 160.741 228.984 160.272C228.803 159.803 228.52 159.419 228.136 159.12C227.763 158.811 227.293 158.656 226.728 158.656ZM233.058 166V157.52H234.578V158.752H234.674C234.748 158.624 234.871 158.448 235.042 158.224C235.223 158 235.479 157.803 235.81 157.632C236.14 157.451 236.556 157.36 237.058 157.36C237.676 157.36 238.204 157.504 238.642 157.792C239.079 158.069 239.41 158.448 239.634 158.928C239.868 159.408 239.986 159.947 239.986 160.544V166H238.466V160.64C238.466 160.075 238.306 159.605 237.986 159.232C237.676 158.859 237.223 158.672 236.626 158.672C236.146 158.672 235.756 158.795 235.458 159.04C235.159 159.275 234.935 159.589 234.786 159.984C234.647 160.368 234.578 160.779 234.578 161.216V166H233.058ZM245.909 166.16C245.269 166.16 244.709 166.037 244.229 165.792C243.749 165.536 243.349 165.2 243.029 164.784C242.709 164.357 242.469 163.883 242.309 163.36C242.149 162.837 242.069 162.304 242.069 161.76C242.069 161.216 242.149 160.683 242.309 160.16C242.469 159.637 242.709 159.168 243.029 158.752C243.349 158.325 243.749 157.989 244.229 157.744C244.709 157.488 245.269 157.36 245.909 157.36C246.443 157.36 246.891 157.445 247.253 157.616C247.616 157.787 247.909 157.989 248.133 158.224C248.357 158.448 248.528 158.661 248.645 158.864H248.741V153.84H250.261V166H248.741V164.656H248.645C248.528 164.859 248.357 165.077 248.133 165.312C247.909 165.547 247.616 165.749 247.253 165.92C246.891 166.08 246.443 166.16 245.909 166.16ZM246.165 164.864C246.731 164.864 247.2 164.715 247.573 164.416C247.957 164.107 248.24 163.717 248.421 163.248C248.613 162.768 248.709 162.272 248.709 161.76C248.709 161.237 248.613 160.741 248.421 160.272C248.24 159.803 247.957 159.419 247.573 159.12C247.2 158.811 246.731 158.656 246.165 158.656C245.6 158.656 245.125 158.811 244.741 159.12C244.357 159.419 244.069 159.803 243.877 160.272C243.696 160.741 243.605 161.237 243.605 161.76C243.605 162.272 243.696 162.768 243.877 163.248C244.069 163.717 244.357 164.107 244.741 164.416C245.125 164.715 245.6 164.864 246.165 164.864ZM257.346 155.904C257.058 155.904 256.818 155.808 256.626 155.616C256.445 155.424 256.354 155.195 256.354 154.928C256.354 154.651 256.445 154.416 256.626 154.224C256.818 154.032 257.058 153.936 257.346 153.936C257.624 153.936 257.858 154.032 258.05 154.224C258.242 154.416 258.338 154.651 258.338 154.928C258.338 155.195 258.242 155.424 258.05 155.616C257.858 155.808 257.624 155.904 257.346 155.904ZM256.594 166V157.52H258.114V166H256.594ZM260.573 166V157.52H262.093V158.752H262.189C262.264 158.624 262.386 158.448 262.557 158.224C262.738 158 262.994 157.803 263.325 157.632C263.656 157.451 264.072 157.36 264.573 157.36C265.192 157.36 265.72 157.504 266.157 157.792C266.594 158.069 266.925 158.448 267.149 158.928C267.384 159.408 267.501 159.947 267.501 160.544V166H265.981V160.64C265.981 160.075 265.821 159.605 265.501 159.232C265.192 158.859 264.738 158.672 264.141 158.672C263.661 158.672 263.272 158.795 262.973 159.04C262.674 159.275 262.45 159.589 262.301 159.984C262.162 160.368 262.093 160.779 262.093 161.216V166H260.573ZM269.745 166V157.52H271.265V158.752H271.361C271.436 158.624 271.558 158.448 271.729 158.224C271.91 158 272.166 157.803 272.497 157.632C272.828 157.451 273.244 157.36 273.745 157.36C274.364 157.36 274.892 157.504 275.329 157.792C275.766 158.069 276.097 158.448 276.321 158.928C276.556 159.408 276.673 159.947 276.673 160.544V166H275.153V160.64C275.153 160.075 274.993 159.605 274.673 159.232C274.364 158.859 273.91 158.672 273.313 158.672C272.833 158.672 272.444 158.795 272.145 159.04C271.846 159.275 271.622 159.589 271.473 159.984C271.334 160.368 271.265 160.779 271.265 161.216V166H269.745ZM282.933 166.16C282.026 166.16 281.264 165.952 280.645 165.536C280.026 165.109 279.557 164.56 279.237 163.888C278.917 163.216 278.757 162.507 278.757 161.76C278.757 161.003 278.917 160.293 279.237 159.632C279.557 158.96 280.026 158.416 280.645 158C281.264 157.573 282.026 157.36 282.933 157.36C283.84 157.36 284.602 157.573 285.221 158C285.84 158.416 286.309 158.96 286.629 159.632C286.949 160.293 287.109 161.003 287.109 161.76C287.109 162.507 286.949 163.216 286.629 163.888C286.309 164.56 285.84 165.109 285.221 165.536C284.602 165.952 283.84 166.16 282.933 166.16ZM282.933 164.832C283.509 164.832 283.989 164.688 284.373 164.4C284.768 164.101 285.061 163.717 285.253 163.248C285.456 162.779 285.557 162.283 285.557 161.76C285.557 161.227 285.456 160.731 285.253 160.272C285.061 159.803 284.768 159.424 284.373 159.136C283.989 158.837 283.509 158.688 282.933 158.688C282.368 158.688 281.888 158.837 281.493 159.136C281.098 159.424 280.8 159.803 280.597 160.272C280.405 160.731 280.309 161.227 280.309 161.76C280.309 162.283 280.405 162.779 280.597 163.248C280.8 163.717 281.098 164.101 281.493 164.4C281.888 164.688 282.368 164.832 282.933 164.832ZM291.542 166L288.31 157.52H289.894L292.374 164.144L294.806 157.52H296.406L293.158 166H291.542ZM301.456 157.36C301.99 157.36 302.438 157.445 302.8 157.616C303.163 157.787 303.456 157.989 303.68 158.224C303.904 158.448 304.075 158.661 304.192 158.864H304.288V157.52H305.808V166H304.288V164.656H304.192C304.075 164.859 303.904 165.077 303.68 165.312C303.456 165.547 303.163 165.749 302.8 165.92C302.438 166.08 301.99 166.16 301.456 166.16C300.816 166.16 300.256 166.037 299.776 165.792C299.296 165.536 298.896 165.2 298.576 164.784C298.256 164.357 298.016 163.883 297.856 163.36C297.696 162.837 297.616 162.304 297.616 161.76C297.616 161.216 297.696 160.683 297.856 160.16C298.016 159.637 298.256 159.168 298.576 158.752C298.896 158.325 299.296 157.989 299.776 157.744C300.256 157.488 300.816 157.36 301.456 157.36ZM301.712 158.656C301.147 158.656 300.672 158.811 300.288 159.12C299.904 159.419 299.616 159.803 299.424 160.272C299.243 160.741 299.152 161.237 299.152 161.76C299.152 162.272 299.243 162.768 299.424 163.248C299.616 163.717 299.904 164.107 300.288 164.416C300.672 164.715 301.147 164.864 301.712 164.864C302.278 164.864 302.747 164.715 303.12 164.416C303.504 164.107 303.787 163.717 303.968 163.248C304.16 162.768 304.256 162.272 304.256 161.76C304.256 161.237 304.16 160.741 303.968 160.272C303.787 159.803 303.504 159.419 303.12 159.12C302.747 158.811 302.278 158.656 301.712 158.656ZM311.329 166.16C310.455 166.16 309.793 165.936 309.345 165.488C308.908 165.04 308.689 164.411 308.689 163.6V158.768H307.169V157.52H308.689V155.392H310.209V157.52H312.273V158.768H310.209V163.6C310.209 164.027 310.327 164.341 310.561 164.544C310.796 164.736 311.137 164.832 311.585 164.832C311.82 164.832 312.044 164.816 312.257 164.784C312.471 164.752 312.577 164.736 312.577 164.736V166.032C312.577 166.032 312.455 166.053 312.209 166.096C311.964 166.139 311.671 166.16 311.329 166.16ZM315.565 155.904C315.277 155.904 315.037 155.808 314.845 155.616C314.664 155.424 314.573 155.195 314.573 154.928C314.573 154.651 314.664 154.416 314.845 154.224C315.037 154.032 315.277 153.936 315.565 153.936C315.842 153.936 316.077 154.032 316.269 154.224C316.461 154.416 316.557 154.651 316.557 154.928C316.557 155.195 316.461 155.424 316.269 155.616C316.077 155.808 315.842 155.904 315.565 155.904ZM314.813 166V157.52H316.333V166H314.813ZM322.808 166.16C321.901 166.16 321.139 165.952 320.52 165.536C319.901 165.109 319.432 164.56 319.112 163.888C318.792 163.216 318.632 162.507 318.632 161.76C318.632 161.003 318.792 160.293 319.112 159.632C319.432 158.96 319.901 158.416 320.52 158C321.139 157.573 321.901 157.36 322.808 157.36C323.715 157.36 324.477 157.573 325.096 158C325.715 158.416 326.184 158.96 326.504 159.632C326.824 160.293 326.984 161.003 326.984 161.76C326.984 162.507 326.824 163.216 326.504 163.888C326.184 164.56 325.715 165.109 325.096 165.536C324.477 165.952 323.715 166.16 322.808 166.16ZM322.808 164.832C323.384 164.832 323.864 164.688 324.248 164.4C324.643 164.101 324.936 163.717 325.128 163.248C325.331 162.779 325.432 162.283 325.432 161.76C325.432 161.227 325.331 160.731 325.128 160.272C324.936 159.803 324.643 159.424 324.248 159.136C323.864 158.837 323.384 158.688 322.808 158.688C322.243 158.688 321.763 158.837 321.368 159.136C320.973 159.424 320.675 159.803 320.472 160.272C320.28 160.731 320.184 161.227 320.184 161.76C320.184 162.283 320.28 162.779 320.472 163.248C320.675 163.717 320.973 164.101 321.368 164.4C321.763 164.688 322.243 164.832 322.808 164.832ZM329.058 166V157.52H330.578V158.752H330.674C330.748 158.624 330.871 158.448 331.042 158.224C331.223 158 331.479 157.803 331.81 157.632C332.14 157.451 332.556 157.36 333.058 157.36C333.676 157.36 334.204 157.504 334.642 157.792C335.079 158.069 335.41 158.448 335.634 158.928C335.868 159.408 335.986 159.947 335.986 160.544V166H334.466V160.64C334.466 160.075 334.306 159.605 333.986 159.232C333.676 158.859 333.223 158.672 332.626 158.672C332.146 158.672 331.756 158.795 331.458 159.04C331.159 159.275 330.935 159.589 330.786 159.984C330.647 160.368 330.578 160.779 330.578 161.216V166H329.058ZM28.72 190.16C27.8453 190.16 27.184 189.936 26.736 189.488C26.2987 189.04 26.08 188.411 26.08 187.6V182.768H24.56V181.52H26.08V179.392H27.6V181.52H29.664V182.768H27.6V187.6C27.6 188.027 27.7173 188.341 27.952 188.544C28.1867 188.736 28.528 188.832 28.976 188.832C29.2107 188.832 29.4347 188.816 29.648 188.784C29.8613 188.752 29.968 188.736 29.968 188.736V190.032C29.968 190.032 29.8453 190.053 29.6 190.096C29.3547 190.139 29.0613 190.16 28.72 190.16ZM32.1238 190V177.84H33.6438V182.752H33.7398C33.8144 182.624 33.9371 182.448 34.1078 182.224C34.2891 182 34.5451 181.803 34.8758 181.632C35.2064 181.451 35.6224 181.36 36.1238 181.36C36.7424 181.36 37.2704 181.504 37.7078 181.792C38.1451 182.069 38.4758 182.448 38.6998 182.928C38.9344 183.408 39.0518 183.947 39.0518 184.544V190H37.5318V184.64C37.5318 184.075 37.3718 183.605 37.0518 183.232C36.7424 182.859 36.2891 182.672 35.6918 182.672C35.2118 182.672 34.8224 182.795 34.5238 183.04C34.2251 183.275 34.0011 183.589 33.8518 183.984C33.7131 184.368 33.6438 184.779 33.6438 185.216V190H32.1238ZM41.2919 190V181.52H42.8119V182.576H42.8759C43.0572 182.256 43.3239 181.973 43.6759 181.728C44.0279 181.483 44.5239 181.36 45.1639 181.36C45.3452 181.36 45.5105 181.371 45.6599 181.392C45.8092 181.403 45.8839 181.408 45.8839 181.408V182.864C45.8839 182.864 45.7985 182.859 45.6279 182.848C45.4679 182.827 45.2972 182.816 45.1159 182.816C44.3799 182.816 43.8092 183.029 43.4039 183.456C43.0092 183.872 42.8119 184.555 42.8119 185.504V190H41.2919ZM48.862 179.904C48.574 179.904 48.334 179.808 48.142 179.616C47.9607 179.424 47.87 179.195 47.87 178.928C47.87 178.651 47.9607 178.416 48.142 178.224C48.334 178.032 48.574 177.936 48.862 177.936C49.1393 177.936 49.374 178.032 49.566 178.224C49.758 178.416 49.854 178.651 49.854 178.928C49.854 179.195 49.758 179.424 49.566 179.616C49.374 179.808 49.1393 179.904 48.862 179.904ZM48.11 190V181.52H49.63V190H48.11ZM54.7608 190L51.5288 181.52H53.1128L55.5928 188.144L58.0248 181.52H59.6248L56.3768 190H54.7608ZM64.851 190.16C64.1577 190.16 63.555 190.037 63.043 189.792C62.5417 189.536 62.1257 189.195 61.795 188.768C61.475 188.341 61.235 187.872 61.075 187.36C60.915 186.837 60.835 186.304 60.835 185.76C60.835 185.227 60.9097 184.699 61.059 184.176C61.219 183.653 61.459 183.179 61.779 182.752C62.1097 182.325 62.5203 181.989 63.011 181.744C63.5123 181.488 64.1043 181.36 64.787 181.36C65.5123 181.36 66.1523 181.525 66.707 181.856C67.2617 182.187 67.699 182.677 68.019 183.328C68.339 183.979 68.499 184.795 68.499 185.776V186.224H62.371C62.403 186.704 62.515 187.147 62.707 187.552C62.9097 187.947 63.1923 188.267 63.555 188.512C63.9177 188.747 64.3497 188.864 64.851 188.864C65.2883 188.864 65.6403 188.795 65.907 188.656C66.1843 188.507 66.403 188.336 66.563 188.144C66.723 187.952 66.8297 187.787 66.883 187.648C66.947 187.499 66.979 187.424 66.979 187.424H68.403C68.403 187.424 68.3763 187.52 68.323 187.712C68.2697 187.893 68.1737 188.117 68.035 188.384C67.8963 188.651 67.6937 188.923 67.427 189.2C67.1603 189.467 66.819 189.696 66.403 189.888C65.987 190.069 65.4697 190.16 64.851 190.16ZM62.387 185.04H67.011C66.9897 184.485 66.8723 184.037 66.659 183.696C66.4457 183.344 66.1737 183.083 65.843 182.912C65.5123 182.741 65.1603 182.656 64.787 182.656C64.115 182.656 63.5657 182.875 63.139 183.312C62.7123 183.739 62.4617 184.315 62.387 185.04ZM71.7411 190.16C71.4425 190.16 71.1918 190.059 70.9891 189.856C70.7971 189.643 70.7011 189.397 70.7011 189.12C70.7011 188.832 70.7971 188.587 70.9891 188.384C71.1918 188.181 71.4425 188.08 71.7411 188.08C72.0398 188.08 72.2851 188.181 72.4771 188.384C72.6798 188.587 72.7811 188.832 72.7811 189.12C72.7811 189.408 72.6798 189.653 72.4771 189.856C72.2851 190.059 72.0398 190.16 71.7411 190.16Z" fill="white" fill-opacity="0.72"/>
</svg>
