<svg width="120" height="120" viewBox="0 0 120 120" fill="none" xmlns="http://www.w3.org/2000/svg">
<path d="M0 50C0 44.4772 4.47716 40 10 40C15.5229 40 20 44.4772 20 50V60H0V50Z" fill="#F5E11A"/>
<path d="M100 60H120V70C120 75.5229 115.523 80 110 80C104.477 80 100 75.5229 100 70V60Z" fill="#F5E11A"/>
<path d="M40 10C40 4.47717 44.4772 0 50 0C55.5229 0 60 4.47716 60 10V60.0001H40V10Z" fill="#F5E11A"/>
<path d="M20 60H40V110C40 115.523 35.5229 120 30 120C24.4772 120 20 115.523 20 110V60Z" fill="#F5E11A"/>
<path d="M60 60H80V90C80 95.5229 75.5229 100 70 100C64.4772 100 60 95.5229 60 90V60Z" fill="#F5E11A"/>
<path d="M80 30C80 24.4772 84.4772 20 90 20C95.5229 20 100 24.4772 100 30V60H80V30Z" fill="#F5E11A"/>
</svg>
